<!-- Generated by readme-aura https://github.com/collectioneur/readme-aura -->
<svg width="800" height="320" viewBox="0 0 800 320" xmlns="http://www.w3.org/2000/svg"><clipPath id="satori_cp-id"><path x="0" y="0" width="800" height="320" d="M16,0 h768 a16,16 0 0 1 16,16 v288 a16,16 0 0 1 -16,16 h-768 a16,16 0 0 1 -16,-16 v-288 a16,16 0 0 1 16,-16"/></clipPath><mask id="satori_om-id"><rect x="0" y="0" width="800" height="320" fill="#fff"/></mask><path x="0" y="0" width="800" height="320" fill="#0e0e10" d="M16,0 h768 a16,16 0 0 1 16,16 v288 a16,16 0 0 1 -16,16 h-768 a16,16 0 0 1 -16,-16 v-288 a16,16 0 0 1 16,-16"/><clipPath id="satori_cp-id-0" clip-path="url(#satori_cp-id)"><rect x="0" y="0" width="800" height="320"/></clipPath><mask id="satori_om-id-0"><rect x="0" y="0" width="800" height="320" fill="#fff" mask="url(#satori_om-id)"/></mask><svg x="0" y="0" width="800" height="320" preserveAspectRatio="none" clip-path="url(#satori_cp-id-0)" mask="url(#satori_om-id-0)"><defs><radialGradient id="hg-terracotta" cx="50%" cy="50%" r="50%"><stop offset="0%" stop-color="rgba(217,105,83,0.45)"></stop><stop offset="100%" stop-color="rgba(217,105,83,0)"></stop></radialGradient><radialGradient id="hg-teal" cx="50%" cy="50%" r="50%"><stop offset="0%" stop-color="rgba(77,138,138,0.32)"></stop><stop offset="100%" stop-color="rgba(77,138,138,0)"></stop></radialGradient><radialGradient id="hg-warm" cx="50%" cy="50%" r="50%"><stop offset="0%" stop-color="rgba(252,232,216,0.10)"></stop><stop offset="100%" stop-color="rgba(252,232,216,0)"></stop></radialGradient></defs><ellipse id="h-o1" cx="700" cy="70" rx="240" ry="190" fill="url(#hg-terracotta)"></ellipse><ellipse id="h-o2" cx="80" cy="280" rx="220" ry="170" fill="url(#hg-teal)"></ellipse><ellipse id="h-o3" cx="500" cy="320" rx="180" ry="130" fill="url(#hg-warm)"></ellipse><circle id="h-r1" cx="660" cy="155" r="80" fill="none" stroke="rgba(255,255,255,0.6)" stroke-width="0.6"></circle><circle id="h-r2" cx="660" cy="155" r="135" fill="none" stroke="rgba(255,255,255,0.6)" stroke-width="0.6"></circle><circle id="h-r3" cx="660" cy="155" r="200" fill="none" stroke="rgba(255,255,255,0.6)" stroke-width="0.6"></circle><style>

@keyframes hero-orb-a { 0%, 100% { transform: translate(0, 0); opacity: 0.55; } 50% { transform: translate(22px, -18px); opacity: 0.85; } }
@keyframes hero-orb-b { 0%, 100% { transform: translate(0, 0); opacity: 0.4; } 50% { transform: translate(-18px, 14px); opacity: 0.65; } }
@keyframes hero-ring { 0%, 100% { opacity: 0.05; } 50% { opacity: 0.14; } }
@keyframes hero-cursor { 0%, 100% { opacity: 1; } 50% { opacity: 0; } }
#h-o1 { animation: hero-orb-a 10s ease-in-out infinite; }
#h-o2 { animation: hero-orb-b 12s ease-in-out infinite 1s; }
#h-o3 { animation: hero-orb-a 8s ease-in-out infinite 2.4s; }
#h-r1 { animation: hero-ring 9s ease-in-out infinite; }
#h-r2 { animation: hero-ring 9s ease-in-out infinite 2s; }
#h-r3 { animation: hero-ring 11s ease-in-out infinite 3.5s; }
#h-cursor { animation: hero-cursor 1.1s step-end infinite; }

</style>
</svg><mask id="satori_om-id-0-0"><rect x="0" y="0" width="0" height="320" fill="#fff" mask="url(#satori_om-id)"/></mask><mask id="satori_om-id-0-0-0"><rect x="0" y="0" width="0" height="320" fill="#fff" mask="url(#satori_om-id)"/></mask><mask id="satori_om-id-0-0-0-0"><rect x="0" y="0" width="0" height="320" fill="#fff" mask="url(#satori_om-id)"/></mask><mask id="satori_om-id-0-0-0-1"><rect x="0" y="0" width="0" height="320" fill="#fff" mask="url(#satori_om-id)"/></mask><mask id="satori_om-id-0-0-1"><rect x="0" y="0" width="0" height="320" fill="#fff" mask="url(#satori_om-id)"/></mask><mask id="satori_om-id-0-0-1-0"><rect x="0" y="0" width="0" height="320" fill="#fff" mask="url(#satori_om-id)"/></mask><mask id="satori_om-id-0-0-1-1"><rect x="0" y="0" width="0" height="320" fill="#fff" mask="url(#satori_om-id)"/></mask><mask id="satori_om-id-0-0-2"><rect x="0" y="0" width="0" height="320" fill="#fff" mask="url(#satori_om-id)"/></mask><mask id="satori_om-id-0-0-2-0"><rect x="0" y="0" width="0" height="320" fill="#fff" mask="url(#satori_om-id)"/></mask><mask id="satori_om-id-0-0-2-1"><rect x="0" y="0" width="0" height="320" fill="#fff" mask="url(#satori_om-id)"/></mask><mask id="satori_om-id-0-1"><rect x="0" y="0" width="0" height="320" fill="#fff" mask="url(#satori_om-id)"/></mask><mask id="satori_om-id-0-2"><rect x="0" y="0" width="0" height="320" fill="#fff" mask="url(#satori_om-id)"/></mask><mask id="satori_om-id-0-3"><rect x="0" y="0" width="0" height="320" fill="#fff" mask="url(#satori_om-id)"/></mask><mask id="satori_om-id-0-4"><rect x="0" y="0" width="0" height="320" fill="#fff" mask="url(#satori_om-id)"/></mask><mask id="satori_om-id-0-5"><rect x="0" y="0" width="0" height="320" fill="#fff" mask="url(#satori_om-id)"/></mask><mask id="satori_om-id-0-6"><rect x="0" y="0" width="0" height="320" fill="#fff" mask="url(#satori_om-id)"/></mask><mask id="satori_om-id-1"><rect x="56" y="77" width="299" height="166" fill="#fff" mask="url(#satori_om-id)"/></mask><mask id="satori_om-id-1-0"><rect x="56" y="77" width="87" height="16" fill="#fff" mask="url(#satori_om-id)"/></mask><g mask="url(#satori_om-id)" clip-path="url(#satori_cp-id)"><path fill="rgba(255,255,255,0.38)" d="M58.3 90L57.1 90L57.1 80.5L58.9 80.5L61.2 86.5Q61.3 86.7 61.4 87.0Q61.5 87.3 61.6 87.7Q61.7 88.1 61.8 88.4L61.8 88.4Q61.9 88.6 61.9 88.7L61.9 88.7Q61.9 88.6 61.9 88.5L61.9 88.5Q62.0 88.1 62.2 87.7Q62.3 87.4 62.4 87.0Q62.5 86.7 62.6 86.5L62.6 86.5L64.9 80.5L66.6 80.5L66.6 90L65.4 90L65.4 84.6Q65.4 84.3 65.4 83.9Q65.4 83.6 65.4 83.1Q65.4 82.7 65.5 82.3L65.5 82.3Q65.5 82.1 65.5 81.8L65.5 81.8Q65.4 82.1 65.3 82.4L65.3 82.4Q65.1 82.8 65.0 83.2Q64.8 83.7 64.7 84.0Q64.6 84.4 64.5 84.6L64.5 84.6L62.4 90L61.3 90L59.2 84.6Q59.1 84.4 59.0 84.0Q58.9 83.7 58.7 83.3Q58.6 82.9 58.4 82.4L58.4 82.4Q58.3 82.1 58.2 81.8L58.2 81.8Q58.3 82.0 58.3 82.2L58.3 82.2Q58.3 82.7 58.3 83.1Q58.3 83.5 58.3 83.9Q58.3 84.3 58.3 84.6L58.3 84.6L58.3 90ZM72.9 80.5L74.1 80.5L74.1 90L72.9 90L72.9 80.5ZM83.4 90.2L83.4 90.2Q82.4 90.2 81.6 89.8Q80.9 89.5 80.5 88.9Q80.0 88.3 80.0 87.5L80.0 87.5L81.2 87.5Q81.3 88.1 81.6 88.4Q81.9 88.7 82.4 88.9Q82.9 89.1 83.4 89.1L83.4 89.1Q84.0 89.1 84.6 88.9Q85.1 88.7 85.4 88.3Q85.7 87.9 85.7 87.4L85.7 87.4Q85.7 86.9 85.4 86.7Q85.2 86.4 84.7 86.2Q84.3 86.0 83.8 85.9L83.8 85.9L82.6 85.5Q81.5 85.2 80.9 84.6Q80.2 84.0 80.2 83.1L80.2 83.1Q80.2 82.3 80.7 81.7Q81.1 81.1 81.8 80.7Q82.6 80.4 83.5 80.4L83.5 80.4Q84.4 80.4 85.1 80.7Q85.9 81.1 86.3 81.6Q86.7 82.2 86.7 82.9L86.7 82.9L85.5 82.9Q85.4 82.2 84.9 81.9Q84.3 81.5 83.4 81.5L83.4 81.5Q82.8 81.5 82.4 81.7Q81.9 81.9 81.7 82.2Q81.4 82.6 81.4 83.0L81.4 83.0Q81.4 83.5 81.7 83.8Q82.0 84.1 82.4 84.3Q82.9 84.5 83.2 84.5L83.2 84.5L84.2 84.8Q84.5 84.9 85.0 85.1Q85.5 85.3 85.9 85.6Q86.3 85.9 86.6 86.3Q86.8 86.8 86.8 87.4L86.8 87.4Q86.8 88.2 86.4 88.8Q86.0 89.4 85.3 89.8Q84.5 90.2 83.4 90.2ZM95.7 90.2L95.7 90.2Q94.7 90.2 94.0 89.8Q93.2 89.5 92.8 88.9Q92.4 88.3 92.3 87.5L92.3 87.5L93.5 87.5Q93.6 88.1 93.9 88.4Q94.2 88.7 94.7 88.9Q95.2 89.1 95.7 89.1L95.7 89.1Q96.4 89.1 96.9 88.9Q97.4 88.7 97.7 88.3Q98.0 87.9 98.0 87.4L98.0 87.4Q98.0 86.9 97.7 86.7Q97.5 86.4 97.1 86.2Q96.6 86.0 96.1 85.9L96.1 85.9L95.0 85.5Q93.8 85.2 93.2 84.6Q92.6 84.0 92.6 83.1L92.6 83.1Q92.6 82.3 93.0 81.7Q93.4 81.1 94.2 80.7Q94.9 80.4 95.8 80.4L95.8 80.4Q96.8 80.4 97.5 80.7Q98.2 81.1 98.6 81.6Q99.0 82.2 99.1 82.9L99.1 82.9L97.9 82.9Q97.8 82.2 97.2 81.9Q96.6 81.5 95.8 81.5L95.8 81.5Q95.2 81.5 94.7 81.7Q94.3 81.9 94.0 82.2Q93.8 82.6 93.8 83.0L93.8 83.0Q93.8 83.5 94.1 83.8Q94.4 84.1 94.8 84.3Q95.2 84.5 95.6 84.5L95.6 84.5L96.5 84.8Q96.9 84.9 97.3 85.1Q97.8 85.3 98.2 85.6Q98.6 85.9 98.9 86.3Q99.2 86.8 99.2 87.4L99.2 87.4Q99.2 88.2 98.8 88.8Q98.4 89.4 97.6 89.8Q96.8 90.2 95.7 90.2ZM108.8 90.2L108.8 90.2Q107.6 90.2 106.8 89.7Q106.0 89.3 105.5 88.5Q105.1 87.8 105.1 86.8L105.1 86.8L105.1 80.5L106.3 80.5L106.3 86.7Q106.3 87.4 106.6 87.9Q106.9 88.4 107.4 88.7Q108.0 89.0 108.8 89.0L108.8 89.0Q109.5 89.0 110.1 88.7Q110.6 88.4 110.9 87.9Q111.2 87.4 111.2 86.7L111.2 86.7L111.2 80.5L112.4 80.5L112.4 86.8Q112.4 87.8 112.0 88.5Q111.5 89.3 110.7 89.7Q109.9 90.2 108.8 90.2ZM121.8 90.2L121.8 90.2Q120.7 90.2 120.0 89.8Q119.2 89.5 118.8 88.9Q118.4 88.3 118.3 87.5L118.3 87.5L119.6 87.5Q119.6 88.1 119.9 88.4Q120.2 88.7 120.7 88.9Q121.2 89.1 121.8 89.1L121.8 89.1Q122.4 89.1 122.9 88.9Q123.4 88.7 123.7 88.3Q124.0 87.9 124.0 87.4L124.0 87.4Q124.0 86.9 123.8 86.7Q123.5 86.4 123.1 86.2Q122.7 86.0 122.1 85.9L122.1 85.9L121.0 85.5Q119.9 85.2 119.2 84.6Q118.6 84.0 118.6 83.1L118.6 83.1Q118.6 82.3 119.0 81.7Q119.5 81.1 120.2 80.7Q120.9 80.4 121.8 80.4L121.8 80.4Q122.8 80.4 123.5 80.7Q124.2 81.1 124.6 81.6Q125.0 82.2 125.1 82.9L125.1 82.9L123.9 82.9Q123.8 82.2 123.2 81.9Q122.6 81.5 121.8 81.5L121.8 81.5Q121.2 81.5 120.7 81.7Q120.3 81.9 120.0 82.2Q119.8 82.6 119.8 83.0L119.8 83.0Q119.8 83.5 120.1 83.8Q120.4 84.1 120.8 84.3Q121.2 84.5 121.6 84.5L121.6 84.5L122.5 84.8Q122.9 84.9 123.4 85.1Q123.8 85.3 124.2 85.6Q124.7 85.9 124.9 86.3Q125.2 86.8 125.2 87.4L125.2 87.4Q125.2 88.2 124.8 88.8Q124.4 89.4 123.6 89.8Q122.9 90.2 121.8 90.2ZM132.3 90L131.1 90L131.1 80.5L132.3 80.5L132.3 83.8L132.3 85.5Q132.4 85.3 132.5 85.2L132.5 85.2Q132.9 84.8 133.2 84.4Q133.5 84.0 133.9 83.6L133.9 83.6L136.7 80.5L138.3 80.5L134.5 84.6L138.3 90L136.9 90L133.6 85.5L132.3 86.9L132.3 90Z "/></g><mask id="satori_om-id-1-1"><rect x="56" y="107" width="299" height="60" fill="#fff" mask="url(#satori_om-id)"/></mask><g mask="url(#satori_om-id)" clip-path="url(#satori_cp-id)"><path fill="#fafafa" d="M68.5 159L59.8 159L59.8 126.2L67.9 126.2L68.2 132.6Q68.9 130.8 69.9 129.5L69.9 129.5Q71.4 127.6 73.4 126.7Q75.4 125.7 77.6 125.7L77.6 125.7Q81.1 125.7 83.3 128.0L83.3 128.0Q85.0 129.8 86.0 133.1L86.0 133.1Q86.7 131.1 87.9 129.7L87.9 129.7Q89.5 127.7 91.8 126.7Q94.1 125.7 96.5 125.7L96.5 125.7Q99.6 125.7 101.9 127.1Q104.3 128.4 105.6 130.9Q107.0 133.3 107.0 136.9L107.0 136.9L107.0 159L98.2 159L98.2 138.6Q98.2 135.8 96.7 134.4Q95.2 133.1 93.0 133.1L93.0 133.1Q91.4 133.1 90.1 133.8Q88.9 134.5 88.3 135.8Q87.6 137.1 87.6 138.8L87.6 138.8L87.6 159L79.1 159L79.1 138.3Q79.1 135.9 77.7 134.5Q76.3 133.1 74.0 133.1L74.0 133.1Q72.5 133.1 71.2 133.8Q70.0 134.5 69.3 135.9Q68.5 137.2 68.5 139.2L68.5 139.2L68.5 159ZM121.1 159.6L121.1 159.6Q118.0 159.6 115.6 158.5Q113.1 157.4 111.7 155.3Q110.2 153.1 110.2 149.8L110.2 149.8Q110.2 147.1 111.3 145.3Q112.3 143.4 114.0 142.3Q115.8 141.2 118.0 140.6Q120.2 140.0 122.6 139.8L122.6 139.8Q125.5 139.5 127.2 139.2Q128.9 139.0 129.7 138.4Q130.6 137.9 130.6 136.9L130.6 136.9L130.6 136.7Q130.6 135.3 130.0 134.3Q129.4 133.4 128.2 132.9Q127.1 132.3 125.4 132.3L125.4 132.3Q123.7 132.3 122.5 132.9Q121.2 133.4 120.4 134.2Q119.6 135.1 119.2 136.1L119.2 136.1L111.2 134.8Q112.0 131.9 114.0 129.9Q116.0 127.9 118.9 126.9Q121.8 125.8 125.5 125.8L125.5 125.8Q128.1 125.8 130.6 126.5Q133.1 127.1 135.0 128.4Q137.0 129.7 138.2 131.9Q139.3 134.0 139.3 136.9L139.3 136.9L139.3 159L131.0 159L131.0 154.5L130.7 154.5Q129.9 156.0 128.6 157.1Q127.3 158.3 125.4 159.0Q123.6 159.6 121.1 159.6ZM123.6 153.5L123.6 153.5Q125.7 153.5 127.3 152.6Q128.9 151.8 129.7 150.4Q130.6 149.0 130.6 147.3L130.6 147.3L130.6 143.7Q130.2 144.0 129.4 144.3Q128.6 144.5 127.7 144.7Q126.7 144.8 125.8 145.0Q124.8 145.1 124.1 145.2L124.1 145.2Q122.5 145.5 121.3 146.0Q120.0 146.5 119.4 147.4Q118.7 148.2 118.7 149.6L118.7 149.6Q118.7 150.9 119.3 151.7Q120.0 152.6 121.1 153.0Q122.2 153.5 123.6 153.5ZM153.1 159L144.3 159L144.3 126.2L152.8 126.2L152.8 132.0L153.2 132.0Q154.1 128.9 156.2 127.4Q158.3 125.8 161.1 125.8L161.1 125.8Q161.8 125.8 162.6 125.9Q163.4 126.0 163.9 126.1L163.9 126.1L163.9 134.0Q163.4 133.7 162.2 133.6Q161.1 133.5 160.1 133.5L160.1 133.5Q158.1 133.5 156.5 134.4Q154.9 135.2 154.0 136.8Q153.1 138.3 153.1 140.4L153.1 140.4L153.1 159ZM175.1 159L166.3 159L166.3 126.2L175.1 126.2L175.1 159ZM170.7 122.0L170.7 122.0Q168.7 122.0 167.3 120.7Q165.9 119.3 165.9 117.5L165.9 117.5Q165.9 115.6 167.3 114.3Q168.7 112.9 170.7 112.9L170.7 112.9Q172.7 112.9 174.1 114.2Q175.5 115.6 175.5 117.5L175.5 117.5Q175.5 119.3 174.1 120.7Q172.7 122.0 170.7 122.0ZM189.2 159.6L189.2 159.6Q186.1 159.6 183.6 158.5Q181.1 157.4 179.7 155.3Q178.3 153.1 178.3 149.8L178.3 149.8Q178.3 147.1 179.3 145.3Q180.3 143.4 182.0 142.3Q183.8 141.2 186.0 140.6Q188.2 140.0 190.6 139.8L190.6 139.8Q193.5 139.5 195.2 139.2Q197.0 139.0 197.8 138.4Q198.6 137.9 198.6 136.9L198.6 136.9L198.6 136.7Q198.6 135.3 198.0 134.3Q197.4 133.4 196.2 132.9Q195.1 132.3 193.5 132.3L193.5 132.3Q191.8 132.3 190.5 132.9Q189.2 133.4 188.4 134.2Q187.7 135.1 187.3 136.1L187.3 136.1L179.2 134.8Q180.1 131.9 182.0 129.9Q184.0 127.9 186.9 126.9Q189.8 125.8 193.5 125.8L193.5 125.8Q196.1 125.8 198.6 126.5Q201.1 127.1 203.1 128.4Q205.1 129.7 206.2 131.9Q207.4 134.0 207.4 136.9L207.4 136.9L207.4 159L199.0 159L199.0 154.5L198.8 154.5Q198.0 156.0 196.6 157.1Q195.3 158.3 193.5 159.0Q191.6 159.6 189.2 159.6ZM191.7 153.5L191.7 153.5Q193.7 153.5 195.3 152.6Q196.9 151.8 197.8 150.4Q198.6 149.0 198.6 147.3L198.6 147.3L198.6 143.7Q198.3 144.0 197.5 144.3Q196.7 144.5 195.7 144.7Q194.7 144.8 193.8 145.0Q192.9 145.1 192.1 145.2L192.1 145.2Q190.5 145.5 189.3 146.0Q188.1 146.5 187.4 147.4Q186.7 148.2 186.7 149.6L186.7 149.6Q186.7 150.9 187.4 151.7Q188.0 152.6 189.1 153.0Q190.2 153.5 191.7 153.5Z M232.9 159L224.1 159L224.1 115.3L232.9 115.3L232.9 138.8L233.4 138.8L244.1 126.2L254.3 126.2L242.0 140.5L254.9 159L244.5 159L235.4 145.7L232.9 148.5L232.9 159ZM265.2 140.0L265.2 140.0L265.2 159L256.4 159L256.4 115.3L265.0 115.3L265.0 132.5Q266.2 129.8 268.2 128.1L268.2 128.1Q270.8 125.8 275.0 125.8L275.0 125.8Q278.4 125.8 280.9 127.3Q283.5 128.8 284.9 131.6Q286.3 134.3 286.3 138.2L286.3 138.2L286.3 159L277.4 159L277.4 139.7Q277.4 136.6 275.9 134.9Q274.3 133.2 271.5 133.2L271.5 133.2Q269.7 133.2 268.2 134.0Q266.8 134.8 266.0 136.3Q265.2 137.8 265.2 140.0ZM300.4 159.6L300.4 159.6Q297.3 159.6 294.8 158.5Q292.3 157.4 290.9 155.3Q289.5 153.1 289.5 149.8L289.5 149.8Q289.5 147.1 290.5 145.3Q291.5 143.4 293.2 142.3Q295.0 141.2 297.2 140.6Q299.4 140.0 301.8 139.8L301.8 139.8Q304.7 139.5 306.4 139.2Q308.2 139.0 309.0 138.4Q309.8 137.9 309.8 136.9L309.8 136.9L309.8 136.7Q309.8 135.3 309.2 134.3Q308.6 133.4 307.5 132.9Q306.3 132.3 304.7 132.3L304.7 132.3Q303.0 132.3 301.7 132.9Q300.4 133.4 299.6 134.2Q298.9 135.1 298.5 136.1L298.5 136.1L290.4 134.8Q291.3 131.9 293.2 129.9Q295.2 127.9 298.1 126.9Q301.0 125.8 304.7 125.8L304.7 125.8Q307.3 125.8 309.8 126.5Q312.3 127.1 314.3 128.4Q316.3 129.7 317.4 131.9Q318.6 134.0 318.6 136.9L318.6 136.9L318.6 159L310.2 159L310.2 154.5L310.0 154.5Q309.2 156.0 307.8 157.1Q306.5 158.3 304.7 159.0Q302.8 159.6 300.4 159.6ZM302.9 153.5L302.9 153.5Q304.9 153.5 306.5 152.6Q308.1 151.8 309.0 150.4Q309.8 149.0 309.8 147.3L309.8 147.3L309.8 143.7Q309.5 144.0 308.7 144.3Q307.9 144.5 306.9 144.7Q305.9 144.8 305.0 145.0Q304.1 145.1 303.3 145.2L303.3 145.2Q301.7 145.5 300.5 146.0Q299.3 146.5 298.6 147.4Q297.9 148.2 297.9 149.6L297.9 149.6Q297.9 150.9 298.6 151.7Q299.2 152.6 300.3 153.0Q301.4 153.5 302.9 153.5ZM332.4 140.0L332.4 140.0L332.4 159L323.6 159L323.6 126.2L331.9 126.2L332.0 133.0Q333.2 129.9 335.4 128.1L335.4 128.1Q338.0 125.8 342.2 125.8L342.2 125.8Q345.6 125.8 348.1 127.3Q350.6 128.8 352.0 131.6Q353.4 134.3 353.4 138.2L353.4 138.2L353.4 159L344.6 159L344.6 139.7Q344.6 136.6 343.1 134.9Q341.5 133.2 338.7 133.2L338.7 133.2Q336.9 133.2 335.4 134.0Q334.0 134.8 333.2 136.3Q332.4 137.8 332.4 140.0Z "/></g><mask id="satori_om-id-1-2"><rect x="56" y="189" width="135" height="26" fill="#fff" mask="url(#satori_om-id)"/></mask><g mask="url(#satori_om-id)" clip-path="url(#satori_cp-id)"><path fill="rgba(255,255,255,0.72)" d="M58.6 211.3L57.2 211.3L57.2 199.3L58.6 199.3L58.6 200.7L58.8 200.7Q58.9 200.4 59.2 200.1Q59.4 199.7 59.9 199.4Q60.4 199.2 61.3 199.2L61.3 199.2Q62.4 199.2 63.2 199.7Q64.0 200.3 64.5 201.3Q65.0 202.3 65.0 203.7L65.0 203.7Q65.0 205.0 64.5 206.1Q64.0 207.1 63.2 207.6Q62.4 208.2 61.3 208.2L61.3 208.2Q60.5 208.2 60.0 207.9Q59.4 207.6 59.2 207.3Q58.9 206.9 58.8 206.6L58.8 206.6L58.6 206.6L58.6 211.3ZM61.1 206.9L61.1 206.9Q61.9 206.9 62.4 206.5Q63 206.0 63.3 205.3Q63.6 204.6 63.6 203.6L63.6 203.6Q63.6 202.7 63.3 202.0Q63.0 201.3 62.5 200.8Q61.9 200.4 61.1 200.4L61.1 200.4Q60.3 200.4 59.7 200.8Q59.2 201.2 58.9 201.9Q58.6 202.7 58.6 203.6L58.6 203.6Q58.6 204.6 58.9 205.4Q59.2 206.1 59.7 206.5Q60.3 206.9 61.1 206.9ZM67.0 196.4L68.4 196.4L68.4 208L67.0 208L67.0 196.4ZM73.4 208.2L73.4 208.2Q72.5 208.2 71.8 207.9Q71.2 207.6 70.8 207.0Q70.4 206.4 70.4 205.5L70.4 205.5Q70.4 204.8 70.7 204.3Q71.0 203.8 71.5 203.6Q72.0 203.3 72.6 203.2Q73.2 203.0 73.8 202.9L73.8 202.9Q74.6 202.8 75.0 202.8Q75.5 202.7 75.8 202.6Q76.0 202.5 76.0 202.1L76.0 202.1L76.0 202.1Q76.0 201.6 75.8 201.2Q75.6 200.8 75.2 200.6Q74.8 200.4 74.2 200.4L74.2 200.4Q73.6 200.4 73.1 200.6Q72.7 200.8 72.4 201.1Q72.1 201.4 72.0 201.7L72.0 201.7L70.6 201.2Q71.0 200.4 71.5 200.0Q72.1 199.5 72.8 199.3Q73.5 199.2 74.1 199.2L74.1 199.2Q74.6 199.2 75.1 199.3Q75.7 199.4 76.2 199.7Q76.7 200.0 77.1 200.6Q77.4 201.2 77.4 202.2L77.4 202.2L77.4 208L76.0 208L76.0 206.8L75.9 206.8Q75.8 207.1 75.5 207.4Q75.1 207.8 74.6 208.0Q74.1 208.2 73.4 208.2ZM73.6 207.0L73.6 207.0Q74.4 207.0 74.9 206.7Q75.5 206.4 75.7 205.9Q76.0 205.4 76.0 204.8L76.0 204.8L76.0 203.6Q75.9 203.7 75.6 203.8Q75.4 203.9 75.0 204.0Q74.6 204.0 74.3 204.1Q73.9 204.1 73.7 204.1L73.7 204.1Q73.2 204.2 72.8 204.3Q72.3 204.5 72.1 204.8Q71.8 205.1 71.8 205.6L71.8 205.6Q71.8 206.0 72.0 206.3Q72.3 206.6 72.7 206.8Q73.1 207.0 73.6 207.0ZM81.5 199.3L83.3 199.3L83.3 200.5L81.5 200.5L81.5 205.7Q81.5 206.3 81.8 206.6Q82.0 206.9 82.6 206.9L82.6 206.9Q82.7 206.9 82.9 206.8Q83.1 206.8 83.3 206.8L83.3 206.8L83.6 208.0Q83.4 208.0 83.1 208.1Q82.8 208.1 82.5 208.1L82.5 208.1Q81.4 208.1 80.8 207.5Q80.1 206.9 80.1 205.8L80.1 205.8L80.1 200.5L78.8 200.5L78.8 199.3L80.1 199.3L80.1 197.2L81.5 197.2L81.5 199.3ZM87.2 199.3L89.2 199.3L89.2 200.5L87.2 200.5L87.2 208L85.8 208L85.8 200.5L84.0 200.5L84.0 199.3L85.8 199.3L85.8 198.1Q85.8 197.3 86.1 196.8Q86.5 196.3 87.0 196.1Q87.6 195.8 88.3 195.8L88.3 195.8Q88.8 195.8 89.1 195.9Q89.4 196.0 89.6 196.0L89.6 196.0L89.2 197.3Q89.1 197.2 88.9 197.2Q88.7 197.1 88.4 197.1L88.4 197.1Q87.8 197.1 87.5 197.4Q87.2 197.8 87.2 198.4L87.2 198.4L87.2 199.3ZM94.6 208.2L94.6 208.2Q93.4 208.2 92.5 207.6Q91.6 207.1 91.1 206.0Q90.6 205.0 90.6 203.7L90.6 203.7Q90.6 202.3 91.1 201.3Q91.6 200.3 92.5 199.7Q93.4 199.2 94.6 199.2L94.6 199.2Q95.8 199.2 96.7 199.7Q97.6 200.3 98.1 201.3Q98.6 202.3 98.6 203.7L98.6 203.7Q98.6 205.0 98.1 206.0Q97.6 207.1 96.7 207.6Q95.8 208.2 94.6 208.2ZM94.6 206.9L94.6 206.9Q95.5 206.9 96.1 206.5Q96.6 206.0 96.9 205.3Q97.2 204.5 97.2 203.7L97.2 203.7Q97.2 202.8 96.9 202.1Q96.6 201.3 96.1 200.9Q95.5 200.4 94.6 200.4L94.6 200.4Q93.7 200.4 93.2 200.9Q92.6 201.3 92.3 202.1Q92.1 202.8 92.1 203.7L92.1 203.7Q92.1 204.5 92.3 205.3Q92.6 206.0 93.2 206.5Q93.7 206.9 94.6 206.9ZM102.0 208L100.6 208L100.6 199.3L102 199.3L102 200.6L102.1 200.6Q102.3 199.9 103.0 199.5Q103.6 199.1 104.4 199.1L104.4 199.1Q104.5 199.1 104.7 199.1Q104.9 199.2 105.1 199.2L105.1 199.2L105.1 200.6Q105.0 200.6 104.8 200.5Q104.5 200.5 104.2 200.5L104.2 200.5Q103.6 200.5 103.1 200.8Q102.6 201.0 102.3 201.5Q102.0 201.9 102.0 202.5L102.0 202.5L102.0 208ZM108.1 208L106.7 208L106.7 199.3L108.0 199.3L108.0 200.9Q108.2 200.4 108.5 200.0L108.5 200.0Q108.9 199.6 109.4 199.3Q109.9 199.1 110.5 199.1L110.5 199.1Q111.4 199.1 112.0 199.7L112.0 199.7Q112.5 200.2 112.7 200.9L112.7 200.9Q112.9 200.4 113.2 200.1L113.2 200.1Q113.6 199.6 114.2 199.4Q114.8 199.1 115.5 199.1L115.5 199.1Q116.2 199.1 116.8 199.4Q117.5 199.8 117.8 200.4Q118.2 201.1 118.2 202.1L118.2 202.1L118.2 208L116.8 208L116.8 202.1Q116.8 201.2 116.3 200.8Q115.7 200.4 115.0 200.4L115.0 200.4Q114.5 200.4 114.0 200.6Q113.6 200.9 113.4 201.3Q113.1 201.7 113.1 202.3L113.1 202.3L113.1 208L111.7 208L111.7 202.0Q111.7 201.3 111.3 200.8Q110.8 200.4 110.0 200.4L110.0 200.4Q109.5 200.4 109.1 200.6Q108.6 200.9 108.3 201.3Q108.1 201.8 108.1 202.5L108.1 202.5L108.1 208Z M128.9 208.2L128.9 208.2Q127.6 208.2 126.7 207.6Q125.8 207.1 125.3 206.1Q124.8 205.0 124.8 203.7Q124.8 202.4 125.2 201.3Q125.7 200.3 126.6 199.7Q127.5 199.2 128.7 199.2L128.7 199.2Q129.4 199.2 130.1 199.4Q130.7 199.6 131.3 200.1Q131.8 200.6 132.2 201.5Q132.5 202.3 132.5 203.5L132.5 203.5L132.5 204.1L126.2 204.1Q126.2 205.0 126.5 205.6L126.5 205.6Q126.9 206.2 127.5 206.6Q128.1 206.9 128.9 206.9L128.9 206.9Q129.4 206.9 129.8 206.8Q130.2 206.6 130.5 206.3Q130.8 206.0 131.0 205.6L131.0 205.6L132.4 206.0Q132.1 206.6 131.7 207.1Q131.2 207.6 130.5 207.9Q129.8 208.2 128.9 208.2ZM126.2 202.9L126.2 202.9L131.1 202.9Q131.0 202.3 130.8 201.8L130.8 201.8Q130.5 201.2 130.0 200.8Q129.5 200.4 128.7 200.4Q127.9 200.4 127.3 200.8Q126.8 201.2 126.5 201.8L126.5 201.8Q126.2 202.3 126.2 202.9ZM135.9 202.8L135.9 202.8L135.9 208L134.5 208L134.5 199.3L135.9 199.3L135.9 200.9Q136.2 200.1 136.8 199.7L136.8 199.7Q137.5 199.2 138.5 199.2L138.5 199.2Q139.4 199.2 140.1 199.5Q140.8 199.9 141.1 200.6Q141.5 201.3 141.5 202.5L141.5 202.5L141.5 208L140.1 208L140.1 202.6Q140.1 201.6 139.6 201.0Q139.0 200.4 138.1 200.4L138.1 200.4Q137.5 200.4 137.0 200.7Q136.5 201.0 136.2 201.5Q135.9 202.0 135.9 202.8ZM147.5 211.5L147.5 211.5Q146.5 211.5 145.8 211.2Q145.1 211.0 144.6 210.6Q144.2 210.1 143.9 209.7L143.9 209.7L145.0 208.9Q145.2 209.2 145.5 209.5Q145.8 209.8 146.3 210.0Q146.7 210.2 147.5 210.2L147.5 210.2Q148.5 210.2 149.2 209.7Q149.9 209.2 149.9 208.1L149.9 208.1L149.9 206.4L149.8 206.4Q149.6 206.6 149.3 207.0Q149.1 207.3 148.6 207.6Q148.1 207.9 147.2 207.9L147.2 207.9Q146.2 207.9 145.3 207.4Q144.5 206.9 144.0 205.9Q143.5 205.0 143.5 203.6L143.5 203.6Q143.5 202.2 144.0 201.2Q144.5 200.3 145.3 199.7Q146.2 199.2 147.3 199.2L147.3 199.2Q148.1 199.2 148.6 199.4Q149.1 199.7 149.4 200.1Q149.7 200.4 149.8 200.7L149.8 200.7L149.9 200.7L149.9 199.3L151.3 199.3L151.3 208.2Q151.3 209.4 150.8 210.1Q150.3 210.8 149.4 211.1Q148.6 211.5 147.5 211.5ZM147.5 206.6L147.5 206.6Q148.3 206.6 148.8 206.2Q149.4 205.9 149.6 205.2Q149.9 204.5 149.9 203.6L149.9 203.6Q149.9 202.6 149.6 201.9Q149.4 201.2 148.8 200.8Q148.3 200.4 147.5 200.4L147.5 200.4Q146.6 200.4 146.1 200.8Q145.5 201.3 145.2 202.0Q145.0 202.7 145.0 203.6L145.0 203.6Q145.0 204.5 145.3 205.1Q145.5 205.8 146.1 206.2Q146.6 206.6 147.5 206.6ZM155.2 208L153.8 208L153.8 199.3L155.2 199.3L155.2 208ZM154.5 197.8L154.5 197.8Q154.1 197.8 153.8 197.6Q153.5 197.3 153.5 196.9L153.5 196.9Q153.5 196.5 153.8 196.2Q154.1 196.0 154.5 196.0L154.5 196.0Q154.9 196.0 155.2 196.2Q155.5 196.5 155.5 196.9L155.5 196.9Q155.5 197.3 155.2 197.6Q154.9 197.8 154.5 197.8ZM159.1 202.8L159.1 202.8L159.1 208L157.6 208L157.6 199.3L159 199.3L159.0 200.9Q159.4 200.1 160.0 199.7L160.0 199.7Q160.7 199.2 161.7 199.2L161.7 199.2Q162.6 199.2 163.2 199.5Q163.9 199.9 164.3 200.6Q164.6 201.3 164.6 202.5L164.6 202.5L164.6 208L163.2 208L163.2 202.6Q163.2 201.6 162.7 201.0Q162.2 200.4 161.3 200.4L161.3 200.4Q160.6 200.4 160.1 200.7Q159.6 201.0 159.3 201.5Q159.1 202.0 159.1 202.8ZM170.8 208.2L170.8 208.2Q169.5 208.2 168.6 207.6Q167.7 207.1 167.2 206.1Q166.7 205.0 166.7 203.7Q166.7 202.4 167.2 201.3Q167.6 200.3 168.5 199.7Q169.4 199.2 170.6 199.2L170.6 199.2Q171.3 199.2 172.0 199.4Q172.7 199.6 173.2 200.1Q173.8 200.6 174.1 201.5Q174.4 202.3 174.4 203.5L174.4 203.5L174.4 204.1L168.1 204.1Q168.1 205.0 168.4 205.6L168.4 205.6Q168.8 206.2 169.4 206.6Q170.0 206.9 170.8 206.9L170.8 206.9Q171.3 206.9 171.7 206.8Q172.1 206.6 172.4 206.3Q172.8 206.0 172.9 205.6L172.9 205.6L174.3 206.0Q174.1 206.6 173.6 207.1Q173.1 207.6 172.4 207.9Q171.7 208.2 170.8 208.2ZM168.1 202.9L168.1 202.9L173.0 202.9Q172.9 202.3 172.7 201.8L172.7 201.8Q172.5 201.2 171.9 200.8Q171.4 200.4 170.6 200.4Q169.8 200.4 169.3 200.8Q168.7 201.2 168.4 201.8L168.4 201.8Q168.1 202.3 168.1 202.9ZM180.1 208.2L180.1 208.2Q178.8 208.2 177.9 207.6Q177 207.1 176.5 206.1Q176.0 205.0 176.0 203.7Q176.0 202.4 176.5 201.3Q177.0 200.3 177.9 199.7Q178.8 199.2 179.9 199.2L179.9 199.2Q180.6 199.2 181.3 199.4Q182.0 199.6 182.5 200.1Q183.1 200.6 183.4 201.5Q183.7 202.3 183.7 203.5L183.7 203.5L183.7 204.1L177.4 204.1Q177.5 205.0 177.8 205.6L177.8 205.6Q178.1 206.2 178.7 206.6Q179.3 206.9 180.1 206.9L180.1 206.9Q180.6 206.9 181.0 206.8Q181.5 206.6 181.8 206.3Q182.1 206.0 182.2 205.6L182.2 205.6L183.6 206.0Q183.4 206.6 182.9 207.1Q182.4 207.6 181.7 207.9Q181 208.2 180.1 208.2ZM177.4 202.9L177.4 202.9L182.3 202.9Q182.3 202.3 182.1 201.8L182.1 201.8Q181.8 201.2 181.3 200.8Q180.7 200.4 179.9 200.4Q179.1 200.4 178.6 200.8Q178.0 201.2 177.7 201.8L177.7 201.8Q177.5 202.3 177.4 202.9ZM187.2 208L185.8 208L185.8 199.3L187.1 199.3L187.1 200.6L187.2 200.6Q187.5 199.9 188.1 199.5Q188.7 199.1 189.5 199.1L189.5 199.1Q189.6 199.1 189.8 199.1Q190.1 199.2 190.2 199.2L190.2 199.2L190.2 200.6Q190.1 200.6 189.9 200.5Q189.6 200.5 189.3 200.5L189.3 200.5Q188.7 200.5 188.2 200.8Q187.7 201.0 187.4 201.5Q187.2 201.9 187.2 202.5L187.2 202.5L187.2 208Z "/></g><mask id="satori_om-id-1-3"><rect x="56" y="217" width="202" height="26" fill="#fff" mask="url(#satori_om-id)"/></mask><g mask="url(#satori_om-id)" clip-path="url(#satori_cp-id)"><path fill="rgba(255,255,255,0.72)" d="M58.6 236L57.2 236L57.2 227.3L58.6 227.3L58.6 228.6L58.7 228.6Q58.9 227.9 59.6 227.5Q60.2 227.1 61.0 227.1L61.0 227.1Q61.1 227.1 61.3 227.1Q61.5 227.2 61.7 227.2L61.7 227.2L61.7 228.6Q61.6 228.6 61.4 228.5Q61.1 228.5 60.8 228.5L60.8 228.5Q60.2 228.5 59.7 228.8Q59.2 229.0 58.9 229.5Q58.6 229.9 58.6 230.5L58.6 230.5L58.6 236ZM65.7 236.2L65.7 236.2Q64.9 236.2 64.2 235.9Q63.5 235.6 63.1 235.0Q62.7 234.4 62.7 233.5L62.7 233.5Q62.7 232.8 63.0 232.3Q63.3 231.8 63.8 231.6Q64.3 231.3 64.9 231.2Q65.5 231.0 66.1 230.9L66.1 230.9Q66.9 230.8 67.4 230.8Q67.9 230.7 68.1 230.6Q68.4 230.5 68.4 230.1L68.4 230.1L68.4 230.1Q68.4 229.6 68.2 229.2Q68.0 228.8 67.6 228.6Q67.1 228.4 66.5 228.4L66.5 228.4Q65.9 228.4 65.5 228.6Q65.0 228.8 64.7 229.1Q64.5 229.4 64.3 229.7L64.3 229.7L63.0 229.2Q63.3 228.4 63.9 228.0Q64.5 227.5 65.1 227.3Q65.8 227.2 66.5 227.2L66.5 227.2Q66.9 227.2 67.5 227.3Q68.1 227.4 68.6 227.7Q69.1 228.0 69.4 228.6Q69.8 229.2 69.8 230.2L69.8 230.2L69.8 236L68.4 236L68.4 234.8L68.3 234.8Q68.1 235.1 67.8 235.4Q67.5 235.8 67.0 236.0Q66.4 236.2 65.7 236.2ZM65.9 235.0L65.9 235.0Q66.7 235.0 67.3 234.7Q67.8 234.4 68.1 233.9Q68.4 233.4 68.4 232.8L68.4 232.8L68.4 231.6Q68.3 231.7 68.0 231.8Q67.7 231.9 67.3 232.0Q67.0 232.0 66.6 232.1Q66.3 232.1 66.1 232.1L66.1 232.1Q65.6 232.2 65.1 232.3Q64.7 232.5 64.4 232.8Q64.1 233.1 64.1 233.6L64.1 233.6Q64.1 234.0 64.4 234.3Q64.6 234.6 65.0 234.8Q65.4 235.0 65.9 235.0ZM73.6 236L72.2 236L72.2 227.3L73.6 227.3L73.6 236ZM73.0 225.8L73.0 225.8Q72.6 225.8 72.3 225.6Q72.0 225.3 72.0 224.9L72.0 224.9Q72.0 224.5 72.3 224.2Q72.6 224.0 73.0 224.0L73.0 224.0Q73.4 224.0 73.6 224.2Q73.9 224.5 73.9 224.9L73.9 224.9Q73.9 225.3 73.6 225.6Q73.4 225.8 73.0 225.8ZM76.1 224.4L77.5 224.4L77.5 236L76.1 236L76.1 224.4ZM83.0 236.2L83.0 236.2Q82.1 236.2 81.4 235.9Q80.7 235.7 80.2 235.1Q79.8 234.6 79.6 233.9L79.6 233.9L80.9 233.6Q81.1 234.3 81.6 234.6Q82.2 235.0 82.9 235.0L82.9 235.0Q83.9 235.0 84.4 234.6Q84.9 234.2 84.9 233.6L84.9 233.6Q84.9 233.2 84.6 232.9Q84.3 232.6 83.7 232.4L83.7 232.4L82.2 232.1Q81.0 231.8 80.4 231.2Q79.9 230.6 79.9 229.7L79.9 229.7Q79.9 229.0 80.3 228.4Q80.7 227.8 81.4 227.5Q82.2 227.2 83.1 227.2L83.1 227.2Q84 227.2 84.6 227.4Q85.3 227.7 85.7 228.2Q86.0 228.6 86.2 229.3L86.2 229.3L85.0 229.6Q84.8 229.1 84.4 228.7Q84.0 228.4 83.1 228.4L83.1 228.4Q82.3 228.4 81.8 228.7Q81.3 229.1 81.3 229.6L81.3 229.6Q81.3 230.1 81.6 230.4Q82.0 230.7 82.8 230.9L82.8 230.9L84.1 231.2Q85.3 231.5 85.8 232.1Q86.4 232.6 86.4 233.5L86.4 233.5Q86.4 234.3 86.0 234.9Q85.5 235.5 84.8 235.8Q84.0 236.2 83.0 236.2ZM89.3 238.8L88.2 238.8L88.9 234.4L90.5 234.4L89.3 238.8Z M99.0 239.3L97.5 239.3L97.5 227.3L98.9 227.3L98.9 228.7L99.1 228.7Q99.2 228.4 99.5 228.1Q99.7 227.7 100.2 227.4Q100.7 227.2 101.6 227.2L101.6 227.2Q102.7 227.2 103.5 227.7Q104.4 228.3 104.8 229.3Q105.3 230.3 105.3 231.7L105.3 231.7Q105.3 233.0 104.8 234.1Q104.4 235.1 103.5 235.6Q102.7 236.2 101.6 236.2L101.6 236.2Q100.8 236.2 100.3 235.9Q99.8 235.6 99.5 235.3Q99.2 234.9 99.1 234.6L99.1 234.6L99.0 234.6L99.0 239.3ZM101.4 234.9L101.4 234.9Q102.2 234.9 102.8 234.5Q103.3 234.0 103.6 233.3Q103.9 232.6 103.9 231.6L103.9 231.6Q103.9 230.7 103.6 230.0Q103.3 229.3 102.8 228.8Q102.2 228.4 101.4 228.4L101.4 228.4Q100.6 228.4 100.0 228.8Q99.5 229.2 99.2 229.9Q98.9 230.7 98.9 231.6L98.9 231.6Q98.9 232.6 99.2 233.4Q99.5 234.1 100.1 234.5Q100.6 234.9 101.4 234.9ZM110.9 236.2L110.9 236.2Q109.7 236.2 108.8 235.6Q107.9 235.1 107.4 234.0Q106.9 233.0 106.9 231.7L106.9 231.7Q106.9 230.3 107.4 229.3Q107.9 228.3 108.8 227.7Q109.7 227.2 110.9 227.2L110.9 227.2Q112.1 227.2 113.0 227.7Q113.9 228.3 114.4 229.3Q114.9 230.3 114.9 231.7L114.9 231.7Q114.9 233.0 114.4 234.0Q113.9 235.1 113.0 235.6Q112.1 236.2 110.9 236.2ZM110.9 234.9L110.9 234.9Q111.8 234.9 112.4 234.5Q112.9 234.0 113.2 233.3Q113.5 232.5 113.5 231.7L113.5 231.7Q113.5 230.8 113.2 230.1Q112.9 229.3 112.4 228.9Q111.8 228.4 110.9 228.4L110.9 228.4Q110.0 228.4 109.5 228.9Q108.9 229.3 108.6 230.1Q108.4 230.8 108.4 231.7L108.4 231.7Q108.4 232.5 108.6 233.3Q108.9 234.0 109.5 234.5Q110.0 234.9 110.9 234.9ZM119.9 236.2L119.9 236.2Q119.0 236.2 118.3 235.9Q117.6 235.7 117.2 235.1Q116.7 234.6 116.5 233.9L116.5 233.9L117.9 233.6Q118.1 234.3 118.6 234.6Q119.1 235.0 119.9 235.0L119.9 235.0Q120.8 235.0 121.3 234.6Q121.9 234.2 121.9 233.6L121.9 233.6Q121.9 233.2 121.6 232.9Q121.3 232.6 120.6 232.4L120.6 232.4L119.2 232.1Q118.0 231.8 117.4 231.2Q116.8 230.6 116.8 229.7L116.8 229.7Q116.8 229.0 117.2 228.4Q117.7 227.8 118.4 227.5Q119.1 227.2 120.0 227.2L120.0 227.2Q120.9 227.2 121.6 227.4Q122.2 227.7 122.6 228.2Q123.0 228.6 123.2 229.3L123.2 229.3L121.9 229.6Q121.7 229.1 121.3 228.7Q120.9 228.4 120.1 228.4L120.1 228.4Q119.3 228.4 118.8 228.7Q118.2 229.1 118.2 229.6L118.2 229.6Q118.2 230.1 118.6 230.4Q118.9 230.7 119.7 230.9L119.7 230.9L121.0 231.2Q122.2 231.5 122.8 232.1Q123.4 232.6 123.4 233.5L123.4 233.5Q123.4 234.3 122.9 234.9Q122.5 235.5 121.7 235.8Q120.9 236.2 119.9 236.2ZM127.0 227.3L128.8 227.3L128.8 228.5L127.0 228.5L127.0 233.7Q127.0 234.3 127.3 234.6Q127.5 234.9 128.1 234.9L128.1 234.9Q128.2 234.9 128.4 234.8Q128.6 234.8 128.8 234.8L128.8 234.8L129.1 236.0Q128.8 236.0 128.6 236.1Q128.3 236.1 128.0 236.1L128.0 236.1Q126.9 236.1 126.3 235.5Q125.6 234.9 125.6 233.8L125.6 233.8L125.6 228.5L124.3 228.5L124.3 227.3L125.6 227.3L125.6 225.2L127.0 225.2L127.0 227.3ZM134.2 239.5L134.2 239.5Q133.2 239.5 132.5 239.2Q131.8 239.0 131.3 238.6Q130.8 238.1 130.6 237.7L130.6 237.7L131.7 236.9Q131.9 237.2 132.2 237.5Q132.4 237.8 132.9 238.0Q133.4 238.2 134.2 238.2L134.2 238.2Q135.2 238.2 135.9 237.7Q136.6 237.2 136.6 236.1L136.6 236.1L136.6 234.4L136.4 234.4Q136.3 234.6 136.0 235.0Q135.7 235.3 135.2 235.6Q134.7 235.9 133.9 235.9L133.9 235.9Q132.8 235.9 132 235.4Q131.2 234.9 130.7 233.9Q130.2 233.0 130.2 231.6L130.2 231.6Q130.2 230.2 130.7 229.2Q131.1 228.3 132.0 227.7Q132.8 227.2 133.9 227.2L133.9 227.2Q134.8 227.2 135.3 227.4Q135.8 227.7 136.0 228.1Q136.3 228.4 136.5 228.7L136.5 228.7L136.6 228.7L136.6 227.3L138.0 227.3L138.0 236.2Q138.0 237.4 137.5 238.1Q136.9 238.8 136.1 239.1Q135.2 239.5 134.2 239.5ZM134.1 234.6L134.1 234.6Q134.9 234.6 135.5 234.2Q136.0 233.9 136.3 233.2Q136.6 232.5 136.6 231.6L136.6 231.6Q136.6 230.6 136.3 229.9Q136.0 229.2 135.5 228.8Q134.9 228.4 134.1 228.4L134.1 228.4Q133.3 228.4 132.7 228.8Q132.2 229.3 131.9 230.0Q131.6 230.7 131.6 231.6L131.6 231.6Q131.6 232.5 131.9 233.1Q132.2 233.8 132.7 234.2Q133.3 234.6 134.1 234.6ZM141.8 236L140.4 236L140.4 227.3L141.8 227.3L141.8 228.6L141.9 228.6Q142.1 227.9 142.7 227.5Q143.4 227.1 144.1 227.1L144.1 227.1Q144.3 227.1 144.5 227.1Q144.7 227.2 144.9 227.2L144.9 227.2L144.9 228.6Q144.8 228.6 144.5 228.5Q144.3 228.5 144.0 228.5L144.0 228.5Q143.4 228.5 142.9 228.8Q142.4 229.0 142.1 229.5Q141.8 229.9 141.8 230.5L141.8 230.5L141.8 236ZM150.1 236.2L150.1 236.2Q148.9 236.2 147.9 235.6Q147.0 235.1 146.5 234.1Q146.0 233.0 146.0 231.7Q146.0 230.4 146.5 229.3Q147 228.3 147.9 227.7Q148.8 227.2 150.0 227.2L150.0 227.2Q150.7 227.2 151.3 227.4Q152.0 227.6 152.6 228.1Q153.1 228.6 153.4 229.5Q153.8 230.3 153.8 231.5L153.8 231.5L153.8 232.1L147.5 232.1Q147.5 233.0 147.8 233.6L147.8 233.6Q148.1 234.2 148.7 234.6Q149.3 234.9 150.1 234.9L150.1 234.9Q150.6 234.9 151.1 234.8Q151.5 234.6 151.8 234.3Q152.1 234.0 152.3 233.6L152.3 233.6L153.6 234.0Q153.4 234.6 152.9 235.1Q152.5 235.6 151.7 235.9Q151.0 236.2 150.1 236.2ZM147.5 230.9L147.5 230.9L152.3 230.9Q152.3 230.3 152.1 229.8L152.1 229.8Q151.8 229.2 151.3 228.8Q150.8 228.4 150.0 228.4Q149.2 228.4 148.6 228.8Q148.0 229.2 147.8 229.8L147.8 229.8Q147.5 230.3 147.5 230.9ZM158.8 236.2L158.8 236.2Q157.9 236.2 157.2 235.9Q156.5 235.7 156 235.1Q155.5 234.6 155.4 233.9L155.4 233.9L156.7 233.6Q156.9 234.3 157.4 234.6Q158.0 235.0 158.7 235.0L158.7 235.0Q159.6 235.0 160.2 234.6Q160.7 234.2 160.7 233.6L160.7 233.6Q160.7 233.2 160.4 232.9Q160.1 232.6 159.5 232.4L159.5 232.4L158 232.1Q156.8 231.8 156.2 231.2Q155.7 230.6 155.7 229.7L155.7 229.7Q155.7 229.0 156.1 228.4Q156.5 227.8 157.2 227.5Q158.0 227.2 158.9 227.2L158.9 227.2Q159.8 227.2 160.4 227.4Q161.0 227.7 161.4 228.2Q161.8 228.6 162.0 229.3L162.0 229.3L160.8 229.6Q160.6 229.1 160.2 228.7Q159.7 228.4 158.9 228.4L158.9 228.4Q158.1 228.4 157.6 228.7Q157.1 229.1 157.1 229.6L157.1 229.6Q157.1 230.1 157.4 230.4Q157.8 230.7 158.5 230.9L158.5 230.9L159.9 231.2Q161.1 231.5 161.6 232.1Q162.2 232.6 162.2 233.5L162.2 233.5Q162.2 234.3 161.8 234.9Q161.3 235.5 160.6 235.8Q159.8 236.2 158.8 236.2ZM165.1 238.8L164.0 238.8L164.7 234.4L166.3 234.4L165.1 238.8Z M174.7 236L173.3 236L173.3 224.4L174.7 224.4L174.7 231.1L174.9 231.1L178.6 227.3L180.4 227.3L176.7 231.0L180.7 236L178.9 236L175.7 231.9L174.7 232.8L174.7 236ZM185.1 236.1L185.1 236.1Q184.2 236.1 183.5 235.7Q182.9 235.4 182.5 234.6Q182.1 233.9 182.1 232.8L182.1 232.8L182.1 227.3L183.5 227.3L183.5 232.7Q183.5 233.7 184.1 234.3Q184.6 234.8 185.5 234.8L185.5 234.8Q186.1 234.8 186.6 234.6Q187.1 234.3 187.4 233.8Q187.7 233.2 187.7 232.5L187.7 232.5L187.7 227.3L189.1 227.3L189.1 236L187.8 236L187.8 234.4Q187.4 235.2 186.8 235.6L186.8 235.6Q186.0 236.1 185.1 236.1ZM195.6 236.2L195.6 236.2Q194.8 236.2 194.3 235.9Q193.8 235.6 193.5 235.3Q193.2 234.9 193.1 234.6L193.1 234.6L192.9 234.6L192.9 236L191.6 236L191.6 224.4L193.0 224.4L193.0 228.7L193.1 228.7Q193.2 228.4 193.5 228.1Q193.8 227.7 194.3 227.4Q194.8 227.2 195.6 227.2L195.6 227.2Q196.7 227.2 197.6 227.7Q198.4 228.3 198.9 229.3Q199.3 230.3 199.3 231.7L199.3 231.7Q199.3 233.0 198.9 234.1Q198.4 235.1 197.6 235.6Q196.7 236.2 195.6 236.2ZM195.4 234.9L195.4 234.9Q196.2 234.9 196.8 234.5Q197.3 234.0 197.6 233.3Q197.9 232.6 197.9 231.6L197.9 231.6Q197.9 230.7 197.6 230.0Q197.4 229.3 196.8 228.8Q196.3 228.4 195.4 228.4L195.4 228.4Q194.6 228.4 194.1 228.8Q193.5 229.2 193.2 229.9Q193.0 230.7 193.0 231.6L193.0 231.6Q193.0 232.6 193.3 233.4Q193.5 234.1 194.1 234.5Q194.6 234.9 195.4 234.9ZM205.0 236.2L205.0 236.2Q203.8 236.2 202.9 235.6Q201.9 235.1 201.4 234.1Q201.0 233.0 201.0 231.7Q201.0 230.4 201.4 229.3Q201.9 228.3 202.8 227.7Q203.7 227.2 204.9 227.2L204.9 227.2Q205.6 227.2 206.3 227.4Q206.9 227.6 207.5 228.1Q208.0 228.6 208.4 229.5Q208.7 230.3 208.7 231.5L208.7 231.5L208.7 232.1L202.4 232.1Q202.4 233.0 202.7 233.6L202.7 233.6Q203.0 234.2 203.7 234.6Q204.3 234.9 205.1 234.9L205.1 234.9Q205.6 234.9 206.0 234.8Q206.4 234.6 206.7 234.3Q207.0 234.0 207.2 233.6L207.2 233.6L208.5 234.0Q208.3 234.6 207.9 235.1Q207.4 235.6 206.7 235.9Q205.9 236.2 205.0 236.2ZM202.4 230.9L202.4 230.9L207.3 230.9Q207.2 230.3 207.0 229.8L207.0 229.8Q206.7 229.2 206.2 228.8Q205.7 228.4 204.9 228.4Q204.1 228.4 203.5 228.8Q203.0 229.2 202.7 229.8L202.7 229.8Q202.4 230.3 202.4 230.9ZM212.1 236L210.7 236L210.7 227.3L212.1 227.3L212.1 228.6L212.2 228.6Q212.4 227.9 213.0 227.5Q213.6 227.1 214.4 227.1L214.4 227.1Q214.6 227.1 214.8 227.1Q215.0 227.2 215.1 227.2L215.1 227.2L215.1 228.6Q215.1 228.6 214.8 228.5Q214.6 228.5 214.3 228.5L214.3 228.5Q213.7 228.5 213.2 228.8Q212.7 229.0 212.4 229.5Q212.1 229.9 212.1 230.5L212.1 230.5L212.1 236ZM218.1 230.8L218.1 230.8L218.1 236L216.7 236L216.7 227.3L218.1 227.3L218.1 228.9Q218.5 228.1 219.0 227.7L219.0 227.7Q219.8 227.2 220.8 227.2L220.8 227.2Q221.6 227.2 222.3 227.5Q223.0 227.9 223.3 228.6Q223.7 229.3 223.7 230.5L223.7 230.5L223.7 236L222.3 236L222.3 230.6Q222.3 229.6 221.8 229.0Q221.3 228.4 220.3 228.4L220.3 228.4Q219.7 228.4 219.2 228.7Q218.7 229.0 218.4 229.5Q218.1 230.0 218.1 230.8ZM229.9 236.2L229.9 236.2Q228.6 236.2 227.7 235.6Q226.8 235.1 226.3 234.1Q225.8 233.0 225.8 231.7Q225.8 230.4 226.2 229.3Q226.7 228.3 227.6 227.7Q228.5 227.2 229.7 227.2L229.7 227.2Q230.4 227.2 231.1 227.4Q231.7 227.6 232.3 228.1Q232.8 228.6 233.2 229.5Q233.5 230.3 233.5 231.5L233.5 231.5L233.5 232.1L227.2 232.1Q227.2 233.0 227.5 233.6L227.5 233.6Q227.9 234.2 228.5 234.6Q229.1 234.9 229.9 234.9L229.9 234.9Q230.4 234.9 230.8 234.8Q231.2 234.6 231.5 234.3Q231.8 234.0 232.0 233.6L232.0 233.6L233.4 234.0Q233.1 234.6 232.7 235.1Q232.2 235.6 231.5 235.9Q230.8 236.2 229.9 236.2ZM227.2 230.9L227.2 230.9L232.1 230.9Q232.0 230.3 231.8 229.8L231.8 229.8Q231.5 229.2 231.0 228.8Q230.5 228.4 229.7 228.4Q228.9 228.4 228.3 228.8Q227.8 229.2 227.5 229.8L227.5 229.8Q227.2 230.3 227.2 230.9ZM237.1 227.3L238.9 227.3L238.9 228.5L237.1 228.5L237.1 233.7Q237.1 234.3 237.4 234.6Q237.6 234.9 238.2 234.9L238.2 234.9Q238.3 234.9 238.5 234.8Q238.7 234.8 238.9 234.8L238.9 234.8L239.2 236.0Q239.0 236.0 238.7 236.1Q238.4 236.1 238.1 236.1L238.1 236.1Q237.0 236.1 236.4 235.5Q235.7 234.9 235.7 233.8L235.7 233.8L235.7 228.5L234.4 228.5L234.4 227.3L235.7 227.3L235.7 225.2L237.1 225.2L237.1 227.3ZM244.4 236.2L244.4 236.2Q243.1 236.2 242.2 235.6Q241.3 235.1 240.8 234.1Q240.3 233.0 240.3 231.7Q240.3 230.4 240.8 229.3Q241.3 228.3 242.2 227.7Q243.1 227.2 244.3 227.2L244.3 227.2Q244.9 227.2 245.6 227.4Q246.3 227.6 246.8 228.1Q247.4 228.6 247.7 229.5Q248.1 230.3 248.1 231.5L248.1 231.5L248.1 232.1L241.7 232.1Q241.8 233.0 242.1 233.6L242.1 233.6Q242.4 234.2 243.0 234.6Q243.6 234.9 244.4 234.9L244.4 234.9Q244.9 234.9 245.4 234.8Q245.8 234.6 246.1 234.3Q246.4 234.0 246.6 233.6L246.6 233.6L247.9 234.0Q247.7 234.6 247.2 235.1Q246.7 235.6 246.0 235.9Q245.3 236.2 244.4 236.2ZM241.8 230.9L241.8 230.9L246.6 230.9Q246.6 230.3 246.4 229.8L246.4 229.8Q246.1 229.2 245.6 228.8Q245.0 228.4 244.3 228.4Q243.5 228.4 242.9 228.8Q242.3 229.2 242.0 229.8L242.0 229.8Q241.8 230.3 241.8 230.9ZM253.0 236.2L253.0 236.2Q252.1 236.2 251.4 235.9Q250.7 235.7 250.3 235.1Q249.8 234.6 249.7 233.9L249.7 233.9L251.0 233.6Q251.2 234.3 251.7 234.6Q252.2 235.0 253.0 235.0L253.0 235.0Q253.9 235.0 254.5 234.6Q255.0 234.2 255.0 233.6L255.0 233.6Q255.0 233.2 254.7 232.9Q254.4 232.6 253.7 232.4L253.7 232.4L252.3 232.1Q251.1 231.8 250.5 231.2Q249.9 230.6 249.9 229.7L249.9 229.7Q249.9 229.0 250.4 228.4Q250.8 227.8 251.5 227.5Q252.3 227.2 253.2 227.2L253.2 227.2Q254.1 227.2 254.7 227.4Q255.3 227.7 255.7 228.2Q256.1 228.6 256.3 229.3L256.3 229.3L255.0 229.6Q254.9 229.1 254.4 228.7Q254.0 228.4 253.2 228.4L253.2 228.4Q252.4 228.4 251.9 228.7Q251.4 229.1 251.4 229.6L251.4 229.6Q251.4 230.1 251.7 230.4Q252.1 230.7 252.8 230.9L252.8 230.9L254.2 231.2Q255.3 231.5 255.9 232.1Q256.5 232.6 256.5 233.5L256.5 233.5Q256.5 234.3 256.1 234.9Q255.6 235.5 254.8 235.8Q254.1 236.2 253.0 236.2Z "/></g></svg>