<!-- Generated by readme-aura https://github.com/collectioneur/readme-aura -->
<svg width="800" height="320" viewBox="0 0 800 320" xmlns="http://www.w3.org/2000/svg"><clipPath id="satori_cp-id"><path x="0" y="0" width="800" height="320" d="M16,0 h768 a16,16 0 0 1 16,16 v288 a16,16 0 0 1 -16,16 h-768 a16,16 0 0 1 -16,-16 v-288 a16,16 0 0 1 16,-16"/></clipPath><mask id="satori_om-id"><rect x="0" y="0" width="800" height="320" fill="#fff"/></mask><path x="0" y="0" width="800" height="320" fill="#0e0e10" d="M16,0 h768 a16,16 0 0 1 16,16 v288 a16,16 0 0 1 -16,16 h-768 a16,16 0 0 1 -16,-16 v-288 a16,16 0 0 1 16,-16"/><clipPath id="satori_cp-id-0" clip-path="url(#satori_cp-id)"><rect x="0" y="0" width="800" height="320"/></clipPath><mask id="satori_om-id-0"><rect x="0" y="0" width="800" height="320" fill="#fff" mask="url(#satori_om-id)"/></mask><svg x="0" y="0" width="800" height="320" preserveAspectRatio="none" clip-path="url(#satori_cp-id-0)" mask="url(#satori_om-id-0)"><defs><radialGradient id="hg-terracotta" cx="50%" cy="50%" r="50%"><stop offset="0%" stop-color="rgba(217,105,83,0.45)"></stop><stop offset="100%" stop-color="rgba(217,105,83,0)"></stop></radialGradient><radialGradient id="hg-teal" cx="50%" cy="50%" r="50%"><stop offset="0%" stop-color="rgba(77,138,138,0.32)"></stop><stop offset="100%" stop-color="rgba(77,138,138,0)"></stop></radialGradient><radialGradient id="hg-warm" cx="50%" cy="50%" r="50%"><stop offset="0%" stop-color="rgba(252,232,216,0.10)"></stop><stop offset="100%" stop-color="rgba(252,232,216,0)"></stop></radialGradient></defs><ellipse id="h-o1" cx="700" cy="70" rx="240" ry="190" fill="url(#hg-terracotta)"></ellipse><ellipse id="h-o2" cx="80" cy="280" rx="220" ry="170" fill="url(#hg-teal)"></ellipse><ellipse id="h-o3" cx="500" cy="320" rx="180" ry="130" fill="url(#hg-warm)"></ellipse><circle id="h-r1" cx="660" cy="155" r="80" fill="none" stroke="rgba(255,255,255,0.6)" stroke-width="0.6"></circle><circle id="h-r2" cx="660" cy="155" r="135" fill="none" stroke="rgba(255,255,255,0.6)" stroke-width="0.6"></circle><circle id="h-r3" cx="660" cy="155" r="200" fill="none" stroke="rgba(255,255,255,0.6)" stroke-width="0.6"></circle><style>

@keyframes hero-orb-a { 0%, 100% { transform: translate(0, 0); opacity: 0.55; } 50% { transform: translate(22px, -18px); opacity: 0.85; } }
@keyframes hero-orb-b { 0%, 100% { transform: translate(0, 0); opacity: 0.4; } 50% { transform: translate(-18px, 14px); opacity: 0.65; } }
@keyframes hero-ring { 0%, 100% { opacity: 0.05; } 50% { opacity: 0.14; } }
@keyframes hero-cursor { 0%, 100% { opacity: 1; } 50% { opacity: 0; } }
#h-o1 { animation: hero-orb-a 10s ease-in-out infinite; }
#h-o2 { animation: hero-orb-b 12s ease-in-out infinite 1s; }
#h-o3 { animation: hero-orb-a 8s ease-in-out infinite 2.4s; }
#h-r1 { animation: hero-ring 9s ease-in-out infinite; }
#h-r2 { animation: hero-ring 9s ease-in-out infinite 2s; }
#h-r3 { animation: hero-ring 11s ease-in-out infinite 3.5s; }
#h-cursor { animation: hero-cursor 1.1s step-end infinite; }

</style>
</svg><mask id="satori_om-id-0-0"><rect x="0" y="0" width="0" height="320" fill="#fff" mask="url(#satori_om-id)"/></mask><mask id="satori_om-id-0-0-0"><rect x="0" y="0" width="0" height="320" fill="#fff" mask="url(#satori_om-id)"/></mask><mask id="satori_om-id-0-0-0-0"><rect x="0" y="0" width="0" height="320" fill="#fff" mask="url(#satori_om-id)"/></mask><mask id="satori_om-id-0-0-0-1"><rect x="0" y="0" width="0" height="320" fill="#fff" mask="url(#satori_om-id)"/></mask><mask id="satori_om-id-0-0-1"><rect x="0" y="0" width="0" height="320" fill="#fff" mask="url(#satori_om-id)"/></mask><mask id="satori_om-id-0-0-1-0"><rect x="0" y="0" width="0" height="320" fill="#fff" mask="url(#satori_om-id)"/></mask><mask id="satori_om-id-0-0-1-1"><rect x="0" y="0" width="0" height="320" fill="#fff" mask="url(#satori_om-id)"/></mask><mask id="satori_om-id-0-0-2"><rect x="0" y="0" width="0" height="320" fill="#fff" mask="url(#satori_om-id)"/></mask><mask id="satori_om-id-0-0-2-0"><rect x="0" y="0" width="0" height="320" fill="#fff" mask="url(#satori_om-id)"/></mask><mask id="satori_om-id-0-0-2-1"><rect x="0" y="0" width="0" height="320" fill="#fff" mask="url(#satori_om-id)"/></mask><mask id="satori_om-id-0-1"><rect x="0" y="0" width="0" height="320" fill="#fff" mask="url(#satori_om-id)"/></mask><mask id="satori_om-id-0-2"><rect x="0" y="0" width="0" height="320" fill="#fff" mask="url(#satori_om-id)"/></mask><mask id="satori_om-id-0-3"><rect x="0" y="0" width="0" height="320" fill="#fff" mask="url(#satori_om-id)"/></mask><mask id="satori_om-id-0-4"><rect x="0" y="0" width="0" height="320" fill="#fff" mask="url(#satori_om-id)"/></mask><mask id="satori_om-id-0-5"><rect x="0" y="0" width="0" height="320" fill="#fff" mask="url(#satori_om-id)"/></mask><mask id="satori_om-id-0-6"><rect x="0" y="0" width="0" height="320" fill="#fff" mask="url(#satori_om-id)"/></mask><mask id="satori_om-id-1"><rect x="56" y="60" width="299" height="200" fill="#fff" mask="url(#satori_om-id)"/></mask><mask id="satori_om-id-1-0"><rect x="56" y="60" width="87" height="16" fill="#fff" mask="url(#satori_om-id)"/></mask><g mask="url(#satori_om-id)" clip-path="url(#satori_cp-id)"><path fill="rgba(255,255,255,0.38)" d="M58.3 73L57.1 73L57.1 63.5L58.9 63.5L61.2 69.5Q61.3 69.7 61.4 70.0Q61.5 70.3 61.6 70.7Q61.7 71.1 61.8 71.4L61.8 71.4Q61.9 71.6 61.9 71.7L61.9 71.7Q61.9 71.6 61.9 71.5L61.9 71.5Q62.0 71.1 62.2 70.7Q62.3 70.4 62.4 70.0Q62.5 69.7 62.6 69.5L62.6 69.5L64.9 63.5L66.6 63.5L66.6 73L65.4 73L65.4 67.6Q65.4 67.3 65.4 66.9Q65.4 66.6 65.4 66.1Q65.4 65.7 65.5 65.3L65.5 65.3Q65.5 65.1 65.5 64.8L65.5 64.8Q65.4 65.1 65.3 65.4L65.3 65.4Q65.1 65.8 65.0 66.2Q64.8 66.7 64.7 67.0Q64.6 67.4 64.5 67.6L64.5 67.6L62.4 73L61.3 73L59.2 67.6Q59.1 67.4 59.0 67.0Q58.9 66.7 58.7 66.3Q58.6 65.9 58.4 65.4L58.4 65.4Q58.3 65.1 58.2 64.8L58.2 64.8Q58.3 65.0 58.3 65.2L58.3 65.2Q58.3 65.7 58.3 66.1Q58.3 66.5 58.3 66.9Q58.3 67.3 58.3 67.6L58.3 67.6L58.3 73ZM72.9 63.5L74.1 63.5L74.1 73L72.9 73L72.9 63.5ZM83.4 73.2L83.4 73.2Q82.4 73.2 81.6 72.8Q80.9 72.5 80.5 71.9Q80.0 71.3 80.0 70.5L80.0 70.5L81.2 70.5Q81.3 71.1 81.6 71.4Q81.9 71.7 82.4 71.9Q82.9 72.1 83.4 72.1L83.4 72.1Q84.0 72.1 84.6 71.9Q85.1 71.7 85.4 71.3Q85.7 70.9 85.7 70.4L85.7 70.4Q85.7 69.9 85.4 69.7Q85.2 69.4 84.7 69.2Q84.3 69.0 83.8 68.9L83.8 68.9L82.6 68.5Q81.5 68.2 80.9 67.6Q80.2 67.0 80.2 66.1L80.2 66.1Q80.2 65.3 80.7 64.7Q81.1 64.1 81.8 63.7Q82.6 63.4 83.5 63.4L83.5 63.4Q84.4 63.4 85.1 63.7Q85.9 64.1 86.3 64.6Q86.7 65.2 86.7 65.9L86.7 65.9L85.5 65.9Q85.4 65.2 84.9 64.9Q84.3 64.5 83.4 64.5L83.4 64.5Q82.8 64.5 82.4 64.7Q81.9 64.9 81.7 65.2Q81.4 65.6 81.4 66.0L81.4 66.0Q81.4 66.5 81.7 66.8Q82.0 67.1 82.4 67.3Q82.9 67.5 83.2 67.5L83.2 67.5L84.2 67.8Q84.5 67.9 85.0 68.1Q85.5 68.3 85.9 68.6Q86.3 68.9 86.6 69.3Q86.8 69.8 86.8 70.4L86.8 70.4Q86.8 71.2 86.4 71.8Q86.0 72.4 85.3 72.8Q84.5 73.2 83.4 73.2ZM95.7 73.2L95.7 73.2Q94.7 73.2 94.0 72.8Q93.2 72.5 92.8 71.9Q92.4 71.3 92.3 70.5L92.3 70.5L93.5 70.5Q93.6 71.1 93.9 71.4Q94.2 71.7 94.7 71.9Q95.2 72.1 95.7 72.1L95.7 72.1Q96.4 72.1 96.9 71.9Q97.4 71.7 97.7 71.3Q98.0 70.9 98.0 70.4L98.0 70.4Q98.0 69.9 97.7 69.7Q97.5 69.4 97.1 69.2Q96.6 69.0 96.1 68.9L96.1 68.9L95.0 68.5Q93.8 68.2 93.2 67.6Q92.6 67.0 92.6 66.1L92.6 66.1Q92.6 65.3 93.0 64.7Q93.4 64.1 94.2 63.7Q94.9 63.4 95.8 63.4L95.8 63.4Q96.8 63.4 97.5 63.7Q98.2 64.1 98.6 64.6Q99.0 65.2 99.1 65.9L99.1 65.9L97.9 65.9Q97.8 65.2 97.2 64.9Q96.6 64.5 95.8 64.5L95.8 64.5Q95.2 64.5 94.7 64.7Q94.3 64.9 94.0 65.2Q93.8 65.6 93.8 66.0L93.8 66.0Q93.8 66.5 94.1 66.8Q94.4 67.1 94.8 67.3Q95.2 67.5 95.6 67.5L95.6 67.5L96.5 67.8Q96.9 67.9 97.3 68.1Q97.8 68.3 98.2 68.6Q98.6 68.9 98.9 69.3Q99.2 69.8 99.2 70.4L99.2 70.4Q99.2 71.2 98.8 71.8Q98.4 72.4 97.6 72.8Q96.8 73.2 95.7 73.2ZM108.8 73.2L108.8 73.2Q107.6 73.2 106.8 72.7Q106.0 72.3 105.5 71.5Q105.1 70.8 105.1 69.8L105.1 69.8L105.1 63.5L106.3 63.5L106.3 69.7Q106.3 70.4 106.6 70.9Q106.9 71.4 107.4 71.7Q108.0 72.0 108.8 72.0L108.8 72.0Q109.5 72.0 110.1 71.7Q110.6 71.4 110.9 70.9Q111.2 70.4 111.2 69.7L111.2 69.7L111.2 63.5L112.4 63.5L112.4 69.8Q112.4 70.8 112.0 71.5Q111.5 72.3 110.7 72.7Q109.9 73.2 108.8 73.2ZM121.8 73.2L121.8 73.2Q120.7 73.2 120.0 72.8Q119.2 72.5 118.8 71.9Q118.4 71.3 118.3 70.5L118.3 70.5L119.6 70.5Q119.6 71.1 119.9 71.4Q120.2 71.7 120.7 71.9Q121.2 72.1 121.8 72.1L121.8 72.1Q122.4 72.1 122.9 71.9Q123.4 71.7 123.7 71.3Q124.0 70.9 124.0 70.4L124.0 70.4Q124.0 69.9 123.8 69.7Q123.5 69.4 123.1 69.2Q122.7 69.0 122.1 68.9L122.1 68.9L121.0 68.5Q119.9 68.2 119.2 67.6Q118.6 67.0 118.6 66.1L118.6 66.1Q118.6 65.3 119.0 64.7Q119.5 64.1 120.2 63.7Q120.9 63.4 121.8 63.4L121.8 63.4Q122.8 63.4 123.5 63.7Q124.2 64.1 124.6 64.6Q125.0 65.2 125.1 65.9L125.1 65.9L123.9 65.9Q123.8 65.2 123.2 64.9Q122.6 64.5 121.8 64.5L121.8 64.5Q121.2 64.5 120.7 64.7Q120.3 64.9 120.0 65.2Q119.8 65.6 119.8 66.0L119.8 66.0Q119.8 66.5 120.1 66.8Q120.4 67.1 120.8 67.3Q121.2 67.5 121.6 67.5L121.6 67.5L122.5 67.8Q122.9 67.9 123.4 68.1Q123.8 68.3 124.2 68.6Q124.7 68.9 124.9 69.3Q125.2 69.8 125.2 70.4L125.2 70.4Q125.2 71.2 124.8 71.8Q124.4 72.4 123.6 72.8Q122.9 73.2 121.8 73.2ZM132.3 73L131.1 73L131.1 63.5L132.3 63.5L132.3 66.8L132.3 68.5Q132.4 68.3 132.5 68.2L132.5 68.2Q132.9 67.8 133.2 67.4Q133.5 67.0 133.9 66.6L133.9 66.6L136.7 63.5L138.3 63.5L134.5 67.6L138.3 73L136.9 73L133.6 68.5L132.3 69.9L132.3 73Z "/></g><mask id="satori_om-id-1-1"><rect x="56" y="90" width="299" height="60" fill="#fff" mask="url(#satori_om-id)"/></mask><g mask="url(#satori_om-id)" clip-path="url(#satori_cp-id)"><path fill="#fafafa" d="M68.5 142L59.8 142L59.8 109.2L67.9 109.2L68.2 115.6Q68.9 113.8 69.9 112.5L69.9 112.5Q71.4 110.6 73.4 109.7Q75.4 108.7 77.6 108.7L77.6 108.7Q81.1 108.7 83.3 111.0L83.3 111.0Q85.0 112.8 86.0 116.1L86.0 116.1Q86.7 114.1 87.9 112.7L87.9 112.7Q89.5 110.7 91.8 109.7Q94.1 108.7 96.5 108.7L96.5 108.7Q99.6 108.7 101.9 110.1Q104.3 111.4 105.6 113.9Q107.0 116.3 107.0 119.9L107.0 119.9L107.0 142L98.2 142L98.2 121.6Q98.2 118.8 96.7 117.4Q95.2 116.1 93.0 116.1L93.0 116.1Q91.4 116.1 90.1 116.8Q88.9 117.5 88.3 118.8Q87.6 120.1 87.6 121.8L87.6 121.8L87.6 142L79.1 142L79.1 121.3Q79.1 118.9 77.7 117.5Q76.3 116.1 74.0 116.1L74.0 116.1Q72.5 116.1 71.2 116.8Q70.0 117.5 69.3 118.9Q68.5 120.2 68.5 122.2L68.5 122.2L68.5 142ZM121.1 142.6L121.1 142.6Q118.0 142.6 115.6 141.5Q113.1 140.4 111.7 138.3Q110.2 136.1 110.2 132.8L110.2 132.8Q110.2 130.1 111.3 128.3Q112.3 126.4 114.0 125.3Q115.8 124.2 118.0 123.6Q120.2 123.0 122.6 122.8L122.6 122.8Q125.5 122.5 127.2 122.2Q128.9 122.0 129.7 121.4Q130.6 120.9 130.6 119.9L130.6 119.9L130.6 119.7Q130.6 118.3 130.0 117.3Q129.4 116.4 128.2 115.9Q127.1 115.3 125.4 115.3L125.4 115.3Q123.7 115.3 122.5 115.9Q121.2 116.4 120.4 117.2Q119.6 118.1 119.2 119.1L119.2 119.1L111.2 117.8Q112.0 114.9 114.0 112.9Q116.0 110.9 118.9 109.9Q121.8 108.8 125.5 108.8L125.5 108.8Q128.1 108.8 130.6 109.5Q133.1 110.1 135.0 111.4Q137.0 112.7 138.2 114.9Q139.3 117.0 139.3 119.9L139.3 119.9L139.3 142L131.0 142L131.0 137.5L130.7 137.5Q129.9 139.0 128.6 140.1Q127.3 141.3 125.4 142.0Q123.6 142.6 121.1 142.6ZM123.6 136.5L123.6 136.5Q125.7 136.5 127.3 135.6Q128.9 134.8 129.7 133.4Q130.6 132.0 130.6 130.3L130.6 130.3L130.6 126.7Q130.2 127.0 129.4 127.3Q128.6 127.5 127.7 127.7Q126.7 127.8 125.8 128.0Q124.8 128.1 124.1 128.2L124.1 128.2Q122.5 128.5 121.3 129.0Q120.0 129.5 119.4 130.4Q118.7 131.2 118.7 132.6L118.7 132.6Q118.7 133.9 119.3 134.7Q120.0 135.6 121.1 136.0Q122.2 136.5 123.6 136.5ZM153.1 142L144.3 142L144.3 109.2L152.8 109.2L152.8 115.0L153.2 115.0Q154.1 111.9 156.2 110.4Q158.3 108.8 161.1 108.8L161.1 108.8Q161.8 108.8 162.6 108.9Q163.4 109.0 163.9 109.1L163.9 109.1L163.9 117.0Q163.4 116.7 162.2 116.6Q161.1 116.5 160.1 116.5L160.1 116.5Q158.1 116.5 156.5 117.4Q154.9 118.2 154.0 119.8Q153.1 121.3 153.1 123.4L153.1 123.4L153.1 142ZM175.1 142L166.3 142L166.3 109.2L175.1 109.2L175.1 142ZM170.7 105.0L170.7 105.0Q168.7 105.0 167.3 103.7Q165.9 102.3 165.9 100.5L165.9 100.5Q165.9 98.6 167.3 97.3Q168.7 95.9 170.7 95.9L170.7 95.9Q172.7 95.9 174.1 97.2Q175.5 98.6 175.5 100.5L175.5 100.5Q175.5 102.3 174.1 103.7Q172.7 105.0 170.7 105.0ZM189.2 142.6L189.2 142.6Q186.1 142.6 183.6 141.5Q181.1 140.4 179.7 138.3Q178.3 136.1 178.3 132.8L178.3 132.8Q178.3 130.1 179.3 128.3Q180.3 126.4 182.0 125.3Q183.8 124.2 186.0 123.6Q188.2 123.0 190.6 122.8L190.6 122.8Q193.5 122.5 195.2 122.2Q197.0 122.0 197.8 121.4Q198.6 120.9 198.6 119.9L198.6 119.9L198.6 119.7Q198.6 118.3 198.0 117.3Q197.4 116.4 196.2 115.9Q195.1 115.3 193.5 115.3L193.5 115.3Q191.8 115.3 190.5 115.9Q189.2 116.4 188.4 117.2Q187.7 118.1 187.3 119.1L187.3 119.1L179.2 117.8Q180.1 114.9 182.0 112.9Q184.0 110.9 186.9 109.9Q189.8 108.8 193.5 108.8L193.5 108.8Q196.1 108.8 198.6 109.5Q201.1 110.1 203.1 111.4Q205.1 112.7 206.2 114.9Q207.4 117.0 207.4 119.9L207.4 119.9L207.4 142L199.0 142L199.0 137.5L198.8 137.5Q198.0 139.0 196.6 140.1Q195.3 141.3 193.5 142.0Q191.6 142.6 189.2 142.6ZM191.7 136.5L191.7 136.5Q193.7 136.5 195.3 135.6Q196.9 134.8 197.8 133.4Q198.6 132.0 198.6 130.3L198.6 130.3L198.6 126.7Q198.3 127.0 197.5 127.3Q196.7 127.5 195.7 127.7Q194.7 127.8 193.8 128.0Q192.9 128.1 192.1 128.2L192.1 128.2Q190.5 128.5 189.3 129.0Q188.1 129.5 187.4 130.4Q186.7 131.2 186.7 132.6L186.7 132.6Q186.7 133.9 187.4 134.7Q188.0 135.6 189.1 136.0Q190.2 136.5 191.7 136.5Z M232.9 142L224.1 142L224.1 98.3L232.9 98.3L232.9 121.8L233.4 121.8L244.1 109.2L254.3 109.2L242.0 123.5L254.9 142L244.5 142L235.4 128.7L232.9 131.5L232.9 142ZM265.2 123.0L265.2 123.0L265.2 142L256.4 142L256.4 98.3L265.0 98.3L265.0 115.5Q266.2 112.8 268.2 111.1L268.2 111.1Q270.8 108.8 275.0 108.8L275.0 108.8Q278.4 108.8 280.9 110.3Q283.5 111.8 284.9 114.6Q286.3 117.3 286.3 121.2L286.3 121.2L286.3 142L277.4 142L277.4 122.7Q277.4 119.6 275.9 117.9Q274.3 116.2 271.5 116.2L271.5 116.2Q269.7 116.2 268.2 117.0Q266.8 117.8 266.0 119.3Q265.2 120.8 265.2 123.0ZM300.4 142.6L300.4 142.6Q297.3 142.6 294.8 141.5Q292.3 140.4 290.9 138.3Q289.5 136.1 289.5 132.8L289.5 132.8Q289.5 130.1 290.5 128.3Q291.5 126.4 293.2 125.3Q295.0 124.2 297.2 123.6Q299.4 123.0 301.8 122.8L301.8 122.8Q304.7 122.5 306.4 122.2Q308.2 122.0 309.0 121.4Q309.8 120.9 309.8 119.9L309.8 119.9L309.8 119.7Q309.8 118.3 309.2 117.3Q308.6 116.4 307.5 115.9Q306.3 115.3 304.7 115.3L304.7 115.3Q303.0 115.3 301.7 115.9Q300.4 116.4 299.6 117.2Q298.9 118.1 298.5 119.1L298.5 119.1L290.4 117.8Q291.3 114.9 293.2 112.9Q295.2 110.9 298.1 109.9Q301.0 108.8 304.7 108.8L304.7 108.8Q307.3 108.8 309.8 109.5Q312.3 110.1 314.3 111.4Q316.3 112.7 317.4 114.9Q318.6 117.0 318.6 119.9L318.6 119.9L318.6 142L310.2 142L310.2 137.5L310.0 137.5Q309.2 139.0 307.8 140.1Q306.5 141.3 304.7 142.0Q302.8 142.6 300.4 142.6ZM302.9 136.5L302.9 136.5Q304.9 136.5 306.5 135.6Q308.1 134.8 309.0 133.4Q309.8 132.0 309.8 130.3L309.8 130.3L309.8 126.7Q309.5 127.0 308.7 127.3Q307.9 127.5 306.9 127.7Q305.9 127.8 305.0 128.0Q304.1 128.1 303.3 128.2L303.3 128.2Q301.7 128.5 300.5 129.0Q299.3 129.5 298.6 130.4Q297.9 131.2 297.9 132.6L297.9 132.6Q297.9 133.9 298.6 134.7Q299.2 135.6 300.3 136.0Q301.4 136.5 302.9 136.5ZM332.4 123.0L332.4 123.0L332.4 142L323.6 142L323.6 109.2L331.9 109.2L332.0 116.0Q333.2 112.9 335.4 111.1L335.4 111.1Q338.0 108.8 342.2 108.8L342.2 108.8Q345.6 108.8 348.1 110.3Q350.6 111.8 352.0 114.6Q353.4 117.3 353.4 121.2L353.4 121.2L353.4 142L344.6 142L344.6 122.7Q344.6 119.6 343.1 117.9Q341.5 116.2 338.7 116.2L338.7 116.2Q336.9 116.2 335.4 117.0Q334.0 117.8 333.2 119.3Q332.4 120.8 332.4 123.0Z "/></g><mask id="satori_om-id-1-2"><rect x="56" y="172" width="135" height="26" fill="#fff" mask="url(#satori_om-id)"/></mask><g mask="url(#satori_om-id)" clip-path="url(#satori_cp-id)"><path fill="rgba(255,255,255,0.72)" d="M58.6 194.3L57.2 194.3L57.2 182.3L58.6 182.3L58.6 183.7L58.8 183.7Q58.9 183.4 59.2 183.1Q59.4 182.7 59.9 182.4Q60.4 182.2 61.3 182.2L61.3 182.2Q62.4 182.2 63.2 182.7Q64.0 183.3 64.5 184.3Q65.0 185.3 65.0 186.7L65.0 186.7Q65.0 188.0 64.5 189.1Q64.0 190.1 63.2 190.6Q62.4 191.2 61.3 191.2L61.3 191.2Q60.5 191.2 60.0 190.9Q59.4 190.6 59.2 190.3Q58.9 189.9 58.8 189.6L58.8 189.6L58.6 189.6L58.6 194.3ZM61.1 189.9L61.1 189.9Q61.9 189.9 62.4 189.5Q63 189.0 63.3 188.3Q63.6 187.6 63.6 186.6L63.6 186.6Q63.6 185.7 63.3 185.0Q63.0 184.3 62.5 183.8Q61.9 183.4 61.1 183.4L61.1 183.4Q60.3 183.4 59.7 183.8Q59.2 184.2 58.9 184.9Q58.6 185.7 58.6 186.6L58.6 186.6Q58.6 187.6 58.9 188.4Q59.2 189.1 59.7 189.5Q60.3 189.9 61.1 189.9ZM67.0 179.4L68.4 179.4L68.4 191L67.0 191L67.0 179.4ZM73.4 191.2L73.4 191.2Q72.5 191.2 71.8 190.9Q71.2 190.6 70.8 190.0Q70.4 189.4 70.4 188.5L70.4 188.5Q70.4 187.8 70.7 187.3Q71.0 186.8 71.5 186.6Q72.0 186.3 72.6 186.2Q73.2 186.0 73.8 185.9L73.8 185.9Q74.6 185.8 75.0 185.8Q75.5 185.7 75.8 185.6Q76.0 185.5 76.0 185.1L76.0 185.1L76.0 185.1Q76.0 184.6 75.8 184.2Q75.6 183.8 75.2 183.6Q74.8 183.4 74.2 183.4L74.2 183.4Q73.6 183.4 73.1 183.6Q72.7 183.8 72.4 184.1Q72.1 184.4 72.0 184.7L72.0 184.7L70.6 184.2Q71.0 183.4 71.5 183.0Q72.1 182.5 72.8 182.3Q73.5 182.2 74.1 182.2L74.1 182.2Q74.6 182.2 75.1 182.3Q75.7 182.4 76.2 182.7Q76.7 183.0 77.1 183.6Q77.4 184.2 77.4 185.2L77.4 185.2L77.4 191L76.0 191L76.0 189.8L75.9 189.8Q75.8 190.1 75.5 190.4Q75.1 190.8 74.6 191.0Q74.1 191.2 73.4 191.2ZM73.6 190.0L73.6 190.0Q74.4 190.0 74.9 189.7Q75.5 189.4 75.7 188.9Q76.0 188.4 76.0 187.8L76.0 187.8L76.0 186.6Q75.9 186.7 75.6 186.8Q75.4 186.9 75.0 187.0Q74.6 187.0 74.3 187.1Q73.9 187.1 73.7 187.1L73.7 187.1Q73.2 187.2 72.8 187.3Q72.3 187.5 72.1 187.8Q71.8 188.1 71.8 188.6L71.8 188.6Q71.8 189.0 72.0 189.3Q72.3 189.6 72.7 189.8Q73.1 190.0 73.6 190.0ZM81.5 182.3L83.3 182.3L83.3 183.5L81.5 183.5L81.5 188.7Q81.5 189.3 81.8 189.6Q82.0 189.9 82.6 189.9L82.6 189.9Q82.7 189.9 82.9 189.8Q83.1 189.8 83.3 189.8L83.3 189.8L83.6 191.0Q83.4 191.0 83.1 191.1Q82.8 191.1 82.5 191.1L82.5 191.1Q81.4 191.1 80.8 190.5Q80.1 189.9 80.1 188.8L80.1 188.8L80.1 183.5L78.8 183.5L78.8 182.3L80.1 182.3L80.1 180.2L81.5 180.2L81.5 182.3ZM87.2 182.3L89.2 182.3L89.2 183.5L87.2 183.5L87.2 191L85.8 191L85.8 183.5L84.0 183.5L84.0 182.3L85.8 182.3L85.8 181.1Q85.8 180.3 86.1 179.8Q86.5 179.3 87.0 179.1Q87.6 178.8 88.3 178.8L88.3 178.8Q88.8 178.8 89.1 178.9Q89.4 179.0 89.6 179.0L89.6 179.0L89.2 180.3Q89.1 180.2 88.9 180.2Q88.7 180.1 88.4 180.1L88.4 180.1Q87.8 180.1 87.5 180.4Q87.2 180.8 87.2 181.4L87.2 181.4L87.2 182.3ZM94.6 191.2L94.6 191.2Q93.4 191.2 92.5 190.6Q91.6 190.1 91.1 189.0Q90.6 188.0 90.6 186.7L90.6 186.7Q90.6 185.3 91.1 184.3Q91.6 183.3 92.5 182.7Q93.4 182.2 94.6 182.2L94.6 182.2Q95.8 182.2 96.7 182.7Q97.6 183.3 98.1 184.3Q98.6 185.3 98.6 186.7L98.6 186.7Q98.6 188.0 98.1 189.0Q97.6 190.1 96.7 190.6Q95.8 191.2 94.6 191.2ZM94.6 189.9L94.6 189.9Q95.5 189.9 96.1 189.5Q96.6 189.0 96.9 188.3Q97.2 187.5 97.2 186.7L97.2 186.7Q97.2 185.8 96.9 185.1Q96.6 184.3 96.1 183.9Q95.5 183.4 94.6 183.4L94.6 183.4Q93.7 183.4 93.2 183.9Q92.6 184.3 92.3 185.1Q92.1 185.8 92.1 186.7L92.1 186.7Q92.1 187.5 92.3 188.3Q92.6 189.0 93.2 189.5Q93.7 189.9 94.6 189.9ZM102.0 191L100.6 191L100.6 182.3L102 182.3L102 183.6L102.1 183.6Q102.3 182.9 103.0 182.5Q103.6 182.1 104.4 182.1L104.4 182.1Q104.5 182.1 104.7 182.1Q104.9 182.2 105.1 182.2L105.1 182.2L105.1 183.6Q105.0 183.6 104.8 183.5Q104.5 183.5 104.2 183.5L104.2 183.5Q103.6 183.5 103.1 183.8Q102.6 184.0 102.3 184.5Q102.0 184.9 102.0 185.5L102.0 185.5L102.0 191ZM108.1 191L106.7 191L106.7 182.3L108.0 182.3L108.0 183.9Q108.2 183.4 108.5 183.0L108.5 183.0Q108.9 182.6 109.4 182.3Q109.9 182.1 110.5 182.1L110.5 182.1Q111.4 182.1 112.0 182.7L112.0 182.7Q112.5 183.2 112.7 183.9L112.7 183.9Q112.9 183.4 113.2 183.1L113.2 183.1Q113.6 182.6 114.2 182.4Q114.8 182.1 115.5 182.1L115.5 182.1Q116.2 182.1 116.8 182.4Q117.5 182.8 117.8 183.4Q118.2 184.1 118.2 185.1L118.2 185.1L118.2 191L116.8 191L116.8 185.1Q116.8 184.2 116.3 183.8Q115.7 183.4 115.0 183.4L115.0 183.4Q114.5 183.4 114.0 183.6Q113.6 183.9 113.4 184.3Q113.1 184.7 113.1 185.3L113.1 185.3L113.1 191L111.7 191L111.7 185.0Q111.7 184.3 111.3 183.8Q110.8 183.4 110.0 183.4L110.0 183.4Q109.5 183.4 109.1 183.6Q108.6 183.9 108.3 184.3Q108.1 184.8 108.1 185.5L108.1 185.5L108.1 191Z M128.9 191.2L128.9 191.2Q127.6 191.2 126.7 190.6Q125.8 190.1 125.3 189.1Q124.8 188.0 124.8 186.7Q124.8 185.4 125.2 184.3Q125.7 183.3 126.6 182.7Q127.5 182.2 128.7 182.2L128.7 182.2Q129.4 182.2 130.1 182.4Q130.7 182.6 131.3 183.1Q131.8 183.6 132.2 184.5Q132.5 185.3 132.5 186.5L132.5 186.5L132.5 187.1L126.2 187.1Q126.2 188.0 126.5 188.6L126.5 188.6Q126.9 189.2 127.5 189.6Q128.1 189.9 128.9 189.9L128.9 189.9Q129.4 189.9 129.8 189.8Q130.2 189.6 130.5 189.3Q130.8 189.0 131.0 188.6L131.0 188.6L132.4 189.0Q132.1 189.6 131.7 190.1Q131.2 190.6 130.5 190.9Q129.8 191.2 128.9 191.2ZM126.2 185.9L126.2 185.9L131.1 185.9Q131.0 185.3 130.8 184.8L130.8 184.8Q130.5 184.2 130.0 183.8Q129.5 183.4 128.7 183.4Q127.9 183.4 127.3 183.8Q126.8 184.2 126.5 184.8L126.5 184.8Q126.2 185.3 126.2 185.9ZM135.9 185.8L135.9 185.8L135.9 191L134.5 191L134.5 182.3L135.9 182.3L135.9 183.9Q136.2 183.1 136.8 182.7L136.8 182.7Q137.5 182.2 138.5 182.2L138.5 182.2Q139.4 182.2 140.1 182.5Q140.8 182.9 141.1 183.6Q141.5 184.3 141.5 185.5L141.5 185.5L141.5 191L140.1 191L140.1 185.6Q140.1 184.6 139.6 184.0Q139.0 183.4 138.1 183.4L138.1 183.4Q137.5 183.4 137.0 183.7Q136.5 184.0 136.2 184.5Q135.9 185.0 135.9 185.8ZM147.5 194.5L147.5 194.5Q146.5 194.5 145.8 194.2Q145.1 194.0 144.6 193.6Q144.2 193.1 143.9 192.7L143.9 192.7L145.0 191.9Q145.2 192.2 145.5 192.5Q145.8 192.8 146.3 193.0Q146.7 193.2 147.5 193.2L147.5 193.2Q148.5 193.2 149.2 192.7Q149.9 192.2 149.9 191.1L149.9 191.1L149.9 189.4L149.8 189.4Q149.6 189.6 149.3 190.0Q149.1 190.3 148.6 190.6Q148.1 190.9 147.2 190.9L147.2 190.9Q146.2 190.9 145.3 190.4Q144.5 189.9 144.0 188.9Q143.5 188.0 143.5 186.6L143.5 186.6Q143.5 185.2 144.0 184.2Q144.5 183.3 145.3 182.7Q146.2 182.2 147.3 182.2L147.3 182.2Q148.1 182.2 148.6 182.4Q149.1 182.7 149.4 183.1Q149.7 183.4 149.8 183.7L149.8 183.7L149.9 183.7L149.9 182.3L151.3 182.3L151.3 191.2Q151.3 192.4 150.8 193.1Q150.3 193.8 149.4 194.1Q148.6 194.5 147.5 194.5ZM147.5 189.6L147.5 189.6Q148.3 189.6 148.8 189.2Q149.4 188.9 149.6 188.2Q149.9 187.5 149.9 186.6L149.9 186.6Q149.9 185.6 149.6 184.9Q149.4 184.2 148.8 183.8Q148.3 183.4 147.5 183.4L147.5 183.4Q146.6 183.4 146.1 183.8Q145.5 184.3 145.2 185.0Q145.0 185.7 145.0 186.6L145.0 186.6Q145.0 187.5 145.3 188.1Q145.5 188.8 146.1 189.2Q146.6 189.6 147.5 189.6ZM155.2 191L153.8 191L153.8 182.3L155.2 182.3L155.2 191ZM154.5 180.8L154.5 180.8Q154.1 180.8 153.8 180.6Q153.5 180.3 153.5 179.9L153.5 179.9Q153.5 179.5 153.8 179.2Q154.1 179.0 154.5 179.0L154.5 179.0Q154.9 179.0 155.2 179.2Q155.5 179.5 155.5 179.9L155.5 179.9Q155.5 180.3 155.2 180.6Q154.9 180.8 154.5 180.8ZM159.1 185.8L159.1 185.8L159.1 191L157.6 191L157.6 182.3L159 182.3L159.0 183.9Q159.4 183.1 160.0 182.7L160.0 182.7Q160.7 182.2 161.7 182.2L161.7 182.2Q162.6 182.2 163.2 182.5Q163.9 182.9 164.3 183.6Q164.6 184.3 164.6 185.5L164.6 185.5L164.6 191L163.2 191L163.2 185.6Q163.2 184.6 162.7 184.0Q162.2 183.4 161.3 183.4L161.3 183.4Q160.6 183.4 160.1 183.7Q159.6 184.0 159.3 184.5Q159.1 185.0 159.1 185.8ZM170.8 191.2L170.8 191.2Q169.5 191.2 168.6 190.6Q167.7 190.1 167.2 189.1Q166.7 188.0 166.7 186.7Q166.7 185.4 167.2 184.3Q167.6 183.3 168.5 182.7Q169.4 182.2 170.6 182.2L170.6 182.2Q171.3 182.2 172.0 182.4Q172.7 182.6 173.2 183.1Q173.8 183.6 174.1 184.5Q174.4 185.3 174.4 186.5L174.4 186.5L174.4 187.1L168.1 187.1Q168.1 188.0 168.4 188.6L168.4 188.6Q168.8 189.2 169.4 189.6Q170.0 189.9 170.8 189.9L170.8 189.9Q171.3 189.9 171.7 189.8Q172.1 189.6 172.4 189.3Q172.8 189.0 172.9 188.6L172.9 188.6L174.3 189.0Q174.1 189.6 173.6 190.1Q173.1 190.6 172.4 190.9Q171.7 191.2 170.8 191.2ZM168.1 185.9L168.1 185.9L173.0 185.9Q172.9 185.3 172.7 184.8L172.7 184.8Q172.5 184.2 171.9 183.8Q171.4 183.4 170.6 183.4Q169.8 183.4 169.3 183.8Q168.7 184.2 168.4 184.8L168.4 184.8Q168.1 185.3 168.1 185.9ZM180.1 191.2L180.1 191.2Q178.8 191.2 177.9 190.6Q177 190.1 176.5 189.1Q176.0 188.0 176.0 186.7Q176.0 185.4 176.5 184.3Q177.0 183.3 177.9 182.7Q178.8 182.2 179.9 182.2L179.9 182.2Q180.6 182.2 181.3 182.4Q182.0 182.6 182.5 183.1Q183.1 183.6 183.4 184.5Q183.7 185.3 183.7 186.5L183.7 186.5L183.7 187.1L177.4 187.1Q177.5 188.0 177.8 188.6L177.8 188.6Q178.1 189.2 178.7 189.6Q179.3 189.9 180.1 189.9L180.1 189.9Q180.6 189.9 181.0 189.8Q181.5 189.6 181.8 189.3Q182.1 189.0 182.2 188.6L182.2 188.6L183.6 189.0Q183.4 189.6 182.9 190.1Q182.4 190.6 181.7 190.9Q181 191.2 180.1 191.2ZM177.4 185.9L177.4 185.9L182.3 185.9Q182.3 185.3 182.1 184.8L182.1 184.8Q181.8 184.2 181.3 183.8Q180.7 183.4 179.9 183.4Q179.1 183.4 178.6 183.8Q178.0 184.2 177.7 184.8L177.7 184.8Q177.5 185.3 177.4 185.9ZM187.2 191L185.8 191L185.8 182.3L187.1 182.3L187.1 183.6L187.2 183.6Q187.5 182.9 188.1 182.5Q188.7 182.1 189.5 182.1L189.5 182.1Q189.6 182.1 189.8 182.1Q190.1 182.2 190.2 182.2L190.2 182.2L190.2 183.6Q190.1 183.6 189.9 183.5Q189.6 183.5 189.3 183.5L189.3 183.5Q188.7 183.5 188.2 183.8Q187.7 184.0 187.4 184.5Q187.2 184.9 187.2 185.5L187.2 185.5L187.2 191Z "/></g><mask id="satori_om-id-1-3"><rect x="56" y="200" width="202" height="26" fill="#fff" mask="url(#satori_om-id)"/></mask><g mask="url(#satori_om-id)" clip-path="url(#satori_cp-id)"><path fill="rgba(255,255,255,0.72)" d="M58.6 219L57.2 219L57.2 210.3L58.6 210.3L58.6 211.6L58.7 211.6Q58.9 210.9 59.6 210.5Q60.2 210.1 61.0 210.1L61.0 210.1Q61.1 210.1 61.3 210.1Q61.5 210.2 61.7 210.2L61.7 210.2L61.7 211.6Q61.6 211.6 61.4 211.5Q61.1 211.5 60.8 211.5L60.8 211.5Q60.2 211.5 59.7 211.8Q59.2 212.0 58.9 212.5Q58.6 212.9 58.6 213.5L58.6 213.5L58.6 219ZM65.7 219.2L65.7 219.2Q64.9 219.2 64.2 218.9Q63.5 218.6 63.1 218.0Q62.7 217.4 62.7 216.5L62.7 216.5Q62.7 215.8 63.0 215.3Q63.3 214.8 63.8 214.6Q64.3 214.3 64.9 214.2Q65.5 214.0 66.1 213.9L66.1 213.9Q66.9 213.8 67.4 213.8Q67.9 213.7 68.1 213.6Q68.4 213.5 68.4 213.1L68.4 213.1L68.4 213.1Q68.4 212.6 68.2 212.2Q68.0 211.8 67.6 211.6Q67.1 211.4 66.5 211.4L66.5 211.4Q65.9 211.4 65.5 211.6Q65.0 211.8 64.7 212.1Q64.5 212.4 64.3 212.7L64.3 212.7L63.0 212.2Q63.3 211.4 63.9 211.0Q64.5 210.5 65.1 210.3Q65.8 210.2 66.5 210.2L66.5 210.2Q66.9 210.2 67.5 210.3Q68.1 210.4 68.6 210.7Q69.1 211.0 69.4 211.6Q69.8 212.2 69.8 213.2L69.8 213.2L69.8 219L68.4 219L68.4 217.8L68.3 217.8Q68.1 218.1 67.8 218.4Q67.5 218.8 67.0 219.0Q66.4 219.2 65.7 219.2ZM65.9 218.0L65.9 218.0Q66.7 218.0 67.3 217.7Q67.8 217.4 68.1 216.9Q68.4 216.4 68.4 215.8L68.4 215.8L68.4 214.6Q68.3 214.7 68.0 214.8Q67.7 214.9 67.3 215.0Q67.0 215.0 66.6 215.1Q66.3 215.1 66.1 215.1L66.1 215.1Q65.6 215.2 65.1 215.3Q64.7 215.5 64.4 215.8Q64.1 216.1 64.1 216.6L64.1 216.6Q64.1 217.0 64.4 217.3Q64.6 217.6 65.0 217.8Q65.4 218.0 65.9 218.0ZM73.6 219L72.2 219L72.2 210.3L73.6 210.3L73.6 219ZM73.0 208.8L73.0 208.8Q72.6 208.8 72.3 208.6Q72.0 208.3 72.0 207.9L72.0 207.9Q72.0 207.5 72.3 207.2Q72.6 207.0 73.0 207.0L73.0 207.0Q73.4 207.0 73.6 207.2Q73.9 207.5 73.9 207.9L73.9 207.9Q73.9 208.3 73.6 208.6Q73.4 208.8 73.0 208.8ZM76.1 207.4L77.5 207.4L77.5 219L76.1 219L76.1 207.4ZM83.0 219.2L83.0 219.2Q82.1 219.2 81.4 218.9Q80.7 218.7 80.2 218.1Q79.8 217.6 79.6 216.9L79.6 216.9L80.9 216.6Q81.1 217.3 81.6 217.6Q82.2 218.0 82.9 218.0L82.9 218.0Q83.9 218.0 84.4 217.6Q84.9 217.2 84.9 216.6L84.9 216.6Q84.9 216.2 84.6 215.9Q84.3 215.6 83.7 215.4L83.7 215.4L82.2 215.1Q81.0 214.8 80.4 214.2Q79.9 213.6 79.9 212.7L79.9 212.7Q79.9 212.0 80.3 211.4Q80.7 210.8 81.4 210.5Q82.2 210.2 83.1 210.2L83.1 210.2Q84 210.2 84.6 210.4Q85.3 210.7 85.7 211.2Q86.0 211.6 86.2 212.3L86.2 212.3L85.0 212.6Q84.8 212.1 84.4 211.7Q84.0 211.4 83.1 211.4L83.1 211.4Q82.3 211.4 81.8 211.7Q81.3 212.1 81.3 212.6L81.3 212.6Q81.3 213.1 81.6 213.4Q82.0 213.7 82.8 213.9L82.8 213.9L84.1 214.2Q85.3 214.5 85.8 215.1Q86.4 215.6 86.4 216.5L86.4 216.5Q86.4 217.3 86.0 217.9Q85.5 218.5 84.8 218.8Q84.0 219.2 83.0 219.2ZM89.3 221.8L88.2 221.8L88.9 217.4L90.5 217.4L89.3 221.8Z M99.0 222.3L97.5 222.3L97.5 210.3L98.9 210.3L98.9 211.7L99.1 211.7Q99.2 211.4 99.5 211.1Q99.7 210.7 100.2 210.4Q100.7 210.2 101.6 210.2L101.6 210.2Q102.7 210.2 103.5 210.7Q104.4 211.3 104.8 212.3Q105.3 213.3 105.3 214.7L105.3 214.7Q105.3 216.0 104.8 217.1Q104.4 218.1 103.5 218.6Q102.7 219.2 101.6 219.2L101.6 219.2Q100.8 219.2 100.3 218.9Q99.8 218.6 99.5 218.3Q99.2 217.9 99.1 217.6L99.1 217.6L99.0 217.6L99.0 222.3ZM101.4 217.9L101.4 217.9Q102.2 217.9 102.8 217.5Q103.3 217.0 103.6 216.3Q103.9 215.6 103.9 214.6L103.9 214.6Q103.9 213.7 103.6 213.0Q103.3 212.3 102.8 211.8Q102.2 211.4 101.4 211.4L101.4 211.4Q100.6 211.4 100.0 211.8Q99.5 212.2 99.2 212.9Q98.9 213.7 98.9 214.6L98.9 214.6Q98.9 215.6 99.2 216.4Q99.5 217.1 100.1 217.5Q100.6 217.9 101.4 217.9ZM110.9 219.2L110.9 219.2Q109.7 219.2 108.8 218.6Q107.9 218.1 107.4 217.0Q106.9 216.0 106.9 214.7L106.9 214.7Q106.9 213.3 107.4 212.3Q107.9 211.3 108.8 210.7Q109.7 210.2 110.9 210.2L110.9 210.2Q112.1 210.2 113.0 210.7Q113.9 211.3 114.4 212.3Q114.9 213.3 114.9 214.7L114.9 214.7Q114.9 216.0 114.4 217.0Q113.9 218.1 113.0 218.6Q112.1 219.2 110.9 219.2ZM110.9 217.9L110.9 217.9Q111.8 217.9 112.4 217.5Q112.9 217.0 113.2 216.3Q113.5 215.5 113.5 214.7L113.5 214.7Q113.5 213.8 113.2 213.1Q112.9 212.3 112.4 211.9Q111.8 211.4 110.9 211.4L110.9 211.4Q110.0 211.4 109.5 211.9Q108.9 212.3 108.6 213.1Q108.4 213.8 108.4 214.7L108.4 214.7Q108.4 215.5 108.6 216.3Q108.9 217.0 109.5 217.5Q110.0 217.9 110.9 217.9ZM119.9 219.2L119.9 219.2Q119.0 219.2 118.3 218.9Q117.6 218.7 117.2 218.1Q116.7 217.6 116.5 216.9L116.5 216.9L117.9 216.6Q118.1 217.3 118.6 217.6Q119.1 218.0 119.9 218.0L119.9 218.0Q120.8 218.0 121.3 217.6Q121.9 217.2 121.9 216.6L121.9 216.6Q121.9 216.2 121.6 215.9Q121.3 215.6 120.6 215.4L120.6 215.4L119.2 215.1Q118.0 214.8 117.4 214.2Q116.8 213.6 116.8 212.7L116.8 212.7Q116.8 212.0 117.2 211.4Q117.7 210.8 118.4 210.5Q119.1 210.2 120.0 210.2L120.0 210.2Q120.9 210.2 121.6 210.4Q122.2 210.7 122.6 211.2Q123.0 211.6 123.2 212.3L123.2 212.3L121.9 212.6Q121.7 212.1 121.3 211.7Q120.9 211.4 120.1 211.4L120.1 211.4Q119.3 211.4 118.8 211.7Q118.2 212.1 118.2 212.6L118.2 212.6Q118.2 213.1 118.6 213.4Q118.9 213.7 119.7 213.9L119.7 213.9L121.0 214.2Q122.2 214.5 122.8 215.1Q123.4 215.6 123.4 216.5L123.4 216.5Q123.4 217.3 122.9 217.9Q122.5 218.5 121.7 218.8Q120.9 219.2 119.9 219.2ZM127.0 210.3L128.8 210.3L128.8 211.5L127.0 211.5L127.0 216.7Q127.0 217.3 127.3 217.6Q127.5 217.9 128.1 217.9L128.1 217.9Q128.2 217.9 128.4 217.8Q128.6 217.8 128.8 217.8L128.8 217.8L129.1 219.0Q128.8 219.0 128.6 219.1Q128.3 219.1 128.0 219.1L128.0 219.1Q126.9 219.1 126.3 218.5Q125.6 217.9 125.6 216.8L125.6 216.8L125.6 211.5L124.3 211.5L124.3 210.3L125.6 210.3L125.6 208.2L127.0 208.2L127.0 210.3ZM134.2 222.5L134.2 222.5Q133.2 222.5 132.5 222.2Q131.8 222.0 131.3 221.6Q130.8 221.1 130.6 220.7L130.6 220.7L131.7 219.9Q131.9 220.2 132.2 220.5Q132.4 220.8 132.9 221.0Q133.4 221.2 134.2 221.2L134.2 221.2Q135.2 221.2 135.9 220.7Q136.6 220.2 136.6 219.1L136.6 219.1L136.6 217.4L136.4 217.4Q136.3 217.6 136.0 218.0Q135.7 218.3 135.2 218.6Q134.7 218.9 133.9 218.9L133.9 218.9Q132.8 218.9 132 218.4Q131.2 217.9 130.7 216.9Q130.2 216.0 130.2 214.6L130.2 214.6Q130.2 213.2 130.7 212.2Q131.1 211.3 132.0 210.7Q132.8 210.2 133.9 210.2L133.9 210.2Q134.8 210.2 135.3 210.4Q135.8 210.7 136.0 211.1Q136.3 211.4 136.5 211.7L136.5 211.7L136.6 211.7L136.6 210.3L138.0 210.3L138.0 219.2Q138.0 220.4 137.5 221.1Q136.9 221.8 136.1 222.1Q135.2 222.5 134.2 222.5ZM134.1 217.6L134.1 217.6Q134.9 217.6 135.5 217.2Q136.0 216.9 136.3 216.2Q136.6 215.5 136.6 214.6L136.6 214.6Q136.6 213.6 136.3 212.9Q136.0 212.2 135.5 211.8Q134.9 211.4 134.1 211.4L134.1 211.4Q133.3 211.4 132.7 211.8Q132.2 212.3 131.9 213.0Q131.6 213.7 131.6 214.6L131.6 214.6Q131.6 215.5 131.9 216.1Q132.2 216.8 132.7 217.2Q133.3 217.6 134.1 217.6ZM141.8 219L140.4 219L140.4 210.3L141.8 210.3L141.8 211.6L141.9 211.6Q142.1 210.9 142.7 210.5Q143.4 210.1 144.1 210.1L144.1 210.1Q144.3 210.1 144.5 210.1Q144.7 210.2 144.9 210.2L144.9 210.2L144.9 211.6Q144.8 211.6 144.5 211.5Q144.3 211.5 144.0 211.5L144.0 211.5Q143.4 211.5 142.9 211.8Q142.4 212.0 142.1 212.5Q141.8 212.9 141.8 213.5L141.8 213.5L141.8 219ZM150.1 219.2L150.1 219.2Q148.9 219.2 147.9 218.6Q147.0 218.1 146.5 217.1Q146.0 216.0 146.0 214.7Q146.0 213.4 146.5 212.3Q147 211.3 147.9 210.7Q148.8 210.2 150.0 210.2L150.0 210.2Q150.7 210.2 151.3 210.4Q152.0 210.6 152.6 211.1Q153.1 211.6 153.4 212.5Q153.8 213.3 153.8 214.5L153.8 214.5L153.8 215.1L147.5 215.1Q147.5 216.0 147.8 216.6L147.8 216.6Q148.1 217.2 148.7 217.6Q149.3 217.9 150.1 217.9L150.1 217.9Q150.6 217.9 151.1 217.8Q151.5 217.6 151.8 217.3Q152.1 217.0 152.3 216.6L152.3 216.6L153.6 217.0Q153.4 217.6 152.9 218.1Q152.5 218.6 151.7 218.9Q151.0 219.2 150.1 219.2ZM147.5 213.9L147.5 213.9L152.3 213.9Q152.3 213.3 152.1 212.8L152.1 212.8Q151.8 212.2 151.3 211.8Q150.8 211.4 150.0 211.4Q149.2 211.4 148.6 211.8Q148.0 212.2 147.8 212.8L147.8 212.8Q147.5 213.3 147.5 213.9ZM158.8 219.2L158.8 219.2Q157.9 219.2 157.2 218.9Q156.5 218.7 156 218.1Q155.5 217.6 155.4 216.9L155.4 216.9L156.7 216.6Q156.9 217.3 157.4 217.6Q158.0 218.0 158.7 218.0L158.7 218.0Q159.6 218.0 160.2 217.6Q160.7 217.2 160.7 216.6L160.7 216.6Q160.7 216.2 160.4 215.9Q160.1 215.6 159.5 215.4L159.5 215.4L158 215.1Q156.8 214.8 156.2 214.2Q155.7 213.6 155.7 212.7L155.7 212.7Q155.7 212.0 156.1 211.4Q156.5 210.8 157.2 210.5Q158.0 210.2 158.9 210.2L158.9 210.2Q159.8 210.2 160.4 210.4Q161.0 210.7 161.4 211.2Q161.8 211.6 162.0 212.3L162.0 212.3L160.8 212.6Q160.6 212.1 160.2 211.7Q159.7 211.4 158.9 211.4L158.9 211.4Q158.1 211.4 157.6 211.7Q157.1 212.1 157.1 212.6L157.1 212.6Q157.1 213.1 157.4 213.4Q157.8 213.7 158.5 213.9L158.5 213.9L159.9 214.2Q161.1 214.5 161.6 215.1Q162.2 215.6 162.2 216.5L162.2 216.5Q162.2 217.3 161.8 217.9Q161.3 218.5 160.6 218.8Q159.8 219.2 158.8 219.2ZM165.1 221.8L164.0 221.8L164.7 217.4L166.3 217.4L165.1 221.8Z M174.7 219L173.3 219L173.3 207.4L174.7 207.4L174.7 214.1L174.9 214.1L178.6 210.3L180.4 210.3L176.7 214.0L180.7 219L178.9 219L175.7 214.9L174.7 215.8L174.7 219ZM185.1 219.1L185.1 219.1Q184.2 219.1 183.5 218.7Q182.9 218.4 182.5 217.6Q182.1 216.9 182.1 215.8L182.1 215.8L182.1 210.3L183.5 210.3L183.5 215.7Q183.5 216.7 184.1 217.3Q184.6 217.8 185.5 217.8L185.5 217.8Q186.1 217.8 186.6 217.6Q187.1 217.3 187.4 216.8Q187.7 216.2 187.7 215.5L187.7 215.5L187.7 210.3L189.1 210.3L189.1 219L187.8 219L187.8 217.4Q187.4 218.2 186.8 218.6L186.8 218.6Q186.0 219.1 185.1 219.1ZM195.6 219.2L195.6 219.2Q194.8 219.2 194.3 218.9Q193.8 218.6 193.5 218.3Q193.2 217.9 193.1 217.6L193.1 217.6L192.9 217.6L192.9 219L191.6 219L191.6 207.4L193.0 207.4L193.0 211.7L193.1 211.7Q193.2 211.4 193.5 211.1Q193.8 210.7 194.3 210.4Q194.8 210.2 195.6 210.2L195.6 210.2Q196.7 210.2 197.6 210.7Q198.4 211.3 198.9 212.3Q199.3 213.3 199.3 214.7L199.3 214.7Q199.3 216.0 198.9 217.1Q198.4 218.1 197.6 218.6Q196.7 219.2 195.6 219.2ZM195.4 217.9L195.4 217.9Q196.2 217.9 196.8 217.5Q197.3 217.0 197.6 216.3Q197.9 215.6 197.9 214.6L197.9 214.6Q197.9 213.7 197.6 213.0Q197.4 212.3 196.8 211.8Q196.3 211.4 195.4 211.4L195.4 211.4Q194.6 211.4 194.1 211.8Q193.5 212.2 193.2 212.9Q193.0 213.7 193.0 214.6L193.0 214.6Q193.0 215.6 193.3 216.4Q193.5 217.1 194.1 217.5Q194.6 217.9 195.4 217.9ZM205.0 219.2L205.0 219.2Q203.8 219.2 202.9 218.6Q201.9 218.1 201.4 217.1Q201.0 216.0 201.0 214.7Q201.0 213.4 201.4 212.3Q201.9 211.3 202.8 210.7Q203.7 210.2 204.9 210.2L204.9 210.2Q205.6 210.2 206.3 210.4Q206.9 210.6 207.5 211.1Q208.0 211.6 208.4 212.5Q208.7 213.3 208.7 214.5L208.7 214.5L208.7 215.1L202.4 215.1Q202.4 216.0 202.7 216.6L202.7 216.6Q203.0 217.2 203.7 217.6Q204.3 217.9 205.1 217.9L205.1 217.9Q205.6 217.9 206.0 217.8Q206.4 217.6 206.7 217.3Q207.0 217.0 207.2 216.6L207.2 216.6L208.5 217.0Q208.3 217.6 207.9 218.1Q207.4 218.6 206.7 218.9Q205.9 219.2 205.0 219.2ZM202.4 213.9L202.4 213.9L207.3 213.9Q207.2 213.3 207.0 212.8L207.0 212.8Q206.7 212.2 206.2 211.8Q205.7 211.4 204.9 211.4Q204.1 211.4 203.5 211.8Q203.0 212.2 202.7 212.8L202.7 212.8Q202.4 213.3 202.4 213.9ZM212.1 219L210.7 219L210.7 210.3L212.1 210.3L212.1 211.6L212.2 211.6Q212.4 210.9 213.0 210.5Q213.6 210.1 214.4 210.1L214.4 210.1Q214.6 210.1 214.8 210.1Q215.0 210.2 215.1 210.2L215.1 210.2L215.1 211.6Q215.1 211.6 214.8 211.5Q214.6 211.5 214.3 211.5L214.3 211.5Q213.7 211.5 213.2 211.8Q212.7 212.0 212.4 212.5Q212.1 212.9 212.1 213.5L212.1 213.5L212.1 219ZM218.1 213.8L218.1 213.8L218.1 219L216.7 219L216.7 210.3L218.1 210.3L218.1 211.9Q218.5 211.1 219.0 210.7L219.0 210.7Q219.8 210.2 220.8 210.2L220.8 210.2Q221.6 210.2 222.3 210.5Q223.0 210.9 223.3 211.6Q223.7 212.3 223.7 213.5L223.7 213.5L223.7 219L222.3 219L222.3 213.6Q222.3 212.6 221.8 212.0Q221.3 211.4 220.3 211.4L220.3 211.4Q219.7 211.4 219.2 211.7Q218.7 212.0 218.4 212.5Q218.1 213.0 218.1 213.8ZM229.9 219.2L229.9 219.2Q228.6 219.2 227.7 218.6Q226.8 218.1 226.3 217.1Q225.8 216.0 225.8 214.7Q225.8 213.4 226.2 212.3Q226.7 211.3 227.6 210.7Q228.5 210.2 229.7 210.2L229.7 210.2Q230.4 210.2 231.1 210.4Q231.7 210.6 232.3 211.1Q232.8 211.6 233.2 212.5Q233.5 213.3 233.5 214.5L233.5 214.5L233.5 215.1L227.2 215.1Q227.2 216.0 227.5 216.6L227.5 216.6Q227.9 217.2 228.5 217.6Q229.1 217.9 229.9 217.9L229.9 217.9Q230.4 217.9 230.8 217.8Q231.2 217.6 231.5 217.3Q231.8 217.0 232.0 216.6L232.0 216.6L233.4 217.0Q233.1 217.6 232.7 218.1Q232.2 218.6 231.5 218.9Q230.8 219.2 229.9 219.2ZM227.2 213.9L227.2 213.9L232.1 213.9Q232.0 213.3 231.8 212.8L231.8 212.8Q231.5 212.2 231.0 211.8Q230.5 211.4 229.7 211.4Q228.9 211.4 228.3 211.8Q227.8 212.2 227.5 212.8L227.5 212.8Q227.2 213.3 227.2 213.9ZM237.1 210.3L238.9 210.3L238.9 211.5L237.1 211.5L237.1 216.7Q237.1 217.3 237.4 217.6Q237.6 217.9 238.2 217.9L238.2 217.9Q238.3 217.9 238.5 217.8Q238.7 217.8 238.9 217.8L238.9 217.8L239.2 219.0Q239.0 219.0 238.7 219.1Q238.4 219.1 238.1 219.1L238.1 219.1Q237.0 219.1 236.4 218.5Q235.7 217.9 235.7 216.8L235.7 216.8L235.7 211.5L234.4 211.5L234.4 210.3L235.7 210.3L235.7 208.2L237.1 208.2L237.1 210.3ZM244.4 219.2L244.4 219.2Q243.1 219.2 242.2 218.6Q241.3 218.1 240.8 217.1Q240.3 216.0 240.3 214.7Q240.3 213.4 240.8 212.3Q241.3 211.3 242.2 210.7Q243.1 210.2 244.3 210.2L244.3 210.2Q244.9 210.2 245.6 210.4Q246.3 210.6 246.8 211.1Q247.4 211.6 247.7 212.5Q248.1 213.3 248.1 214.5L248.1 214.5L248.1 215.1L241.7 215.1Q241.8 216.0 242.1 216.6L242.1 216.6Q242.4 217.2 243.0 217.6Q243.6 217.9 244.4 217.9L244.4 217.9Q244.9 217.9 245.4 217.8Q245.8 217.6 246.1 217.3Q246.4 217.0 246.6 216.6L246.6 216.6L247.9 217.0Q247.7 217.6 247.2 218.1Q246.7 218.6 246.0 218.9Q245.3 219.2 244.4 219.2ZM241.8 213.9L241.8 213.9L246.6 213.9Q246.6 213.3 246.4 212.8L246.4 212.8Q246.1 212.2 245.6 211.8Q245.0 211.4 244.3 211.4Q243.5 211.4 242.9 211.8Q242.3 212.2 242.0 212.8L242.0 212.8Q241.8 213.3 241.8 213.9ZM253.0 219.2L253.0 219.2Q252.1 219.2 251.4 218.9Q250.7 218.7 250.3 218.1Q249.8 217.6 249.7 216.9L249.7 216.9L251.0 216.6Q251.2 217.3 251.7 217.6Q252.2 218.0 253.0 218.0L253.0 218.0Q253.9 218.0 254.5 217.6Q255.0 217.2 255.0 216.6L255.0 216.6Q255.0 216.2 254.7 215.9Q254.4 215.6 253.7 215.4L253.7 215.4L252.3 215.1Q251.1 214.8 250.5 214.2Q249.9 213.6 249.9 212.7L249.9 212.7Q249.9 212.0 250.4 211.4Q250.8 210.8 251.5 210.5Q252.3 210.2 253.2 210.2L253.2 210.2Q254.1 210.2 254.7 210.4Q255.3 210.7 255.7 211.2Q256.1 211.6 256.3 212.3L256.3 212.3L255.0 212.6Q254.9 212.1 254.4 211.7Q254.0 211.4 253.2 211.4L253.2 211.4Q252.4 211.4 251.9 211.7Q251.4 212.1 251.4 212.6L251.4 212.6Q251.4 213.1 251.7 213.4Q252.1 213.7 252.8 213.9L252.8 213.9L254.2 214.2Q255.3 214.5 255.9 215.1Q256.5 215.6 256.5 216.5L256.5 216.5Q256.5 217.3 256.1 217.9Q255.6 218.5 254.8 218.8Q254.1 219.2 253.0 219.2Z "/></g><mask id="satori_om-id-1-4"><rect x="56" y="244" width="87" height="16" fill="#fff" mask="url(#satori_om-id)"/></mask><mask id="satori_om-id-1-4-0"><rect x="56" y="244" width="80" height="16" fill="#fff" mask="url(#satori_om-id)"/></mask><g mask="url(#satori_om-id)" clip-path="url(#satori_cp-id)"><path fill="rgba(217,105,83,0.85)" d="M63.5 252.9L63.5 253.7L57.5 256.7L57.5 255.5L62.0 253.3L62.0 253.3L57.5 251.1L57.5 249.9L63.5 252.9Z M70.4 259.7L69.3 259.7L69.3 249.9L70.4 249.9L70.4 251.0L70.5 251.0Q70.6 250.8 70.8 250.6Q71.0 250.3 71.5 250.0Q71.9 249.8 72.5 249.8L72.5 249.8Q73.4 249.8 74.1 250.3Q74.8 250.7 75.2 251.5Q75.6 252.3 75.6 253.5L75.6 253.5Q75.6 254.6 75.2 255.4Q74.8 256.3 74.1 256.7Q73.4 257.2 72.6 257.2L72.6 257.2Q71.9 257.2 71.5 256.9Q71.1 256.7 70.8 256.4Q70.6 256.1 70.5 255.9L70.5 255.9L70.4 255.9L70.4 259.7ZM72.4 256.1L72.4 256.1Q73.0 256.1 73.5 255.8Q73.9 255.4 74.2 254.8Q74.4 254.2 74.4 253.5L74.4 253.5Q74.4 252.7 74.2 252.1Q74.0 251.5 73.5 251.2Q73.1 250.8 72.4 250.8L72.4 250.8Q71.7 250.8 71.3 251.2Q70.8 251.5 70.6 252.1Q70.4 252.7 70.4 253.5L70.4 253.5Q70.4 254.2 70.6 254.8Q70.8 255.5 71.3 255.8Q71.7 256.1 72.4 256.1ZM79.6 257.1L79.6 257.1Q78.9 257.1 78.4 256.8Q77.8 256.5 77.5 255.9Q77.2 255.3 77.2 254.4L77.2 254.4L77.2 249.9L78.4 249.9L78.4 254.3Q78.4 255.1 78.8 255.6Q79.2 256.1 80.0 256.1L80.0 256.1Q80.5 256.1 80.9 255.8Q81.3 255.6 81.5 255.2Q81.8 254.8 81.8 254.2L81.8 254.2L81.8 249.9L82.9 249.9L82.9 257L81.8 257L81.8 255.7Q81.5 256.4 81.0 256.7L81.0 256.7Q80.4 257.1 79.6 257.1ZM86.0 252.7L86.0 252.7L86.0 257L84.9 257L84.9 249.9L86.0 249.9L86.0 251.2Q86.3 250.6 86.8 250.2L86.8 250.2Q87.4 249.8 88.2 249.8L88.2 249.8Q88.9 249.8 89.4 250.1Q90.0 250.4 90.3 251.0Q90.6 251.6 90.6 252.5L90.6 252.5L90.6 257L89.4 257L89.4 252.6Q89.4 251.8 89.0 251.3Q88.6 250.8 87.8 250.8L87.8 250.8Q87.3 250.8 86.9 251.1Q86.5 251.3 86.3 251.7Q86.0 252.1 86.0 252.7ZM95.6 257.2L95.6 257.2Q94.5 257.2 93.8 256.7Q93.1 256.2 92.6 255.4Q92.2 254.6 92.2 253.5Q92.2 252.4 92.6 251.6Q93.0 250.8 93.8 250.3Q94.5 249.8 95.4 249.8L95.4 249.8Q96.0 249.8 96.6 250.0Q97.1 250.2 97.5 250.6Q98.0 251.0 98.3 251.7Q98.5 252.4 98.5 253.4L98.5 253.4L98.5 253.8L93.4 253.8Q93.4 254.5 93.7 255.0L93.7 255.0Q93.9 255.6 94.4 255.9Q94.9 256.1 95.6 256.1L95.6 256.1Q96.0 256.1 96.3 256.0Q96.7 255.9 96.9 255.7Q97.2 255.4 97.3 255.0L97.3 255.0L98.4 255.3Q98.3 255.9 97.9 256.3Q97.5 256.7 96.9 256.9Q96.3 257.2 95.6 257.2ZM93.4 252.9L93.4 252.9L97.4 252.9Q97.3 252.4 97.2 252.0L97.2 252.0Q96.9 251.4 96.5 251.1Q96.1 250.8 95.4 250.8Q94.8 250.8 94.3 251.1Q93.9 251.5 93.6 252.0L93.6 252.0Q93.4 252.4 93.4 252.9ZM100.9 259.3L100.0 259.3L100.5 255.7L101.8 255.7L100.9 259.3Z M108.7 257L107.6 257L107.6 249.9L108.7 249.9L108.7 257ZM108.1 248.7L108.1 248.7Q107.8 248.7 107.6 248.5Q107.4 248.3 107.4 248.0L107.4 248.0Q107.4 247.7 107.6 247.4Q107.8 247.2 108.1 247.2L108.1 247.2Q108.5 247.2 108.7 247.4Q108.9 247.7 108.9 248.0L108.9 248.0Q108.9 248.3 108.7 248.5Q108.5 248.7 108.1 248.7ZM111.9 252.7L111.9 252.7L111.9 257L110.7 257L110.7 249.9L111.8 249.9L111.8 251.2Q112.1 250.6 112.6 250.2L112.6 250.2Q113.2 249.8 114.0 249.8L114.0 249.8Q114.7 249.8 115.2 250.1Q115.8 250.4 116.1 251.0Q116.4 251.6 116.4 252.5L116.4 252.5L116.4 257L115.2 257L115.2 252.6Q115.2 251.8 114.8 251.3Q114.4 250.8 113.6 250.8L113.6 250.8Q113.1 250.8 112.7 251.1Q112.3 251.3 112.1 251.7Q111.9 252.1 111.9 252.7ZM121.1 257.2L121.1 257.2Q120.2 257.2 119.5 256.7Q118.8 256.3 118.4 255.4Q118.1 254.6 118.1 253.5L118.1 253.5Q118.1 252.3 118.4 251.5Q118.8 250.7 119.5 250.3Q120.2 249.8 121.1 249.8L121.1 249.8Q121.8 249.8 122.2 250.0Q122.6 250.3 122.8 250.6Q123.0 250.8 123.1 251.0L123.1 251.0L123.2 251.0L123.2 247.5L124.4 247.5L124.4 257L123.2 257L123.2 255.9L123.1 255.9Q123.0 256.1 122.8 256.4Q122.6 256.7 122.1 256.9Q121.7 257.2 121.1 257.2ZM121.2 256.1L121.2 256.1Q121.9 256.1 122.3 255.8Q122.8 255.5 123.0 254.8Q123.2 254.2 123.2 253.5L123.2 253.5Q123.2 252.7 123.0 252.1Q122.8 251.5 122.3 251.2Q121.9 250.8 121.2 250.8L121.2 250.8Q120.6 250.8 120.1 251.2Q119.7 251.5 119.4 252.1Q119.2 252.7 119.2 253.5L119.2 253.5Q119.2 254.2 119.4 254.8Q119.7 255.4 120.1 255.8Q120.6 256.1 121.2 256.1ZM127.5 257L126.4 257L126.4 249.9L127.5 249.9L127.5 257ZM126.9 248.7L126.9 248.7Q126.6 248.7 126.4 248.5Q126.1 248.3 126.1 248.0L126.1 248.0Q126.1 247.7 126.4 247.4Q126.6 247.2 126.9 247.2L126.9 247.2Q127.3 247.2 127.5 247.4Q127.7 247.7 127.7 248.0L127.7 248.0Q127.7 248.3 127.5 248.5Q127.3 248.7 126.9 248.7ZM131.5 257.2L131.5 257.2Q130.8 257.2 130.3 256.9Q129.7 256.7 129.4 256.2Q129.1 255.7 129.1 255.0L129.1 255.0Q129.1 254.4 129.3 254.0Q129.6 253.6 130.0 253.4Q130.4 253.2 130.9 253.1Q131.3 253.0 131.8 252.9L131.8 252.9Q132.5 252.8 132.9 252.8Q133.3 252.7 133.5 252.6Q133.7 252.5 133.7 252.2L133.7 252.2L133.7 252.2Q133.7 251.8 133.5 251.5Q133.3 251.1 133.0 251.0Q132.7 250.8 132.2 250.8L132.2 250.8Q131.7 250.8 131.3 251.0Q130.9 251.1 130.7 251.4Q130.5 251.6 130.4 251.9L130.4 251.9L129.3 251.5Q129.6 250.8 130.0 250.5Q130.5 250.1 131.0 250.0Q131.6 249.8 132.1 249.8L132.1 249.8Q132.5 249.8 132.9 249.9Q133.4 250.0 133.8 250.2Q134.2 250.5 134.5 251.0Q134.8 251.5 134.8 252.3L134.8 252.3L134.8 257L133.7 257L133.7 256.0L133.6 256.0Q133.5 256.3 133.2 256.5Q132.9 256.8 132.5 257.0Q132.1 257.2 131.5 257.2ZM131.7 256.2L131.7 256.2Q132.3 256.2 132.8 255.9Q133.2 255.7 133.4 255.3Q133.7 254.9 133.7 254.4L133.7 254.4L133.7 253.5Q133.6 253.5 133.4 253.6Q133.1 253.7 132.8 253.7Q132.5 253.8 132.2 253.8Q131.9 253.8 131.8 253.9L131.8 253.9Q131.4 253.9 131.0 254.0Q130.7 254.2 130.4 254.4Q130.2 254.6 130.2 255.0L130.2 255.0Q130.2 255.4 130.4 255.7Q130.6 255.9 130.9 256.0Q131.3 256.2 131.7 256.2Z "/></g><mask id="satori_om-id-1-4-1"><rect x="137" y="244" width="6" height="16" fill="#fff" mask="url(#satori_om-id)"/></mask><g mask="url(#satori_om-id)" clip-path="url(#satori_cp-id)"><path fill="rgba(217,105,83,0.85)" d="M137 257L142.9 257L142.9 258.1L137 258.1L137 257Z "/></g></svg>