<!-- Generated by readme-aura https://github.com/collectioneur/readme-aura -->
<svg width="800" height="160" viewBox="0 0 800 160" xmlns="http://www.w3.org/2000/svg"><clipPath id="satori_cp-id"><path x="0" y="0" width="800" height="160" d="M16,0 h768 a16,16 0 0 1 16,16 v128 a16,16 0 0 1 -16,16 h-768 a16,16 0 0 1 -16,-16 v-128 a16,16 0 0 1 16,-16"/></clipPath><mask id="satori_om-id"><rect x="0" y="0" width="800" height="160" fill="#fff"/></mask><path x="0" y="0" width="800" height="160" fill="#0e0e10" d="M16,0 h768 a16,16 0 0 1 16,16 v128 a16,16 0 0 1 -16,16 h-768 a16,16 0 0 1 -16,-16 v-128 a16,16 0 0 1 16,-16"/><mask id="satori_om-id-0"><rect x="56" y="44" width="688" height="13" fill="#fff" mask="url(#satori_om-id)"/></mask><g mask="url(#satori_om-id)" clip-path="url(#satori_cp-id)"><path fill="rgba(255,255,255,0.35)" d="M59.0 47.9L56.5 47.9L56.5 47.0L62.6 47.0L62.6 47.9L60.1 47.9L60.1 55L59.0 55L59.0 47.9ZM69.1 55L68.1 55L68.1 47.0L69.1 47.0L69.1 50.5L73.3 50.5L73.3 47.0L74.3 47.0L74.3 55L73.3 55L73.3 51.4L69.1 51.4L69.1 55ZM80.2 47.0L81.3 47.0L81.3 55L80.2 55L80.2 47.0ZM88.2 55L87.2 55L87.2 47.0L88.4 47.0L91.7 52.1Q91.8 52.3 92.0 52.6Q92.1 52.9 92.4 53.3L92.4 53.3Q92.5 53.5 92.6 53.8L92.6 53.8Q92.6 53.5 92.6 53.3L92.6 53.3Q92.5 52.9 92.5 52.5Q92.5 52.2 92.5 51.9L92.5 51.9L92.5 47.0L93.6 47.0L93.6 55L92.3 55L89.4 50.4Q89.2 50.1 89.0 49.8Q88.8 49.5 88.6 49.0L88.6 49.0Q88.4 48.7 88.1 48.2L88.1 48.2Q88.2 48.6 88.2 49.0L88.2 49.0Q88.2 49.5 88.2 49.8Q88.2 50.2 88.2 50.4L88.2 50.4L88.2 55ZM100.5 55L99.5 55L99.5 47.0L100.5 47.0L100.5 49.7L100.5 51.2Q100.6 51.1 100.7 50.9L100.7 50.9Q101.0 50.6 101.3 50.2Q101.6 49.9 101.9 49.6L101.9 49.6L104.3 47.0L105.6 47.0L102.4 50.5L105.6 55L104.4 55L101.7 51.2L100.5 52.4L100.5 55ZM110.9 47.0L111.9 47.0L111.9 55L110.9 55L110.9 47.0ZM118.9 55L117.8 55L117.8 47.0L119.0 47.0L122.3 52.1Q122.4 52.3 122.6 52.6Q122.8 52.9 123.0 53.3L123.0 53.3Q123.1 53.5 123.2 53.8L123.2 53.8Q123.2 53.5 123.2 53.3L123.2 53.3Q123.2 52.9 123.2 52.5Q123.2 52.2 123.2 51.9L123.2 51.9L123.2 47.0L124.2 47.0L124.2 55L123.0 55L120.1 50.4Q119.9 50.1 119.7 49.8Q119.5 49.5 119.2 49.0L119.2 49.0Q119.0 48.7 118.8 48.2L118.8 48.2Q118.8 48.6 118.8 49.0L118.8 49.0Q118.8 49.5 118.8 49.8Q118.9 50.2 118.9 50.4L118.9 50.4L118.9 55ZM133.4 55.1L133.4 55.1Q132.3 55.1 131.5 54.6Q130.7 54.1 130.3 53.2Q129.8 52.3 129.8 51.0L129.8 51.0Q129.8 49.7 130.3 48.8Q130.7 47.9 131.5 47.4Q132.3 46.9 133.3 46.9L133.3 46.9Q134.0 46.9 134.5 47.1Q135.1 47.3 135.5 47.6Q135.9 48.0 136.2 48.4Q136.5 48.9 136.6 49.5L136.6 49.5L135.6 49.5Q135.4 49.1 135.2 48.8Q135.0 48.5 134.7 48.3Q134.5 48.1 134.1 48.0Q133.8 47.8 133.3 47.8L133.3 47.8Q132.6 47.8 132.0 48.2Q131.5 48.6 131.1 49.3Q130.8 50.0 130.8 51.0L130.8 51.0Q130.8 52.0 131.1 52.7Q131.5 53.4 132.1 53.8Q132.7 54.2 133.4 54.2L133.4 54.2Q134.1 54.2 134.6 53.9Q135.1 53.6 135.4 53.1L135.4 53.1Q135.7 52.6 135.7 51.9L135.7 51.9L133.6 51.9L133.6 51.0L136.7 51.0L136.7 51.9Q136.7 52.8 136.2 53.6Q135.8 54.3 135.1 54.7Q134.3 55.1 133.4 55.1Z M149.8 55L148.7 55L151.6 47.0L152.8 47.0L155.8 55L154.7 55L153.9 52.8L150.6 52.8L149.8 55ZM150.9 51.9L153.6 51.9L153.0 50.3Q152.8 49.8 152.6 49.2L152.6 49.2Q152.5 48.6 152.2 47.8L152.2 47.8Q152.0 48.6 151.8 49.2L151.8 49.2Q151.6 49.8 151.5 50.3L151.5 50.3L150.9 51.9ZM163.9 55L161.0 55L161.0 47.0L163.8 47.0Q164.7 47.0 165.2 47.3Q165.8 47.6 166.0 48.1Q166.3 48.5 166.3 49.1L166.3 49.1Q166.3 49.6 166.1 50.0Q165.9 50.3 165.6 50.5Q165.3 50.7 165.0 50.8L165.0 50.8L165.0 50.9Q165.4 50.9 165.7 51.1Q166.1 51.4 166.4 51.8Q166.6 52.2 166.6 52.9L166.6 52.9Q166.6 53.5 166.3 54.0Q166.1 54.4 165.5 54.7Q164.9 55 163.9 55L163.9 55ZM162.0 51.4L162.0 54.1L163.9 54.1Q164.8 54.1 165.2 53.7Q165.6 53.4 165.6 52.9L165.6 52.9Q165.6 52.5 165.4 52.1Q165.2 51.8 164.8 51.6Q164.5 51.4 164.0 51.4L164.0 51.4L162.0 51.4ZM162.0 47.9L162.0 50.5L163.8 50.5Q164.2 50.5 164.6 50.3Q164.9 50.2 165.1 49.9Q165.3 49.6 165.3 49.1L165.3 49.1Q165.3 48.6 165.0 48.3Q164.6 47.9 163.8 47.9L163.8 47.9L162.0 47.9ZM175.4 55.1L175.4 55.1Q174.4 55.1 173.6 54.6Q172.8 54.1 172.4 53.2Q171.9 52.3 171.9 51.0L171.9 51.0Q171.9 49.7 172.4 48.8Q172.8 47.9 173.6 47.4Q174.4 46.9 175.4 46.9L175.4 46.9Q176.5 46.9 177.3 47.4Q178.1 47.9 178.5 48.8Q179.0 49.7 179.0 51.0L179.0 51.0Q179.0 52.3 178.5 53.2Q178.1 54.1 177.3 54.6Q176.5 55.1 175.4 55.1ZM175.4 54.2L175.4 54.2Q176.2 54.2 176.7 53.8Q177.3 53.4 177.7 52.7Q178.0 52.0 178.0 51.0L178.0 51.0Q178.0 50.0 177.7 49.3Q177.3 48.6 176.7 48.2Q176.2 47.8 175.4 47.8L175.4 47.8Q174.7 47.8 174.1 48.2Q173.6 48.6 173.2 49.3Q172.9 50.0 172.9 51.0L172.9 51.0Q172.9 52.0 173.2 52.7Q173.6 53.4 174.1 53.8Q174.7 54.2 175.4 54.2ZM187.7 55.1L187.7 55.1Q186.8 55.1 186.1 54.8Q185.4 54.4 185.0 53.7Q184.6 53.1 184.6 52.3L184.6 52.3L184.6 47.0L185.6 47.0L185.6 52.2Q185.6 52.8 185.9 53.2Q186.1 53.7 186.6 53.9Q187.1 54.2 187.7 54.2L187.7 54.2Q188.4 54.2 188.9 53.9Q189.3 53.7 189.6 53.2Q189.8 52.8 189.8 52.2L189.8 52.2L189.8 47.0L190.9 47.0L190.9 52.3Q190.9 53.1 190.5 53.7Q190.1 54.4 189.4 54.8Q188.7 55.1 187.7 55.1ZM198.9 47.9L196.4 47.9L196.4 47.0L202.4 47.0L202.4 47.9L199.9 47.9L199.9 55L198.9 55L198.9 47.9Z "/></g><mask id="satori_om-id-1"><rect x="56" y="71" width="688" height="23" fill="#fff" mask="url(#satori_om-id)"/></mask><g mask="url(#satori_om-id)" clip-path="url(#satori_cp-id)"><path fill="rgba(255,255,255,0.82)" d="M64.0 79.8L64.0 91.1L62.7 91.1L62.7 86.7L62.6 86.7Q62.5 87.0 62.2 87.3Q62.0 87.6 61.5 87.9Q61.0 88.2 60.2 88.2L60.2 88.2Q59.2 88.2 58.4 87.7Q57.6 87.1 57.2 86.2Q56.8 85.2 56.8 83.9L56.8 83.9Q56.8 82.6 57.2 81.7Q57.6 80.7 58.4 80.2Q59.2 79.7 60.2 79.7L60.2 79.7Q61.0 79.7 61.5 80.0Q62.0 80.2 62.2 80.6Q62.5 80.9 62.6 81.1L62.6 81.1L62.8 81.1L62.8 79.8L64.0 79.8ZM60.4 87.0L60.4 87.0Q61.2 87.0 61.7 86.6Q62.2 86.2 62.5 85.5Q62.7 84.8 62.7 83.9L62.7 83.9Q62.7 83.0 62.5 82.3Q62.2 81.6 61.7 81.3Q61.2 80.9 60.4 80.9L60.4 80.9Q59.6 80.9 59.1 81.3Q58.6 81.7 58.4 82.4Q58.1 83.1 58.1 83.9L58.1 83.9Q58.1 84.8 58.4 85.5Q58.6 86.2 59.1 86.6Q59.7 87.0 60.4 87.0ZM69.1 88.1L69.1 88.1Q68.3 88.1 67.7 87.8Q67.0 87.4 66.7 86.7Q66.3 86.0 66.3 85.0L66.3 85.0L66.3 79.8L67.7 79.8L67.7 84.9Q67.7 85.8 68.2 86.4Q68.7 86.9 69.5 86.9L69.5 86.9Q70.1 86.9 70.6 86.7Q71.0 86.4 71.3 85.9Q71.6 85.4 71.6 84.7L71.6 84.7L71.6 79.8L72.9 79.8L72.9 88L71.6 88L71.6 86.5Q71.3 87.3 70.7 87.6L70.7 87.6Q70.0 88.1 69.1 88.1ZM78.7 88.2L78.7 88.2Q77.5 88.2 76.6 87.6Q75.7 87.1 75.3 86.2Q74.8 85.2 74.8 84.0Q74.8 82.7 75.3 81.8Q75.7 80.8 76.6 80.3Q77.4 79.7 78.5 79.7L78.5 79.7Q79.2 79.7 79.8 79.9Q80.4 80.1 80.9 80.6Q81.5 81.1 81.8 81.9Q82.1 82.7 82.1 83.8L82.1 83.8L82.1 84.4L76.1 84.4Q76.2 85.1 76.5 85.7L76.5 85.7Q76.8 86.4 77.3 86.7Q77.9 87.0 78.7 87.0L78.7 87.0Q79.1 87.0 79.5 86.9Q79.9 86.7 80.2 86.4Q80.5 86.2 80.7 85.7L80.7 85.7L81.9 86.1Q81.7 86.7 81.3 87.2Q80.8 87.6 80.2 87.9Q79.5 88.2 78.7 88.2ZM76.2 83.2L76.2 83.2L80.7 83.2Q80.7 82.7 80.5 82.2L80.5 82.2Q80.2 81.6 79.7 81.2Q79.2 80.9 78.5 80.9Q77.8 80.9 77.2 81.2Q76.7 81.6 76.4 82.2L76.4 82.2Q76.2 82.7 76.2 83.2ZM86.7 88.1L86.7 88.1Q85.9 88.1 85.3 87.8Q84.7 87.4 84.3 86.7Q84.0 86.0 84.0 85.0L84.0 85.0L84.0 79.8L85.3 79.8L85.3 84.9Q85.3 85.8 85.8 86.4Q86.3 86.9 87.1 86.9L87.1 86.9Q87.7 86.9 88.2 86.7Q88.6 86.4 88.9 85.9Q89.2 85.4 89.2 84.7L89.2 84.7L89.2 79.8L90.5 79.8L90.5 88L89.2 88L89.2 86.5Q88.9 87.3 88.3 87.6L88.3 87.6Q87.6 88.1 86.7 88.1ZM96.3 88.2L96.3 88.2Q95.1 88.2 94.2 87.6Q93.4 87.1 92.9 86.2Q92.4 85.2 92.4 84.0Q92.4 82.7 92.9 81.8Q93.3 80.8 94.2 80.3Q95.0 79.7 96.1 79.7L96.1 79.7Q96.8 79.7 97.4 79.9Q98.0 80.1 98.6 80.6Q99.1 81.1 99.4 81.9Q99.7 82.7 99.7 83.8L99.7 83.8L99.7 84.4L93.8 84.4Q93.8 85.1 94.1 85.7L94.1 85.7Q94.4 86.4 95.0 86.7Q95.5 87.0 96.3 87.0L96.3 87.0Q96.8 87.0 97.2 86.9Q97.6 86.7 97.8 86.4Q98.1 86.2 98.3 85.7L98.3 85.7L99.5 86.1Q99.4 86.7 98.9 87.2Q98.5 87.6 97.8 87.9Q97.1 88.2 96.3 88.2ZM93.8 83.2L93.8 83.2L98.3 83.2Q98.3 82.7 98.1 82.2L98.1 82.2Q97.9 81.6 97.4 81.2Q96.9 80.9 96.1 80.9Q95.4 80.9 94.8 81.2Q94.3 81.6 94.0 82.2L94.0 82.2Q93.8 82.7 93.8 83.2Z M109.6 88.2L109.6 88.2Q108.8 88.2 108.3 87.9Q107.9 87.6 107.6 87.3Q107.4 87.0 107.2 86.7L107.2 86.7L107.1 86.7L107.1 88L105.8 88L105.8 77.1L107.1 77.1L107.1 81.1L107.2 81.1Q107.4 80.9 107.6 80.6Q107.8 80.2 108.3 80.0Q108.8 79.7 109.6 79.7L109.6 79.7Q110.6 79.7 111.4 80.2Q112.2 80.7 112.6 81.7Q113.1 82.6 113.1 83.9L113.1 83.9Q113.1 85.2 112.6 86.2Q112.2 87.1 111.4 87.7Q110.6 88.2 109.6 88.2ZM109.4 87.0L109.4 87.0Q110.2 87.0 110.7 86.6Q111.2 86.2 111.5 85.5Q111.7 84.8 111.7 83.9L111.7 83.9Q111.7 83.1 111.5 82.4Q111.2 81.7 110.7 81.3Q110.2 80.9 109.4 80.9L109.4 80.9Q108.6 80.9 108.1 81.3Q107.6 81.6 107.4 82.3Q107.1 83.0 107.1 83.9L107.1 83.9Q107.1 84.8 107.4 85.5Q107.6 86.2 108.1 86.6Q108.7 87.0 109.4 87.0ZM117.3 88.2L117.3 88.2Q116.5 88.2 115.9 87.9Q115.2 87.6 114.9 87.0Q114.5 86.5 114.5 85.7L114.5 85.7Q114.5 85.0 114.8 84.5Q115.0 84.1 115.5 83.8Q116.0 83.6 116.5 83.5Q117.1 83.3 117.7 83.3L117.7 83.3Q118.4 83.2 118.9 83.1Q119.3 83.1 119.5 82.9Q119.8 82.8 119.8 82.5L119.8 82.5L119.8 82.5Q119.8 82.0 119.6 81.6Q119.4 81.2 119.0 81.1Q118.6 80.9 118.1 80.9L118.1 80.9Q117.5 80.9 117.0 81.0Q116.6 81.2 116.4 81.5Q116.1 81.8 116.0 82.1L116.0 82.1L114.7 81.6Q115.0 80.9 115.6 80.5Q116.1 80.1 116.7 79.9Q117.4 79.7 118.0 79.7L118.0 79.7Q118.4 79.7 118.9 79.8Q119.5 79.9 120.0 80.2Q120.4 80.5 120.8 81.1Q121.1 81.6 121.1 82.6L121.1 82.6L121.1 88L119.8 88L119.8 86.9L119.7 86.9Q119.6 87.2 119.3 87.5Q118.9 87.8 118.5 88.0Q118.0 88.2 117.3 88.2ZM117.5 87.0L117.5 87.0Q118.2 87.0 118.7 86.7Q119.2 86.5 119.5 86.0Q119.8 85.5 119.8 85.0L119.8 85.0L119.8 83.9Q119.7 84.0 119.4 84.1Q119.1 84.2 118.8 84.2Q118.4 84.3 118.1 84.3Q117.8 84.4 117.6 84.4L117.6 84.4Q117.1 84.4 116.7 84.6Q116.3 84.7 116.1 85.0Q115.8 85.3 115.8 85.7L115.8 85.7Q115.8 86.2 116.0 86.4Q116.2 86.7 116.6 86.9Q117.0 87.0 117.5 87.0ZM126.7 88.2L126.7 88.2Q125.6 88.2 124.8 87.6Q123.9 87.1 123.5 86.2Q123.0 85.2 123.0 84.0L123.0 84.0Q123.0 82.7 123.5 81.7Q123.9 80.8 124.8 80.2Q125.6 79.7 126.7 79.7L126.7 79.7Q127.3 79.7 127.9 79.9Q128.4 80.0 128.8 80.3Q129.2 80.6 129.6 81.0Q129.9 81.4 130.0 82.0L130.0 82.0L128.8 82.3Q128.7 82.0 128.5 81.8Q128.3 81.5 128.1 81.3Q127.8 81.1 127.5 81.0Q127.1 80.9 126.7 80.9L126.7 80.9Q125.9 80.9 125.4 81.3Q124.9 81.7 124.6 82.4Q124.3 83.1 124.3 84.0L124.3 84.0Q124.3 84.8 124.6 85.5Q124.9 86.1 125.4 86.6Q125.9 87.0 126.7 87.0L126.7 87.0Q127.1 87.0 127.5 86.9Q127.8 86.8 128.1 86.6Q128.4 86.4 128.5 86.1Q128.7 85.8 128.8 85.5L128.8 85.5L130.1 85.8Q129.9 86.4 129.6 86.8Q129.3 87.3 128.8 87.6Q128.4 87.9 127.9 88.0Q127.3 88.2 126.7 88.2ZM133.3 88L132.0 88L132.0 77.1L133.3 77.1L133.3 83.4L133.4 83.4L136.9 79.8L138.6 79.8L135.2 83.3L138.8 88L137.1 88L134.1 84.2L133.3 85.0L133.3 88ZM140.1 82.7L144.9 82.7L144.9 83.9L140.1 83.9L140.1 82.7ZM148.4 91.1L147.1 91.1L147.1 79.8L148.4 79.8L148.4 81.1L148.5 81.1Q148.7 80.9 148.9 80.6Q149.2 80.2 149.6 80.0Q150.1 79.7 150.9 79.7L150.9 79.7Q151.9 79.7 152.7 80.2Q153.5 80.7 153.9 81.7Q154.4 82.6 154.4 83.9L154.4 83.9Q154.4 85.2 153.9 86.2Q153.5 87.1 152.7 87.7Q151.9 88.2 150.9 88.2L150.9 88.2Q150.1 88.2 149.6 87.9Q149.2 87.6 148.9 87.3Q148.7 87.0 148.5 86.7L148.5 86.7L148.4 86.7L148.4 91.1ZM150.7 87.0L150.7 87.0Q151.5 87.0 152.0 86.6Q152.5 86.2 152.8 85.5Q153.0 84.8 153.0 83.9L153.0 83.9Q153.0 83.1 152.8 82.4Q152.5 81.7 152.0 81.3Q151.5 80.9 150.7 80.9L150.7 80.9Q149.9 80.9 149.4 81.3Q148.9 81.6 148.7 82.3Q148.4 83.0 148.4 83.9L148.4 83.9Q148.4 84.8 148.7 85.5Q148.9 86.2 149.4 86.6Q150.0 87.0 150.7 87.0ZM157.6 88L156.3 88L156.3 79.8L157.6 79.8L157.6 81.1L157.6 81.1Q157.9 80.4 158.5 80.1Q159.0 79.7 159.8 79.7L159.8 79.7Q159.9 79.7 160.1 79.7Q160.3 79.7 160.4 79.7L160.4 79.7L160.4 81.0Q160.4 81.0 160.1 81.0Q159.9 81.0 159.6 81.0L159.6 81.0Q159.1 81.0 158.6 81.2Q158.1 81.5 157.9 81.9Q157.6 82.3 157.6 82.9L157.6 82.9L157.6 88ZM165.4 88.2L165.4 88.2Q164.2 88.2 163.3 87.6Q162.5 87.1 162.0 86.2Q161.5 85.2 161.5 84.0Q161.5 82.7 162.0 81.8Q162.4 80.8 163.3 80.3Q164.1 79.7 165.2 79.7L165.2 79.7Q165.9 79.7 166.5 79.9Q167.1 80.1 167.7 80.6Q168.2 81.1 168.5 81.9Q168.8 82.7 168.8 83.8L168.8 83.8L168.8 84.4L162.9 84.4Q162.9 85.1 163.2 85.7L163.2 85.7Q163.5 86.4 164.1 86.7Q164.6 87.0 165.4 87.0L165.4 87.0Q165.9 87.0 166.3 86.9Q166.7 86.7 166.9 86.4Q167.2 86.2 167.4 85.7L167.4 85.7L168.7 86.1Q168.5 86.7 168.0 87.2Q167.6 87.6 166.9 87.9Q166.2 88.2 165.4 88.2ZM162.9 83.2L162.9 83.2L167.4 83.2Q167.4 82.7 167.2 82.2L167.2 82.2Q167.0 81.6 166.5 81.2Q166.0 80.9 165.2 80.9Q164.5 80.9 164.0 81.2Q163.4 81.6 163.1 82.2L163.1 82.2Q162.9 82.7 162.9 83.2ZM173.5 88.2L173.5 88.2Q172.6 88.2 172.0 87.9Q171.3 87.7 170.9 87.2Q170.5 86.7 170.3 86.0L170.3 86.0L171.6 85.7Q171.7 86.4 172.2 86.7Q172.7 87.0 173.4 87.0L173.4 87.0Q174.3 87.0 174.8 86.7Q175.3 86.3 175.3 85.8L175.3 85.8Q175.3 85.4 175.0 85.1Q174.7 84.8 174.1 84.7L174.1 84.7L172.8 84.3Q171.6 84.1 171.1 83.5Q170.6 83.0 170.6 82.1L170.6 82.1Q170.6 81.4 171.0 80.9Q171.3 80.3 172.0 80.0Q172.7 79.7 173.6 79.7L173.6 79.7Q174.4 79.7 175.0 80.0Q175.6 80.2 176.0 80.7Q176.4 81.1 176.5 81.7L176.5 81.7L175.3 82.0Q175.2 81.5 174.8 81.2Q174.4 80.8 173.6 80.8L173.6 80.8Q172.9 80.8 172.4 81.2Q171.9 81.5 171.9 82.0L171.9 82.0Q171.9 82.5 172.2 82.7Q172.6 83.0 173.3 83.2L173.3 83.2L174.5 83.5Q175.6 83.7 176.2 84.3Q176.7 84.9 176.7 85.7L176.7 85.7Q176.7 86.4 176.3 87.0Q175.9 87.5 175.1 87.9Q174.4 88.2 173.5 88.2ZM181.4 88.2L181.4 88.2Q180.5 88.2 179.9 87.9Q179.2 87.7 178.8 87.2Q178.4 86.7 178.2 86.0L178.2 86.0L179.5 85.7Q179.7 86.4 180.1 86.7Q180.6 87.0 181.4 87.0L181.4 87.0Q182.2 87.0 182.7 86.7Q183.2 86.3 183.2 85.8L183.2 85.8Q183.2 85.4 182.9 85.1Q182.6 84.8 182.0 84.7L182.0 84.7L180.7 84.3Q179.6 84.1 179.0 83.5Q178.5 83.0 178.5 82.1L178.5 82.1Q178.5 81.4 178.9 80.9Q179.3 80.3 180.0 80.0Q180.6 79.7 181.5 79.7L181.5 79.7Q182.4 79.7 182.9 80.0Q183.5 80.2 183.9 80.7Q184.3 81.1 184.5 81.7L184.5 81.7L183.3 82.0Q183.1 81.5 182.7 81.2Q182.3 80.8 181.5 80.8L181.5 80.8Q180.8 80.8 180.3 81.2Q179.8 81.5 179.8 82.0L179.8 82.0Q179.8 82.5 180.1 82.7Q180.5 83.0 181.2 83.2L181.2 83.2L182.4 83.5Q183.5 83.7 184.1 84.3Q184.6 84.9 184.6 85.7L184.6 85.7Q184.6 86.4 184.2 87.0Q183.8 87.5 183.1 87.9Q182.3 88.2 181.4 88.2ZM189.3 88.1L189.3 88.1Q188.5 88.1 187.8 87.8Q187.2 87.4 186.9 86.7Q186.5 86.0 186.5 85.0L186.5 85.0L186.5 79.8L187.8 79.8L187.8 84.9Q187.8 85.8 188.3 86.4Q188.8 86.9 189.7 86.9L189.7 86.9Q190.3 86.9 190.7 86.7Q191.2 86.4 191.5 85.9Q191.7 85.4 191.7 84.7L191.7 84.7L191.7 79.8L193.1 79.8L193.1 88L191.8 88L191.8 86.5Q191.4 87.3 190.9 87.6L190.9 87.6Q190.2 88.1 189.3 88.1ZM196.7 88L195.4 88L195.4 79.8L196.7 79.8L196.7 81.1L196.7 81.1Q197.0 80.4 197.6 80.1Q198.1 79.7 198.9 79.7L198.9 79.7Q199.0 79.7 199.2 79.7Q199.4 79.7 199.5 79.7L199.5 79.7L199.5 81.0Q199.5 81.0 199.2 81.0Q199.0 81.0 198.7 81.0L198.7 81.0Q198.2 81.0 197.7 81.2Q197.2 81.5 197.0 81.9Q196.7 82.3 196.7 82.9L196.7 82.9L196.7 88ZM204.5 88.2L204.5 88.2Q203.3 88.2 202.4 87.6Q201.6 87.1 201.1 86.2Q200.6 85.2 200.6 84.0Q200.6 82.7 201.1 81.8Q201.5 80.8 202.4 80.3Q203.2 79.7 204.3 79.7L204.3 79.7Q205.0 79.7 205.6 79.9Q206.2 80.1 206.8 80.6Q207.3 81.1 207.6 81.9Q207.9 82.7 207.9 83.8L207.9 83.8L207.9 84.4L202.0 84.4Q202.0 85.1 202.3 85.7L202.3 85.7Q202.6 86.4 203.2 86.7Q203.7 87.0 204.5 87.0L204.5 87.0Q205.0 87.0 205.4 86.9Q205.8 86.7 206.0 86.4Q206.3 86.2 206.5 85.7L206.5 85.7L207.8 86.1Q207.6 86.7 207.1 87.2Q206.7 87.6 206.0 87.9Q205.3 88.2 204.5 88.2ZM202.0 83.2L202.0 83.2L206.5 83.2Q206.5 82.7 206.3 82.2L206.3 82.2Q206.1 81.6 205.6 81.2Q205.1 80.9 204.3 80.9Q203.6 80.9 203.0 81.2Q202.5 81.6 202.2 82.2L202.2 82.2Q202.0 82.7 202.0 83.2ZM210.8 88.1L210.8 88.1Q210.4 88.1 210.1 87.8Q209.8 87.5 209.8 87.1L209.8 87.1Q209.8 86.7 210.1 86.4Q210.4 86.1 210.8 86.1L210.8 86.1Q211.2 86.1 211.5 86.4Q211.8 86.7 211.8 87.1L211.8 87.1Q211.8 87.5 211.5 87.8Q211.2 88.1 210.8 88.1Z M219.6 83.1L219.6 83.1L219.6 88L218.3 88L218.3 77.1L219.6 77.1L219.6 81.2Q220.0 80.5 220.5 80.2L220.5 80.2Q221.2 79.7 222.1 79.7L222.1 79.7Q222.9 79.7 223.5 80.0Q224.2 80.4 224.5 81.1Q224.9 81.8 224.9 82.8L224.9 82.8L224.9 88L223.5 88L223.5 82.9Q223.5 82.0 223.0 81.4Q222.6 80.9 221.7 80.9L221.7 80.9Q221.1 80.9 220.6 81.2Q220.2 81.4 219.9 81.9Q219.6 82.4 219.6 83.1ZM230.5 88.2L230.5 88.2Q229.4 88.2 228.6 87.6Q227.7 87.1 227.3 86.2Q226.8 85.2 226.8 84.0L226.8 84.0Q226.8 82.7 227.3 81.7Q227.7 80.8 228.6 80.2Q229.4 79.7 230.5 79.7L230.5 79.7Q231.6 79.7 232.5 80.2Q233.3 80.8 233.8 81.7Q234.3 82.7 234.3 84.0L234.3 84.0Q234.3 85.2 233.8 86.2Q233.3 87.1 232.5 87.6Q231.6 88.2 230.5 88.2ZM230.5 87.0L230.5 87.0Q231.3 87.0 231.9 86.6Q232.4 86.1 232.7 85.5Q232.9 84.8 232.9 84.0L232.9 84.0Q232.9 83.1 232.7 82.4Q232.4 81.7 231.9 81.3Q231.3 80.9 230.5 80.9L230.5 80.9Q229.7 80.9 229.2 81.3Q228.6 81.7 228.4 82.4Q228.1 83.1 228.1 84.0L228.1 84.0Q228.1 84.8 228.4 85.5Q228.6 86.1 229.2 86.6Q229.7 87.0 230.5 87.0ZM239.3 88L238.0 88L235.5 79.8L236.9 79.8L237.9 83.4Q238.1 84.1 238.4 85.0L238.4 85.0Q238.5 85.7 238.7 86.6L238.7 86.6Q238.9 85.8 239.0 85.1L239.0 85.1Q239.3 84.2 239.5 83.4L239.5 83.4L240.5 79.8L241.9 79.8L242.8 83.4Q243.0 84.1 243.3 85.1L243.3 85.1Q243.4 85.8 243.6 86.6L243.6 86.6Q243.8 85.8 243.9 85.1L243.9 85.1Q244.2 84.2 244.4 83.4L244.4 83.4L245.4 79.8L246.8 79.8L244.3 88L243.0 88L241.9 84.3Q241.8 83.7 241.6 83.1Q241.5 82.6 241.3 81.9L241.3 81.9Q241.2 81.6 241.2 81.3L241.2 81.3Q241.1 81.6 241.0 81.9L241.0 81.9Q240.9 82.6 240.7 83.2Q240.5 83.7 240.4 84.3L240.4 84.3L239.3 88Z M254.0 88L252.7 88L252.7 79.8L253.9 79.8L253.9 81.1L254.0 81.1Q254.3 80.4 254.8 80.1Q255.4 79.7 256.2 79.7L256.2 79.7Q256.3 79.7 256.5 79.7Q256.7 79.7 256.8 79.7L256.8 79.7L256.8 81.0Q256.8 81.0 256.5 81.0Q256.3 81.0 256.0 81.0L256.0 81.0Q255.4 81.0 255.0 81.2Q254.5 81.5 254.3 81.9Q254.0 82.3 254.0 82.9L254.0 82.9L254.0 88ZM260.6 88.2L260.6 88.2Q259.8 88.2 259.2 87.9Q258.6 87.6 258.2 87.0Q257.8 86.5 257.8 85.7L257.8 85.7Q257.8 85.0 258.1 84.5Q258.4 84.1 258.8 83.8Q259.3 83.6 259.9 83.5Q260.4 83.3 261.0 83.3L261.0 83.3Q261.7 83.2 262.2 83.1Q262.7 83.1 262.9 82.9Q263.1 82.8 263.1 82.5L263.1 82.5L263.1 82.5Q263.1 82.0 262.9 81.6Q262.7 81.2 262.3 81.1Q262.0 80.9 261.4 80.9L261.4 80.9Q260.8 80.9 260.4 81.0Q260.0 81.2 259.7 81.5Q259.5 81.8 259.3 82.1L259.3 82.1L258.1 81.6Q258.4 80.9 258.9 80.5Q259.4 80.1 260.1 79.9Q260.7 79.7 261.4 79.7L261.4 79.7Q261.8 79.7 262.3 79.8Q262.8 79.9 263.3 80.2Q263.8 80.5 264.1 81.1Q264.4 81.6 264.4 82.6L264.4 82.6L264.4 88L263.1 88L263.1 86.9L263.0 86.9Q262.9 87.2 262.6 87.5Q262.3 87.8 261.8 88.0Q261.3 88.2 260.6 88.2ZM260.8 87.0L260.8 87.0Q261.6 87.0 262.1 86.7Q262.6 86.5 262.8 86.0Q263.1 85.5 263.1 85.0L263.1 85.0L263.1 83.9Q263.0 84.0 262.8 84.1Q262.5 84.2 262.1 84.2Q261.8 84.3 261.5 84.3Q261.1 84.4 260.9 84.4L260.9 84.4Q260.5 84.4 260.1 84.6Q259.6 84.7 259.4 85.0Q259.1 85.3 259.1 85.7L259.1 85.7Q259.1 86.2 259.4 86.4Q259.6 86.7 260.0 86.9Q260.3 87.0 260.8 87.0ZM268.1 88L266.7 88L266.7 79.8L268.1 79.8L268.1 88ZM267.4 78.5L267.4 78.5Q267.0 78.5 266.8 78.2Q266.5 78.0 266.5 77.6L266.5 77.6Q266.5 77.2 266.8 77.0Q267.0 76.7 267.4 76.7L267.4 76.7Q267.8 76.7 268.1 77.0Q268.3 77.2 268.3 77.6L268.3 77.6Q268.3 78.0 268.1 78.2Q267.8 78.5 267.4 78.5ZM270.4 77.1L271.7 77.1L271.7 88L270.4 88L270.4 77.1ZM276.8 88.2L276.8 88.2Q275.9 88.2 275.3 87.9Q274.6 87.7 274.2 87.2Q273.8 86.7 273.6 86.0L273.6 86.0L274.9 85.7Q275.1 86.4 275.6 86.7Q276.0 87.0 276.8 87.0L276.8 87.0Q277.6 87.0 278.1 86.7Q278.6 86.3 278.6 85.8L278.6 85.8Q278.6 85.4 278.4 85.1Q278.1 84.8 277.4 84.7L277.4 84.7L276.1 84.3Q275.0 84.1 274.4 83.5Q273.9 83.0 273.9 82.1L273.9 82.1Q273.9 81.4 274.3 80.9Q274.7 80.3 275.4 80.0Q276.0 79.7 276.9 79.7L276.9 79.7Q277.8 79.7 278.4 80.0Q278.9 80.2 279.3 80.7Q279.7 81.1 279.9 81.7L279.9 81.7L278.7 82.0Q278.5 81.5 278.1 81.2Q277.7 80.8 276.9 80.8L276.9 80.8Q276.2 80.8 275.7 81.2Q275.2 81.5 275.2 82.0L275.2 82.0Q275.2 82.5 275.6 82.7Q275.9 83.0 276.6 83.2L276.6 83.2L277.8 83.5Q278.9 83.7 279.5 84.3Q280.0 84.9 280.0 85.7L280.0 85.7Q280.0 86.4 279.6 87.0Q279.2 87.5 278.5 87.9Q277.7 88.2 276.8 88.2Z M288.9 88.2L288.9 88.2Q288.1 88.2 287.4 87.9Q286.8 87.7 286.3 87.2Q285.9 86.7 285.8 86.0L285.8 86.0L287.0 85.7Q287.2 86.4 287.7 86.7Q288.2 87.0 288.9 87.0L288.9 87.0Q289.8 87.0 290.3 86.7Q290.8 86.3 290.8 85.8L290.8 85.8Q290.8 85.4 290.5 85.1Q290.2 84.8 289.6 84.7L289.6 84.7L288.2 84.3Q287.1 84.1 286.6 83.5Q286.0 83.0 286.0 82.1L286.0 82.1Q286.0 81.4 286.4 80.9Q286.8 80.3 287.5 80.0Q288.2 79.7 289.1 79.7L289.1 79.7Q289.9 79.7 290.5 80.0Q291.1 80.2 291.4 80.7Q291.8 81.1 292.0 81.7L292.0 81.7L290.8 82.0Q290.6 81.5 290.2 81.2Q289.9 80.8 289.1 80.8L289.1 80.8Q288.3 80.8 287.8 81.2Q287.4 81.5 287.4 82.0L287.4 82.0Q287.4 82.5 287.7 82.7Q288.0 83.0 288.7 83.2L288.7 83.2L290.0 83.5Q291.1 83.7 291.6 84.3Q292.2 84.9 292.2 85.7L292.2 85.7Q292.2 86.4 291.7 87.0Q291.3 87.5 290.6 87.9Q289.9 88.2 288.9 88.2ZM296.8 88.1L296.8 88.1Q296.0 88.1 295.4 87.8Q294.8 87.4 294.4 86.7Q294.1 86.0 294.1 85.0L294.1 85.0L294.1 79.8L295.4 79.8L295.4 84.9Q295.4 85.8 295.9 86.4Q296.4 86.9 297.2 86.9L297.2 86.9Q297.8 86.9 298.3 86.7Q298.7 86.4 299.0 85.9Q299.3 85.4 299.3 84.7L299.3 84.7L299.3 79.8L300.6 79.8L300.6 88L299.3 88L299.3 86.5Q299.0 87.3 298.4 87.6L298.4 87.6Q297.7 88.1 296.8 88.1ZM304.2 88L302.9 88L302.9 79.8L304.2 79.8L304.2 81.1L304.3 81.1Q304.5 80.4 305.1 80.1Q305.7 79.7 306.4 79.7L306.4 79.7Q306.6 79.7 306.8 79.7Q307.0 79.7 307.1 79.7L307.1 79.7L307.1 81.0Q307.0 81.0 306.8 81.0Q306.6 81.0 306.3 81.0L306.3 81.0Q305.7 81.0 305.2 81.2Q304.8 81.5 304.5 81.9Q304.2 82.3 304.2 82.9L304.2 82.9L304.2 88ZM309.9 91.1L308.6 91.1L308.6 79.8L309.9 79.8L309.9 81.1L310.0 81.1Q310.1 80.9 310.4 80.6Q310.6 80.2 311.1 80.0Q311.6 79.7 312.4 79.7L312.4 79.7Q313.4 79.7 314.2 80.2Q315.0 80.7 315.4 81.7Q315.8 82.6 315.8 83.9L315.8 83.9Q315.8 85.2 315.4 86.2Q315.0 87.1 314.2 87.7Q313.4 88.2 312.4 88.2L312.4 88.2Q311.6 88.2 311.1 87.9Q310.6 87.6 310.4 87.3Q310.1 87.0 310.0 86.7L310.0 86.7L309.9 86.7L309.9 91.1ZM312.2 87.0L312.2 87.0Q312.9 87.0 313.5 86.6Q314.0 86.2 314.2 85.5Q314.5 84.8 314.5 83.9L314.5 83.9Q314.5 83.1 314.2 82.4Q314.0 81.7 313.5 81.3Q313.0 80.9 312.2 80.9L312.2 80.9Q311.4 80.9 310.9 81.3Q310.4 81.6 310.1 82.3Q309.9 83.0 309.9 83.9L309.9 83.9Q309.9 84.8 310.1 85.5Q310.4 86.2 310.9 86.6Q311.4 87.0 312.2 87.0ZM319.1 88L317.8 88L317.8 79.8L319.0 79.8L319.0 81.1L319.1 81.1Q319.3 80.4 319.9 80.1Q320.5 79.7 321.2 79.7L321.2 79.7Q321.4 79.7 321.6 79.7Q321.8 79.7 321.9 79.7L321.9 79.7L321.9 81.0Q321.9 81.0 321.6 81.0Q321.4 81.0 321.1 81.0L321.1 81.0Q320.5 81.0 320.1 81.2Q319.6 81.5 319.3 81.9Q319.1 82.3 319.1 82.9L319.1 82.9L319.1 88ZM324.7 88L323.4 88L323.4 79.8L324.7 79.8L324.7 88ZM324.1 78.5L324.1 78.5Q323.7 78.5 323.4 78.2Q323.2 78.0 323.2 77.6L323.2 77.6Q323.2 77.2 323.4 77.0Q323.7 76.7 324.1 76.7L324.1 76.7Q324.5 76.7 324.7 77.0Q325.0 77.2 325.0 77.6L325.0 77.6Q325.0 78.0 324.7 78.2Q324.5 78.5 324.1 78.5ZM329.8 88.2L329.8 88.2Q329.0 88.2 328.3 87.9Q327.7 87.7 327.2 87.2Q326.8 86.7 326.7 86.0L326.7 86.0L327.9 85.7Q328.1 86.4 328.6 86.7Q329.1 87.0 329.8 87.0L329.8 87.0Q330.7 87.0 331.2 86.7Q331.7 86.3 331.7 85.8L331.7 85.8Q331.7 85.4 331.4 85.1Q331.1 84.8 330.5 84.7L330.5 84.7L329.1 84.3Q328.0 84.1 327.5 83.5Q326.9 83.0 326.9 82.1L326.9 82.1Q326.9 81.4 327.3 80.9Q327.7 80.3 328.4 80.0Q329.1 79.7 330.0 79.7L330.0 79.7Q330.8 79.7 331.4 80.0Q332.0 80.2 332.3 80.7Q332.7 81.1 332.9 81.7L332.9 81.7L331.7 82.0Q331.5 81.5 331.1 81.2Q330.8 80.8 330.0 80.8L330.0 80.8Q329.2 80.8 328.7 81.2Q328.3 81.5 328.3 82.0L328.3 82.0Q328.3 82.5 328.6 82.7Q328.9 83.0 329.6 83.2L329.6 83.2L330.9 83.5Q332.0 83.7 332.5 84.3Q333.1 84.9 333.1 85.7L333.1 85.7Q333.1 86.4 332.6 87.0Q332.2 87.5 331.5 87.9Q330.8 88.2 329.8 88.2ZM338.4 88.2L338.4 88.2Q337.2 88.2 336.4 87.6Q335.5 87.1 335.0 86.2Q334.6 85.2 334.6 84.0Q334.6 82.7 335.0 81.8Q335.5 80.8 336.3 80.3Q337.1 79.7 338.2 79.7L338.2 79.7Q338.9 79.7 339.5 79.9Q340.2 80.1 340.7 80.6Q341.2 81.1 341.5 81.9Q341.8 82.7 341.8 83.8L341.8 83.8L341.8 84.4L335.9 84.4Q335.9 85.1 336.2 85.7L336.2 85.7Q336.5 86.4 337.1 86.7Q337.7 87.0 338.4 87.0L338.4 87.0Q338.9 87.0 339.3 86.9Q339.7 86.7 340.0 86.4Q340.3 86.2 340.4 85.7L340.4 85.7L341.7 86.1Q341.5 86.7 341.0 87.2Q340.6 87.6 339.9 87.9Q339.2 88.2 338.4 88.2ZM335.9 83.2L335.9 83.2L340.5 83.2Q340.4 82.7 340.2 82.2L340.2 82.2Q340.0 81.6 339.5 81.2Q339.0 80.9 338.2 80.9Q337.5 80.9 337.0 81.2Q336.5 81.6 336.2 82.2L336.2 82.2Q335.9 82.7 335.9 83.2ZM346.5 88.2L346.5 88.2Q345.6 88.2 345.0 87.9Q344.3 87.7 343.9 87.2Q343.5 86.7 343.3 86.0L343.3 86.0L344.6 85.7Q344.8 86.4 345.3 86.7Q345.7 87.0 346.5 87.0L346.5 87.0Q347.3 87.0 347.8 86.7Q348.3 86.3 348.3 85.8L348.3 85.8Q348.3 85.4 348.0 85.1Q347.8 84.8 347.1 84.7L347.1 84.7L345.8 84.3Q344.7 84.1 344.1 83.5Q343.6 83.0 343.6 82.1L343.6 82.1Q343.6 81.4 344.0 80.9Q344.4 80.3 345.1 80.0Q345.7 79.7 346.6 79.7L346.6 79.7Q347.5 79.7 348.0 80.0Q348.6 80.2 349.0 80.7Q349.4 81.1 349.6 81.7L349.6 81.7L348.4 82.0Q348.2 81.5 347.8 81.2Q347.4 80.8 346.6 80.8L346.6 80.8Q345.9 80.8 345.4 81.2Q344.9 81.5 344.9 82.0L344.9 82.0Q344.9 82.5 345.2 82.7Q345.6 83.0 346.3 83.2L346.3 83.2L347.5 83.5Q348.6 83.7 349.2 84.3Q349.7 84.9 349.7 85.7L349.7 85.7Q349.7 86.4 349.3 87.0Q348.9 87.5 348.2 87.9Q347.4 88.2 346.5 88.2Z M355.7 91.0L355.7 91.0L356.0 89.8L356.2 89.9Q356.6 90.0 356.9 89.9Q357.2 89.9 357.5 89.6Q357.8 89.3 358.0 88.7L358.0 88.7L358.2 88.0L355.1 79.8L356.5 79.8L358.3 84.7Q358.5 85.4 358.7 86.2L358.7 86.2Q358.8 86.5 358.9 86.8L358.9 86.8Q359.0 86.5 359.1 86.2L359.1 86.2Q359.3 85.4 359.5 84.7L359.5 84.7L361.3 79.8L362.7 79.8L359.1 89.2Q358.9 89.9 358.5 90.3Q358.2 90.7 357.7 90.9Q357.3 91.1 356.7 91.1L356.7 91.1Q356.3 91.1 356.1 91.1Q355.8 91.0 355.7 91.0ZM367.6 88.2L367.6 88.2Q366.5 88.2 365.6 87.6Q364.8 87.1 364.3 86.2Q363.9 85.2 363.9 84.0L363.9 84.0Q363.9 82.7 364.3 81.7Q364.8 80.8 365.6 80.2Q366.5 79.7 367.6 79.7L367.6 79.7Q368.7 79.7 369.6 80.2Q370.4 80.8 370.9 81.7Q371.3 82.7 371.3 84.0L371.3 84.0Q371.3 85.2 370.9 86.2Q370.4 87.1 369.6 87.6Q368.7 88.2 367.6 88.2ZM367.6 87.0L367.6 87.0Q368.4 87.0 369.0 86.6Q369.5 86.1 369.8 85.5Q370.0 84.8 370.0 84.0L370.0 84.0Q370.0 83.1 369.8 82.4Q369.5 81.7 369.0 81.3Q368.4 80.9 367.6 80.9L367.6 80.9Q366.8 80.9 366.3 81.3Q365.7 81.7 365.5 82.4Q365.2 83.1 365.2 84.0L365.2 84.0Q365.2 84.8 365.5 85.5Q365.7 86.1 366.3 86.6Q366.8 87.0 367.6 87.0ZM376.0 88.1L376.0 88.1Q375.2 88.1 374.6 87.8Q374.0 87.4 373.6 86.7Q373.3 86.0 373.3 85.0L373.3 85.0L373.3 79.8L374.6 79.8L374.6 84.9Q374.6 85.8 375.1 86.4Q375.6 86.9 376.4 86.9L376.4 86.9Q377.0 86.9 377.5 86.7Q378.0 86.4 378.2 85.9Q378.5 85.4 378.5 84.7L378.5 84.7L378.5 79.8L379.8 79.8L379.8 88L378.5 88L378.5 86.5Q378.2 87.3 377.6 87.6L377.6 87.6Q376.9 88.1 376.0 88.1Z M387.7 88L386.4 88L386.4 79.8L387.7 79.8L387.7 88ZM387.0 78.5L387.0 78.5Q386.6 78.5 386.4 78.2Q386.1 78.0 386.1 77.6L386.1 77.6Q386.1 77.2 386.4 77.0Q386.6 76.7 387.0 76.7L387.0 76.7Q387.4 76.7 387.7 77.0Q387.9 77.2 387.9 77.6L387.9 77.6Q387.9 78.0 387.7 78.2Q387.4 78.5 387.0 78.5ZM391.3 83.1L391.3 83.1L391.3 88L390.0 88L390.0 79.8L391.3 79.8L391.3 81.3Q391.6 80.6 392.1 80.2L392.1 80.2Q392.8 79.7 393.8 79.7L393.8 79.7Q394.6 79.7 395.2 80.0Q395.8 80.4 396.2 81.1Q396.5 81.8 396.5 82.8L396.5 82.8L396.5 88L395.2 88L395.2 82.9Q395.2 82.0 394.7 81.4Q394.2 80.9 393.4 80.9L393.4 80.9Q392.8 80.9 392.3 81.2Q391.8 81.4 391.6 81.9Q391.3 82.4 391.3 83.1Z M404.4 91.1L403.1 91.1L403.1 79.8L404.3 79.8L404.3 81.1L404.5 81.1Q404.6 80.9 404.9 80.6Q405.1 80.2 405.6 80.0Q406.1 79.7 406.9 79.7L406.9 79.7Q407.9 79.7 408.7 80.2Q409.4 80.7 409.9 81.7Q410.3 82.6 410.3 83.9L410.3 83.9Q410.3 85.2 409.9 86.2Q409.5 87.1 408.7 87.7Q407.9 88.2 406.9 88.2L406.9 88.2Q406.1 88.2 405.6 87.9Q405.1 87.6 404.9 87.3Q404.6 87.0 404.5 86.7L404.5 86.7L404.4 86.7L404.4 91.1ZM406.7 87.0L406.7 87.0Q407.4 87.0 408.0 86.6Q408.5 86.2 408.7 85.5Q409.0 84.8 409.0 83.9L409.0 83.9Q409.0 83.1 408.7 82.4Q408.5 81.7 408.0 81.3Q407.4 80.9 406.7 80.9L406.7 80.9Q405.9 80.9 405.4 81.3Q404.9 81.6 404.6 82.3Q404.4 83.0 404.4 83.9L404.4 83.9Q404.4 84.8 404.6 85.5Q404.9 86.2 405.4 86.6Q405.9 87.0 406.7 87.0ZM413.6 88L412.3 88L412.3 79.8L413.5 79.8L413.5 81.1L413.6 81.1Q413.8 80.4 414.4 80.1Q415.0 79.7 415.7 79.7L415.7 79.7Q415.9 79.7 416.1 79.7Q416.3 79.7 416.4 79.7L416.4 79.7L416.4 81.0Q416.3 81.0 416.1 81.0Q415.9 81.0 415.6 81.0L415.6 81.0Q415.0 81.0 414.6 81.2Q414.1 81.5 413.8 81.9Q413.6 82.3 413.6 82.9L413.6 82.9L413.6 88ZM421.2 88.2L421.2 88.2Q420.1 88.2 419.3 87.6Q418.4 87.1 418.0 86.2Q417.5 85.2 417.5 84.0L417.5 84.0Q417.5 82.7 418.0 81.7Q418.4 80.8 419.3 80.2Q420.1 79.7 421.2 79.7L421.2 79.7Q422.4 79.7 423.2 80.2Q424.0 80.8 424.5 81.7Q425.0 82.7 425.0 84.0L425.0 84.0Q425.0 85.2 424.5 86.2Q424.0 87.1 423.2 87.6Q422.4 88.2 421.2 88.2ZM421.2 87.0L421.2 87.0Q422.1 87.0 422.6 86.6Q423.1 86.1 423.4 85.5Q423.6 84.8 423.6 84.0L423.6 84.0Q423.6 83.1 423.4 82.4Q423.1 81.7 422.6 81.3Q422.1 80.9 421.2 80.9L421.2 80.9Q420.4 80.9 419.9 81.3Q419.4 81.7 419.1 82.4Q418.8 83.1 418.8 84.0L418.8 84.0Q418.8 84.8 419.1 85.5Q419.4 86.1 419.9 86.6Q420.4 87.0 421.2 87.0ZM430.0 88.2L430.0 88.2Q428.9 88.2 428.2 87.7Q427.4 87.1 426.9 86.2Q426.5 85.2 426.5 83.9L426.5 83.9Q426.5 82.6 426.9 81.7Q427.4 80.7 428.2 80.2Q428.9 79.7 430.0 79.7L430.0 79.7Q430.8 79.7 431.2 80.0Q431.7 80.2 432.0 80.6Q432.2 80.9 432.3 81.1L432.3 81.1L432.4 81.1L432.4 77.1L433.8 77.1L433.8 88L432.5 88L432.5 86.7L432.3 86.7Q432.2 87.0 431.9 87.3Q431.7 87.6 431.2 87.9Q430.7 88.2 430.0 88.2ZM430.2 87.0L430.2 87.0Q430.9 87.0 431.4 86.6Q431.9 86.2 432.2 85.5Q432.5 84.8 432.5 83.9L432.5 83.9Q432.5 83.0 432.2 82.3Q431.9 81.6 431.4 81.3Q430.9 80.9 430.2 80.9L430.2 80.9Q429.4 80.9 428.9 81.3Q428.3 81.7 428.1 82.4Q427.8 83.1 427.8 83.9L427.8 83.9Q427.8 84.8 428.1 85.5Q428.4 86.2 428.9 86.6Q429.4 87.0 430.2 87.0ZM438.9 88.1L438.9 88.1Q438.0 88.1 437.4 87.8Q436.8 87.4 436.4 86.7Q436.1 86.0 436.1 85.0L436.1 85.0L436.1 79.8L437.4 79.8L437.4 84.9Q437.4 85.8 437.9 86.4Q438.4 86.9 439.2 86.9L439.2 86.9Q439.8 86.9 440.3 86.7Q440.8 86.4 441.0 85.9Q441.3 85.4 441.3 84.7L441.3 84.7L441.3 79.8L442.6 79.8L442.6 88L441.4 88L441.4 86.5Q441.0 87.3 440.5 87.6L440.5 87.6Q439.8 88.1 438.9 88.1ZM448.3 88.2L448.3 88.2Q447.2 88.2 446.3 87.6Q445.5 87.1 445.0 86.2Q444.5 85.2 444.5 84.0L444.5 84.0Q444.5 82.7 445.0 81.7Q445.5 80.8 446.3 80.2Q447.2 79.7 448.3 79.7L448.3 79.7Q448.9 79.7 449.4 79.9Q449.9 80.0 450.4 80.3Q450.8 80.6 451.1 81.0Q451.4 81.4 451.6 82.0L451.6 82.0L450.3 82.3Q450.2 82.0 450.1 81.8Q449.9 81.5 449.6 81.3Q449.4 81.1 449.0 81.0Q448.7 80.9 448.3 80.9L448.3 80.9Q447.5 80.9 446.9 81.3Q446.4 81.7 446.1 82.4Q445.9 83.1 445.9 84.0L445.9 84.0Q445.9 84.8 446.1 85.5Q446.4 86.1 446.9 86.6Q447.5 87.0 448.3 87.0L448.3 87.0Q448.7 87.0 449.0 86.9Q449.4 86.8 449.6 86.6Q449.9 86.4 450.1 86.1Q450.3 85.8 450.4 85.5L450.4 85.5L451.6 85.8Q451.5 86.4 451.1 86.8Q450.8 87.3 450.4 87.6Q449.9 87.9 449.4 88.0Q448.9 88.2 448.3 88.2ZM455.1 79.8L456.7 79.8L456.7 80.9L455.1 80.9L455.1 85.9Q455.1 86.4 455.3 86.7Q455.5 86.9 456.0 86.9L456.0 86.9Q456.1 86.9 456.3 86.9Q456.5 86.9 456.7 86.8L456.7 86.8L457.0 88.0Q456.8 88.0 456.5 88.1Q456.2 88.1 456.0 88.1L456.0 88.1Q454.9 88.1 454.3 87.5Q453.7 87.0 453.7 86.0L453.7 86.0L453.7 80.9L452.5 80.9L452.5 79.8L453.7 79.8L453.7 77.9L455.1 77.9L455.1 79.8ZM459.7 88L458.4 88L458.4 79.8L459.7 79.8L459.7 88ZM459.1 78.5L459.1 78.5Q458.7 78.5 458.4 78.2Q458.2 78.0 458.2 77.6L458.2 77.6Q458.2 77.2 458.4 77.0Q458.7 76.7 459.1 76.7L459.1 76.7Q459.5 76.7 459.7 77.0Q460.0 77.2 460.0 77.6L460.0 77.6Q460.0 78.0 459.7 78.2Q459.5 78.5 459.1 78.5ZM465.4 88.2L465.4 88.2Q464.3 88.2 463.4 87.6Q462.6 87.1 462.1 86.2Q461.7 85.2 461.7 84.0L461.7 84.0Q461.7 82.7 462.1 81.7Q462.6 80.8 463.4 80.2Q464.3 79.7 465.4 79.7L465.4 79.7Q466.5 79.7 467.4 80.2Q468.2 80.8 468.7 81.7Q469.1 82.7 469.1 84.0L469.1 84.0Q469.1 85.2 468.7 86.2Q468.2 87.1 467.4 87.6Q466.5 88.2 465.4 88.2ZM465.4 87.0L465.4 87.0Q466.2 87.0 466.7 86.6Q467.3 86.1 467.5 85.5Q467.8 84.8 467.8 84.0L467.8 84.0Q467.8 83.1 467.5 82.4Q467.3 81.7 466.7 81.3Q466.2 80.9 465.4 80.9L465.4 80.9Q464.6 80.9 464.0 81.3Q463.5 81.7 463.3 82.4Q463.0 83.1 463.0 84.0L463.0 84.0Q463.0 84.8 463.3 85.5Q463.5 86.1 464.0 86.6Q464.6 87.0 465.4 87.0ZM472.4 83.1L472.4 83.1L472.4 88L471.0 88L471.0 79.8L472.3 79.8L472.3 81.3Q472.7 80.6 473.2 80.2L473.2 80.2Q473.9 79.7 474.8 79.7L474.8 79.7Q475.7 79.7 476.3 80.0Q476.9 80.4 477.2 81.1Q477.6 81.8 477.6 82.8L477.6 82.8L477.6 88L476.3 88L476.3 82.9Q476.3 82.0 475.8 81.4Q475.3 80.9 474.4 80.9L474.4 80.9Q473.8 80.9 473.4 81.2Q472.9 81.4 472.6 81.9Q472.4 82.4 472.4 83.1ZM480.9 88.1L480.9 88.1Q480.5 88.1 480.2 87.8Q479.9 87.5 479.9 87.1L479.9 87.1Q479.9 86.7 480.2 86.4Q480.5 86.1 480.9 86.1L480.9 86.1Q481.3 86.1 481.6 86.4Q481.9 86.7 481.9 87.1L481.9 87.1Q481.9 87.5 481.6 87.8Q481.3 88.1 480.9 88.1Z "/></g><mask id="satori_om-id-2"><rect x="56" y="94" width="688" height="23" fill="#fff" mask="url(#satori_om-id)"/></mask><g mask="url(#satori_om-id)" clip-path="url(#satori_cp-id)"><path fill="rgba(255,255,255,0.82)" d="M58.5 114.1L57.2 114.1L57.2 102.8L58.4 102.8L58.4 104.1L58.6 104.1Q58.7 103.9 59.0 103.6Q59.2 103.2 59.7 103.0Q60.2 102.7 61.0 102.7L61.0 102.7Q62.0 102.7 62.8 103.2Q63.5 103.7 64.0 104.7Q64.4 105.6 64.4 106.9L64.4 106.9Q64.4 108.2 64.0 109.2Q63.5 110.1 62.8 110.7Q62.0 111.2 61.0 111.2L61.0 111.2Q60.2 111.2 59.7 110.9Q59.2 110.6 59.0 110.3Q58.7 110.0 58.6 109.7L58.6 109.7L58.5 109.7L58.5 114.1ZM60.8 110.0L60.8 110.0Q61.5 110.0 62.0 109.6Q62.6 109.2 62.8 108.5Q63.1 107.8 63.1 106.9L63.1 106.9Q63.1 106.1 62.8 105.4Q62.6 104.7 62.1 104.3Q61.5 103.9 60.8 103.9L60.8 103.9Q60.0 103.9 59.5 104.3Q59.0 104.6 58.7 105.3Q58.5 106.0 58.5 106.9L58.5 106.9Q58.5 107.8 58.7 108.5Q59.0 109.2 59.5 109.6Q60.0 110.0 60.8 110.0ZM69.7 111.2L69.7 111.2Q68.6 111.2 67.7 110.6Q66.9 110.1 66.4 109.2Q65.9 108.2 65.9 107.0L65.9 107.0Q65.9 105.7 66.4 104.7Q66.9 103.8 67.7 103.2Q68.6 102.7 69.7 102.7L69.7 102.7Q70.8 102.7 71.6 103.2Q72.5 103.8 72.9 104.7Q73.4 105.7 73.4 107.0L73.4 107.0Q73.4 108.2 72.9 109.2Q72.5 110.1 71.6 110.6Q70.8 111.2 69.7 111.2ZM69.7 110.0L69.7 110.0Q70.5 110.0 71.0 109.6Q71.6 109.1 71.8 108.5Q72.1 107.8 72.1 107.0L72.1 107.0Q72.1 106.1 71.8 105.4Q71.6 104.7 71.0 104.3Q70.5 103.9 69.7 103.9L69.7 103.9Q68.9 103.9 68.3 104.3Q67.8 104.7 67.5 105.4Q67.3 106.1 67.3 107.0L67.3 107.0Q67.3 107.8 67.5 108.5Q67.8 109.1 68.3 109.6Q68.9 110.0 69.7 110.0ZM78.1 111.2L78.1 111.2Q77.3 111.2 76.6 110.9Q76.0 110.7 75.5 110.2Q75.1 109.7 75.0 109.0L75.0 109.0L76.2 108.7Q76.4 109.4 76.9 109.7Q77.4 110.0 78.1 110.0L78.1 110.0Q79.0 110.0 79.5 109.7Q80.0 109.3 80.0 108.8L80.0 108.8Q80.0 108.4 79.7 108.1Q79.4 107.8 78.8 107.7L78.8 107.7L77.4 107.3Q76.3 107.1 75.8 106.5Q75.2 106.0 75.2 105.1L75.2 105.1Q75.2 104.4 75.6 103.9Q76.0 103.3 76.7 103.0Q77.4 102.7 78.3 102.7L78.3 102.7Q79.1 102.7 79.7 103.0Q80.3 103.2 80.6 103.7Q81.0 104.1 81.2 104.7L81.2 104.7L80.0 105.0Q79.8 104.5 79.4 104.2Q79.0 103.8 78.3 103.8L78.3 103.8Q77.5 103.8 77.0 104.2Q76.6 104.5 76.6 105.0L76.6 105.0Q76.6 105.5 76.9 105.7Q77.2 106.0 77.9 106.2L77.9 106.2L79.2 106.5Q80.3 106.7 80.8 107.3Q81.3 107.9 81.3 108.7L81.3 108.7Q81.3 109.4 80.9 110.0Q80.5 110.5 79.8 110.9Q79.1 111.2 78.1 111.2ZM84.8 102.8L86.5 102.8L86.5 103.9L84.8 103.9L84.8 108.9Q84.8 109.4 85.0 109.7Q85.2 109.9 85.8 109.9L85.8 109.9Q85.9 109.9 86.1 109.9Q86.3 109.9 86.4 109.8L86.4 109.8L86.7 111.0Q86.5 111.0 86.2 111.1Q86.0 111.1 85.7 111.1L85.7 111.1Q84.7 111.1 84.1 110.5Q83.5 110.0 83.5 109.0L83.5 109.0L83.5 103.9L82.2 103.9L82.2 102.8L83.5 102.8L83.5 100.9L84.8 100.9L84.8 102.8ZM91.5 114.2L91.5 114.2Q90.6 114.2 89.9 114.0Q89.2 113.8 88.8 113.4Q88.4 113.0 88.1 112.6L88.1 112.6L89.2 111.9Q89.4 112.1 89.6 112.4Q89.9 112.7 90.3 112.9Q90.8 113.1 91.5 113.1L91.5 113.1Q92.5 113.1 93.1 112.6Q93.7 112.1 93.7 111.1L93.7 111.1L93.7 109.5L93.6 109.5Q93.5 109.7 93.2 110.1Q93.0 110.4 92.5 110.6Q92.0 110.9 91.2 110.9L91.2 110.9Q90.2 110.9 89.5 110.4Q88.7 109.9 88.2 109.0Q87.8 108.2 87.8 106.9L87.8 106.9Q87.8 105.6 88.2 104.7Q88.7 103.7 89.4 103.2Q90.2 102.7 91.3 102.7L91.3 102.7Q92.0 102.7 92.5 103.0Q93.0 103.2 93.2 103.6Q93.5 103.9 93.6 104.1L93.6 104.1L93.8 104.1L93.8 102.8L95.0 102.8L95.0 111.2Q95.0 112.3 94.6 112.9Q94.1 113.6 93.3 113.9Q92.5 114.2 91.5 114.2ZM91.4 109.7L91.4 109.7Q92.2 109.7 92.7 109.4Q93.2 109.0 93.5 108.4Q93.7 107.7 93.7 106.8L93.7 106.8Q93.7 106.0 93.5 105.3Q93.2 104.6 92.7 104.3Q92.2 103.9 91.4 103.9L91.4 103.9Q90.7 103.9 90.1 104.3Q89.6 104.7 89.4 105.4Q89.1 106.0 89.1 106.8L89.1 106.8Q89.1 107.7 89.4 108.3Q89.6 109.0 90.2 109.3Q90.7 109.7 91.4 109.7ZM98.7 111L97.4 111L97.4 102.8L98.6 102.8L98.6 104.1L98.7 104.1Q98.9 103.4 99.5 103.1Q100.1 102.7 100.8 102.7L100.8 102.7Q101.0 102.7 101.2 102.7Q101.4 102.7 101.5 102.7L101.5 102.7L101.5 104.0Q101.5 104.0 101.2 104.0Q101.0 104.0 100.7 104.0L100.7 104.0Q100.1 104.0 99.7 104.2Q99.2 104.5 98.9 104.9Q98.7 105.3 98.7 105.9L98.7 105.9L98.7 111ZM106.4 111.2L106.4 111.2Q105.3 111.2 104.4 110.6Q103.5 110.1 103.1 109.2Q102.6 108.2 102.6 107.0Q102.6 105.7 103.1 104.8Q103.5 103.8 104.4 103.3Q105.2 102.7 106.3 102.7L106.3 102.7Q106.9 102.7 107.6 102.9Q108.2 103.1 108.7 103.6Q109.2 104.1 109.6 104.9Q109.9 105.7 109.9 106.8L109.9 106.8L109.9 107.4L103.9 107.4Q104.0 108.1 104.3 108.7L104.3 108.7Q104.6 109.4 105.1 109.7Q105.7 110.0 106.5 110.0L106.5 110.0Q106.9 110.0 107.3 109.9Q107.7 109.7 108.0 109.4Q108.3 109.2 108.5 108.7L108.5 108.7L109.7 109.1Q109.5 109.7 109.1 110.2Q108.6 110.6 108.0 110.9Q107.3 111.2 106.4 111.2ZM104.0 106.2L104.0 106.2L108.5 106.2Q108.5 105.7 108.3 105.2L108.3 105.2Q108.0 104.6 107.5 104.2Q107.0 103.9 106.3 103.9Q105.6 103.9 105.0 104.2Q104.5 104.6 104.2 105.2L104.2 105.2Q104.0 105.7 104.0 106.2ZM114.5 111.2L114.5 111.2Q113.7 111.2 113.0 110.9Q112.4 110.7 112.0 110.2Q111.5 109.7 111.4 109.0L111.4 109.0L112.6 108.7Q112.8 109.4 113.3 109.7Q113.8 110.0 114.5 110.0L114.5 110.0Q115.4 110.0 115.9 109.7Q116.4 109.3 116.4 108.8L116.4 108.8Q116.4 108.4 116.1 108.1Q115.8 107.8 115.2 107.7L115.2 107.7L113.8 107.3Q112.7 107.1 112.2 106.5Q111.6 106.0 111.6 105.1L111.6 105.1Q111.6 104.4 112.0 103.9Q112.4 103.3 113.1 103.0Q113.8 102.7 114.7 102.7L114.7 102.7Q115.5 102.7 116.1 103.0Q116.7 103.2 117.1 103.7Q117.4 104.1 117.6 104.7L117.6 104.7L116.4 105.0Q116.2 104.5 115.9 104.2Q115.5 103.8 114.7 103.8L114.7 103.8Q113.9 103.8 113.5 104.2Q113.0 104.5 113.0 105.0L113.0 105.0Q113.0 105.5 113.3 105.7Q113.6 106.0 114.3 106.2L114.3 106.2L115.6 106.5Q116.7 106.7 117.2 107.3Q117.8 107.9 117.8 108.7L117.8 108.7Q117.8 109.4 117.4 110.0Q117.0 110.5 116.2 110.9Q115.5 111.2 114.5 111.2Z M123.9 100.1L125.2 100.1L125.2 111L123.9 111L123.9 100.1ZM130.9 111.2L130.9 111.2Q129.7 111.2 128.9 110.6Q128.1 110.1 127.6 109.2Q127.1 108.2 127.1 107.0L127.1 107.0Q127.1 105.7 127.6 104.7Q128.1 103.8 128.9 103.2Q129.7 102.7 130.9 102.7L130.9 102.7Q132.0 102.7 132.8 103.2Q133.7 103.8 134.1 104.7Q134.6 105.7 134.6 107.0L134.6 107.0Q134.6 108.2 134.1 109.2Q133.7 110.1 132.8 110.6Q132.0 111.2 130.9 111.2ZM130.9 110.0L130.9 110.0Q131.7 110.0 132.2 109.6Q132.8 109.1 133.0 108.5Q133.3 107.8 133.3 107.0L133.3 107.0Q133.3 106.1 133.0 105.4Q132.8 104.7 132.2 104.3Q131.7 103.9 130.9 103.9L130.9 103.9Q130.0 103.9 129.5 104.3Q129.0 104.7 128.7 105.4Q128.5 106.1 128.5 107.0L128.5 107.0Q128.5 107.8 128.7 108.5Q129.0 109.1 129.5 109.6Q130.0 110.0 130.9 110.0ZM139.8 111.2L139.8 111.2Q138.7 111.2 137.9 110.6Q137.1 110.1 136.6 109.2Q136.1 108.2 136.1 107.0L136.1 107.0Q136.1 105.7 136.6 104.7Q137.1 103.8 137.9 103.2Q138.7 102.7 139.8 102.7L139.8 102.7Q140.4 102.7 141.0 102.9Q141.5 103.0 141.9 103.3Q142.4 103.6 142.7 104.0Q143.0 104.4 143.2 105.0L143.2 105.0L141.9 105.3Q141.8 105.0 141.6 104.8Q141.4 104.5 141.2 104.3Q140.9 104.1 140.6 104.0Q140.3 103.9 139.8 103.9L139.8 103.9Q139.0 103.9 138.5 104.3Q138.0 104.7 137.7 105.4Q137.5 106.1 137.5 107.0L137.5 107.0Q137.5 107.8 137.7 108.5Q138.0 109.1 138.5 109.6Q139.0 110.0 139.8 110.0L139.8 110.0Q140.3 110.0 140.6 109.9Q140.9 109.8 141.2 109.6Q141.5 109.4 141.7 109.1Q141.8 108.8 141.9 108.5L141.9 108.5L143.2 108.8Q143.0 109.4 142.7 109.8Q142.4 110.3 142.0 110.6Q141.5 110.9 141.0 111.0Q140.4 111.2 139.8 111.2ZM146.4 111L145.1 111L145.1 100.1L146.4 100.1L146.4 106.4L146.6 106.4L150.1 102.8L151.7 102.8L148.3 106.3L152.0 111L150.3 111L147.3 107.2L146.4 108.0L146.4 111Z M160.3 111.2L160.3 111.2Q159.5 111.2 158.8 110.9Q158.2 110.7 157.7 110.2Q157.3 109.7 157.2 109.0L157.2 109.0L158.4 108.7Q158.6 109.4 159.1 109.7Q159.6 110.0 160.3 110.0L160.3 110.0Q161.2 110.0 161.7 109.7Q162.2 109.3 162.2 108.8L162.2 108.8Q162.2 108.4 161.9 108.1Q161.6 107.8 161.0 107.7L161.0 107.7L159.6 107.3Q158.5 107.1 158.0 106.5Q157.4 106.0 157.4 105.1L157.4 105.1Q157.4 104.4 157.8 103.9Q158.2 103.3 158.9 103.0Q159.6 102.7 160.5 102.7L160.5 102.7Q161.3 102.7 161.9 103.0Q162.5 103.2 162.8 103.7Q163.2 104.1 163.4 104.7L163.4 104.7L162.2 105.0Q162.0 104.5 161.6 104.2Q161.2 103.8 160.5 103.8L160.5 103.8Q159.7 103.8 159.2 104.2Q158.8 104.5 158.8 105.0L158.8 105.0Q158.8 105.5 159.1 105.7Q159.4 106.0 160.1 106.2L160.1 106.2L161.4 106.5Q162.5 106.7 163.0 107.3Q163.5 107.9 163.5 108.7L163.5 108.7Q163.5 109.4 163.1 110.0Q162.7 110.5 162.0 110.9Q161.3 111.2 160.3 111.2ZM168.9 111.2L168.9 111.2Q167.7 111.2 166.8 110.6Q166.0 110.1 165.5 109.2Q165.1 108.2 165.1 107.0Q165.1 105.7 165.5 104.8Q166.0 103.8 166.8 103.3Q167.6 102.7 168.7 102.7L168.7 102.7Q169.4 102.7 170.0 102.9Q170.7 103.1 171.2 103.6Q171.7 104.1 172.0 104.9Q172.3 105.7 172.3 106.8L172.3 106.8L172.3 107.4L166.4 107.4Q166.4 108.1 166.7 108.7L166.7 108.7Q167.0 109.4 167.6 109.7Q168.2 110.0 168.9 110.0L168.9 110.0Q169.4 110.0 169.8 109.9Q170.2 109.7 170.5 109.4Q170.7 109.2 170.9 108.7L170.9 108.7L172.2 109.1Q172.0 109.7 171.5 110.2Q171.1 110.6 170.4 110.9Q169.7 111.2 168.9 111.2ZM166.4 106.2L166.4 106.2L171.0 106.2Q170.9 105.7 170.7 105.2L170.7 105.2Q170.5 104.6 170.0 104.2Q169.5 103.9 168.7 103.9Q168.0 103.9 167.5 104.2Q166.9 104.6 166.7 105.2L166.7 105.2Q166.4 105.7 166.4 106.2ZM175.5 111L174.2 111L174.2 102.8L175.5 102.8L175.5 104.3Q175.6 103.9 175.9 103.5L175.9 103.5Q176.3 103.1 176.8 102.9Q177.3 102.7 177.8 102.7L177.8 102.7Q178.7 102.7 179.2 103.2L179.2 103.2Q179.7 103.7 179.9 104.3L179.9 104.3Q180.0 103.9 180.3 103.6L180.3 103.6Q180.7 103.1 181.2 102.9Q181.8 102.7 182.4 102.7L182.4 102.7Q183.2 102.7 183.7 103.0Q184.3 103.3 184.7 103.9Q185.0 104.5 185.0 105.5L185.0 105.5L185.0 111L183.7 111L183.7 105.5Q183.7 104.6 183.2 104.2Q182.7 103.9 182.0 103.9L182.0 103.9Q181.5 103.9 181.1 104.1Q180.7 104.3 180.5 104.7Q180.3 105.1 180.3 105.7L180.3 105.7L180.3 111L179.0 111L179.0 105.4Q179.0 104.7 178.5 104.3Q178.0 103.9 177.3 103.9L177.3 103.9Q176.9 103.9 176.5 104.1Q176.0 104.3 175.8 104.8Q175.5 105.2 175.5 105.8L175.5 105.8L175.5 111ZM189.6 111.2L189.6 111.2Q188.9 111.2 188.2 110.9Q187.6 110.6 187.2 110.0Q186.8 109.5 186.8 108.7L186.8 108.7Q186.8 108.0 187.1 107.5Q187.4 107.1 187.9 106.8Q188.3 106.6 188.9 106.5Q189.5 106.3 190.0 106.3L190.0 106.3Q190.8 106.2 191.2 106.1Q191.7 106.1 191.9 105.9Q192.1 105.8 192.1 105.5L192.1 105.5L192.1 105.5Q192.1 105.0 191.9 104.6Q191.7 104.2 191.4 104.1Q191.0 103.9 190.4 103.9L190.4 103.9Q189.8 103.9 189.4 104.0Q189.0 104.2 188.7 104.5Q188.5 104.8 188.3 105.1L188.3 105.1L187.1 104.6Q187.4 103.9 187.9 103.5Q188.5 103.1 189.1 102.9Q189.7 102.7 190.4 102.7L190.4 102.7Q190.8 102.7 191.3 102.8Q191.8 102.9 192.3 103.2Q192.8 103.5 193.1 104.1Q193.4 104.6 193.4 105.6L193.4 105.6L193.4 111L192.1 111L192.1 109.9L192.1 109.9Q191.9 110.2 191.6 110.5Q191.3 110.8 190.8 111.0Q190.3 111.2 189.6 111.2ZM189.9 110.0L189.9 110.0Q190.6 110.0 191.1 109.7Q191.6 109.5 191.9 109.0Q192.1 108.5 192.1 108.0L192.1 108.0L192.1 106.9Q192.0 107.0 191.8 107.1Q191.5 107.2 191.2 107.2Q190.8 107.3 190.5 107.3Q190.2 107.4 190.0 107.4L190.0 107.4Q189.5 107.4 189.1 107.6Q188.7 107.7 188.4 108.0Q188.2 108.3 188.2 108.7L188.2 108.7Q188.2 109.2 188.4 109.4Q188.6 109.7 189.0 109.9Q189.4 110.0 189.9 110.0ZM197.1 106.1L197.1 106.1L197.1 111L195.8 111L195.8 102.8L197.0 102.8L197.0 104.3Q197.4 103.6 197.9 103.2L197.9 103.2Q198.6 102.7 199.5 102.7L199.5 102.7Q200.4 102.7 201.0 103.0Q201.6 103.4 202.0 104.1Q202.3 104.8 202.3 105.8L202.3 105.8L202.3 111L201.0 111L201.0 105.9Q201.0 105.0 200.5 104.4Q200.0 103.9 199.1 103.9L199.1 103.9Q198.6 103.9 198.1 104.2Q197.6 104.4 197.4 104.9Q197.1 105.4 197.1 106.1ZM206.2 102.8L207.8 102.8L207.8 103.9L206.2 103.9L206.2 108.9Q206.2 109.4 206.4 109.7Q206.6 109.9 207.1 109.9L207.1 109.9Q207.3 109.9 207.4 109.9Q207.6 109.9 207.8 109.8L207.8 109.8L208.1 111.0Q207.9 111.0 207.6 111.1Q207.3 111.1 207.1 111.1L207.1 111.1Q206.0 111.1 205.4 110.5Q204.8 110.0 204.8 109.0L204.8 109.0L204.8 103.9L203.6 103.9L203.6 102.8L204.8 102.8L204.8 100.9L206.2 100.9L206.2 102.8ZM210.8 111L209.5 111L209.5 102.8L210.8 102.8L210.8 111ZM210.2 101.5L210.2 101.5Q209.8 101.5 209.6 101.2Q209.3 101.0 209.3 100.6L209.3 100.6Q209.3 100.2 209.6 100.0Q209.8 99.7 210.2 99.7L210.2 99.7Q210.6 99.7 210.8 100.0Q211.1 100.2 211.1 100.6L211.1 100.6Q211.1 101.0 210.8 101.2Q210.6 101.5 210.2 101.5ZM216.5 111.2L216.5 111.2Q215.4 111.2 214.5 110.6Q213.7 110.1 213.2 109.2Q212.8 108.2 212.8 107.0L212.8 107.0Q212.8 105.7 213.2 104.7Q213.7 103.8 214.5 103.2Q215.4 102.7 216.5 102.7L216.5 102.7Q217.1 102.7 217.6 102.9Q218.1 103.0 218.6 103.3Q219.0 103.6 219.3 104.0Q219.6 104.4 219.8 105.0L219.8 105.0L218.5 105.3Q218.5 105.0 218.3 104.8Q218.1 104.5 217.8 104.3Q217.6 104.1 217.2 104.0Q216.9 103.9 216.5 103.9L216.5 103.9Q215.7 103.9 215.1 104.3Q214.6 104.7 214.4 105.4Q214.1 106.1 214.1 107.0L214.1 107.0Q214.1 107.8 214.4 108.5Q214.6 109.1 215.1 109.6Q215.7 110.0 216.5 110.0L216.5 110.0Q216.9 110.0 217.3 109.9Q217.6 109.8 217.9 109.6Q218.1 109.4 218.3 109.1Q218.5 108.8 218.6 108.5L218.6 108.5L219.8 108.8Q219.7 109.4 219.4 109.8Q219.0 110.3 218.6 110.6Q218.2 110.9 217.6 111.0Q217.1 111.2 216.5 111.2ZM224.5 111.2L224.5 111.2Q223.7 111.2 223.0 110.9Q222.4 110.7 221.9 110.2Q221.5 109.7 221.4 109.0L221.4 109.0L222.6 108.7Q222.8 109.4 223.3 109.7Q223.8 110.0 224.5 110.0L224.5 110.0Q225.4 110.0 225.9 109.7Q226.4 109.3 226.4 108.8L226.4 108.8Q226.4 108.4 226.1 108.1Q225.8 107.8 225.2 107.7L225.2 107.7L223.8 107.3Q222.7 107.1 222.2 106.5Q221.6 106.0 221.6 105.1L221.6 105.1Q221.6 104.4 222.0 103.9Q222.4 103.3 223.1 103.0Q223.8 102.7 224.6 102.7L224.6 102.7Q225.5 102.7 226.1 103.0Q226.7 103.2 227.0 103.7Q227.4 104.1 227.6 104.7L227.6 104.7L226.4 105.0Q226.2 104.5 225.8 104.2Q225.4 103.8 224.7 103.8L224.7 103.8Q223.9 103.8 223.4 104.2Q222.9 104.5 222.9 105.0L222.9 105.0Q222.9 105.5 223.3 105.7Q223.6 106.0 224.3 106.2L224.3 106.2L225.6 106.5Q226.7 106.7 227.2 107.3Q227.7 107.9 227.7 108.7L227.7 108.7Q227.7 109.4 227.3 110.0Q226.9 110.5 226.2 110.9Q225.5 111.2 224.5 111.2ZM230.7 111.1L230.7 111.1Q230.2 111.1 230.0 110.8Q229.7 110.5 229.7 110.1L229.7 110.1Q229.7 109.7 230.0 109.4Q230.2 109.1 230.7 109.1L230.7 109.1Q231.1 109.1 231.4 109.4Q231.6 109.7 231.6 110.1L231.6 110.1Q231.6 110.5 231.4 110.8Q231.1 111.1 230.7 111.1Z M241.5 111.2L241.5 111.2Q240.4 111.2 239.6 110.6Q238.7 110.1 238.3 109.2Q237.8 108.2 237.8 107.0L237.8 107.0Q237.8 105.7 238.3 104.7Q238.7 103.8 239.6 103.2Q240.4 102.7 241.5 102.7L241.5 102.7Q242.6 102.7 243.5 103.2Q244.3 103.8 244.8 104.7Q245.3 105.7 245.3 107.0L245.3 107.0Q245.3 108.2 244.8 109.2Q244.3 110.1 243.5 110.6Q242.6 111.2 241.5 111.2ZM241.5 110.0L241.5 110.0Q242.4 110.0 242.9 109.6Q243.4 109.1 243.7 108.5Q243.9 107.8 243.9 107.0L243.9 107.0Q243.9 106.1 243.7 105.4Q243.4 104.7 242.9 104.3Q242.4 103.9 241.5 103.9L241.5 103.9Q240.7 103.9 240.2 104.3Q239.6 104.7 239.4 105.4Q239.1 106.1 239.1 107.0L239.1 107.0Q239.1 107.8 239.4 108.5Q239.6 109.1 240.2 109.6Q240.7 110.0 241.5 110.0ZM251.0 111.2L251.0 111.2Q250.2 111.2 249.7 110.9Q249.3 110.6 249.0 110.3Q248.7 110.0 248.6 109.7L248.6 109.7L248.5 109.7L248.5 111L247.2 111L247.2 100.1L248.5 100.1L248.5 104.1L248.6 104.1Q248.7 103.9 249.0 103.6Q249.2 103.2 249.7 103.0Q250.2 102.7 251.0 102.7L251.0 102.7Q252.0 102.7 252.8 103.2Q253.6 103.7 254.0 104.7Q254.4 105.6 254.4 106.9L254.4 106.9Q254.4 108.2 254.0 109.2Q253.6 110.1 252.8 110.7Q252.0 111.2 251.0 111.2ZM250.8 110.0L250.8 110.0Q251.6 110.0 252.1 109.6Q252.6 109.2 252.8 108.5Q253.1 107.8 253.1 106.9L253.1 106.9Q253.1 106.1 252.9 105.4Q252.6 104.7 252.1 104.3Q251.6 103.9 250.8 103.9L250.8 103.9Q250.0 103.9 249.5 104.3Q249.0 104.6 248.7 105.3Q248.5 106.0 248.5 106.9L248.5 106.9Q248.5 107.8 248.8 108.5Q249.0 109.2 249.5 109.6Q250.0 110.0 250.8 110.0ZM259.2 111.2L259.2 111.2Q258.3 111.2 257.7 110.9Q257.0 110.7 256.6 110.2Q256.1 109.7 256.0 109.0L256.0 109.0L257.3 108.7Q257.4 109.4 257.9 109.7Q258.4 110.0 259.1 110.0L259.1 110.0Q260.0 110.0 260.5 109.7Q261.0 109.3 261.0 108.8L261.0 108.8Q261.0 108.4 260.7 108.1Q260.4 107.8 259.8 107.7L259.8 107.7L258.4 107.3Q257.3 107.1 256.8 106.5Q256.3 106.0 256.3 105.1L256.3 105.1Q256.3 104.4 256.6 103.9Q257.0 103.3 257.7 103.0Q258.4 102.7 259.3 102.7L259.3 102.7Q260.1 102.7 260.7 103.0Q261.3 103.2 261.7 103.7Q262.0 104.1 262.2 104.7L262.2 104.7L261.0 105.0Q260.9 104.5 260.5 104.2Q260.1 103.8 259.3 103.8L259.3 103.8Q258.6 103.8 258.1 104.2Q257.6 104.5 257.6 105.0L257.6 105.0Q257.6 105.5 257.9 105.7Q258.2 106.0 259.0 106.2L259.0 106.2L260.2 106.5Q261.3 106.7 261.8 107.3Q262.4 107.9 262.4 108.7L262.4 108.7Q262.4 109.4 262.0 110.0Q261.6 110.5 260.8 110.9Q260.1 111.2 259.2 111.2ZM267.7 111.2L267.7 111.2Q266.5 111.2 265.7 110.6Q264.8 110.1 264.4 109.2Q263.9 108.2 263.9 107.0Q263.9 105.7 264.3 104.8Q264.8 103.8 265.6 103.3Q266.5 102.7 267.6 102.7L267.6 102.7Q268.2 102.7 268.9 102.9Q269.5 103.1 270.0 103.6Q270.5 104.1 270.8 104.9Q271.1 105.7 271.1 106.8L271.1 106.8L271.1 107.4L265.2 107.4Q265.3 108.1 265.5 108.7L265.5 108.7Q265.9 109.4 266.4 109.7Q267.0 110.0 267.7 110.0L267.7 110.0Q268.2 110.0 268.6 109.9Q269.0 109.7 269.3 109.4Q269.6 109.2 269.7 108.7L269.7 108.7L271.0 109.1Q270.8 109.7 270.4 110.2Q269.9 110.6 269.2 110.9Q268.6 111.2 267.7 111.2ZM265.2 106.2L265.2 106.2L269.8 106.2Q269.8 105.7 269.6 105.2L269.6 105.2Q269.3 104.6 268.8 104.2Q268.3 103.9 267.6 103.9Q266.8 103.9 266.3 104.2Q265.8 104.6 265.5 105.2L265.5 105.2Q265.3 105.7 265.2 106.2ZM274.3 111L273.0 111L273.0 102.8L274.3 102.8L274.3 104.1L274.4 104.1Q274.6 103.4 275.2 103.1Q275.8 102.7 276.5 102.7L276.5 102.7Q276.7 102.7 276.9 102.7Q277.1 102.7 277.2 102.7L277.2 102.7L277.2 104.0Q277.1 104.0 276.9 104.0Q276.7 104.0 276.4 104.0L276.4 104.0Q275.8 104.0 275.3 104.2Q274.9 104.5 274.6 104.9Q274.3 105.3 274.3 105.9L274.3 105.9L274.3 111ZM282.4 111L281.0 111L277.9 102.8L279.4 102.8L281.1 107.7Q281.4 108.4 281.6 109.2L281.6 109.2Q281.7 109.5 281.7 109.8L281.7 109.8Q281.8 109.5 281.9 109.2L281.9 109.2Q282.1 108.4 282.4 107.7L282.4 107.7L284.1 102.8L285.6 102.8L282.4 111ZM289.4 111.2L289.4 111.2Q288.6 111.2 288.0 110.9Q287.4 110.6 287.0 110.0Q286.6 109.5 286.6 108.7L286.6 108.7Q286.6 108.0 286.9 107.5Q287.2 107.1 287.6 106.8Q288.1 106.6 288.7 106.5Q289.2 106.3 289.8 106.3L289.8 106.3Q290.5 106.2 291.0 106.1Q291.5 106.1 291.7 105.9Q291.9 105.8 291.9 105.5L291.9 105.5L291.9 105.5Q291.9 105.0 291.7 104.6Q291.5 104.2 291.1 104.1Q290.8 103.9 290.2 103.9L290.2 103.9Q289.6 103.9 289.2 104.0Q288.8 104.2 288.5 104.5Q288.2 104.8 288.1 105.1L288.1 105.1L286.8 104.6Q287.2 103.9 287.7 103.5Q288.2 103.1 288.9 102.9Q289.5 102.7 290.1 102.7L290.1 102.7Q290.6 102.7 291.1 102.8Q291.6 102.9 292.1 103.2Q292.6 103.5 292.9 104.1Q293.2 104.6 293.2 105.6L293.2 105.6L293.2 111L291.9 111L291.9 109.9L291.8 109.9Q291.7 110.2 291.4 110.5Q291.1 110.8 290.6 111.0Q290.1 111.2 289.4 111.2ZM289.6 110.0L289.6 110.0Q290.4 110.0 290.9 109.7Q291.4 109.5 291.6 109.0Q291.9 108.5 291.9 108.0L291.9 108.0L291.9 106.9Q291.8 107.0 291.5 107.1Q291.3 107.2 290.9 107.2Q290.6 107.3 290.3 107.3Q289.9 107.4 289.7 107.4L289.7 107.4Q289.3 107.4 288.8 107.6Q288.4 107.7 288.2 108.0Q287.9 108.3 287.9 108.7L287.9 108.7Q287.9 109.2 288.2 109.4Q288.4 109.7 288.8 109.9Q289.1 110.0 289.6 110.0ZM299.3 111.2L299.3 111.2Q298.6 111.2 298.1 110.9Q297.6 110.6 297.3 110.3Q297.1 110.0 297.0 109.7L297.0 109.7L296.8 109.7L296.8 111L295.5 111L295.5 100.1L296.8 100.1L296.8 104.1L297.0 104.1Q297.1 103.9 297.3 103.6Q297.6 103.2 298.1 103.0Q298.5 102.7 299.3 102.7L299.3 102.7Q300.4 102.7 301.1 103.2Q301.9 103.7 302.4 104.7Q302.8 105.6 302.8 106.9L302.8 106.9Q302.8 108.2 302.4 109.2Q301.9 110.1 301.1 110.7Q300.4 111.2 299.3 111.2ZM299.1 110.0L299.1 110.0Q299.9 110.0 300.4 109.6Q300.9 109.2 301.2 108.5Q301.5 107.8 301.5 106.9L301.5 106.9Q301.5 106.1 301.2 105.4Q300.9 104.7 300.4 104.3Q299.9 103.9 299.1 103.9L299.1 103.9Q298.4 103.9 297.9 104.3Q297.4 104.6 297.1 105.3Q296.8 106.0 296.8 106.9L296.8 106.9Q296.8 107.8 297.1 108.5Q297.4 109.2 297.9 109.6Q298.4 110.0 299.1 110.0ZM306.0 111L304.7 111L304.7 102.8L306.0 102.8L306.0 111ZM305.4 101.5L305.4 101.5Q305.0 101.5 304.7 101.2Q304.5 101.0 304.5 100.6L304.5 100.6Q304.5 100.2 304.7 100.0Q305.0 99.7 305.4 99.7L305.4 99.7Q305.8 99.7 306.0 100.0Q306.3 100.2 306.3 100.6L306.3 100.6Q306.3 101.0 306.0 101.2Q305.8 101.5 305.4 101.5ZM308.3 100.1L309.7 100.1L309.7 111L308.3 111L308.3 100.1ZM313.3 111L312.0 111L312.0 102.8L313.3 102.8L313.3 111ZM312.6 101.5L312.6 101.5Q312.3 101.5 312.0 101.2Q311.7 101.0 311.7 100.6L311.7 100.6Q311.7 100.2 312.0 100.0Q312.3 99.7 312.6 99.7L312.6 99.7Q313.0 99.7 313.3 100.0Q313.6 100.2 313.6 100.6L313.6 100.6Q313.6 101.0 313.3 101.2Q313.0 101.5 312.6 101.5ZM317.2 102.8L318.8 102.8L318.8 103.9L317.2 103.9L317.2 108.9Q317.2 109.4 317.4 109.7Q317.6 109.9 318.1 109.9L318.1 109.9Q318.2 109.9 318.4 109.9Q318.6 109.9 318.8 109.8L318.8 109.8L319.1 111.0Q318.9 111.0 318.6 111.1Q318.3 111.1 318.1 111.1L318.1 111.1Q317.0 111.1 316.4 110.5Q315.8 110.0 315.8 109.0L315.8 109.0L315.8 103.9L314.6 103.9L314.6 102.8L315.8 102.8L315.8 100.9L317.2 100.9L317.2 102.8ZM320.4 114.0L320.4 114.0L320.7 112.8L320.9 112.9Q321.3 113.0 321.6 112.9Q321.9 112.9 322.2 112.6Q322.5 112.3 322.7 111.7L322.7 111.7L322.9 111.0L319.8 102.8L321.2 102.8L322.9 107.7Q323.2 108.4 323.4 109.2L323.4 109.2Q323.5 109.5 323.6 109.8L323.6 109.8Q323.7 109.5 323.7 109.2L323.7 109.2Q323.9 108.4 324.2 107.7L324.2 107.7L326.0 102.8L327.4 102.8L323.8 112.2Q323.6 112.9 323.2 113.3Q322.9 113.7 322.4 113.9Q321.9 114.1 321.4 114.1L321.4 114.1Q321.0 114.1 320.7 114.1Q320.5 114.0 320.4 114.0Z M334.7 102.8L336.4 102.8L336.4 103.9L334.7 103.9L334.7 108.9Q334.7 109.4 334.9 109.7Q335.2 109.9 335.7 109.9L335.7 109.9Q335.8 109.9 336.0 109.9Q336.2 109.9 336.3 109.8L336.3 109.8L336.6 111.0Q336.4 111.0 336.2 111.1Q335.9 111.1 335.6 111.1L335.6 111.1Q334.6 111.1 334.0 110.5Q333.4 110.0 333.4 109.0L333.4 109.0L333.4 103.9L332.2 103.9L332.2 102.8L333.4 102.8L333.4 100.9L334.7 100.9L334.7 102.8ZM339.4 106.1L339.4 106.1L339.4 111L338.1 111L338.1 100.1L339.4 100.1L339.4 104.2Q339.7 103.5 340.2 103.2L340.2 103.2Q340.9 102.7 341.9 102.7L341.9 102.7Q342.7 102.7 343.3 103.0Q343.9 103.4 344.3 104.1Q344.6 104.8 344.6 105.8L344.6 105.8L344.6 111L343.3 111L343.3 105.9Q343.3 105.0 342.8 104.4Q342.3 103.9 341.5 103.9L341.5 103.9Q340.9 103.9 340.4 104.2Q339.9 104.4 339.7 104.9Q339.4 105.4 339.4 106.1ZM349.2 111.2L349.2 111.2Q348.5 111.2 347.8 110.9Q347.2 110.6 346.8 110.0Q346.4 109.5 346.4 108.7L346.4 108.7Q346.4 108.0 346.7 107.5Q347.0 107.1 347.5 106.8Q347.9 106.6 348.5 106.5Q349.1 106.3 349.6 106.3L349.6 106.3Q350.4 106.2 350.8 106.1Q351.3 106.1 351.5 105.9Q351.7 105.8 351.7 105.5L351.7 105.5L351.7 105.5Q351.7 105.0 351.5 104.6Q351.4 104.2 351.0 104.1Q350.6 103.9 350.0 103.9L350.0 103.9Q349.4 103.9 349.0 104.0Q348.6 104.2 348.3 104.5Q348.1 104.8 348.0 105.1L348.0 105.1L346.7 104.6Q347.0 103.9 347.5 103.5Q348.1 103.1 348.7 102.9Q349.4 102.7 350.0 102.7L350.0 102.7Q350.4 102.7 350.9 102.8Q351.4 102.9 351.9 103.2Q352.4 103.5 352.7 104.1Q353.1 104.6 353.1 105.6L353.1 105.6L353.1 111L351.8 111L351.8 109.9L351.7 109.9Q351.5 110.2 351.2 110.5Q350.9 110.8 350.4 111.0Q349.9 111.2 349.2 111.2ZM349.5 110.0L349.5 110.0Q350.2 110.0 350.7 109.7Q351.2 109.5 351.5 109.0Q351.7 108.5 351.7 108.0L351.7 108.0L351.7 106.9Q351.7 107.0 351.4 107.1Q351.1 107.2 350.8 107.2Q350.4 107.3 350.1 107.3Q349.8 107.4 349.6 107.4L349.6 107.4Q349.1 107.4 348.7 107.6Q348.3 107.7 348.0 108.0Q347.8 108.3 347.8 108.7L347.8 108.7Q347.8 109.2 348.0 109.4Q348.2 109.7 348.6 109.9Q349.0 110.0 349.5 110.0ZM356.9 102.8L358.6 102.8L358.6 103.9L356.9 103.9L356.9 108.9Q356.9 109.4 357.1 109.7Q357.4 109.9 357.9 109.9L357.9 109.9Q358.0 109.9 358.2 109.9Q358.4 109.9 358.5 109.8L358.5 109.8L358.8 111.0Q358.6 111.0 358.4 111.1Q358.1 111.1 357.8 111.1L357.8 111.1Q356.8 111.1 356.2 110.5Q355.6 110.0 355.6 109.0L355.6 109.0L355.6 103.9L354.4 103.9L354.4 102.8L355.6 102.8L355.6 100.9L356.9 100.9L356.9 102.8Z M367.9 111.2L367.9 111.2Q366.8 111.2 365.9 110.6Q365.0 110.1 364.6 109.2Q364.1 108.2 364.1 107.0Q364.1 105.7 364.6 104.8Q365.0 103.8 365.8 103.3Q366.7 102.7 367.8 102.7L367.8 102.7Q368.4 102.7 369.1 102.9Q369.7 103.1 370.2 103.6Q370.7 104.1 371.0 104.9Q371.4 105.7 371.4 106.8L371.4 106.8L371.4 107.4L365.4 107.4Q365.5 108.1 365.7 108.7L365.7 108.7Q366.1 109.4 366.6 109.7Q367.2 110.0 367.9 110.0L367.9 110.0Q368.4 110.0 368.8 109.9Q369.2 109.7 369.5 109.4Q369.8 109.2 369.9 108.7L369.9 108.7L371.2 109.1Q371.0 109.7 370.6 110.2Q370.1 110.6 369.5 110.9Q368.8 111.2 367.9 111.2ZM365.4 106.2L365.4 106.2L370.0 106.2Q370.0 105.7 369.8 105.2L369.8 105.2Q369.5 104.6 369.0 104.2Q368.5 103.9 367.8 103.9Q367.0 103.9 366.5 104.2Q366.0 104.6 365.7 105.2L365.7 105.2Q365.5 105.7 365.4 106.2ZM375.5 111.2L375.5 111.2Q374.8 111.2 374.1 110.9Q373.5 110.6 373.1 110.0Q372.7 109.5 372.7 108.7L372.7 108.7Q372.7 108.0 373.0 107.5Q373.3 107.1 373.8 106.8Q374.2 106.6 374.8 106.5Q375.4 106.3 375.9 106.3L375.9 106.3Q376.7 106.2 377.1 106.1Q377.6 106.1 377.8 105.9Q378.0 105.8 378.0 105.5L378.0 105.5L378.0 105.5Q378.0 105.0 377.8 104.6Q377.7 104.2 377.3 104.1Q376.9 103.9 376.3 103.9L376.3 103.9Q375.7 103.9 375.3 104.0Q374.9 104.2 374.6 104.5Q374.4 104.8 374.2 105.1L374.2 105.1L373.0 104.6Q373.3 103.9 373.8 103.5Q374.4 103.1 375.0 102.9Q375.7 102.7 376.3 102.7L376.3 102.7Q376.7 102.7 377.2 102.8Q377.7 102.9 378.2 103.2Q378.7 103.5 379.0 104.1Q379.3 104.6 379.3 105.6L379.3 105.6L379.3 111L378.1 111L378.1 109.9L378.0 109.9Q377.8 110.2 377.5 110.5Q377.2 110.8 376.7 111.0Q376.2 111.2 375.5 111.2ZM375.8 110.0L375.8 110.0Q376.5 110.0 377.0 109.7Q377.5 109.5 377.8 109.0Q378.0 108.5 378.0 108.0L378.0 108.0L378.0 106.9Q378.0 107.0 377.7 107.1Q377.4 107.2 377.1 107.2Q376.7 107.3 376.4 107.3Q376.1 107.4 375.9 107.4L375.9 107.4Q375.4 107.4 375.0 107.6Q374.6 107.7 374.3 108.0Q374.1 108.3 374.1 108.7L374.1 108.7Q374.1 109.2 374.3 109.4Q374.5 109.7 374.9 109.9Q375.3 110.0 375.8 110.0ZM383.0 111L381.7 111L381.7 102.8L382.9 102.8L382.9 104.1L383.0 104.1Q383.3 103.4 383.8 103.1Q384.4 102.7 385.2 102.7L385.2 102.7Q385.3 102.7 385.5 102.7Q385.7 102.7 385.8 102.7L385.8 102.7L385.8 104.0Q385.8 104.0 385.5 104.0Q385.3 104.0 385.0 104.0L385.0 104.0Q384.4 104.0 384.0 104.2Q383.5 104.5 383.2 104.9Q383.0 105.3 383.0 105.9L383.0 105.9L383.0 111ZM388.6 106.1L388.6 106.1L388.6 111L387.3 111L387.3 102.8L388.6 102.8L388.6 104.3Q388.9 103.6 389.5 103.2L389.5 103.2Q390.2 102.7 391.1 102.7L391.1 102.7Q391.9 102.7 392.5 103.0Q393.2 103.4 393.5 104.1Q393.9 104.8 393.9 105.8L393.9 105.8L393.9 111L392.5 111L392.5 105.9Q392.5 105.0 392.0 104.4Q391.6 103.9 390.7 103.9L390.7 103.9Q390.1 103.9 389.6 104.2Q389.2 104.4 388.9 104.9Q388.6 105.4 388.6 106.1ZM399.0 111.2L399.0 111.2Q398.1 111.2 397.5 110.9Q396.8 110.7 396.4 110.2Q396.0 109.7 395.8 109.0L395.8 109.0L397.1 108.7Q397.2 109.4 397.7 109.7Q398.2 110.0 398.9 110.0L398.9 110.0Q399.8 110.0 400.3 109.7Q400.8 109.3 400.8 108.8L400.8 108.8Q400.8 108.4 400.5 108.1Q400.2 107.8 399.6 107.7L399.6 107.7L398.3 107.3Q397.1 107.1 396.6 106.5Q396.1 106.0 396.1 105.1L396.1 105.1Q396.1 104.4 396.5 103.9Q396.8 103.3 397.5 103.0Q398.2 102.7 399.1 102.7L399.1 102.7Q399.9 102.7 400.5 103.0Q401.1 103.2 401.5 103.7Q401.8 104.1 402.0 104.7L402.0 104.7L400.8 105.0Q400.7 104.5 400.3 104.2Q399.9 103.8 399.1 103.8L399.1 103.8Q398.4 103.8 397.9 104.2Q397.4 104.5 397.4 105.0L397.4 105.0Q397.4 105.5 397.7 105.7Q398.0 106.0 398.8 106.2L398.8 106.2L400.0 106.5Q401.1 106.7 401.7 107.3Q402.2 107.9 402.2 108.7L402.2 108.7Q402.2 109.4 401.8 110.0Q401.4 110.5 400.6 110.9Q399.9 111.2 399.0 111.2Z M409.6 111L408.3 111L408.3 102.8L409.6 102.8L409.6 111ZM409.0 101.5L409.0 101.5Q408.6 101.5 408.3 101.2Q408.1 101.0 408.1 100.6L408.1 100.6Q408.1 100.2 408.3 100.0Q408.6 99.7 409.0 99.7L409.0 99.7Q409.4 99.7 409.6 100.0Q409.9 100.2 409.9 100.6L409.9 100.6Q409.9 101.0 409.6 101.2Q409.4 101.5 409.0 101.5ZM413.5 102.8L415.2 102.8L415.2 103.9L413.5 103.9L413.5 108.9Q413.5 109.4 413.7 109.7Q413.9 109.9 414.4 109.9L414.4 109.9Q414.6 109.9 414.8 109.9Q415.0 109.9 415.1 109.8L415.1 109.8L415.4 111.0Q415.2 111.0 414.9 111.1Q414.7 111.1 414.4 111.1L414.4 111.1Q413.3 111.1 412.8 110.5Q412.2 110.0 412.2 109.0L412.2 109.0L412.2 103.9L410.9 103.9L410.9 102.8L412.2 102.8L412.2 100.9L413.5 100.9L413.5 102.8ZM419.6 111.2L419.6 111.2Q418.8 111.2 418.1 110.9Q417.5 110.7 417.1 110.2Q416.6 109.7 416.5 109.0L416.5 109.0L417.7 108.7Q417.9 109.4 418.4 109.7Q418.9 110.0 419.6 110.0L419.6 110.0Q420.5 110.0 421.0 109.7Q421.5 109.3 421.5 108.8L421.5 108.8Q421.5 108.4 421.2 108.1Q420.9 107.8 420.3 107.7L420.3 107.7L418.9 107.3Q417.8 107.1 417.3 106.5Q416.7 106.0 416.7 105.1L416.7 105.1Q416.7 104.4 417.1 103.9Q417.5 103.3 418.2 103.0Q418.9 102.7 419.8 102.7L419.8 102.7Q420.6 102.7 421.2 103.0Q421.8 103.2 422.2 103.7Q422.5 104.1 422.7 104.7L422.7 104.7L421.5 105.0Q421.3 104.5 421.0 104.2Q420.6 103.8 419.8 103.8L419.8 103.8Q419.0 103.8 418.6 104.2Q418.1 104.5 418.1 105.0L418.1 105.0Q418.1 105.5 418.4 105.7Q418.7 106.0 419.4 106.2L419.4 106.2L420.7 106.5Q421.8 106.7 422.3 107.3Q422.9 107.9 422.9 108.7L422.9 108.7Q422.9 109.4 422.5 110.0Q422.0 110.5 421.3 110.9Q420.6 111.2 419.6 111.2Z M432.8 111.2L432.8 111.2Q432.0 111.2 431.5 110.9Q431.1 110.6 430.8 110.3Q430.5 110.0 430.4 109.7L430.4 109.7L430.3 109.7L430.3 111L429.0 111L429.0 100.1L430.3 100.1L430.3 104.1L430.4 104.1Q430.5 103.9 430.8 103.6Q431.0 103.2 431.5 103.0Q432.0 102.7 432.8 102.7L432.8 102.7Q433.8 102.7 434.6 103.2Q435.4 103.7 435.8 104.7Q436.3 105.6 436.3 106.9L436.3 106.9Q436.3 108.2 435.8 109.2Q435.4 110.1 434.6 110.7Q433.8 111.2 432.8 111.2ZM432.6 110.0L432.6 110.0Q433.4 110.0 433.9 109.6Q434.4 109.2 434.7 108.5Q434.9 107.8 434.9 106.9L434.9 106.9Q434.9 106.1 434.7 105.4Q434.4 104.7 433.9 104.3Q433.4 103.9 432.6 103.9L432.6 103.9Q431.8 103.9 431.3 104.3Q430.8 104.6 430.5 105.3Q430.3 106.0 430.3 106.9L430.3 106.9Q430.3 107.8 430.6 108.5Q430.8 109.2 431.3 109.6Q431.8 110.0 432.6 110.0ZM440.9 111.1L440.9 111.1Q440.1 111.1 439.5 110.8Q438.9 110.4 438.5 109.7Q438.2 109.0 438.2 108.0L438.2 108.0L438.2 102.8L439.5 102.8L439.5 107.9Q439.5 108.8 440.0 109.4Q440.5 109.9 441.3 109.9L441.3 109.9Q441.9 109.9 442.4 109.7Q442.9 109.4 443.1 108.9Q443.4 108.4 443.4 107.7L443.4 107.7L443.4 102.8L444.7 102.8L444.7 111L443.5 111L443.5 109.5Q443.1 110.3 442.6 110.6L442.6 110.6Q441.8 111.1 440.9 111.1ZM450.1 111.2L450.1 111.2Q449.1 111.2 448.3 110.7Q447.5 110.1 447.1 109.2Q446.6 108.2 446.6 106.9L446.6 106.9Q446.6 105.6 447.1 104.7Q447.5 103.7 448.3 103.2Q449.1 102.7 450.1 102.7L450.1 102.7Q450.9 102.7 451.4 103.0Q451.9 103.2 452.1 103.6Q452.4 103.9 452.5 104.1L452.5 104.1L452.6 104.1L452.6 100.1L453.9 100.1L453.9 111L452.6 111L452.6 109.7L452.5 109.7Q452.4 110.0 452.1 110.3Q451.8 110.6 451.4 110.9Q450.9 111.2 450.1 111.2ZM450.3 110.0L450.3 110.0Q451.1 110.0 451.6 109.6Q452.1 109.2 452.3 108.5Q452.6 107.8 452.6 106.9L452.6 106.9Q452.6 106.0 452.3 105.3Q452.1 104.6 451.6 104.3Q451.1 103.9 450.3 103.9L450.3 103.9Q449.5 103.9 449.0 104.3Q448.5 104.7 448.2 105.4Q448.0 106.1 448.0 106.9L448.0 106.9Q448.0 107.8 448.2 108.5Q448.5 109.2 449.0 109.6Q449.5 110.0 450.3 110.0ZM459.5 114.2L459.5 114.2Q458.6 114.2 458.0 114.0Q457.3 113.8 456.9 113.4Q456.4 113.0 456.2 112.6L456.2 112.6L457.2 111.9Q457.4 112.1 457.7 112.4Q457.9 112.7 458.4 112.9Q458.8 113.1 459.5 113.1L459.5 113.1Q460.5 113.1 461.2 112.6Q461.8 112.1 461.8 111.1L461.8 111.1L461.8 109.5L461.7 109.5Q461.5 109.7 461.3 110.1Q461.0 110.4 460.5 110.6Q460.1 110.9 459.3 110.9L459.3 110.9Q458.3 110.9 457.5 110.4Q456.7 109.9 456.3 109.0Q455.8 108.2 455.8 106.9L455.8 106.9Q455.8 105.6 456.3 104.7Q456.7 103.7 457.5 103.2Q458.3 102.7 459.3 102.7L459.3 102.7Q460.1 102.7 460.6 103.0Q461.1 103.2 461.3 103.6Q461.6 103.9 461.7 104.1L461.7 104.1L461.8 104.1L461.8 102.8L463.1 102.8L463.1 111.2Q463.1 112.3 462.6 112.9Q462.2 113.6 461.3 113.9Q460.5 114.2 459.5 114.2ZM459.5 109.7L459.5 109.7Q460.3 109.7 460.8 109.4Q461.3 109.0 461.5 108.4Q461.8 107.7 461.8 106.8L461.8 106.8Q461.8 106.0 461.5 105.3Q461.3 104.6 460.8 104.3Q460.3 103.9 459.5 103.9L459.5 103.9Q458.7 103.9 458.2 104.3Q457.7 104.7 457.4 105.4Q457.2 106.0 457.2 106.8L457.2 106.8Q457.2 107.7 457.4 108.3Q457.7 109.0 458.2 109.3Q458.7 109.7 459.5 109.7ZM468.9 111.2L468.9 111.2Q467.7 111.2 466.8 110.6Q466.0 110.1 465.5 109.2Q465.0 108.2 465.0 107.0Q465.0 105.7 465.5 104.8Q465.9 103.8 466.8 103.3Q467.6 102.7 468.7 102.7L468.7 102.7Q469.4 102.7 470.0 102.9Q470.6 103.1 471.1 103.6Q471.7 104.1 472.0 104.9Q472.3 105.7 472.3 106.8L472.3 106.8L472.3 107.4L466.4 107.4Q466.4 108.1 466.7 108.7L466.7 108.7Q467.0 109.4 467.6 109.7Q468.1 110.0 468.9 110.0L468.9 110.0Q469.4 110.0 469.8 109.9Q470.1 109.7 470.4 109.4Q470.7 109.2 470.9 108.7L470.9 108.7L472.1 109.1Q472.0 109.7 471.5 110.2Q471.0 110.6 470.4 110.9Q469.7 111.2 468.9 111.2ZM466.4 106.2L466.4 106.2L470.9 106.2Q470.9 105.7 470.7 105.2L470.7 105.2Q470.4 104.6 470.0 104.2Q469.5 103.9 468.7 103.9Q468.0 103.9 467.4 104.2Q466.9 104.6 466.6 105.2L466.6 105.2Q466.4 105.7 466.4 106.2ZM475.7 102.8L477.4 102.8L477.4 103.9L475.7 103.9L475.7 108.9Q475.7 109.4 475.9 109.7Q476.2 109.9 476.7 109.9L476.7 109.9Q476.8 109.9 477.0 109.9Q477.2 109.9 477.3 109.8L477.3 109.8L477.6 111.0Q477.4 111.0 477.2 111.1Q476.9 111.1 476.6 111.1L476.6 111.1Q475.6 111.1 475.0 110.5Q474.4 110.0 474.4 109.0L474.4 109.0L474.4 103.9L473.2 103.9L473.2 102.8L474.4 102.8L474.4 100.9L475.7 100.9L475.7 102.8ZM480.1 111.1L480.1 111.1Q479.7 111.1 479.4 110.8Q479.1 110.5 479.1 110.1L479.1 110.1Q479.1 109.7 479.4 109.4Q479.7 109.1 480.1 109.1L480.1 109.1Q480.5 109.1 480.8 109.4Q481.1 109.7 481.1 110.1L481.1 110.1Q481.1 110.5 480.8 110.8Q480.5 111.1 480.1 111.1Z "/></g></svg>