<!-- Generated by readme-aura https://github.com/collectioneur/readme-aura -->
<svg width="800" height="210" viewBox="0 0 800 210" xmlns="http://www.w3.org/2000/svg"><clipPath id="satori_cp-id"><path x="0" y="0" width="800" height="210" d="M16,0 h768 a16,16 0 0 1 16,16 v178 a16,16 0 0 1 -16,16 h-768 a16,16 0 0 1 -16,-16 v-178 a16,16 0 0 1 16,-16"/></clipPath><mask id="satori_om-id"><rect x="0" y="0" width="800" height="210" fill="#fff"/></mask><path x="0" y="0" width="800" height="210" fill="#0e0e10" d="M16,0 h768 a16,16 0 0 1 16,16 v178 a16,16 0 0 1 -16,16 h-768 a16,16 0 0 1 -16,-16 v-178 a16,16 0 0 1 16,-16"/><clipPath id="satori_cp-id-0" clip-path="url(#satori_cp-id)"><rect x="0" y="0" width="800" height="210"/></clipPath><mask id="satori_om-id-0"><rect x="0" y="0" width="800" height="210" fill="#fff" mask="url(#satori_om-id)"/></mask><svg x="0" y="0" width="800" height="210" preserveAspectRatio="none" clip-path="url(#satori_cp-id-0)" mask="url(#satori_om-id-0)"><defs><radialGradient id="sg1" cx="50%" cy="50%" r="50%"><stop offset="0%" stop-color="rgba(217,105,83,0.28)"></stop><stop offset="100%" stop-color="rgba(217,105,83,0)"></stop></radialGradient><radialGradient id="sg2" cx="50%" cy="50%" r="50%"><stop offset="0%" stop-color="rgba(77,138,138,0.28)"></stop><stop offset="100%" stop-color="rgba(77,138,138,0)"></stop></radialGradient></defs><ellipse id="s-o1" cx="120" cy="50" rx="170" ry="130" fill="url(#sg1)"></ellipse><ellipse id="s-o2" cx="700" cy="180" rx="170" ry="130" fill="url(#sg2)"></ellipse><style>

@keyframes stack-orb { 0%, 100% { transform: translate(0,0); opacity: 0.4; } 50% { transform: translate(20px,-14px); opacity: 0.65; } }
#s-o1 { animation: stack-orb 11s ease-in-out infinite; }
#s-o2 { animation: stack-orb 9s ease-in-out infinite 1.5s; }

</style>
</svg><mask id="satori_om-id-0-0"><rect x="0" y="0" width="0" height="210" fill="#fff" mask="url(#satori_om-id)"/></mask><mask id="satori_om-id-0-0-0"><rect x="0" y="0" width="0" height="210" fill="#fff" mask="url(#satori_om-id)"/></mask><mask id="satori_om-id-0-0-0-0"><rect x="0" y="0" width="0" height="210" fill="#fff" mask="url(#satori_om-id)"/></mask><mask id="satori_om-id-0-0-0-1"><rect x="0" y="0" width="0" height="210" fill="#fff" mask="url(#satori_om-id)"/></mask><mask id="satori_om-id-0-0-1"><rect x="0" y="0" width="0" height="210" fill="#fff" mask="url(#satori_om-id)"/></mask><mask id="satori_om-id-0-0-1-0"><rect x="0" y="0" width="0" height="210" fill="#fff" mask="url(#satori_om-id)"/></mask><mask id="satori_om-id-0-0-1-1"><rect x="0" y="0" width="0" height="210" fill="#fff" mask="url(#satori_om-id)"/></mask><mask id="satori_om-id-0-1"><rect x="0" y="0" width="0" height="210" fill="#fff" mask="url(#satori_om-id)"/></mask><mask id="satori_om-id-0-2"><rect x="0" y="0" width="0" height="210" fill="#fff" mask="url(#satori_om-id)"/></mask><mask id="satori_om-id-1"><rect x="56" y="56" width="58" height="13" fill="#fff" mask="url(#satori_om-id)"/></mask><g mask="url(#satori_om-id)" clip-path="url(#satori_cp-id)"><path fill="rgba(255,255,255,0.35)" d="M59.5 67.1L59.5 67.1Q58.7 67.1 58.0 66.9Q57.4 66.6 57.0 66.1Q56.7 65.6 56.6 64.9L56.6 64.9L57.7 64.9Q57.7 65.4 58.0 65.6Q58.2 65.9 58.7 66.1Q59.1 66.2 59.5 66.2L59.5 66.2Q60.1 66.2 60.5 66.0Q60.9 65.9 61.2 65.5Q61.4 65.2 61.4 64.8L61.4 64.8Q61.4 64.4 61.2 64.2Q61.0 63.9 60.6 63.8Q60.3 63.6 59.9 63.5L59.9 63.5L58.9 63.2Q57.9 63.0 57.4 62.4Q56.8 61.9 56.8 61.1L56.8 61.1Q56.8 60.5 57.2 60.0Q57.6 59.4 58.2 59.2Q58.8 58.9 59.6 58.9L59.6 58.9Q60.4 58.9 61.0 59.2Q61.6 59.4 62.0 59.9Q62.3 60.4 62.3 61.0L62.3 61.0L61.3 61.0Q61.3 60.4 60.8 60.1Q60.3 59.8 59.6 59.8L59.6 59.8Q59.1 59.8 58.7 60.0Q58.3 60.1 58.1 60.4Q57.8 60.7 57.8 61.1L57.8 61.1Q57.8 61.5 58.1 61.8Q58.4 62.0 58.7 62.2Q59.1 62.3 59.4 62.4L59.4 62.4L60.2 62.6Q60.5 62.7 60.9 62.8Q61.3 63.0 61.6 63.2Q62.0 63.5 62.2 63.9Q62.4 64.3 62.4 64.8L62.4 64.8Q62.4 65.5 62.1 66.0Q61.8 66.5 61.1 66.8Q60.5 67.1 59.5 67.1ZM70.1 59.9L67.6 59.9L67.6 59.0L73.6 59.0L73.6 59.9L71.1 59.9L71.1 67L70.1 67L70.1 59.9ZM79.5 67L78.4 67L81.3 59.0L82.5 59.0L85.5 67L84.4 67L83.6 64.8L80.3 64.8L79.5 67ZM80.6 63.9L83.3 63.9L82.7 62.3Q82.5 61.8 82.3 61.2L82.3 61.2Q82.2 60.6 81.9 59.8L81.9 59.8Q81.7 60.6 81.5 61.2L81.5 61.2Q81.3 61.8 81.2 62.3L81.2 62.3L80.6 63.9ZM94.0 67.1L94.0 67.1Q92.9 67.1 92.1 66.6Q91.3 66.1 90.9 65.2Q90.4 64.3 90.4 63.0L90.4 63.0Q90.4 61.7 90.9 60.8Q91.3 59.9 92.1 59.4Q92.9 58.9 94.0 58.9L94.0 58.9Q94.6 58.9 95.1 59.1Q95.6 59.2 96.1 59.6Q96.5 59.9 96.8 60.4Q97.1 60.9 97.2 61.5L97.2 61.5L96.2 61.5Q96.1 61.1 95.9 60.8Q95.7 60.5 95.4 60.3Q95.1 60.0 94.7 59.9Q94.3 59.8 94.0 59.8L94.0 59.8Q93.2 59.8 92.7 60.2Q92.1 60.6 91.7 61.3Q91.4 62.0 91.4 63.0L91.4 63.0Q91.4 64.0 91.7 64.7Q92.1 65.4 92.7 65.8Q93.2 66.2 94.0 66.2L94.0 66.2Q94.3 66.2 94.7 66.1Q95.1 65.9 95.4 65.7Q95.7 65.5 95.9 65.2Q96.1 64.9 96.2 64.5L96.2 64.5L97.2 64.5Q97.1 65.1 96.8 65.6Q96.5 66.1 96.1 66.4Q95.6 66.7 95.1 66.9Q94.6 67.1 94.0 67.1ZM103.8 67L102.7 67L102.7 59.0L103.8 59.0L103.8 61.7L103.8 63.2Q103.9 63.1 104.0 62.9L104.0 62.9Q104.3 62.6 104.5 62.2Q104.8 61.9 105.1 61.6L105.1 61.6L107.5 59.0L108.9 59.0L105.6 62.5L108.9 67L107.7 67L104.9 63.2L103.8 64.4L103.8 67Z "/></g><mask id="satori_om-id-2"><rect x="56" y="87" width="688" height="68" fill="#fff" mask="url(#satori_om-id)"/></mask><defs><clipPath id="satori_bc-id-2-0" clip-path="url(#satori_cp-id)"><path x="56" y="87" width="114" height="30" d="M71,87 h84 a15,15 0 0 1 15,15 v0 a15,15 0 0 1 -15,15 h-84 a15,15 0 0 1 -15,-15 v0 a15,15 0 0 1 15,-15"/></clipPath></defs><mask id="satori_om-id-2-0"><rect x="57" y="88" width="112" height="28" fill="#fff" mask="url(#satori_om-id)"/><path width="114" height="30" fill="none" stroke="#000" stroke-width="2" d="M60.393,91.393 A15,15 0 0 1 71,87 h84 a15,15 0 0 1 15,15 v0 a15,15 0 0 1 -15,15 h-84 a15,15 0 0 1 -15,-15 v0 A15,15 0 0 1 60.393,91.393"/></mask><path x="56" y="87" width="114" height="30" fill="rgba(255,255,255,0.04)" d="M71,87 h84 a15,15 0 0 1 15,15 v0 a15,15 0 0 1 -15,15 h-84 a15,15 0 0 1 -15,-15 v0 a15,15 0 0 1 15,-15" clip-path="url(#satori_cp-id)" mask="url(#satori_om-id)"/><path width="114" height="30" clip-path="url(#satori_bc-id-2-0)" fill="none" stroke="rgba(255,255,255,0.09)" stroke-width="2" d="M60.393,91.393 A15,15 0 0 1 71,87 h84 a15,15 0 0 1 15,15 v0 a15,15 0 0 1 -15,15 h-84 a15,15 0 0 1 -15,-15 v0 A15,15 0 0 1 60.393,91.393"/><g mask="url(#satori_om-id)" clip-path="url(#satori_cp-id)"><path fill="rgba(255,255,255,0.74)" d="M75.1 107L74.0 107L74.0 99.9L75.1 99.9L75.1 101.0L75.2 101.0Q75.4 100.5 75.9 100.1Q76.4 99.8 77.0 99.8L77.0 99.8Q77.2 99.8 77.3 99.8Q77.5 99.8 77.6 99.8L77.6 99.8L77.6 101.0Q77.6 101.0 77.3 100.9Q77.1 100.9 76.9 100.9L76.9 100.9Q76.4 100.9 76.0 101.1Q75.6 101.3 75.4 101.7Q75.1 102.1 75.1 102.6L75.1 102.6L75.1 107ZM81.6 107.1L81.6 107.1Q80.9 107.1 80.3 106.8Q79.8 106.5 79.5 105.9Q79.2 105.3 79.2 104.4L79.2 104.4L79.2 99.9L80.3 99.9L80.3 104.3Q80.3 105.1 80.8 105.6Q81.2 106.1 81.9 106.1L81.9 106.1Q82.5 106.1 82.9 105.8Q83.3 105.6 83.5 105.2Q83.7 104.8 83.7 104.2L83.7 104.2L83.7 99.9L84.9 99.9L84.9 107L83.8 107L83.8 105.7Q83.5 106.4 83.0 106.7L83.0 106.7Q82.4 107.1 81.6 107.1ZM90.5 107.2L90.5 107.2Q89.8 107.2 89.4 106.9Q89.0 106.7 88.8 106.4Q88.5 106.1 88.4 105.9L88.4 105.9L88.3 105.9L88.3 107L87.2 107L87.2 97.5L88.3 97.5L88.3 101.0L88.4 101.0Q88.5 100.8 88.8 100.6Q89.0 100.3 89.4 100.0Q89.8 99.8 90.5 99.8L90.5 99.8Q91.4 99.8 92.0 100.3Q92.7 100.7 93.1 101.5Q93.5 102.3 93.5 103.5L93.5 103.5Q93.5 104.6 93.1 105.4Q92.7 106.3 92.0 106.7Q91.4 107.2 90.5 107.2ZM90.3 106.1L90.3 106.1Q91.0 106.1 91.4 105.8Q91.9 105.4 92.1 104.8Q92.3 104.2 92.3 103.5L92.3 103.5Q92.3 102.7 92.1 102.1Q91.9 101.5 91.4 101.2Q91.0 100.8 90.3 100.8L90.3 100.8Q89.7 100.8 89.2 101.2Q88.8 101.5 88.5 102.1Q88.3 102.7 88.3 103.5L88.3 103.5Q88.3 104.2 88.5 104.8Q88.8 105.5 89.2 105.8Q89.7 106.1 90.3 106.1ZM95.3 109.6L95.3 109.6L95.6 108.6L95.7 108.6Q96.1 108.7 96.4 108.7Q96.7 108.6 96.9 108.4Q97.1 108.1 97.3 107.6L97.3 107.6L97.5 107.0L94.8 99.9L96.0 99.9L97.5 104.1Q97.8 104.8 98.0 105.4L98.0 105.4Q98.0 105.7 98.1 106.0L98.1 106.0Q98.2 105.7 98.2 105.4L98.2 105.4Q98.4 104.8 98.6 104.1L98.6 104.1L100.2 99.9L101.4 99.9L98.3 108.1Q98.1 108.6 97.8 109.0Q97.5 109.4 97.1 109.5Q96.7 109.7 96.2 109.7L96.2 109.7Q95.9 109.7 95.6 109.7Q95.4 109.6 95.3 109.6Z M109.9 107.2L109.9 107.2Q108.9 107.2 108.2 106.7Q107.5 106.2 107.1 105.4Q106.7 104.6 106.7 103.5L106.7 103.5Q106.7 102.4 107.1 101.6Q107.5 100.7 108.2 100.3Q108.9 99.8 109.9 99.8L109.9 99.8Q110.9 99.8 111.6 100.3Q112.3 100.7 112.7 101.6Q113.1 102.4 113.1 103.5L113.1 103.5Q113.1 104.6 112.7 105.4Q112.3 106.2 111.6 106.7Q110.9 107.2 109.9 107.2ZM109.9 106.1L109.9 106.1Q110.6 106.1 111.1 105.8Q111.5 105.4 111.8 104.8Q112.0 104.2 112.0 103.5L112.0 103.5Q112.0 102.8 111.8 102.2Q111.5 101.6 111.1 101.2Q110.6 100.8 109.9 100.8L109.9 100.8Q109.2 100.8 108.7 101.2Q108.3 101.6 108.0 102.2Q107.8 102.8 107.8 103.5L107.8 103.5Q107.8 104.2 108.0 104.8Q108.3 105.4 108.7 105.8Q109.2 106.1 109.9 106.1ZM116.2 102.7L116.2 102.7L116.2 107L115.1 107L115.1 99.9L116.2 99.9L116.2 101.2Q116.5 100.6 117.0 100.2L117.0 100.2Q117.6 99.8 118.4 99.8L118.4 99.8Q119.1 99.8 119.6 100.1Q120.2 100.4 120.5 101.0Q120.8 101.6 120.8 102.5L120.8 102.5L120.8 107L119.6 107L119.6 102.6Q119.6 101.8 119.2 101.3Q118.8 100.8 118.0 100.8L118.0 100.8Q117.5 100.8 117.1 101.1Q116.7 101.3 116.5 101.7Q116.2 102.1 116.2 102.7Z M128.2 107L127.0 107L127.0 99.9L128.1 99.9L128.1 101.0L128.2 101.0Q128.4 100.5 128.9 100.1Q129.4 99.8 130.1 99.8L130.1 99.8Q130.2 99.8 130.4 99.8Q130.5 99.8 130.6 99.8L130.6 99.8L130.6 101.0Q130.6 101.0 130.4 100.9Q130.2 100.9 130.0 100.9L130.0 100.9Q129.4 100.9 129.0 101.1Q128.6 101.3 128.4 101.7Q128.2 102.1 128.2 102.6L128.2 102.6L128.2 107ZM134.2 107.2L134.2 107.2Q133.5 107.2 133.0 106.9Q132.4 106.7 132.1 106.2Q131.8 105.7 131.8 105.0L131.8 105.0Q131.8 104.4 132.0 104.0Q132.3 103.6 132.7 103.4Q133.1 103.2 133.6 103.1Q134.1 103.0 134.6 102.9L134.6 102.9Q135.2 102.8 135.6 102.8Q136.0 102.7 136.2 102.6Q136.4 102.5 136.4 102.2L136.4 102.2L136.4 102.2Q136.4 101.8 136.2 101.5Q136.1 101.1 135.7 101.0Q135.4 100.8 134.9 100.8L134.9 100.8Q134.4 100.8 134.0 101.0Q133.7 101.1 133.4 101.4Q133.2 101.6 133.1 101.9L133.1 101.9L132.0 101.5Q132.3 100.8 132.7 100.5Q133.2 100.1 133.8 100.0Q134.3 99.8 134.9 99.8L134.9 99.8Q135.2 99.8 135.7 99.9Q136.1 100.0 136.6 100.2Q137.0 100.5 137.3 101.0Q137.5 101.5 137.5 102.3L137.5 102.3L137.5 107L136.4 107L136.4 106.0L136.3 106.0Q136.2 106.3 135.9 106.5Q135.7 106.8 135.2 107.0Q134.8 107.2 134.2 107.2ZM134.4 106.2L134.4 106.2Q135.1 106.2 135.5 105.9Q135.9 105.7 136.2 105.3Q136.4 104.9 136.4 104.4L136.4 104.4L136.4 103.5Q136.3 103.5 136.1 103.6Q135.8 103.7 135.5 103.7Q135.2 103.8 135.0 103.8Q134.7 103.8 134.5 103.9L134.5 103.9Q134.1 103.9 133.7 104.0Q133.4 104.2 133.2 104.4Q132.9 104.6 132.9 105.0L132.9 105.0Q132.9 105.4 133.1 105.7Q133.3 105.9 133.7 106.0Q134.0 106.2 134.4 106.2ZM141.0 107L139.8 107L139.8 99.9L141.0 99.9L141.0 107ZM140.4 98.7L140.4 98.7Q140.1 98.7 139.9 98.5Q139.6 98.3 139.6 98.0L139.6 98.0Q139.6 97.7 139.9 97.4Q140.1 97.2 140.4 97.2L140.4 97.2Q140.7 97.2 141.0 97.4Q141.2 97.7 141.2 98.0L141.2 98.0Q141.2 98.3 141.0 98.5Q140.7 98.7 140.4 98.7ZM143.3 97.5L144.4 97.5L144.4 107L143.3 107L143.3 97.5ZM149.1 107.2L149.1 107.2Q148.4 107.2 147.8 106.9Q147.3 106.7 146.9 106.3Q146.5 105.9 146.4 105.3L146.4 105.3L147.5 105.0Q147.6 105.6 148.1 105.9Q148.5 106.1 149.1 106.1L149.1 106.1Q149.9 106.1 150.3 105.8Q150.8 105.5 150.8 105.1L150.8 105.1Q150.8 104.7 150.5 104.5Q150.2 104.2 149.7 104.1L149.7 104.1L148.5 103.8Q147.6 103.6 147.1 103.1Q146.6 102.6 146.6 101.9L146.6 101.9Q146.6 101.3 147.0 100.8Q147.3 100.3 147.9 100.1Q148.5 99.8 149.3 99.8L149.3 99.8Q150.0 99.8 150.5 100.0Q151.0 100.3 151.3 100.6Q151.6 101.0 151.8 101.5L151.8 101.5L150.8 101.8Q150.6 101.4 150.3 101.1Q149.9 100.8 149.3 100.8L149.3 100.8Q148.6 100.8 148.2 101.1Q147.8 101.4 147.8 101.8L147.8 101.8Q147.8 102.2 148.1 102.4Q148.4 102.7 149.0 102.8L149.0 102.8L150.0 103.1Q151.0 103.3 151.5 103.8Q151.9 104.3 151.9 105.0L151.9 105.0Q151.9 105.6 151.6 106.1Q151.2 106.6 150.6 106.9Q150.0 107.2 149.1 107.2Z "/></g><defs><clipPath id="satori_bc-id-2-1" clip-path="url(#satori_cp-id)"><path x="178" y="87" width="103" height="30" d="M193,87 h73 a15,15 0 0 1 15,15 v0 a15,15 0 0 1 -15,15 h-73 a15,15 0 0 1 -15,-15 v0 a15,15 0 0 1 15,-15"/></clipPath></defs><mask id="satori_om-id-2-1"><rect x="179" y="88" width="101" height="28" fill="#fff" mask="url(#satori_om-id)"/><path width="103" height="30" fill="none" stroke="#000" stroke-width="2" d="M182.393,91.393 A15,15 0 0 1 193,87 h73 a15,15 0 0 1 15,15 v0 a15,15 0 0 1 -15,15 h-73 a15,15 0 0 1 -15,-15 v0 A15,15 0 0 1 182.393,91.393"/></mask><path x="178" y="87" width="103" height="30" fill="rgba(255,255,255,0.04)" d="M193,87 h73 a15,15 0 0 1 15,15 v0 a15,15 0 0 1 -15,15 h-73 a15,15 0 0 1 -15,-15 v0 a15,15 0 0 1 15,-15" clip-path="url(#satori_cp-id)" mask="url(#satori_om-id)"/><path width="103" height="30" clip-path="url(#satori_bc-id-2-1)" fill="none" stroke="rgba(255,255,255,0.09)" stroke-width="2" d="M182.393,91.393 A15,15 0 0 1 193,87 h73 a15,15 0 0 1 15,15 v0 a15,15 0 0 1 -15,15 h-73 a15,15 0 0 1 -15,-15 v0 A15,15 0 0 1 182.393,91.393"/><g mask="url(#satori_om-id)" clip-path="url(#satori_cp-id)"><path fill="rgba(255,255,255,0.74)" d="M197.1 109.7L196.0 109.7L196.0 99.9L197.1 99.9L197.1 101.0L197.2 101.0Q197.4 100.8 197.6 100.6Q197.8 100.3 198.2 100.0Q198.6 99.8 199.3 99.8L199.3 99.8Q200.2 99.8 200.9 100.3Q201.5 100.7 201.9 101.5Q202.3 102.3 202.3 103.5L202.3 103.5Q202.3 104.6 201.9 105.4Q201.5 106.3 200.9 106.7Q200.2 107.2 199.3 107.2L199.3 107.2Q198.6 107.2 198.2 106.9Q197.8 106.7 197.6 106.4Q197.4 106.1 197.2 105.9L197.2 105.9L197.1 105.9L197.1 109.7ZM199.1 106.1L199.1 106.1Q199.8 106.1 200.2 105.8Q200.7 105.4 200.9 104.8Q201.1 104.2 201.1 103.5L201.1 103.5Q201.1 102.7 200.9 102.1Q200.7 101.5 200.2 101.2Q199.8 100.8 199.1 100.8L199.1 100.8Q198.5 100.8 198.0 101.2Q197.6 101.5 197.4 102.1Q197.1 102.7 197.1 103.5L197.1 103.5Q197.1 104.2 197.4 104.8Q197.6 105.5 198.0 105.8Q198.5 106.1 199.1 106.1ZM207.2 107.2L207.2 107.2Q206.2 107.2 205.5 106.7Q204.7 106.2 204.3 105.4Q203.9 104.6 203.9 103.5L203.9 103.5Q203.9 102.4 204.3 101.6Q204.7 100.7 205.5 100.3Q206.2 99.8 207.2 99.8L207.2 99.8Q208.1 99.8 208.9 100.3Q209.6 100.7 210.0 101.6Q210.4 102.4 210.4 103.5L210.4 103.5Q210.4 104.6 210.0 105.4Q209.6 106.2 208.9 106.7Q208.1 107.2 207.2 107.2ZM207.2 106.1L207.2 106.1Q207.9 106.1 208.3 105.8Q208.8 105.4 209.0 104.8Q209.2 104.2 209.2 103.5L209.2 103.5Q209.2 102.8 209.0 102.2Q208.8 101.6 208.3 101.2Q207.9 100.8 207.2 100.8L207.2 100.8Q206.4 100.8 206.0 101.2Q205.5 101.6 205.3 102.2Q205.1 102.8 205.1 103.5L205.1 103.5Q205.1 104.2 205.3 104.8Q205.5 105.4 206.0 105.8Q206.4 106.1 207.2 106.1ZM214.8 107.2L214.8 107.2Q214.0 107.2 213.5 106.9Q212.9 106.7 212.5 106.3Q212.2 105.9 212.0 105.3L212.0 105.3L213.1 105.0Q213.3 105.6 213.7 105.9Q214.1 106.1 214.8 106.1L214.8 106.1Q215.5 106.1 215.9 105.8Q216.4 105.5 216.4 105.1L216.4 105.1Q216.4 104.7 216.1 104.5Q215.9 104.2 215.3 104.1L215.3 104.1L214.2 103.8Q213.2 103.6 212.7 103.1Q212.3 102.6 212.3 101.9L212.3 101.9Q212.3 101.3 212.6 100.8Q212.9 100.3 213.5 100.1Q214.1 99.8 214.9 99.8L214.9 99.8Q215.6 99.8 216.1 100.0Q216.6 100.3 217.0 100.6Q217.3 101.0 217.4 101.5L217.4 101.5L216.4 101.8Q216.3 101.4 215.9 101.1Q215.6 100.8 214.9 100.8L214.9 100.8Q214.3 100.8 213.8 101.1Q213.4 101.4 213.4 101.8L213.4 101.8Q213.4 102.2 213.7 102.4Q214.0 102.7 214.6 102.8L214.6 102.8L215.7 103.1Q216.6 103.3 217.1 103.8Q217.6 104.3 217.6 105.0L217.6 105.0Q217.6 105.6 217.2 106.1Q216.9 106.6 216.2 106.9Q215.6 107.2 214.8 107.2ZM220.9 99.9L222.3 99.9L222.3 100.9L220.9 100.9L220.9 105.2Q220.9 105.6 221.0 105.9Q221.2 106.1 221.7 106.1L221.7 106.1Q221.8 106.1 222.0 106.0Q222.1 106.0 222.3 106.0L222.3 106.0L222.5 107.0Q222.3 107.0 222.1 107.1Q221.9 107.1 221.7 107.1L221.7 107.1Q220.7 107.1 220.2 106.6Q219.7 106.1 219.7 105.2L219.7 105.2L219.7 100.9L218.6 100.9L218.6 99.9L219.7 99.9L219.7 98.2L220.9 98.2L220.9 99.9ZM226.9 109.8L226.9 109.8Q226.2 109.8 225.6 109.6Q225.0 109.4 224.6 109.1Q224.3 108.7 224.0 108.4L224.0 108.4L225.0 107.8Q225.1 108.0 225.3 108.2Q225.6 108.5 225.9 108.6Q226.3 108.8 226.9 108.8L226.9 108.8Q227.8 108.8 228.3 108.4Q228.9 108.0 228.9 107.1L228.9 107.1L228.9 105.7L228.8 105.7Q228.7 105.9 228.4 106.2Q228.2 106.5 227.8 106.7Q227.4 106.9 226.7 106.9L226.7 106.9Q225.9 106.9 225.2 106.5Q224.5 106.1 224.1 105.3Q223.7 104.5 223.7 103.4L223.7 103.4Q223.7 102.3 224.1 101.5Q224.5 100.7 225.2 100.3Q225.9 99.8 226.8 99.8L226.8 99.8Q227.4 99.8 227.8 100.0Q228.3 100.3 228.5 100.6Q228.7 100.8 228.8 101.0L228.8 101.0L228.9 101.0L228.9 99.9L230.0 99.9L230.0 107.2Q230.0 108.1 229.6 108.7Q229.2 109.3 228.5 109.5Q227.8 109.8 226.9 109.8ZM226.9 105.9L226.9 105.9Q227.6 105.9 228.0 105.6Q228.5 105.3 228.7 104.7Q228.9 104.2 228.9 103.4L228.9 103.4Q228.9 102.6 228.7 102.1Q228.5 101.5 228.0 101.2Q227.6 100.8 226.9 100.8L226.9 100.8Q226.2 100.8 225.8 101.2Q225.3 101.5 225.1 102.1Q224.9 102.7 224.9 103.4L224.9 103.4Q224.9 104.1 225.1 104.7Q225.3 105.2 225.8 105.6Q226.2 105.9 226.9 105.9ZM233.5 107L232.3 107L232.3 99.9L233.4 99.9L233.4 101.0L233.5 101.0Q233.7 100.5 234.2 100.1Q234.7 99.8 235.4 99.8L235.4 99.8Q235.5 99.8 235.7 99.8Q235.8 99.8 235.9 99.8L235.9 99.8L235.9 101.0Q235.9 101.0 235.7 100.9Q235.5 100.9 235.3 100.9L235.3 100.9Q234.8 100.9 234.3 101.1Q233.9 101.3 233.7 101.7Q233.5 102.1 233.5 102.6L233.5 102.6L233.5 107ZM240.5 107.2L240.5 107.2Q239.5 107.2 238.7 106.7Q238.0 106.2 237.6 105.4Q237.2 104.6 237.2 103.5Q237.2 102.4 237.6 101.6Q238.0 100.8 238.7 100.3Q239.4 99.8 240.4 99.8L240.4 99.8Q241.0 99.8 241.5 100.0Q242.1 100.2 242.5 100.6Q242.9 101.0 243.2 101.7Q243.5 102.4 243.5 103.4L243.5 103.4L243.5 103.8L238.4 103.8Q238.4 104.5 238.6 105.0L238.6 105.0Q238.9 105.6 239.4 105.9Q239.9 106.1 240.5 106.1L240.5 106.1Q240.9 106.1 241.3 106.0Q241.6 105.9 241.9 105.7Q242.1 105.4 242.3 105.0L242.3 105.0L243.4 105.3Q243.2 105.9 242.8 106.3Q242.4 106.7 241.8 106.9Q241.3 107.2 240.5 107.2ZM238.4 102.9L238.4 102.9L242.3 102.9Q242.3 102.4 242.1 102.0L242.1 102.0Q241.9 101.4 241.5 101.1Q241.0 100.8 240.4 100.8Q239.7 100.8 239.3 101.1Q238.8 101.5 238.6 102.0L238.6 102.0Q238.4 102.4 238.4 102.9ZM247.8 107.2L247.8 107.2Q247.1 107.2 246.5 106.9Q246.0 106.7 245.6 106.3Q245.2 105.9 245.1 105.3L245.1 105.3L246.2 105.0Q246.3 105.6 246.8 105.9Q247.2 106.1 247.8 106.1L247.8 106.1Q248.6 106.1 249.0 105.8Q249.4 105.5 249.4 105.1L249.4 105.1Q249.4 104.7 249.2 104.5Q248.9 104.2 248.4 104.1L248.4 104.1L247.2 103.8Q246.3 103.6 245.8 103.1Q245.3 102.6 245.3 101.9L245.3 101.9Q245.3 101.3 245.7 100.8Q246.0 100.3 246.6 100.1Q247.2 99.8 247.9 99.8L247.9 99.8Q248.7 99.8 249.2 100.0Q249.7 100.3 250.0 100.6Q250.3 101.0 250.5 101.5L250.5 101.5L249.5 101.8Q249.3 101.4 249.0 101.1Q248.6 100.8 248.0 100.8L248.0 100.8Q247.3 100.8 246.9 101.1Q246.5 101.4 246.5 101.8L246.5 101.8Q246.5 102.2 246.8 102.4Q247.0 102.7 247.7 102.8L247.7 102.8L248.7 103.1Q249.7 103.3 250.2 103.8Q250.6 104.3 250.6 105.0L250.6 105.0Q250.6 105.6 250.3 106.1Q249.9 106.6 249.3 106.9Q248.7 107.2 247.8 107.2ZM258.5 99.9L258.5 109.7L257.4 109.7L257.4 105.9L257.3 105.9Q257.2 106.1 257.0 106.4Q256.7 106.7 256.3 106.9Q255.9 107.2 255.2 107.2L255.2 107.2Q254.4 107.2 253.7 106.7Q253.0 106.3 252.6 105.4Q252.2 104.6 252.2 103.5L252.2 103.5Q252.2 102.3 252.6 101.5Q253.0 100.7 253.7 100.3Q254.4 99.8 255.2 99.8L255.2 99.8Q255.9 99.8 256.3 100.0Q256.8 100.3 257.0 100.6Q257.2 100.8 257.3 101.0L257.3 101.0L257.4 101.0L257.4 99.9L258.5 99.9ZM255.4 106.1L255.4 106.1Q256.1 106.1 256.5 105.8Q256.9 105.5 257.2 104.8Q257.4 104.2 257.4 103.5L257.4 103.5Q257.4 102.7 257.2 102.1Q257.0 101.5 256.5 101.2Q256.1 100.8 255.4 100.8L255.4 100.8Q254.7 100.8 254.3 101.2Q253.8 101.5 253.6 102.1Q253.4 102.7 253.4 103.5L253.4 103.5Q253.4 104.2 253.6 104.8Q253.8 105.4 254.3 105.8Q254.8 106.1 255.4 106.1ZM260.8 97.5L262.0 97.5L262.0 107L260.8 107L260.8 97.5Z "/></g><defs><clipPath id="satori_bc-id-2-2" clip-path="url(#satori_cp-id)"><path x="289" y="87" width="107" height="30" d="M304,87 h77 a15,15 0 0 1 15,15 v0 a15,15 0 0 1 -15,15 h-77 a15,15 0 0 1 -15,-15 v0 a15,15 0 0 1 15,-15"/></clipPath></defs><mask id="satori_om-id-2-2"><rect x="290" y="88" width="105" height="28" fill="#fff" mask="url(#satori_om-id)"/><path width="107" height="30" fill="none" stroke="#000" stroke-width="2" d="M293.39300000000003,91.393 A15,15 0 0 1 304,87 h77 a15,15 0 0 1 15,15 v0 a15,15 0 0 1 -15,15 h-77 a15,15 0 0 1 -15,-15 v0 A15,15 0 0 1 293.39300000000003,91.393"/></mask><path x="289" y="87" width="107" height="30" fill="rgba(255,255,255,0.04)" d="M304,87 h77 a15,15 0 0 1 15,15 v0 a15,15 0 0 1 -15,15 h-77 a15,15 0 0 1 -15,-15 v0 a15,15 0 0 1 15,-15" clip-path="url(#satori_cp-id)" mask="url(#satori_om-id)"/><path width="107" height="30" clip-path="url(#satori_bc-id-2-2)" fill="none" stroke="rgba(255,255,255,0.09)" stroke-width="2" d="M293.39300000000003,91.393 A15,15 0 0 1 304,87 h77 a15,15 0 0 1 15,15 v0 a15,15 0 0 1 -15,15 h-77 a15,15 0 0 1 -15,-15 v0 A15,15 0 0 1 293.39300000000003,91.393"/><g mask="url(#satori_om-id)" clip-path="url(#satori_cp-id)"><path fill="rgba(255,255,255,0.74)" d="M308.1 107L307.0 107L307.0 97.5L308.1 97.5L308.1 103.0L308.3 103.0L311.3 99.9L312.7 99.9L309.8 103.0L313.0 107L311.5 107L308.9 103.7L308.1 104.4L308.1 107ZM316.8 107.1L316.8 107.1Q316.1 107.1 315.6 106.8Q315.0 106.5 314.7 105.9Q314.4 105.3 314.4 104.4L314.4 104.4L314.4 99.9L315.6 99.9L315.6 104.3Q315.6 105.1 316.0 105.6Q316.4 106.1 317.2 106.1L317.2 106.1Q317.7 106.1 318.1 105.8Q318.5 105.6 318.7 105.2Q319.0 104.8 319.0 104.2L319.0 104.2L319.0 99.9L320.1 99.9L320.1 107L319.0 107L319.0 105.7Q318.7 106.4 318.2 106.7L318.2 106.7Q317.6 107.1 316.8 107.1ZM325.7 107.2L325.7 107.2Q325.0 107.2 324.6 106.9Q324.2 106.7 324.0 106.4Q323.8 106.1 323.7 105.9L323.7 105.9L323.5 105.9L323.5 107L322.4 107L322.4 97.5L323.6 97.5L323.6 101.0L323.7 101.0Q323.8 100.8 324.0 100.6Q324.2 100.3 324.6 100.0Q325.0 99.8 325.7 99.8L325.7 99.8Q326.6 99.8 327.3 100.3Q328.0 100.7 328.3 101.5Q328.7 102.3 328.7 103.5L328.7 103.5Q328.7 104.6 328.3 105.4Q328.0 106.3 327.3 106.7Q326.6 107.2 325.7 107.2ZM325.5 106.1L325.5 106.1Q326.2 106.1 326.7 105.8Q327.1 105.4 327.3 104.8Q327.6 104.2 327.6 103.5L327.6 103.5Q327.6 102.7 327.3 102.1Q327.1 101.5 326.7 101.2Q326.2 100.8 325.5 100.8L325.5 100.8Q324.9 100.8 324.4 101.2Q324.0 101.5 323.8 102.1Q323.6 102.7 323.6 103.5L323.6 103.5Q323.6 104.2 323.8 104.8Q324.0 105.5 324.5 105.8Q324.9 106.1 325.5 106.1ZM333.7 107.2L333.7 107.2Q332.6 107.2 331.9 106.7Q331.1 106.2 330.7 105.4Q330.3 104.6 330.3 103.5Q330.3 102.4 330.7 101.6Q331.1 100.8 331.8 100.3Q332.6 99.8 333.5 99.8L333.5 99.8Q334.1 99.8 334.6 100.0Q335.2 100.2 335.6 100.6Q336.1 101.0 336.4 101.7Q336.6 102.4 336.6 103.4L336.6 103.4L336.6 103.8L331.5 103.8Q331.5 104.5 331.8 105.0L331.8 105.0Q332.0 105.6 332.5 105.9Q333.0 106.1 333.7 106.1L333.7 106.1Q334.1 106.1 334.4 106.0Q334.8 105.9 335.0 105.7Q335.3 105.4 335.4 105.0L335.4 105.0L336.5 105.3Q336.3 105.9 336.0 106.3Q335.6 106.7 335.0 106.9Q334.4 107.2 333.7 107.2ZM331.5 102.9L331.5 102.9L335.5 102.9Q335.4 102.4 335.3 102.0L335.3 102.0Q335.0 101.4 334.6 101.1Q334.2 100.8 333.5 100.8Q332.9 100.8 332.4 101.1Q332.0 101.5 331.7 102.0L331.7 102.0Q331.5 102.4 331.5 102.9ZM339.7 107L338.6 107L338.6 99.9L339.7 99.9L339.7 101.0L339.7 101.0Q339.9 100.5 340.4 100.1Q341.0 99.8 341.6 99.8L341.6 99.8Q341.7 99.8 341.9 99.8Q342.1 99.8 342.2 99.8L342.2 99.8L342.2 101.0Q342.1 101.0 341.9 100.9Q341.7 100.9 341.5 100.9L341.5 100.9Q341.0 100.9 340.6 101.1Q340.2 101.3 339.9 101.7Q339.7 102.1 339.7 102.6L339.7 102.6L339.7 107ZM344.9 102.7L344.9 102.7L344.9 107L343.8 107L343.8 99.9L344.9 99.9L344.9 101.2Q345.2 100.6 345.6 100.2L345.6 100.2Q346.2 99.8 347.0 99.8L347.0 99.8Q347.8 99.8 348.3 100.1Q348.8 100.4 349.1 101.0Q349.4 101.6 349.4 102.5L349.4 102.5L349.4 107L348.3 107L348.3 102.6Q348.3 101.8 347.9 101.3Q347.4 100.8 346.7 100.8L346.7 100.8Q346.2 100.8 345.8 101.1Q345.4 101.3 345.1 101.7Q344.9 102.1 344.9 102.7ZM354.7 107.2L354.7 107.2Q353.7 107.2 352.9 106.7Q352.2 106.2 351.8 105.4Q351.4 104.6 351.4 103.5Q351.4 102.4 351.8 101.6Q352.2 100.8 352.9 100.3Q353.6 99.8 354.6 99.8L354.6 99.8Q355.2 99.8 355.7 100.0Q356.3 100.2 356.7 100.6Q357.1 101.0 357.4 101.7Q357.7 102.4 357.7 103.4L357.7 103.4L357.7 103.8L352.6 103.8Q352.6 104.5 352.8 105.0L352.8 105.0Q353.1 105.6 353.6 105.9Q354.1 106.1 354.7 106.1L354.7 106.1Q355.1 106.1 355.5 106.0Q355.8 105.9 356.1 105.7Q356.3 105.4 356.5 105.0L356.5 105.0L357.6 105.3Q357.4 105.9 357.0 106.3Q356.6 106.7 356.0 106.9Q355.5 107.2 354.7 107.2ZM352.6 102.9L352.6 102.9L356.5 102.9Q356.5 102.4 356.3 102.0L356.3 102.0Q356.1 101.4 355.7 101.1Q355.2 100.8 354.6 100.8Q353.9 100.8 353.5 101.1Q353.0 101.5 352.8 102.0L352.8 102.0Q352.6 102.4 352.6 102.9ZM361.0 99.9L362.4 99.9L362.4 100.9L361.0 100.9L361.0 105.2Q361.0 105.6 361.1 105.9Q361.3 106.1 361.8 106.1L361.8 106.1Q361.9 106.1 362.1 106.0Q362.2 106.0 362.4 106.0L362.4 106.0L362.6 107.0Q362.4 107.0 362.2 107.1Q362.0 107.1 361.8 107.1L361.8 107.1Q360.8 107.1 360.3 106.6Q359.8 106.1 359.8 105.2L359.8 105.2L359.8 100.9L358.7 100.9L358.7 99.9L359.8 99.9L359.8 98.2L361.0 98.2L361.0 99.9ZM367.2 107.2L367.2 107.2Q366.1 107.2 365.4 106.7Q364.6 106.2 364.2 105.4Q363.8 104.6 363.8 103.5Q363.8 102.4 364.2 101.6Q364.6 100.8 365.3 100.3Q366.1 99.8 367.0 99.8L367.0 99.8Q367.6 99.8 368.1 100.0Q368.7 100.2 369.1 100.6Q369.6 101.0 369.8 101.7Q370.1 102.4 370.1 103.4L370.1 103.4L370.1 103.8L365.0 103.8Q365.0 104.5 365.3 105.0L365.3 105.0Q365.5 105.6 366.0 105.9Q366.5 106.1 367.2 106.1L367.2 106.1Q367.6 106.1 367.9 106.0Q368.3 105.9 368.5 105.7Q368.8 105.4 368.9 105.0L368.9 105.0L370.0 105.3Q369.8 105.9 369.4 106.3Q369.0 106.7 368.5 106.9Q367.9 107.2 367.2 107.2ZM365.0 102.9L365.0 102.9L369.0 102.9Q368.9 102.4 368.7 102.0L368.7 102.0Q368.5 101.4 368.1 101.1Q367.7 100.8 367.0 100.8Q366.4 100.8 365.9 101.1Q365.5 101.5 365.2 102.0L365.2 102.0Q365.0 102.4 365.0 102.9ZM374.5 107.2L374.5 107.2Q373.7 107.2 373.2 106.9Q372.6 106.7 372.2 106.3Q371.9 105.9 371.7 105.3L371.7 105.3L372.8 105.0Q373.0 105.6 373.4 105.9Q373.8 106.1 374.4 106.1L374.4 106.1Q375.2 106.1 375.6 105.8Q376.1 105.5 376.1 105.1L376.1 105.1Q376.1 104.7 375.8 104.5Q375.6 104.2 375.0 104.1L375.0 104.1L373.9 103.8Q372.9 103.6 372.4 103.1Q371.9 102.6 371.9 101.9L371.9 101.9Q371.9 101.3 372.3 100.8Q372.6 100.3 373.2 100.1Q373.8 99.8 374.6 99.8L374.6 99.8Q375.3 99.8 375.8 100.0Q376.3 100.3 376.6 100.6Q377.0 101.0 377.1 101.5L377.1 101.5L376.1 101.8Q375.9 101.4 375.6 101.1Q375.3 100.8 374.6 100.8L374.6 100.8Q373.9 100.8 373.5 101.1Q373.1 101.4 373.1 101.8L373.1 101.8Q373.1 102.2 373.4 102.4Q373.7 102.7 374.3 102.8L374.3 102.8L375.4 103.1Q376.3 103.3 376.8 103.8Q377.3 104.3 377.3 105.0L377.3 105.0Q377.3 105.6 376.9 106.1Q376.6 106.6 375.9 106.9Q375.3 107.2 374.5 107.2Z "/></g><defs><clipPath id="satori_bc-id-2-3" clip-path="url(#satori_cp-id)"><path x="404" y="87" width="60" height="30" d="M419,87 h30 a15,15 0 0 1 15,15 v0 a15,15 0 0 1 -15,15 h-30 a15,15 0 0 1 -15,-15 v0 a15,15 0 0 1 15,-15"/></clipPath></defs><mask id="satori_om-id-2-3"><rect x="405" y="88" width="58" height="28" fill="#fff" mask="url(#satori_om-id)"/><path width="60" height="30" fill="none" stroke="#000" stroke-width="2" d="M408.39300000000003,91.393 A15,15 0 0 1 419,87 h30 a15,15 0 0 1 15,15 v0 a15,15 0 0 1 -15,15 h-30 a15,15 0 0 1 -15,-15 v0 A15,15 0 0 1 408.39300000000003,91.393"/></mask><path x="404" y="87" width="60" height="30" fill="rgba(255,255,255,0.04)" d="M419,87 h30 a15,15 0 0 1 15,15 v0 a15,15 0 0 1 -15,15 h-30 a15,15 0 0 1 -15,-15 v0 a15,15 0 0 1 15,-15" clip-path="url(#satori_cp-id)" mask="url(#satori_om-id)"/><path width="60" height="30" clip-path="url(#satori_bc-id-2-3)" fill="none" stroke="rgba(255,255,255,0.09)" stroke-width="2" d="M408.39300000000003,91.393 A15,15 0 0 1 419,87 h30 a15,15 0 0 1 15,15 v0 a15,15 0 0 1 -15,15 h-30 a15,15 0 0 1 -15,-15 v0 A15,15 0 0 1 408.39300000000003,91.393"/><g mask="url(#satori_om-id)" clip-path="url(#satori_cp-id)"><path fill="rgba(255,255,255,0.74)" d="M424.0 107.2L424.0 107.2Q423.3 107.2 422.8 106.9Q422.2 106.7 421.9 106.2Q421.6 105.7 421.6 105.0L421.6 105.0Q421.6 104.4 421.8 104.0Q422.1 103.6 422.5 103.4Q422.9 103.2 423.3 103.1Q423.8 103.0 424.3 102.9L424.3 102.9Q425.0 102.8 425.4 102.8Q425.8 102.7 426.0 102.6Q426.2 102.5 426.2 102.2L426.2 102.2L426.2 102.2Q426.2 101.8 426.0 101.5Q425.8 101.1 425.5 101.0Q425.2 100.8 424.7 100.8L424.7 100.8Q424.2 100.8 423.8 101.0Q423.4 101.1 423.2 101.4Q423.0 101.6 422.9 101.9L422.9 101.9L421.8 101.5Q422.0 100.8 422.5 100.5Q423.0 100.1 423.5 100.0Q424.1 99.8 424.6 99.8L424.6 99.8Q425.0 99.8 425.4 99.9Q425.9 100.0 426.3 100.2Q426.7 100.5 427.0 101.0Q427.3 101.5 427.3 102.3L427.3 102.3L427.3 107L426.2 107L426.2 106.0L426.1 106.0Q426.0 106.3 425.7 106.5Q425.4 106.8 425.0 107.0Q424.6 107.2 424.0 107.2ZM424.2 106.2L424.2 106.2Q424.8 106.2 425.3 105.9Q425.7 105.7 425.9 105.3Q426.2 104.9 426.2 104.4L426.2 104.4L426.2 103.5Q426.1 103.5 425.8 103.6Q425.6 103.7 425.3 103.7Q425.0 103.8 424.7 103.8Q424.4 103.8 424.3 103.9L424.3 103.9Q423.9 103.9 423.5 104.0Q423.2 104.2 422.9 104.4Q422.7 104.6 422.7 105.0L422.7 105.0Q422.7 105.4 422.9 105.7Q423.1 105.9 423.4 106.0Q423.8 106.2 424.2 106.2ZM432.3 107L431.2 107L429.0 99.9L430.3 99.9L431.1 103.0Q431.3 103.6 431.5 104.4L431.5 104.4Q431.7 105.0 431.8 105.8L431.8 105.8Q431.9 105.1 432.1 104.5L432.1 104.5Q432.3 103.7 432.5 103.0L432.5 103.0L433.3 99.9L434.5 99.9L435.4 103.0Q435.6 103.7 435.8 104.5L435.8 104.5Q435.9 105.1 436.0 105.8L436.0 105.8Q436.2 105.1 436.3 104.5L436.3 104.5Q436.5 103.7 436.7 103.0L436.7 103.0L437.6 99.9L438.8 99.9L436.6 107L435.5 107L434.6 103.8Q434.4 103.3 434.3 102.8Q434.2 102.3 434.1 101.8L434.1 101.8Q434.0 101.5 433.9 101.2L433.9 101.2Q433.9 101.5 433.8 101.7L433.8 101.7Q433.7 102.3 433.5 102.8Q433.4 103.3 433.3 103.8L433.3 103.8L432.3 107ZM443.0 107.2L443.0 107.2Q442.2 107.2 441.7 106.9Q441.1 106.7 440.7 106.3Q440.4 105.9 440.2 105.3L440.2 105.3L441.3 105.0Q441.5 105.6 441.9 105.9Q442.3 106.1 442.9 106.1L442.9 106.1Q443.7 106.1 444.1 105.8Q444.6 105.5 444.6 105.1L444.6 105.1Q444.6 104.7 444.3 104.5Q444.1 104.2 443.5 104.1L443.5 104.1L442.3 103.8Q441.4 103.6 440.9 103.1Q440.4 102.6 440.4 101.9L440.4 101.9Q440.4 101.3 440.8 100.8Q441.1 100.3 441.7 100.1Q442.3 99.8 443.1 99.8L443.1 99.8Q443.8 99.8 444.3 100.0Q444.8 100.3 445.1 100.6Q445.5 101.0 445.6 101.5L445.6 101.5L444.6 101.8Q444.4 101.4 444.1 101.1Q443.8 100.8 443.1 100.8L443.1 100.8Q442.4 100.8 442.0 101.1Q441.6 101.4 441.6 101.8L441.6 101.8Q441.6 102.2 441.9 102.4Q442.2 102.7 442.8 102.8L442.8 102.8L443.9 103.1Q444.8 103.3 445.3 103.8Q445.8 104.3 445.8 105.0L445.8 105.0Q445.8 105.6 445.4 106.1Q445.0 106.6 444.4 106.9Q443.8 107.2 443.0 107.2Z "/></g><defs><clipPath id="satori_bc-id-2-4" clip-path="url(#satori_cp-id)"><path x="472" y="87" width="66" height="30" d="M487,87 h36 a15,15 0 0 1 15,15 v0 a15,15 0 0 1 -15,15 h-36 a15,15 0 0 1 -15,-15 v0 a15,15 0 0 1 15,-15"/></clipPath></defs><mask id="satori_om-id-2-4"><rect x="473" y="88" width="64" height="28" fill="#fff" mask="url(#satori_om-id)"/><path width="66" height="30" fill="none" stroke="#000" stroke-width="2" d="M476.39300000000003,91.393 A15,15 0 0 1 487,87 h36 a15,15 0 0 1 15,15 v0 a15,15 0 0 1 -15,15 h-36 a15,15 0 0 1 -15,-15 v0 A15,15 0 0 1 476.39300000000003,91.393"/></mask><path x="472" y="87" width="66" height="30" fill="rgba(255,255,255,0.04)" d="M487,87 h36 a15,15 0 0 1 15,15 v0 a15,15 0 0 1 -15,15 h-36 a15,15 0 0 1 -15,-15 v0 a15,15 0 0 1 15,-15" clip-path="url(#satori_cp-id)" mask="url(#satori_om-id)"/><path width="66" height="30" clip-path="url(#satori_bc-id-2-4)" fill="none" stroke="rgba(255,255,255,0.09)" stroke-width="2" d="M476.39300000000003,91.393 A15,15 0 0 1 487,87 h36 a15,15 0 0 1 15,15 v0 a15,15 0 0 1 -15,15 h-36 a15,15 0 0 1 -15,-15 v0 A15,15 0 0 1 476.39300000000003,91.393"/><g mask="url(#satori_om-id)" clip-path="url(#satori_cp-id)"><path fill="rgba(255,255,255,0.74)" d="M491.1 102.7L491.1 102.7L491.1 107L490.0 107L490.0 97.5L491.1 97.5L491.1 101.1Q491.4 100.5 491.9 100.2L491.9 100.2Q492.5 99.8 493.3 99.8L493.3 99.8Q494.0 99.8 494.5 100.1Q495.1 100.4 495.4 101.0Q495.7 101.6 495.7 102.5L495.7 102.5L495.7 107L494.5 107L494.5 102.6Q494.5 101.8 494.1 101.3Q493.7 100.8 492.9 100.8L492.9 100.8Q492.4 100.8 492.0 101.1Q491.6 101.3 491.4 101.7Q491.1 102.1 491.1 102.7ZM501.0 107.2L501.0 107.2Q499.9 107.2 499.2 106.7Q498.5 106.2 498.1 105.4Q497.6 104.6 497.6 103.5Q497.6 102.4 498.0 101.6Q498.4 100.8 499.2 100.3Q499.9 99.8 500.8 99.8L500.8 99.8Q501.4 99.8 502.0 100.0Q502.5 100.2 503.0 100.6Q503.4 101.0 503.7 101.7Q503.9 102.4 503.9 103.4L503.9 103.4L503.9 103.8L498.8 103.8Q498.8 104.5 499.1 105.0L499.1 105.0Q499.3 105.6 499.8 105.9Q500.3 106.1 501.0 106.1L501.0 106.1Q501.4 106.1 501.7 106.0Q502.1 105.9 502.3 105.7Q502.6 105.4 502.7 105.0L502.7 105.0L503.8 105.3Q503.7 105.9 503.3 106.3Q502.9 106.7 502.3 106.9Q501.7 107.2 501.0 107.2ZM498.8 102.9L498.8 102.9L502.8 102.9Q502.7 102.4 502.6 102.0L502.6 102.0Q502.3 101.4 501.9 101.1Q501.5 100.8 500.8 100.8Q500.2 100.8 499.7 101.1Q499.3 101.5 499.0 102.0L499.0 102.0Q498.8 102.4 498.8 102.9ZM505.9 97.5L507.0 97.5L507.0 107L505.9 107L505.9 97.5ZM510.5 107L509.3 107L509.3 99.9L510.4 99.9L510.4 101.2Q510.6 100.8 510.8 100.5L510.8 100.5Q511.1 100.2 511.5 100.0Q512.0 99.8 512.4 99.8L512.4 99.8Q513.2 99.8 513.7 100.3L513.7 100.3Q514.1 100.6 514.2 101.2L514.2 101.2Q514.4 100.9 514.6 100.6L514.6 100.6Q514.9 100.2 515.4 100.0Q515.9 99.8 516.5 99.8L516.5 99.8Q517.1 99.8 517.6 100.0Q518.1 100.3 518.4 100.8Q518.7 101.4 518.7 102.2L518.7 102.2L518.7 107L517.6 107L517.6 102.2Q517.6 101.5 517.1 101.1Q516.7 100.8 516.1 100.8L516.1 100.8Q515.6 100.8 515.3 101.0Q515.0 101.2 514.8 101.6Q514.6 101.9 514.6 102.4L514.6 102.4L514.6 107L513.4 107L513.4 102.1Q513.4 101.5 513.0 101.2Q512.7 100.8 512.0 100.8L512.0 100.8Q511.6 100.8 511.3 101.0Q510.9 101.2 510.7 101.6Q510.5 102.0 510.5 102.5L510.5 102.5L510.5 107Z "/></g><defs><clipPath id="satori_bc-id-2-5" clip-path="url(#satori_cp-id)"><path x="546" y="87" width="66" height="30" d="M561,87 h36 a15,15 0 0 1 15,15 v0 a15,15 0 0 1 -15,15 h-36 a15,15 0 0 1 -15,-15 v0 a15,15 0 0 1 15,-15"/></clipPath></defs><mask id="satori_om-id-2-5"><rect x="547" y="88" width="64" height="28" fill="#fff" mask="url(#satori_om-id)"/><path width="66" height="30" fill="none" stroke="#000" stroke-width="2" d="M550.393,91.393 A15,15 0 0 1 561,87 h36 a15,15 0 0 1 15,15 v0 a15,15 0 0 1 -15,15 h-36 a15,15 0 0 1 -15,-15 v0 A15,15 0 0 1 550.393,91.393"/></mask><path x="546" y="87" width="66" height="30" fill="rgba(255,255,255,0.04)" d="M561,87 h36 a15,15 0 0 1 15,15 v0 a15,15 0 0 1 -15,15 h-36 a15,15 0 0 1 -15,-15 v0 a15,15 0 0 1 15,-15" clip-path="url(#satori_cp-id)" mask="url(#satori_om-id)"/><path width="66" height="30" clip-path="url(#satori_bc-id-2-5)" fill="none" stroke="rgba(255,255,255,0.09)" stroke-width="2" d="M550.393,91.393 A15,15 0 0 1 561,87 h36 a15,15 0 0 1 15,15 v0 a15,15 0 0 1 -15,15 h-36 a15,15 0 0 1 -15,-15 v0 A15,15 0 0 1 550.393,91.393"/><g mask="url(#satori_om-id)" clip-path="url(#satori_cp-id)"><path fill="rgba(255,255,255,0.74)" d="M565.1 107L564.0 107L564.0 97.5L565.1 97.5L565.1 103.0L565.3 103.0L568.3 99.9L569.7 99.9L566.8 103.0L570.0 107L568.5 107L565.9 103.7L565.1 104.4L565.1 107ZM574.4 107.2L574.4 107.2Q573.4 107.2 572.6 106.7Q571.9 106.2 571.5 105.4Q571.1 104.6 571.1 103.5Q571.1 102.4 571.5 101.6Q571.9 100.8 572.6 100.3Q573.3 99.8 574.3 99.8L574.3 99.8Q574.9 99.8 575.4 100.0Q576.0 100.2 576.4 100.6Q576.8 101.0 577.1 101.7Q577.4 102.4 577.4 103.4L577.4 103.4L577.4 103.8L572.3 103.8Q572.3 104.5 572.5 105.0L572.5 105.0Q572.8 105.6 573.3 105.9Q573.8 106.1 574.4 106.1L574.4 106.1Q574.8 106.1 575.2 106.0Q575.5 105.9 575.8 105.7Q576.0 105.4 576.2 105.0L576.2 105.0L577.3 105.3Q577.1 105.9 576.7 106.3Q576.3 106.7 575.7 106.9Q575.2 107.2 574.4 107.2ZM572.3 102.9L572.3 102.9L576.2 102.9Q576.2 102.4 576.0 102.0L576.0 102.0Q575.8 101.4 575.4 101.1Q574.9 100.8 574.3 100.8Q573.6 100.8 573.2 101.1Q572.7 101.5 572.5 102.0L572.5 102.0Q572.3 102.4 572.3 102.9ZM582.0 107.2L582.0 107.2Q581.1 107.2 580.4 106.7Q579.7 106.3 579.4 105.4Q579.0 104.6 579.0 103.5L579.0 103.5Q579.0 102.3 579.4 101.5Q579.7 100.7 580.4 100.3Q581.1 99.8 582.0 99.8L582.0 99.8Q582.7 99.8 583.1 100.0Q583.5 100.3 583.7 100.6Q583.9 100.8 584.0 101.0L584.0 101.0L584.1 101.0L584.1 97.5L585.3 97.5L585.3 107L584.2 107L584.2 105.9L584.0 105.9Q583.9 106.1 583.7 106.4Q583.5 106.7 583.1 106.9Q582.7 107.2 582.0 107.2ZM582.1 106.1L582.1 106.1Q582.8 106.1 583.2 105.8Q583.7 105.5 583.9 104.8Q584.1 104.2 584.1 103.5L584.1 103.5Q584.1 102.7 583.9 102.1Q583.7 101.5 583.2 101.2Q582.8 100.8 582.1 100.8L582.1 100.8Q581.5 100.8 581.0 101.2Q580.6 101.5 580.4 102.1Q580.1 102.7 580.1 103.5L580.1 103.5Q580.1 104.2 580.4 104.8Q580.6 105.4 581.0 105.8Q581.5 106.1 582.1 106.1ZM589.6 107.2L589.6 107.2Q588.9 107.2 588.3 106.9Q587.8 106.7 587.5 106.2Q587.1 105.7 587.1 105.0L587.1 105.0Q587.1 104.4 587.4 104.0Q587.6 103.6 588.0 103.4Q588.4 103.2 588.9 103.1Q589.4 103.0 589.9 102.9L589.9 102.9Q590.5 102.8 590.9 102.8Q591.3 102.7 591.5 102.6Q591.7 102.5 591.7 102.2L591.7 102.2L591.7 102.2Q591.7 101.8 591.6 101.5Q591.4 101.1 591.1 101.0Q590.7 100.8 590.2 100.8L590.2 100.8Q589.7 100.8 589.4 101.0Q589.0 101.1 588.8 101.4Q588.6 101.6 588.4 101.9L588.4 101.9L587.3 101.5Q587.6 100.8 588.1 100.5Q588.5 100.1 589.1 100.0Q589.7 99.8 590.2 99.8L590.2 99.8Q590.6 99.8 591.0 99.9Q591.5 100.0 591.9 100.2Q592.3 100.5 592.6 101.0Q592.9 101.5 592.9 102.3L592.9 102.3L592.9 107L591.7 107L591.7 106.0L591.7 106.0Q591.6 106.3 591.3 106.5Q591.0 106.8 590.6 107.0Q590.2 107.2 589.6 107.2ZM589.8 106.2L589.8 106.2Q590.4 106.2 590.8 105.9Q591.3 105.7 591.5 105.3Q591.7 104.9 591.7 104.4L591.7 104.4L591.7 103.5Q591.7 103.5 591.4 103.6Q591.2 103.7 590.9 103.7Q590.6 103.8 590.3 103.8Q590.0 103.8 589.9 103.9L589.9 103.9Q589.4 103.9 589.1 104.0Q588.7 104.2 588.5 104.4Q588.3 104.6 588.3 105.0L588.3 105.0Q588.3 105.4 588.5 105.7Q588.7 105.9 589.0 106.0Q589.3 106.2 589.8 106.2Z "/></g><defs><clipPath id="satori_bc-id-2-6" clip-path="url(#satori_cp-id)"><path x="620" y="87" width="87" height="30" d="M635,87 h57 a15,15 0 0 1 15,15 v0 a15,15 0 0 1 -15,15 h-57 a15,15 0 0 1 -15,-15 v0 a15,15 0 0 1 15,-15"/></clipPath></defs><mask id="satori_om-id-2-6"><rect x="621" y="88" width="85" height="28" fill="#fff" mask="url(#satori_om-id)"/><path width="87" height="30" fill="none" stroke="#000" stroke-width="2" d="M624.393,91.393 A15,15 0 0 1 635,87 h57 a15,15 0 0 1 15,15 v0 a15,15 0 0 1 -15,15 h-57 a15,15 0 0 1 -15,-15 v0 A15,15 0 0 1 624.393,91.393"/></mask><path x="620" y="87" width="87" height="30" fill="rgba(255,255,255,0.04)" d="M635,87 h57 a15,15 0 0 1 15,15 v0 a15,15 0 0 1 -15,15 h-57 a15,15 0 0 1 -15,-15 v0 a15,15 0 0 1 15,-15" clip-path="url(#satori_cp-id)" mask="url(#satori_om-id)"/><path width="87" height="30" clip-path="url(#satori_bc-id-2-6)" fill="none" stroke="rgba(255,255,255,0.09)" stroke-width="2" d="M624.393,91.393 A15,15 0 0 1 635,87 h57 a15,15 0 0 1 15,15 v0 a15,15 0 0 1 -15,15 h-57 a15,15 0 0 1 -15,-15 v0 A15,15 0 0 1 624.393,91.393"/><g mask="url(#satori_om-id)" clip-path="url(#satori_cp-id)"><path fill="rgba(255,255,255,0.74)" d="M640.7 107.2L640.7 107.2Q639.8 107.2 639.1 106.7Q638.4 106.3 638.0 105.4Q637.7 104.6 637.7 103.5L637.7 103.5Q637.7 102.3 638.0 101.5Q638.4 100.7 639.1 100.3Q639.8 99.8 640.7 99.8L640.7 99.8Q641.4 99.8 641.8 100.0Q642.2 100.3 642.4 100.6Q642.6 100.8 642.7 101.0L642.7 101.0L642.8 101.0L642.8 97.5L644.0 97.5L644.0 107L642.9 107L642.9 105.9L642.7 105.9Q642.6 106.1 642.4 106.4Q642.2 106.7 641.8 106.9Q641.3 107.2 640.7 107.2ZM640.8 106.1L640.8 106.1Q641.5 106.1 641.9 105.8Q642.4 105.5 642.6 104.8Q642.8 104.2 642.8 103.5L642.8 103.5Q642.8 102.7 642.6 102.1Q642.4 101.5 641.9 101.2Q641.5 100.8 640.8 100.8L640.8 100.8Q640.2 100.8 639.7 101.2Q639.3 101.5 639.0 102.1Q638.8 102.7 638.8 103.5L638.8 103.5Q638.8 104.2 639.0 104.8Q639.3 105.4 639.7 105.8Q640.2 106.1 640.8 106.1ZM648.2 107.2L648.2 107.2Q647.6 107.2 647.0 106.9Q646.5 106.7 646.2 106.2Q645.8 105.7 645.8 105.0L645.8 105.0Q645.8 104.4 646.1 104.0Q646.3 103.6 646.7 103.4Q647.1 103.2 647.6 103.1Q648.1 103.0 648.6 102.9L648.6 102.9Q649.2 102.8 649.6 102.8Q650.0 102.7 650.2 102.6Q650.4 102.5 650.4 102.2L650.4 102.2L650.4 102.2Q650.4 101.8 650.2 101.5Q650.1 101.1 649.8 101.0Q649.4 100.8 648.9 100.8L648.9 100.8Q648.4 100.8 648.1 101.0Q647.7 101.1 647.5 101.4Q647.2 101.6 647.1 101.9L647.1 101.9L646.0 101.5Q646.3 100.8 646.8 100.5Q647.2 100.1 647.8 100.0Q648.4 99.8 648.9 99.8L648.9 99.8Q649.3 99.8 649.7 99.9Q650.2 100.0 650.6 100.2Q651.0 100.5 651.3 101.0Q651.6 101.5 651.6 102.3L651.6 102.3L651.6 107L650.4 107L650.4 106.0L650.4 106.0Q650.2 106.3 650.0 106.5Q649.7 106.8 649.3 107.0Q648.9 107.2 648.2 107.2ZM648.4 106.2L648.4 106.2Q649.1 106.2 649.5 105.9Q650.0 105.7 650.2 105.3Q650.4 104.9 650.4 104.4L650.4 104.4L650.4 103.5Q650.3 103.5 650.1 103.6Q649.9 103.7 649.6 103.7Q649.3 103.8 649.0 103.8Q648.7 103.8 648.5 103.9L648.5 103.9Q648.1 103.9 647.8 104.0Q647.4 104.2 647.2 104.4Q647.0 104.6 647.0 105.0L647.0 105.0Q647.0 105.4 647.2 105.7Q647.4 105.9 647.7 106.0Q648.0 106.2 648.4 106.2ZM655.2 99.9L656.7 99.9L656.7 100.9L655.2 100.9L655.2 105.2Q655.2 105.6 655.4 105.9Q655.6 106.1 656.0 106.1L656.0 106.1Q656.1 106.1 656.3 106.0Q656.5 106.0 656.6 106.0L656.6 106.0L656.9 107.0Q656.7 107.0 656.4 107.1Q656.2 107.1 656.0 107.1L656.0 107.1Q655.1 107.1 654.6 106.6Q654.1 106.1 654.1 105.2L654.1 105.2L654.1 100.9L653.0 100.9L653.0 99.9L654.1 99.9L654.1 98.2L655.2 98.2L655.2 99.9ZM660.4 107.2L660.4 107.2Q659.7 107.2 659.2 106.9Q658.6 106.7 658.3 106.2Q658.0 105.7 658.0 105.0L658.0 105.0Q658.0 104.4 658.2 104.0Q658.5 103.6 658.9 103.4Q659.3 103.2 659.8 103.1Q660.3 103.0 660.7 102.9L660.7 102.9Q661.4 102.8 661.8 102.8Q662.2 102.7 662.4 102.6Q662.6 102.5 662.6 102.2L662.6 102.2L662.6 102.2Q662.6 101.8 662.4 101.5Q662.2 101.1 661.9 101.0Q661.6 100.8 661.1 100.8L661.1 100.8Q660.6 100.8 660.2 101.0Q659.9 101.1 659.6 101.4Q659.4 101.6 659.3 101.9L659.3 101.9L658.2 101.5Q658.5 100.8 658.9 100.5Q659.4 100.1 659.9 100.0Q660.5 99.8 661.0 99.8L661.0 99.8Q661.4 99.8 661.9 99.9Q662.3 100.0 662.7 100.2Q663.2 100.5 663.4 101.0Q663.7 101.5 663.7 102.3L663.7 102.3L663.7 107L662.6 107L662.6 106.0L662.5 106.0Q662.4 106.3 662.1 106.5Q661.9 106.8 661.4 107.0Q661.0 107.2 660.4 107.2ZM660.6 106.2L660.6 106.2Q661.2 106.2 661.7 105.9Q662.1 105.7 662.3 105.3Q662.6 104.9 662.6 104.4L662.6 104.4L662.6 103.5Q662.5 103.5 662.3 103.6Q662.0 103.7 661.7 103.7Q661.4 103.8 661.1 103.8Q660.9 103.8 660.7 103.9L660.7 103.9Q660.3 103.9 659.9 104.0Q659.6 104.2 659.3 104.4Q659.1 104.6 659.1 105.0L659.1 105.0Q659.1 105.4 659.3 105.7Q659.5 105.9 659.8 106.0Q660.2 106.2 660.6 106.2ZM668.7 107.2L668.7 107.2Q667.8 107.2 667.1 106.7Q666.4 106.3 666.1 105.4Q665.7 104.6 665.7 103.5L665.7 103.5Q665.7 102.3 666.1 101.5Q666.4 100.7 667.1 100.3Q667.8 99.8 668.7 99.8L668.7 99.8Q669.4 99.8 669.8 100.0Q670.2 100.3 670.4 100.6Q670.6 100.8 670.7 101.0L670.7 101.0L670.8 101.0L670.8 97.5L672.0 97.5L672.0 107L670.9 107L670.9 105.9L670.7 105.9Q670.6 106.1 670.4 106.4Q670.2 106.7 669.8 106.9Q669.4 107.2 668.7 107.2ZM668.8 106.1L668.8 106.1Q669.5 106.1 669.9 105.8Q670.4 105.5 670.6 104.8Q670.8 104.2 670.8 103.5L670.8 103.5Q670.8 102.7 670.6 102.1Q670.4 101.5 669.9 101.2Q669.5 100.8 668.8 100.8L668.8 100.8Q668.2 100.8 667.7 101.2Q667.3 101.5 667.1 102.1Q666.8 102.7 666.8 103.5L666.8 103.5Q666.8 104.2 667.1 104.8Q667.3 105.4 667.7 105.8Q668.2 106.1 668.8 106.1ZM677.2 107.2L677.2 107.2Q676.2 107.2 675.5 106.7Q674.7 106.2 674.3 105.4Q673.9 104.6 673.9 103.5L673.9 103.5Q673.9 102.4 674.3 101.6Q674.7 100.7 675.5 100.3Q676.2 99.8 677.2 99.8L677.2 99.8Q678.1 99.8 678.9 100.3Q679.6 100.7 680.0 101.6Q680.4 102.4 680.4 103.5L680.4 103.5Q680.4 104.6 680.0 105.4Q679.6 106.2 678.9 106.7Q678.1 107.2 677.2 107.2ZM677.2 106.1L677.2 106.1Q677.9 106.1 678.3 105.8Q678.8 105.4 679.0 104.8Q679.3 104.2 679.3 103.5L679.3 103.5Q679.3 102.8 679.0 102.2Q678.8 101.6 678.3 101.2Q677.9 100.8 677.2 100.8L677.2 100.8Q676.5 100.8 676.0 101.2Q675.5 101.6 675.3 102.2Q675.1 102.8 675.1 103.5L675.1 103.5Q675.1 104.2 675.3 104.8Q675.5 105.4 676.0 105.8Q676.5 106.1 677.2 106.1ZM685.2 109.8L685.2 109.8Q684.5 109.8 683.9 109.6Q683.3 109.4 682.9 109.1Q682.5 108.7 682.3 108.4L682.3 108.4L683.3 107.8Q683.4 108.0 683.6 108.2Q683.9 108.5 684.2 108.6Q684.6 108.8 685.2 108.8L685.2 108.8Q686.1 108.8 686.6 108.4Q687.2 108.0 687.2 107.1L687.2 107.1L687.2 105.7L687.1 105.7Q687.0 105.9 686.7 106.2Q686.5 106.5 686.1 106.7Q685.7 106.9 685.0 106.9L685.0 106.9Q684.2 106.9 683.5 106.5Q682.8 106.1 682.4 105.3Q682.0 104.5 682.0 103.4L682.0 103.4Q682.0 102.3 682.4 101.5Q682.8 100.7 683.5 100.3Q684.2 99.8 685.0 99.8L685.0 99.8Q685.7 99.8 686.1 100.0Q686.6 100.3 686.8 100.6Q687.0 100.8 687.1 101.0L687.1 101.0L687.2 101.0L687.2 99.9L688.3 99.9L688.3 107.2Q688.3 108.1 687.9 108.7Q687.5 109.3 686.8 109.5Q686.1 109.8 685.2 109.8ZM685.2 105.9L685.2 105.9Q685.9 105.9 686.3 105.6Q686.8 105.3 687.0 104.7Q687.2 104.2 687.2 103.4L687.2 103.4Q687.2 102.6 687.0 102.1Q686.8 101.5 686.3 101.2Q685.9 100.8 685.2 100.8L685.2 100.8Q684.5 100.8 684.1 101.2Q683.6 101.5 683.4 102.1Q683.2 102.7 683.2 103.4L683.2 103.4Q683.2 104.1 683.4 104.7Q683.6 105.2 684.1 105.6Q684.5 105.9 685.2 105.9Z "/></g><defs><clipPath id="satori_bc-id-2-7" clip-path="url(#satori_cp-id)"><path x="56" y="125" width="93" height="30" d="M71,125 h63 a15,15 0 0 1 15,15 v0 a15,15 0 0 1 -15,15 h-63 a15,15 0 0 1 -15,-15 v0 a15,15 0 0 1 15,-15"/></clipPath></defs><mask id="satori_om-id-2-7"><rect x="57" y="126" width="91" height="28" fill="#fff" mask="url(#satori_om-id)"/><path width="93" height="30" fill="none" stroke="#000" stroke-width="2" d="M60.393,129.393 A15,15 0 0 1 71,125 h63 a15,15 0 0 1 15,15 v0 a15,15 0 0 1 -15,15 h-63 a15,15 0 0 1 -15,-15 v0 A15,15 0 0 1 60.393,129.393"/></mask><path x="56" y="125" width="93" height="30" fill="rgba(255,255,255,0.04)" d="M71,125 h63 a15,15 0 0 1 15,15 v0 a15,15 0 0 1 -15,15 h-63 a15,15 0 0 1 -15,-15 v0 a15,15 0 0 1 15,-15" clip-path="url(#satori_cp-id)" mask="url(#satori_om-id)"/><path width="93" height="30" clip-path="url(#satori_bc-id-2-7)" fill="none" stroke="rgba(255,255,255,0.09)" stroke-width="2" d="M60.393,129.393 A15,15 0 0 1 71,125 h63 a15,15 0 0 1 15,15 v0 a15,15 0 0 1 -15,15 h-63 a15,15 0 0 1 -15,-15 v0 A15,15 0 0 1 60.393,129.393"/><g mask="url(#satori_om-id)" clip-path="url(#satori_cp-id)"><path fill="rgba(255,255,255,0.74)" d="M76.4 145.2L76.4 145.2Q75.7 145.2 75.1 144.9Q74.5 144.7 74.2 144.3Q73.8 143.9 73.7 143.3L73.7 143.3L74.8 143.0Q74.9 143.6 75.3 143.9Q75.8 144.1 76.4 144.1L76.4 144.1Q77.1 144.1 77.6 143.8Q78.0 143.5 78.0 143.1L78.0 143.1Q78.0 142.7 77.8 142.5Q77.5 142.2 77.0 142.1L77.0 142.1L75.8 141.8Q74.8 141.6 74.4 141.1Q73.9 140.6 73.9 139.9L73.9 139.9Q73.9 139.3 74.2 138.8Q74.6 138.3 75.2 138.1Q75.8 137.8 76.5 137.8L76.5 137.8Q77.3 137.8 77.8 138.0Q78.3 138.3 78.6 138.6Q78.9 139.0 79.1 139.5L79.1 139.5L78.0 139.8Q77.9 139.4 77.6 139.1Q77.2 138.8 76.5 138.8L76.5 138.8Q75.9 138.8 75.5 139.1Q75.1 139.4 75.1 139.8L75.1 139.8Q75.1 140.2 75.3 140.4Q75.6 140.7 76.3 140.8L76.3 140.8L77.3 141.1Q78.3 141.3 78.8 141.8Q79.2 142.3 79.2 143.0L79.2 143.0Q79.2 143.6 78.9 144.1Q78.5 144.6 77.9 144.9Q77.2 145.2 76.4 145.2ZM82.3 140.7L82.3 140.7L82.3 145L81.2 145L81.2 137.9L82.3 137.9L82.3 139.2Q82.6 138.6 83.0 138.2L83.0 138.2Q83.6 137.8 84.4 137.8L84.4 137.8Q85.2 137.8 85.7 138.1Q86.2 138.4 86.5 139.0Q86.8 139.6 86.8 140.5L86.8 140.5L86.8 145L85.7 145L85.7 140.6Q85.7 139.8 85.3 139.3Q84.8 138.8 84.1 138.8L84.1 138.8Q83.6 138.8 83.2 139.1Q82.8 139.3 82.5 139.7Q82.3 140.1 82.3 140.7ZM92.1 145.2L92.1 145.2Q91.1 145.2 90.4 144.7Q89.6 144.2 89.2 143.4Q88.8 142.6 88.8 141.5Q88.8 140.4 89.2 139.6Q89.6 138.8 90.3 138.3Q91.0 137.8 92.0 137.8L92.0 137.8Q92.6 137.8 93.1 138.0Q93.7 138.2 94.1 138.6Q94.6 139.0 94.8 139.7Q95.1 140.4 95.1 141.4L95.1 141.4L95.1 141.8L90.0 141.8Q90.0 142.5 90.2 143.0L90.2 143.0Q90.5 143.6 91.0 143.9Q91.5 144.1 92.1 144.1L92.1 144.1Q92.6 144.1 92.9 144.0Q93.2 143.9 93.5 143.7Q93.7 143.4 93.9 143.0L93.9 143.0L95.0 143.3Q94.8 143.9 94.4 144.3Q94.0 144.7 93.4 144.9Q92.9 145.2 92.1 145.2ZM90.0 140.9L90.0 140.9L93.9 140.9Q93.9 140.4 93.7 140.0L93.7 140.0Q93.5 139.4 93.1 139.1Q92.6 138.8 92.0 138.8Q91.4 138.8 90.9 139.1Q90.4 139.5 90.2 140.0L90.2 140.0Q90.0 140.4 90.0 140.9ZM99.0 145.2L99.0 145.2Q98.3 145.2 97.8 144.9Q97.2 144.7 96.9 144.2Q96.6 143.7 96.6 143.0L96.6 143.0Q96.6 142.4 96.8 142.0Q97.1 141.6 97.5 141.4Q97.9 141.2 98.4 141.1Q98.9 141.0 99.4 140.9L99.4 140.9Q100.0 140.8 100.4 140.8Q100.8 140.7 101.0 140.6Q101.2 140.5 101.2 140.2L101.2 140.2L101.2 140.2Q101.2 139.8 101.0 139.5Q100.8 139.1 100.5 139.0Q100.2 138.8 99.7 138.8L99.7 138.8Q99.2 138.8 98.8 139.0Q98.5 139.1 98.2 139.4Q98.0 139.6 97.9 139.9L97.9 139.9L96.8 139.5Q97.1 138.8 97.5 138.5Q98.0 138.1 98.6 138.0Q99.1 137.8 99.7 137.8L99.7 137.8Q100.0 137.8 100.5 137.9Q100.9 138.0 101.3 138.2Q101.8 138.5 102.0 139.0Q102.3 139.5 102.3 140.3L102.3 140.3L102.3 145L101.2 145L101.2 144.0L101.1 144.0Q101.0 144.3 100.7 144.5Q100.5 144.8 100.0 145.0Q99.6 145.2 99.0 145.2ZM99.2 144.2L99.2 144.2Q99.8 144.2 100.3 143.9Q100.7 143.7 100.9 143.3Q101.2 142.9 101.2 142.4L101.2 142.4L101.2 141.5Q101.1 141.5 100.9 141.6Q100.6 141.7 100.3 141.7Q100.0 141.8 99.8 141.8Q99.5 141.8 99.3 141.9L99.3 141.9Q98.9 141.9 98.5 142.0Q98.2 142.2 98.0 142.4Q97.7 142.6 97.7 143.0L97.7 143.0Q97.7 143.4 97.9 143.7Q98.1 143.9 98.5 144.0Q98.8 144.2 99.2 144.2ZM105.8 145L104.6 145L104.6 135.5L105.8 135.5L105.8 141.0L105.9 141.0L108.9 137.9L110.4 137.9L107.4 141.0L110.6 145L109.1 145L106.5 141.7L105.8 142.4L105.8 145ZM115.0 145.2L115.0 145.2Q114.0 145.2 113.3 144.7Q112.5 144.2 112.1 143.4Q111.7 142.6 111.7 141.5Q111.7 140.4 112.1 139.6Q112.5 138.8 113.2 138.3Q113.9 137.8 114.9 137.8L114.9 137.8Q115.5 137.8 116.0 138.0Q116.6 138.2 117.0 138.6Q117.5 139.0 117.7 139.7Q118.0 140.4 118.0 141.4L118.0 141.4L118.0 141.8L112.9 141.8Q112.9 142.5 113.1 143.0L113.1 143.0Q113.4 143.6 113.9 143.9Q114.4 144.1 115.0 144.1L115.0 144.1Q115.5 144.1 115.8 144.0Q116.2 143.9 116.4 143.7Q116.6 143.4 116.8 143.0L116.8 143.0L117.9 143.3Q117.7 143.9 117.3 144.3Q116.9 144.7 116.4 144.9Q115.8 145.2 115.0 145.2ZM112.9 140.9L112.9 140.9L116.8 140.9Q116.8 140.4 116.6 140.0L116.6 140.0Q116.4 139.4 116.0 139.1Q115.6 138.8 114.9 138.8Q114.3 138.8 113.8 139.1Q113.4 139.5 113.1 140.0L113.1 140.0Q112.9 140.4 112.9 140.9ZM121.1 145L119.9 145L119.9 137.9L121.0 137.9L121.0 139.0L121.1 139.0Q121.3 138.5 121.8 138.1Q122.3 137.8 123.0 137.8L123.0 137.8Q123.1 137.8 123.3 137.8Q123.4 137.8 123.5 137.8L123.5 137.8L123.5 139.0Q123.5 139.0 123.3 138.9Q123.1 138.9 122.9 138.9L122.9 138.9Q122.3 138.9 121.9 139.1Q121.5 139.3 121.3 139.7Q121.1 140.1 121.1 140.6L121.1 140.6L121.1 145ZM127.5 145.2L127.5 145.2Q126.8 145.2 126.2 144.9Q125.7 144.7 125.3 144.3Q124.9 143.9 124.8 143.3L124.8 143.3L125.9 143.0Q126.1 143.6 126.5 143.9Q126.9 144.1 127.5 144.1L127.5 144.1Q128.3 144.1 128.7 143.8Q129.2 143.5 129.2 143.1L129.2 143.1Q129.2 142.7 128.9 142.5Q128.6 142.2 128.1 142.1L128.1 142.1L126.9 141.8Q126.0 141.6 125.5 141.1Q125.0 140.6 125.0 139.9L125.0 139.9Q125.0 139.3 125.4 138.8Q125.7 138.3 126.3 138.1Q126.9 137.8 127.7 137.8L127.7 137.8Q128.4 137.8 128.9 138.0Q129.4 138.3 129.7 138.6Q130.1 139.0 130.2 139.5L130.2 139.5L129.2 139.8Q129.0 139.4 128.7 139.1Q128.4 138.8 127.7 138.8L127.7 138.8Q127.0 138.8 126.6 139.1Q126.2 139.4 126.2 139.8L126.2 139.8Q126.2 140.2 126.5 140.4Q126.8 140.7 127.4 140.8L127.4 140.8L128.5 141.1Q129.4 141.3 129.9 141.8Q130.3 142.3 130.3 143.0L130.3 143.0Q130.3 143.6 130.0 144.1Q129.6 144.6 129.0 144.9Q128.4 145.2 127.5 145.2Z "/></g><defs><clipPath id="satori_bc-id-2-8" clip-path="url(#satori_cp-id)"><path x="157" y="125" width="92" height="30" d="M172,125 h62 a15,15 0 0 1 15,15 v0 a15,15 0 0 1 -15,15 h-62 a15,15 0 0 1 -15,-15 v0 a15,15 0 0 1 15,-15"/></clipPath></defs><mask id="satori_om-id-2-8"><rect x="158" y="126" width="90" height="28" fill="#fff" mask="url(#satori_om-id)"/><path width="92" height="30" fill="none" stroke="#000" stroke-width="2" d="M161.393,129.393 A15,15 0 0 1 172,125 h62 a15,15 0 0 1 15,15 v0 a15,15 0 0 1 -15,15 h-62 a15,15 0 0 1 -15,-15 v0 A15,15 0 0 1 161.393,129.393"/></mask><path x="157" y="125" width="92" height="30" fill="rgba(255,255,255,0.04)" d="M172,125 h62 a15,15 0 0 1 15,15 v0 a15,15 0 0 1 -15,15 h-62 a15,15 0 0 1 -15,-15 v0 a15,15 0 0 1 15,-15" clip-path="url(#satori_cp-id)" mask="url(#satori_om-id)"/><path width="92" height="30" clip-path="url(#satori_bc-id-2-8)" fill="none" stroke="rgba(255,255,255,0.09)" stroke-width="2" d="M161.393,129.393 A15,15 0 0 1 172,125 h62 a15,15 0 0 1 15,15 v0 a15,15 0 0 1 -15,15 h-62 a15,15 0 0 1 -15,-15 v0 A15,15 0 0 1 161.393,129.393"/><g mask="url(#satori_om-id)" clip-path="url(#satori_cp-id)"><path fill="rgba(255,255,255,0.74)" d="M176.1 145L175.0 145L175.0 137.9L176.1 137.9L176.1 139.0L176.2 139.0Q176.4 138.5 176.9 138.1Q177.4 137.8 178.0 137.8L178.0 137.8Q178.2 137.8 178.3 137.8Q178.5 137.8 178.6 137.8L178.6 137.8L178.6 139.0Q178.6 139.0 178.3 138.9Q178.1 138.9 177.9 138.9L177.9 138.9Q177.4 138.9 177.0 139.1Q176.6 139.3 176.4 139.7Q176.1 140.1 176.1 140.6L176.1 140.6L176.1 145ZM182.2 145.2L182.2 145.2Q181.5 145.2 181.0 144.9Q180.4 144.7 180.1 144.2Q179.8 143.7 179.8 143.0L179.8 143.0Q179.8 142.4 180.0 142.0Q180.2 141.6 180.7 141.4Q181.1 141.2 181.5 141.1Q182.0 141.0 182.5 140.9L182.5 140.9Q183.2 140.8 183.6 140.8Q184.0 140.7 184.2 140.6Q184.3 140.5 184.3 140.2L184.3 140.2L184.3 140.2Q184.3 139.8 184.2 139.5Q184.0 139.1 183.7 139.0Q183.4 138.8 182.9 138.8L182.9 138.8Q182.4 138.8 182.0 139.0Q181.6 139.1 181.4 139.4Q181.2 139.6 181.1 139.9L181.1 139.9L180.0 139.5Q180.2 138.8 180.7 138.5Q181.2 138.1 181.7 138.0Q182.3 137.8 182.8 137.8L182.8 137.8Q183.2 137.8 183.6 137.9Q184.1 138.0 184.5 138.2Q184.9 138.5 185.2 139.0Q185.5 139.5 185.5 140.3L185.5 140.3L185.5 145L184.4 145L184.4 144.0L184.3 144.0Q184.2 144.3 183.9 144.5Q183.6 144.8 183.2 145.0Q182.8 145.2 182.2 145.2ZM182.4 144.2L182.4 144.2Q183.0 144.2 183.5 143.9Q183.9 143.7 184.1 143.3Q184.3 142.9 184.3 142.4L184.3 142.4L184.3 141.5Q184.3 141.5 184.0 141.6Q183.8 141.7 183.5 141.7Q183.2 141.8 182.9 141.8Q182.6 141.8 182.5 141.9L182.5 141.9Q182.1 141.9 181.7 142.0Q181.3 142.2 181.1 142.4Q180.9 142.6 180.9 143.0L180.9 143.0Q180.9 143.4 181.1 143.7Q181.3 143.9 181.6 144.0Q182.0 144.2 182.4 144.2ZM191.1 145.2L191.1 145.2Q190.4 145.2 190.0 144.9Q189.6 144.7 189.4 144.4Q189.1 144.1 189.0 143.9L189.0 143.9L188.9 143.9L188.9 145L187.8 145L187.8 135.5L188.9 135.5L188.9 139.0L189.0 139.0Q189.1 138.8 189.4 138.6Q189.6 138.3 190.0 138.0Q190.4 137.8 191.1 137.8L191.1 137.8Q192.0 137.8 192.6 138.3Q193.3 138.7 193.7 139.5Q194.1 140.3 194.1 141.5L194.1 141.5Q194.1 142.6 193.7 143.4Q193.3 144.3 192.7 144.7Q192.0 145.2 191.1 145.2ZM190.9 144.1L190.9 144.1Q191.6 144.1 192.0 143.8Q192.5 143.4 192.7 142.8Q192.9 142.2 192.9 141.5L192.9 141.5Q192.9 140.7 192.7 140.1Q192.5 139.5 192.0 139.2Q191.6 138.8 190.9 138.8L190.9 138.8Q190.3 138.8 189.8 139.2Q189.4 139.5 189.2 140.1Q188.9 140.7 188.9 141.5L188.9 141.5Q188.9 142.2 189.2 142.8Q189.4 143.5 189.8 143.8Q190.3 144.1 190.9 144.1ZM199.4 145.2L199.4 145.2Q198.7 145.2 198.3 144.9Q197.9 144.7 197.6 144.4Q197.4 144.1 197.3 143.9L197.3 143.9L197.2 143.9L197.2 145L196.1 145L196.1 135.5L197.2 135.5L197.2 139.0L197.3 139.0Q197.4 138.8 197.6 138.6Q197.8 138.3 198.2 138.0Q198.7 137.8 199.3 137.8L199.3 137.8Q200.2 137.8 200.9 138.3Q201.6 138.7 202.0 139.5Q202.4 140.3 202.4 141.5L202.4 141.5Q202.4 142.6 202.0 143.4Q201.6 144.3 200.9 144.7Q200.2 145.2 199.4 145.2ZM199.2 144.1L199.2 144.1Q199.8 144.1 200.3 143.8Q200.7 143.4 201.0 142.8Q201.2 142.2 201.2 141.5L201.2 141.5Q201.2 140.7 201.0 140.1Q200.7 139.5 200.3 139.2Q199.9 138.8 199.2 138.8L199.2 138.8Q198.5 138.8 198.1 139.2Q197.6 139.5 197.4 140.1Q197.2 140.7 197.2 141.5L197.2 141.5Q197.2 142.2 197.4 142.8Q197.6 143.5 198.1 143.8Q198.5 144.1 199.2 144.1ZM205.5 145L204.3 145L204.3 137.9L205.5 137.9L205.5 145ZM204.9 136.7L204.9 136.7Q204.6 136.7 204.3 136.5Q204.1 136.3 204.1 136.0L204.1 136.0Q204.1 135.7 204.3 135.4Q204.6 135.2 204.9 135.2L204.9 135.2Q205.2 135.2 205.5 135.4Q205.7 135.7 205.7 136.0L205.7 136.0Q205.7 136.3 205.5 136.5Q205.2 136.7 204.9 136.7ZM209.1 137.9L210.6 137.9L210.6 138.9L209.1 138.9L209.1 143.2Q209.1 143.6 209.3 143.9Q209.5 144.1 209.9 144.1L209.9 144.1Q210.0 144.1 210.2 144.0Q210.4 144.0 210.5 144.0L210.5 144.0L210.8 145.0Q210.6 145.0 210.4 145.1Q210.1 145.1 209.9 145.1L209.9 145.1Q209.0 145.1 208.5 144.6Q208.0 144.1 208.0 143.2L208.0 143.2L208.0 138.9L206.9 138.9L206.9 137.9L208.0 137.9L208.0 136.2L209.1 136.2L209.1 137.9ZM213.5 145L212.3 145L212.3 137.9L213.4 137.9L213.4 139.2Q213.6 138.8 213.8 138.5L213.8 138.5Q214.1 138.2 214.5 138.0Q215.0 137.8 215.4 137.8L215.4 137.8Q216.2 137.8 216.7 138.3L216.7 138.3Q217.1 138.6 217.2 139.2L217.2 139.2Q217.4 138.9 217.6 138.6L217.6 138.6Q217.9 138.2 218.4 138.0Q218.9 137.8 219.5 137.8L219.5 137.8Q220.1 137.8 220.6 138.0Q221.1 138.3 221.4 138.8Q221.7 139.4 221.7 140.2L221.7 140.2L221.7 145L220.6 145L220.6 140.2Q220.6 139.5 220.1 139.1Q219.7 138.8 219.1 138.8L219.1 138.8Q218.6 138.8 218.3 139.0Q218.0 139.2 217.8 139.6Q217.6 139.9 217.6 140.4L217.6 140.4L217.6 145L216.4 145L216.4 140.1Q216.4 139.5 216.0 139.2Q215.7 138.8 215.0 138.8L215.0 138.8Q214.6 138.8 214.3 139.0Q213.9 139.2 213.7 139.6Q213.5 140.0 213.5 140.5L213.5 140.5L213.5 145ZM230.0 137.9L230.0 147.7L228.8 147.7L228.8 143.9L228.7 143.9Q228.6 144.1 228.4 144.4Q228.2 144.7 227.8 144.9Q227.3 145.2 226.7 145.2L226.7 145.2Q225.8 145.2 225.1 144.7Q224.4 144.3 224.0 143.4Q223.7 142.6 223.7 141.5L223.7 141.5Q223.7 140.3 224.0 139.5Q224.4 138.7 225.1 138.3Q225.8 137.8 226.7 137.8L226.7 137.8Q227.4 137.8 227.8 138.0Q228.2 138.3 228.4 138.6Q228.6 138.8 228.7 139.0L228.7 139.0L228.9 139.0L228.9 137.9L230.0 137.9ZM226.8 144.1L226.8 144.1Q227.5 144.1 227.9 143.8Q228.4 143.5 228.6 142.8Q228.8 142.2 228.8 141.5L228.8 141.5Q228.8 140.7 228.6 140.1Q228.4 139.5 227.9 139.2Q227.5 138.8 226.8 138.8L226.8 138.8Q226.2 138.8 225.7 139.2Q225.3 139.5 225.0 140.1Q224.8 140.7 224.8 141.5L224.8 141.5Q224.8 142.2 225.0 142.8Q225.3 143.4 225.7 143.8Q226.2 144.1 226.8 144.1Z "/></g><defs><clipPath id="satori_bc-id-2-9" clip-path="url(#satori_cp-id)"><path x="257" y="125" width="66" height="30" d="M272,125 h36 a15,15 0 0 1 15,15 v0 a15,15 0 0 1 -15,15 h-36 a15,15 0 0 1 -15,-15 v0 a15,15 0 0 1 15,-15"/></clipPath></defs><mask id="satori_om-id-2-9"><rect x="258" y="126" width="64" height="28" fill="#fff" mask="url(#satori_om-id)"/><path width="66" height="30" fill="none" stroke="#000" stroke-width="2" d="M261.39300000000003,129.393 A15,15 0 0 1 272,125 h36 a15,15 0 0 1 15,15 v0 a15,15 0 0 1 -15,15 h-36 a15,15 0 0 1 -15,-15 v0 A15,15 0 0 1 261.39300000000003,129.393"/></mask><path x="257" y="125" width="66" height="30" fill="rgba(255,255,255,0.04)" d="M272,125 h36 a15,15 0 0 1 15,15 v0 a15,15 0 0 1 -15,15 h-36 a15,15 0 0 1 -15,-15 v0 a15,15 0 0 1 15,-15" clip-path="url(#satori_cp-id)" mask="url(#satori_om-id)"/><path width="66" height="30" clip-path="url(#satori_bc-id-2-9)" fill="none" stroke="rgba(255,255,255,0.09)" stroke-width="2" d="M261.39300000000003,129.393 A15,15 0 0 1 272,125 h36 a15,15 0 0 1 15,15 v0 a15,15 0 0 1 -15,15 h-36 a15,15 0 0 1 -15,-15 v0 A15,15 0 0 1 261.39300000000003,129.393"/><g mask="url(#satori_om-id)" clip-path="url(#satori_cp-id)"><path fill="rgba(255,255,255,0.74)" d="M276.1 145L275.0 145L275.0 137.9L276.1 137.9L276.1 139.0L276.2 139.0Q276.4 138.5 276.9 138.1Q277.4 137.8 278.0 137.8L278.0 137.8Q278.2 137.8 278.3 137.8Q278.5 137.8 278.6 137.8L278.6 137.8L278.6 139.0Q278.6 139.0 278.3 138.9Q278.1 138.9 277.9 138.9L277.9 138.9Q277.4 138.9 277.0 139.1Q276.6 139.3 276.4 139.7Q276.1 140.1 276.1 140.6L276.1 140.6L276.1 145ZM283.2 145.2L283.2 145.2Q282.2 145.2 281.4 144.7Q280.7 144.2 280.3 143.4Q279.9 142.6 279.9 141.5Q279.9 140.4 280.2 139.6Q280.6 138.8 281.4 138.3Q282.1 137.8 283.0 137.8L283.0 137.8Q283.6 137.8 284.2 138.0Q284.7 138.2 285.2 138.6Q285.6 139.0 285.9 139.7Q286.1 140.4 286.1 141.4L286.1 141.4L286.1 141.8L281.0 141.8Q281.0 142.5 281.3 143.0L281.3 143.0Q281.6 143.6 282.0 143.9Q282.5 144.1 283.2 144.1L283.2 144.1Q283.6 144.1 283.9 144.0Q284.3 143.9 284.5 143.7Q284.8 143.4 284.9 143.0L284.9 143.0L286.0 143.3Q285.9 143.9 285.5 144.3Q285.1 144.7 284.5 144.9Q283.9 145.2 283.2 145.2ZM281.0 140.9L281.0 140.9L285.0 140.9Q284.9 140.4 284.8 140.0L284.8 140.0Q284.6 139.4 284.1 139.1Q283.7 138.8 283.0 138.8Q282.4 138.8 281.9 139.1Q281.5 139.5 281.3 140.0L281.3 140.0Q281.0 140.4 281.0 140.9ZM290.7 145.2L290.7 145.2Q289.9 145.2 289.2 144.7Q288.5 144.3 288.1 143.4Q287.7 142.6 287.7 141.5L287.7 141.5Q287.7 140.3 288.1 139.5Q288.5 138.7 289.2 138.3Q289.9 137.8 290.7 137.8L290.7 137.8Q291.4 137.8 291.8 138.0Q292.2 138.3 292.5 138.6Q292.7 138.8 292.8 139.0L292.8 139.0L292.9 139.0L292.9 135.5L294.0 135.5L294.0 145L292.9 145L292.9 143.9L292.8 143.9Q292.7 144.1 292.5 144.4Q292.2 144.7 291.8 144.9Q291.4 145.2 290.7 145.2ZM290.9 144.1L290.9 144.1Q291.6 144.1 292.0 143.8Q292.4 143.5 292.7 142.8Q292.9 142.2 292.9 141.5L292.9 141.5Q292.9 140.7 292.7 140.1Q292.4 139.5 292.0 139.2Q291.6 138.8 290.9 138.8L290.9 138.8Q290.2 138.8 289.8 139.2Q289.3 139.5 289.1 140.1Q288.9 140.7 288.9 141.5L288.9 141.5Q288.9 142.2 289.1 142.8Q289.3 143.4 289.8 143.8Q290.2 144.1 290.9 144.1ZM297.5 145L296.3 145L296.3 137.9L297.5 137.9L297.5 145ZM296.9 136.7L296.9 136.7Q296.6 136.7 296.4 136.5Q296.1 136.3 296.1 136.0L296.1 136.0Q296.1 135.7 296.4 135.4Q296.6 135.2 296.9 135.2L296.9 135.2Q297.2 135.2 297.5 135.4Q297.7 135.7 297.7 136.0L297.7 136.0Q297.7 136.3 297.5 136.5Q297.2 136.7 296.9 136.7ZM302.2 145.2L302.2 145.2Q301.5 145.2 300.9 144.9Q300.3 144.7 300.0 144.3Q299.6 143.9 299.5 143.3L299.5 143.3L300.6 143.0Q300.7 143.6 301.1 143.9Q301.5 144.1 302.2 144.1L302.2 144.1Q302.9 144.1 303.4 143.8Q303.8 143.5 303.8 143.1L303.8 143.1Q303.8 142.7 303.6 142.5Q303.3 142.2 302.8 142.1L302.8 142.1L301.6 141.8Q300.6 141.6 300.2 141.1Q299.7 140.6 299.7 139.9L299.7 139.9Q299.7 139.3 300.0 138.8Q300.4 138.3 301.0 138.1Q301.6 137.8 302.3 137.8L302.3 137.8Q303.0 137.8 303.6 138.0Q304.1 138.3 304.4 138.6Q304.7 139.0 304.9 139.5L304.9 139.5L303.8 139.8Q303.7 139.4 303.3 139.1Q303.0 138.8 302.3 138.8L302.3 138.8Q301.7 138.8 301.3 139.1Q300.8 139.4 300.8 139.8L300.8 139.8Q300.8 140.2 301.1 140.4Q301.4 140.7 302.0 140.8L302.0 140.8L303.1 141.1Q304.1 141.3 304.5 141.8Q305.0 142.3 305.0 143.0L305.0 143.0Q305.0 143.6 304.6 144.1Q304.3 144.6 303.7 144.9Q303.0 145.2 302.2 145.2Z "/></g><defs><clipPath id="satori_bc-id-2-10" clip-path="url(#satori_cp-id)"><path x="331" y="125" width="104" height="30" d="M346,125 h74 a15,15 0 0 1 15,15 v0 a15,15 0 0 1 -15,15 h-74 a15,15 0 0 1 -15,-15 v0 a15,15 0 0 1 15,-15"/></clipPath></defs><mask id="satori_om-id-2-10"><rect x="332" y="126" width="102" height="28" fill="#fff" mask="url(#satori_om-id)"/><path width="104" height="30" fill="none" stroke="#000" stroke-width="2" d="M335.39300000000003,129.393 A15,15 0 0 1 346,125 h74 a15,15 0 0 1 15,15 v0 a15,15 0 0 1 -15,15 h-74 a15,15 0 0 1 -15,-15 v0 A15,15 0 0 1 335.39300000000003,129.393"/></mask><path x="331" y="125" width="104" height="30" fill="rgba(255,255,255,0.04)" d="M346,125 h74 a15,15 0 0 1 15,15 v0 a15,15 0 0 1 -15,15 h-74 a15,15 0 0 1 -15,-15 v0 a15,15 0 0 1 15,-15" clip-path="url(#satori_cp-id)" mask="url(#satori_om-id)"/><path width="104" height="30" clip-path="url(#satori_bc-id-2-10)" fill="none" stroke="rgba(255,255,255,0.09)" stroke-width="2" d="M335.39300000000003,129.393 A15,15 0 0 1 346,125 h74 a15,15 0 0 1 15,15 v0 a15,15 0 0 1 -15,15 h-74 a15,15 0 0 1 -15,-15 v0 A15,15 0 0 1 335.39300000000003,129.393"/><g mask="url(#satori_om-id)" clip-path="url(#satori_cp-id)"><path fill="rgba(255,255,255,0.74)" d="M350.1 147.7L349.0 147.7L349.0 137.9L350.1 137.9L350.1 139.0L350.2 139.0Q350.4 138.8 350.6 138.6Q350.8 138.3 351.2 138.0Q351.6 137.8 352.3 137.8L352.3 137.8Q353.2 137.8 353.9 138.3Q354.5 138.7 354.9 139.5Q355.3 140.3 355.3 141.5L355.3 141.5Q355.3 142.6 354.9 143.4Q354.5 144.3 353.9 144.7Q353.2 145.2 352.3 145.2L352.3 145.2Q351.6 145.2 351.2 144.9Q350.8 144.7 350.6 144.4Q350.4 144.1 350.2 143.9L350.2 143.9L350.1 143.9L350.1 147.7ZM352.1 144.1L352.1 144.1Q352.8 144.1 353.2 143.8Q353.7 143.4 353.9 142.8Q354.1 142.2 354.1 141.5L354.1 141.5Q354.1 140.7 353.9 140.1Q353.7 139.5 353.2 139.2Q352.8 138.8 352.1 138.8L352.1 138.8Q351.5 138.8 351.0 139.2Q350.6 139.5 350.4 140.1Q350.1 140.7 350.1 141.5L350.1 141.5Q350.1 142.2 350.4 142.8Q350.6 143.5 351.0 143.8Q351.5 144.1 352.1 144.1ZM360.1 147.8L360.1 147.8Q359.4 147.8 358.8 147.6Q358.2 147.4 357.8 147.1Q357.4 146.7 357.2 146.4L357.2 146.4L358.1 145.8Q358.3 146.0 358.5 146.2Q358.7 146.5 359.1 146.6Q359.5 146.8 360.1 146.8L360.1 146.8Q361.0 146.8 361.5 146.4Q362.1 146.0 362.1 145.1L362.1 145.1L362.1 143.7L362.0 143.7Q361.9 143.9 361.6 144.2Q361.4 144.5 361.0 144.7Q360.6 144.9 359.9 144.9L359.9 144.9Q359.1 144.9 358.4 144.5Q357.7 144.1 357.3 143.3Q356.9 142.5 356.9 141.4L356.9 141.4Q356.9 140.3 357.3 139.5Q357.7 138.7 358.4 138.3Q359.1 137.8 359.9 137.8L359.9 137.8Q360.6 137.8 361.0 138.0Q361.4 138.3 361.7 138.6Q361.9 138.8 362.0 139.0L362.0 139.0L362.1 139.0L362.1 137.9L363.2 137.9L363.2 145.2Q363.2 146.1 362.8 146.7Q362.4 147.3 361.7 147.5Q361.0 147.8 360.1 147.8ZM360.1 143.9L360.1 143.9Q360.8 143.9 361.2 143.6Q361.6 143.3 361.9 142.7Q362.1 142.2 362.1 141.4L362.1 141.4Q362.1 140.6 361.9 140.1Q361.6 139.5 361.2 139.2Q360.8 138.8 360.1 138.8L360.1 138.8Q359.4 138.8 359.0 139.2Q358.5 139.5 358.3 140.1Q358.1 140.7 358.1 141.4L358.1 141.4Q358.1 142.1 358.3 142.7Q358.5 143.2 359.0 143.6Q359.4 143.9 360.1 143.9ZM368.8 145.2L368.8 145.2Q368.2 145.2 367.7 144.9Q367.3 144.7 367.1 144.4Q366.9 144.1 366.8 143.9L366.8 143.9L366.6 143.9L366.6 145L365.5 145L365.5 135.5L366.7 135.5L366.7 139.0L366.8 139.0Q366.9 138.8 367.1 138.6Q367.3 138.3 367.7 138.0Q368.1 137.8 368.8 137.8L368.8 137.8Q369.7 137.8 370.4 138.3Q371.1 138.7 371.4 139.5Q371.8 140.3 371.8 141.5L371.8 141.5Q371.8 142.6 371.5 143.4Q371.1 144.3 370.4 144.7Q369.7 145.2 368.8 145.2ZM368.7 144.1L368.7 144.1Q369.3 144.1 369.8 143.8Q370.2 143.4 370.4 142.8Q370.7 142.2 370.7 141.5L370.7 141.5Q370.7 140.7 370.4 140.1Q370.2 139.5 369.8 139.2Q369.3 138.8 368.7 138.8L368.7 138.8Q368.0 138.8 367.6 139.2Q367.1 139.5 366.9 140.1Q366.7 140.7 366.7 141.5L366.7 141.5Q366.7 142.2 366.9 142.8Q367.1 143.5 367.6 143.8Q368.0 144.1 368.7 144.1ZM376.7 145.2L376.7 145.2Q375.7 145.2 375.0 144.7Q374.3 144.2 373.9 143.4Q373.5 142.6 373.5 141.5L373.5 141.5Q373.5 140.4 373.9 139.6Q374.3 138.7 375.0 138.3Q375.7 137.8 376.7 137.8L376.7 137.8Q377.7 137.8 378.4 138.3Q379.1 138.7 379.5 139.6Q379.9 140.4 379.9 141.5L379.9 141.5Q379.9 142.6 379.5 143.4Q379.1 144.2 378.4 144.7Q377.7 145.2 376.7 145.2ZM376.7 144.1L376.7 144.1Q377.4 144.1 377.9 143.8Q378.3 143.4 378.5 142.8Q378.8 142.2 378.8 141.5L378.8 141.5Q378.8 140.8 378.5 140.2Q378.3 139.6 377.9 139.2Q377.4 138.8 376.7 138.8L376.7 138.8Q376.0 138.8 375.5 139.2Q375.1 139.6 374.8 140.2Q374.6 140.8 374.6 141.5L374.6 141.5Q374.6 142.2 374.8 142.8Q375.1 143.4 375.5 143.8Q376.0 144.1 376.7 144.1ZM384.3 145.1L384.3 145.1Q383.6 145.1 383.0 144.8Q382.5 144.5 382.2 143.9Q381.9 143.3 381.9 142.4L381.9 142.4L381.9 137.9L383.0 137.9L383.0 142.3Q383.0 143.1 383.5 143.6Q383.9 144.1 384.6 144.1L384.6 144.1Q385.1 144.1 385.5 143.8Q386.0 143.6 386.2 143.2Q386.4 142.8 386.4 142.2L386.4 142.2L386.4 137.9L387.6 137.9L387.6 145L386.5 145L386.5 143.7Q386.2 144.4 385.7 144.7L385.7 144.7Q385.1 145.1 384.3 145.1ZM391.0 140.7L391.0 140.7L391.0 145L389.9 145L389.9 137.9L391.0 137.9L391.0 139.2Q391.3 138.6 391.8 138.2L391.8 138.2Q392.3 137.8 393.2 137.8L393.2 137.8Q393.9 137.8 394.4 138.1Q394.9 138.4 395.3 139.0Q395.6 139.6 395.6 140.5L395.6 140.5L395.6 145L394.4 145L394.4 140.6Q394.4 139.8 394.0 139.3Q393.6 138.8 392.8 138.8L392.8 138.8Q392.3 138.8 391.9 139.1Q391.5 139.3 391.3 139.7Q391.0 140.1 391.0 140.7ZM400.7 145.2L400.7 145.2Q399.8 145.2 399.1 144.7Q398.3 144.2 397.9 143.4Q397.5 142.6 397.5 141.5L397.5 141.5Q397.5 140.4 397.9 139.6Q398.3 138.7 399.1 138.3Q399.8 137.8 400.7 137.8L400.7 137.8Q401.3 137.8 401.7 137.9Q402.2 138.1 402.6 138.3Q402.9 138.6 403.2 138.9Q403.5 139.3 403.6 139.8L403.6 139.8L402.5 140.1Q402.4 139.8 402.3 139.6Q402.1 139.4 401.9 139.2Q401.7 139.0 401.4 138.9Q401.1 138.8 400.7 138.8L400.7 138.8Q400.0 138.8 399.6 139.2Q399.1 139.6 398.9 140.2Q398.7 140.8 398.7 141.5L398.7 141.5Q398.7 142.2 398.9 142.8Q399.1 143.4 399.6 143.8Q400.0 144.1 400.7 144.1L400.7 144.1Q401.1 144.1 401.4 144.0Q401.7 143.9 401.9 143.8Q402.2 143.6 402.3 143.3Q402.5 143.1 402.6 142.8L402.6 142.8L403.6 143.1Q403.5 143.6 403.2 144.0Q403.0 144.4 402.6 144.6Q402.2 144.9 401.7 145.0Q401.3 145.2 400.7 145.2ZM408.6 145.2L408.6 145.2Q407.5 145.2 406.8 144.7Q406.0 144.2 405.6 143.4Q405.2 142.6 405.2 141.5Q405.2 140.4 405.6 139.6Q406.0 138.8 406.7 138.3Q407.5 137.8 408.4 137.8L408.4 137.8Q409.0 137.8 409.5 138.0Q410.1 138.2 410.5 138.6Q411.0 139.0 411.3 139.7Q411.5 140.4 411.5 141.4L411.5 141.4L411.5 141.8L406.4 141.8Q406.4 142.5 406.7 143.0L406.7 143.0Q406.9 143.6 407.4 143.9Q407.9 144.1 408.6 144.1L408.6 144.1Q409.0 144.1 409.3 144.0Q409.7 143.9 409.9 143.7Q410.2 143.4 410.3 143.0L410.3 143.0L411.4 143.3Q411.2 143.9 410.9 144.3Q410.5 144.7 409.9 144.9Q409.3 145.2 408.6 145.2ZM406.4 140.9L406.4 140.9L410.4 140.9Q410.3 140.4 410.2 140.0L410.2 140.0Q409.9 139.4 409.5 139.1Q409.1 138.8 408.4 138.8Q407.8 138.8 407.3 139.1Q406.9 139.5 406.6 140.0L406.6 140.0Q406.4 140.4 406.4 140.9ZM414.6 145L413.5 145L413.5 137.9L414.6 137.9L414.6 139.0L414.6 139.0Q414.8 138.5 415.3 138.1Q415.9 137.8 416.5 137.8L416.5 137.8Q416.6 137.8 416.8 137.8Q417.0 137.8 417.1 137.8L417.1 137.8L417.1 139.0Q417.0 139.0 416.8 138.9Q416.6 138.9 416.4 138.9L416.4 138.9Q415.9 138.9 415.5 139.1Q415.1 139.3 414.8 139.7Q414.6 140.1 414.6 140.6L414.6 140.6L414.6 145Z "/></g><defs><clipPath id="satori_bc-id-2-11" clip-path="url(#satori_cp-id)"><path x="443" y="125" width="99" height="30" d="M458,125 h69 a15,15 0 0 1 15,15 v0 a15,15 0 0 1 -15,15 h-69 a15,15 0 0 1 -15,-15 v0 a15,15 0 0 1 15,-15"/></clipPath></defs><mask id="satori_om-id-2-11"><rect x="444" y="126" width="97" height="28" fill="#fff" mask="url(#satori_om-id)"/><path width="99" height="30" fill="none" stroke="#000" stroke-width="2" d="M447.39300000000003,129.393 A15,15 0 0 1 458,125 h69 a15,15 0 0 1 15,15 v0 a15,15 0 0 1 -15,15 h-69 a15,15 0 0 1 -15,-15 v0 A15,15 0 0 1 447.39300000000003,129.393"/></mask><path x="443" y="125" width="99" height="30" fill="rgba(255,255,255,0.04)" d="M458,125 h69 a15,15 0 0 1 15,15 v0 a15,15 0 0 1 -15,15 h-69 a15,15 0 0 1 -15,-15 v0 a15,15 0 0 1 15,-15" clip-path="url(#satori_cp-id)" mask="url(#satori_om-id)"/><path width="99" height="30" clip-path="url(#satori_bc-id-2-11)" fill="none" stroke="rgba(255,255,255,0.09)" stroke-width="2" d="M447.39300000000003,129.393 A15,15 0 0 1 458,125 h69 a15,15 0 0 1 15,15 v0 a15,15 0 0 1 -15,15 h-69 a15,15 0 0 1 -15,-15 v0 A15,15 0 0 1 447.39300000000003,129.393"/><g mask="url(#satori_om-id)" clip-path="url(#satori_cp-id)"><path fill="rgba(255,255,255,0.74)" d="M463.9 145.2L463.9 145.2Q462.9 145.2 462.2 144.7Q461.5 144.2 461.1 143.4Q460.7 142.6 460.7 141.5L460.7 141.5Q460.7 140.4 461.1 139.6Q461.5 138.7 462.2 138.3Q462.9 137.8 463.9 137.8L463.9 137.8Q464.4 137.8 464.9 137.9Q465.3 138.1 465.7 138.3Q466.1 138.6 466.3 138.9Q466.6 139.3 466.8 139.8L466.8 139.8L465.7 140.1Q465.6 139.8 465.4 139.6Q465.3 139.4 465.0 139.2Q464.8 139.0 464.5 138.9Q464.2 138.8 463.9 138.8L463.9 138.8Q463.2 138.8 462.7 139.2Q462.3 139.6 462.0 140.2Q461.8 140.8 461.8 141.5L461.8 141.5Q461.8 142.2 462.0 142.8Q462.3 143.4 462.7 143.8Q463.2 144.1 463.9 144.1L463.9 144.1Q464.2 144.1 464.5 144.0Q464.8 143.9 465.1 143.8Q465.3 143.6 465.5 143.3Q465.6 143.1 465.7 142.8L465.7 142.8L466.8 143.1Q466.7 143.6 466.4 144.0Q466.1 144.4 465.7 144.6Q465.3 144.9 464.9 145.0Q464.4 145.2 463.9 145.2ZM468.7 135.5L469.9 135.5L469.9 145L468.7 145L468.7 135.5ZM475.1 145.2L475.1 145.2Q474.1 145.2 473.4 144.7Q472.6 144.2 472.2 143.4Q471.8 142.6 471.8 141.5L471.8 141.5Q471.8 140.4 472.2 139.6Q472.6 138.7 473.4 138.3Q474.1 137.8 475.1 137.8L475.1 137.8Q476.0 137.8 476.8 138.3Q477.5 138.7 477.9 139.6Q478.3 140.4 478.3 141.5L478.3 141.5Q478.3 142.6 477.9 143.4Q477.5 144.2 476.8 144.7Q476.0 145.2 475.1 145.2ZM475.1 144.1L475.1 144.1Q475.8 144.1 476.2 143.8Q476.7 143.4 476.9 142.8Q477.2 142.2 477.2 141.5L477.2 141.5Q477.2 140.8 476.9 140.2Q476.7 139.6 476.2 139.2Q475.8 138.8 475.1 138.8L475.1 138.8Q474.4 138.8 473.9 139.2Q473.4 139.6 473.2 140.2Q473.0 140.8 473.0 141.5L473.0 141.5Q473.0 142.2 473.2 142.8Q473.4 143.4 473.9 143.8Q474.4 144.1 475.1 144.1ZM482.7 145.1L482.7 145.1Q482.0 145.1 481.4 144.8Q480.9 144.5 480.6 143.9Q480.3 143.3 480.3 142.4L480.3 142.4L480.3 137.9L481.4 137.9L481.4 142.3Q481.4 143.1 481.8 143.6Q482.3 144.1 483.0 144.1L483.0 144.1Q483.5 144.1 483.9 143.8Q484.3 143.6 484.6 143.2Q484.8 142.8 484.8 142.2L484.8 142.2L484.8 137.9L486.0 137.9L486.0 145L484.8 145L484.8 143.7Q484.5 144.4 484.1 144.7L484.1 144.7Q483.5 145.1 482.7 145.1ZM490.9 145.2L490.9 145.2Q490.0 145.2 489.4 144.7Q488.7 144.3 488.3 143.4Q487.9 142.6 487.9 141.5L487.9 141.5Q487.9 140.3 488.3 139.5Q488.7 138.7 489.4 138.3Q490.0 137.8 490.9 137.8L490.9 137.8Q491.6 137.8 492.0 138.0Q492.4 138.3 492.6 138.6Q492.9 138.8 493.0 139.0L493.0 139.0L493.1 139.0L493.1 135.5L494.2 135.5L494.2 145L493.1 145L493.1 143.9L493.0 143.9Q492.9 144.1 492.6 144.4Q492.4 144.7 492.0 144.9Q491.6 145.2 490.9 145.2ZM491.1 144.1L491.1 144.1Q491.7 144.1 492.2 143.8Q492.6 143.5 492.9 142.8Q493.1 142.2 493.1 141.5L493.1 141.5Q493.1 140.7 492.9 140.1Q492.6 139.5 492.2 139.2Q491.7 138.8 491.1 138.8L491.1 138.8Q490.4 138.8 490.0 139.2Q489.5 139.5 489.3 140.1Q489.1 140.7 489.1 141.5L489.1 141.5Q489.1 142.2 489.3 142.8Q489.5 143.4 490.0 143.8Q490.4 144.1 491.1 144.1ZM498.2 137.9L499.8 137.9L499.8 138.9L498.2 138.9L498.2 145L497.0 145L497.0 138.9L495.6 138.9L495.6 137.9L497.0 137.9L497.0 137.0Q497.0 136.3 497.3 135.9Q497.6 135.5 498.1 135.3Q498.5 135.1 499.1 135.1L499.1 135.1Q499.5 135.1 499.7 135.2Q500.0 135.2 500.1 135.3L500.1 135.3L499.8 136.3Q499.7 136.2 499.6 136.2Q499.4 136.2 499.2 136.2L499.2 136.2Q498.7 136.2 498.4 136.4Q498.2 136.7 498.2 137.2L498.2 137.2L498.2 137.9ZM501.6 135.5L502.8 135.5L502.8 145L501.6 145L501.6 135.5ZM507.1 145.2L507.1 145.2Q506.4 145.2 505.8 144.9Q505.3 144.7 505.0 144.2Q504.6 143.7 504.6 143.0L504.6 143.0Q504.6 142.4 504.9 142.0Q505.1 141.6 505.5 141.4Q505.9 141.2 506.4 141.1Q506.9 141.0 507.4 140.9L507.4 140.9Q508.0 140.8 508.4 140.8Q508.8 140.7 509.0 140.6Q509.2 140.5 509.2 140.2L509.2 140.2L509.2 140.2Q509.2 139.8 509.1 139.5Q508.9 139.1 508.6 139.0Q508.2 138.8 507.7 138.8L507.7 138.8Q507.2 138.8 506.9 139.0Q506.5 139.1 506.3 139.4Q506.1 139.6 505.9 139.9L505.9 139.9L504.9 139.5Q505.1 138.8 505.6 138.5Q506.1 138.1 506.6 138.0Q507.2 137.8 507.7 137.8L507.7 137.8Q508.1 137.8 508.5 137.9Q509.0 138.0 509.4 138.2Q509.8 138.5 510.1 139.0Q510.4 139.5 510.4 140.3L510.4 140.3L510.4 145L509.3 145L509.3 144.0L509.2 144.0Q509.1 144.3 508.8 144.5Q508.5 144.8 508.1 145.0Q507.7 145.2 507.1 145.2ZM507.3 144.2L507.3 144.2Q507.9 144.2 508.3 143.9Q508.8 143.7 509.0 143.3Q509.2 142.9 509.2 142.4L509.2 142.4L509.2 141.5Q509.2 141.5 508.9 141.6Q508.7 141.7 508.4 141.7Q508.1 141.8 507.8 141.8Q507.5 141.8 507.4 141.9L507.4 141.9Q506.9 141.9 506.6 142.0Q506.2 142.2 506.0 142.4Q505.8 142.6 505.8 143.0L505.8 143.0Q505.8 143.4 506.0 143.7Q506.2 143.9 506.5 144.0Q506.8 144.2 507.3 144.2ZM513.8 145L512.7 145L512.7 137.9L513.8 137.9L513.8 139.0L513.9 139.0Q514.1 138.5 514.6 138.1Q515.1 137.8 515.7 137.8L515.7 137.8Q515.8 137.8 516.0 137.8Q516.2 137.8 516.3 137.8L516.3 137.8L516.3 139.0Q516.2 139.0 516.0 138.9Q515.8 138.9 515.6 138.9L515.6 138.9Q515.1 138.9 514.7 139.1Q514.3 139.3 514.1 139.7Q513.8 140.1 513.8 140.6L513.8 140.6L513.8 145ZM520.9 145.2L520.9 145.2Q519.8 145.2 519.1 144.7Q518.3 144.2 517.9 143.4Q517.5 142.6 517.5 141.5Q517.5 140.4 517.9 139.6Q518.3 138.8 519.0 138.3Q519.8 137.8 520.7 137.8L520.7 137.8Q521.3 137.8 521.8 138.0Q522.4 138.2 522.8 138.6Q523.3 139.0 523.5 139.7Q523.8 140.4 523.8 141.4L523.8 141.4L523.8 141.8L518.7 141.8Q518.7 142.5 519.0 143.0L519.0 143.0Q519.2 143.6 519.7 143.9Q520.2 144.1 520.9 144.1L520.9 144.1Q521.3 144.1 521.6 144.0Q522.0 143.9 522.2 143.7Q522.5 143.4 522.6 143.0L522.6 143.0L523.7 143.3Q523.5 143.9 523.1 144.3Q522.7 144.7 522.2 144.9Q521.6 145.2 520.9 145.2ZM518.7 140.9L518.7 140.9L522.7 140.9Q522.6 140.4 522.5 140.0L522.5 140.0Q522.2 139.4 521.8 139.1Q521.4 138.8 520.7 138.8Q520.1 138.8 519.6 139.1Q519.2 139.5 518.9 140.0L518.9 140.0Q518.7 140.4 518.7 140.9Z "/></g></svg>