<!-- Generated by readme-aura https://github.com/collectioneur/readme-aura -->
<svg width="800" height="160" viewBox="0 0 800 160" xmlns="http://www.w3.org/2000/svg"><clipPath id="satori_cp-id"><path x="0" y="0" width="800" height="160" d="M16,0 h768 a16,16 0 0 1 16,16 v128 a16,16 0 0 1 -16,16 h-768 a16,16 0 0 1 -16,-16 v-128 a16,16 0 0 1 16,-16"/></clipPath><mask id="satori_om-id"><rect x="0" y="0" width="800" height="160" fill="#fff"/></mask><path x="0" y="0" width="800" height="160" fill="#0e0e10" d="M16,0 h768 a16,16 0 0 1 16,16 v128 a16,16 0 0 1 -16,16 h-768 a16,16 0 0 1 -16,-16 v-128 a16,16 0 0 1 16,-16"/><mask id="satori_om-id-0"><rect x="56" y="44" width="688" height="13" fill="#fff" mask="url(#satori_om-id)"/></mask><g mask="url(#satori_om-id)" clip-path="url(#satori_cp-id)"><path fill="rgba(255,255,255,0.35)" d="M60.2 55.1L60.2 55.1Q59.2 55.1 58.4 54.6Q57.6 54.1 57.1 53.2Q56.7 52.3 56.7 51.0L56.7 51.0Q56.7 49.7 57.1 48.8Q57.6 47.9 58.4 47.4Q59.2 46.9 60.2 46.9L60.2 46.9Q60.8 46.9 61.4 47.1Q61.9 47.2 62.3 47.6Q62.8 47.9 63.0 48.4Q63.3 48.9 63.4 49.5L63.4 49.5L62.4 49.5Q62.3 49.1 62.1 48.8Q61.9 48.5 61.6 48.3Q61.3 48.0 61.0 47.9Q60.6 47.8 60.2 47.8L60.2 47.8Q59.5 47.8 58.9 48.2Q58.3 48.6 58.0 49.3Q57.6 50.0 57.6 51.0L57.6 51.0Q57.6 52.0 58.0 52.7Q58.3 53.4 58.9 53.8Q59.5 54.2 60.2 54.2L60.2 54.2Q60.6 54.2 61.0 54.1Q61.3 53.9 61.6 53.7Q61.9 53.5 62.1 53.2Q62.3 52.9 62.4 52.5L62.4 52.5L63.4 52.5Q63.3 53.1 63.0 53.6Q62.8 54.1 62.3 54.4Q61.9 54.7 61.4 54.9Q60.8 55.1 60.2 55.1ZM72.1 55.1L72.1 55.1Q71.2 55.1 70.5 54.8Q69.8 54.4 69.4 53.7Q69.0 53.1 69.0 52.3L69.0 52.3L69.0 47.0L70.0 47.0L70.0 52.2Q70.0 52.8 70.3 53.2Q70.5 53.7 71.0 53.9Q71.5 54.2 72.1 54.2L72.1 54.2Q72.8 54.2 73.3 53.9Q73.7 53.7 74.0 53.2Q74.2 52.8 74.2 52.2L74.2 52.2L74.2 47.0L75.3 47.0L75.3 52.3Q75.3 53.1 74.9 53.7Q74.5 54.4 73.8 54.8Q73.1 55.1 72.1 55.1ZM82.2 55L81.2 55L81.2 47.0L83.9 47.0Q84.9 47.0 85.5 47.3Q86.1 47.6 86.4 48.2Q86.7 48.8 86.7 49.5Q86.7 50.2 86.4 50.7Q86.1 51.3 85.5 51.6L85.5 51.6Q85.3 51.7 85.2 51.7L85.2 51.7L87.0 55L85.8 55L84.1 51.9Q84.0 51.9 83.9 51.9L83.9 51.9L82.2 51.9L82.2 55ZM82.2 47.9L82.2 51.0L83.9 51.0Q84.5 51.0 84.9 50.8Q85.3 50.6 85.5 50.3Q85.6 49.9 85.6 49.5L85.6 49.5Q85.6 49.0 85.5 48.6Q85.3 48.3 84.9 48.1Q84.5 47.9 83.9 47.9L83.9 47.9L82.2 47.9ZM93.3 55L92.3 55L92.3 47.0L95.0 47.0Q95.9 47.0 96.5 47.3Q97.1 47.6 97.4 48.2Q97.7 48.8 97.7 49.5Q97.7 50.2 97.4 50.7Q97.1 51.3 96.5 51.6L96.5 51.6Q96.4 51.7 96.3 51.7L96.3 51.7L98.0 55L96.9 55L95.2 51.9Q95.1 51.9 95.0 51.9L95.0 51.9L93.3 51.9L93.3 55ZM93.3 47.9L93.3 51.0L95.0 51.0Q95.6 51.0 96.0 50.8Q96.4 50.6 96.5 50.3Q96.7 49.9 96.7 49.5L96.7 49.5Q96.7 49.0 96.5 48.6Q96.4 48.3 96.0 48.1Q95.6 47.9 95.0 47.9L95.0 47.9L93.3 47.9ZM108.3 55L103.3 55L103.3 47.0L108.2 47.0L108.2 47.9L104.4 47.9L104.4 50.5L108.0 50.5L108.0 51.4L104.4 51.4L104.4 54.1L108.3 54.1L108.3 55ZM115.0 55L114.0 55L114.0 47.0L115.2 47.0L118.4 52.1Q118.5 52.3 118.7 52.6Q118.9 52.9 119.1 53.3L119.1 53.3Q119.2 53.5 119.4 53.8L119.4 53.8Q119.3 53.5 119.3 53.3L119.3 53.3Q119.3 52.9 119.3 52.5Q119.3 52.2 119.3 51.9L119.3 51.9L119.3 47.0L120.3 47.0L120.3 55L119.1 55L116.2 50.4Q116.0 50.1 115.8 49.8Q115.6 49.5 115.3 49.0L115.3 49.0Q115.1 48.7 114.9 48.2L114.9 48.2Q114.9 48.6 114.9 49.0L114.9 49.0Q115.0 49.5 115.0 49.8Q115.0 50.2 115.0 50.4L115.0 50.4L115.0 55ZM128.3 47.9L125.8 47.9L125.8 47.0L131.9 47.0L131.9 47.9L129.3 47.9L129.3 55L128.3 55L128.3 47.9ZM142.1 55L137.3 55L137.3 47.0L138.4 47.0L138.4 54.1L142.1 54.1L142.1 55ZM150.8 55L149.8 55L149.8 51.7L146.9 47.0L148.1 47.0L149.6 49.6Q149.9 50.0 150.1 50.4L150.1 50.4Q150.2 50.6 150.3 50.9L150.3 50.9Q150.5 50.6 150.6 50.4L150.6 50.4Q150.8 50.0 151.0 49.6L151.0 49.6L152.6 47.0L153.8 47.0L150.8 51.7L150.8 55Z "/></g><mask id="satori_om-id-1"><rect x="56" y="71" width="688" height="23" fill="#fff" mask="url(#satori_om-id)"/></mask><g mask="url(#satori_om-id)" clip-path="url(#satori_cp-id)"><path fill="rgba(255,255,255,0.82)" d="M57.2 77.1L58.5 77.1L58.5 88L57.2 88L57.2 77.1ZM64.1 88.2L64.1 88.2Q63.0 88.2 62.2 87.6Q61.3 87.1 60.9 86.2Q60.4 85.2 60.4 84.0L60.4 84.0Q60.4 82.7 60.9 81.7Q61.3 80.8 62.2 80.2Q63.0 79.7 64.1 79.7L64.1 79.7Q65.2 79.7 66.1 80.2Q66.9 80.8 67.4 81.7Q67.9 82.7 67.9 84.0L67.9 84.0Q67.9 85.2 67.4 86.2Q66.9 87.1 66.1 87.6Q65.2 88.2 64.1 88.2ZM64.1 87.0L64.1 87.0Q65.0 87.0 65.5 86.6Q66.0 86.1 66.3 85.5Q66.5 84.8 66.5 84.0L66.5 84.0Q66.5 83.1 66.3 82.4Q66.0 81.7 65.5 81.3Q65.0 80.9 64.1 80.9L64.1 80.9Q63.3 80.9 62.8 81.3Q62.2 81.7 62.0 82.4Q61.7 83.1 61.7 84.0L61.7 84.0Q61.7 84.8 62.0 85.5Q62.2 86.1 62.8 86.6Q63.3 87.0 64.1 87.0ZM73.1 88.2L73.1 88.2Q72.0 88.2 71.2 87.6Q70.3 87.1 69.9 86.2Q69.4 85.2 69.4 84.0L69.4 84.0Q69.4 82.7 69.9 81.7Q70.3 80.8 71.2 80.2Q72.0 79.7 73.1 79.7L73.1 79.7Q73.7 79.7 74.2 79.9Q74.8 80.0 75.2 80.3Q75.6 80.6 76.0 81.0Q76.3 81.4 76.4 82.0L76.4 82.0L75.2 82.3Q75.1 82.0 74.9 81.8Q74.7 81.5 74.5 81.3Q74.2 81.1 73.9 81.0Q73.5 80.9 73.1 80.9L73.1 80.9Q72.3 80.9 71.8 81.3Q71.2 81.7 71.0 82.4Q70.7 83.1 70.7 84.0L70.7 84.0Q70.7 84.8 71.0 85.5Q71.2 86.1 71.8 86.6Q72.3 87.0 73.1 87.0L73.1 87.0Q73.5 87.0 73.9 86.9Q74.2 86.8 74.5 86.6Q74.8 86.4 74.9 86.1Q75.1 85.8 75.2 85.5L75.2 85.5L76.5 85.8Q76.3 86.4 76.0 86.8Q75.7 87.3 75.2 87.6Q74.8 87.9 74.3 88.0Q73.7 88.2 73.1 88.2ZM79.7 88L78.4 88L78.4 77.1L79.7 77.1L79.7 83.4L79.8 83.4L83.3 79.8L85.0 79.8L81.5 83.3L85.2 88L83.5 88L80.5 84.2L79.7 85.0L79.7 88ZM86.5 82.7L91.3 82.7L91.3 83.9L86.5 83.9L86.5 82.7ZM95.4 79.8L97.3 79.8L97.3 80.9L95.4 80.9L95.4 88L94.1 88L94.1 80.9L92.5 80.9L92.5 79.8L94.1 79.8L94.1 78.7Q94.1 78.0 94.4 77.5Q94.8 77.1 95.3 76.8Q95.8 76.6 96.4 76.6L96.4 76.6Q96.9 76.6 97.2 76.7Q97.5 76.7 97.6 76.8L97.6 76.8L97.3 77.9Q97.2 77.9 97.0 77.8Q96.8 77.8 96.6 77.8L96.6 77.8Q96.0 77.8 95.7 78.1Q95.4 78.4 95.4 79.0L95.4 79.0L95.4 79.8ZM100.4 88L99.0 88L99.0 79.8L100.3 79.8L100.3 81.1L100.4 81.1Q100.6 80.4 101.2 80.1Q101.8 79.7 102.5 79.7L102.5 79.7Q102.7 79.7 102.9 79.7Q103.1 79.7 103.2 79.7L103.2 79.7L103.2 81.0Q103.1 81.0 102.9 81.0Q102.7 81.0 102.4 81.0L102.4 81.0Q101.8 81.0 101.3 81.2Q100.9 81.5 100.6 81.9Q100.4 82.3 100.4 82.9L100.4 82.9L100.4 88ZM108.1 88.2L108.1 88.2Q106.9 88.2 106.1 87.6Q105.2 87.1 104.8 86.2Q104.3 85.2 104.3 84.0Q104.3 82.7 104.7 81.8Q105.2 80.8 106.0 80.3Q106.9 79.7 108.0 79.7L108.0 79.7Q108.6 79.7 109.3 79.9Q109.9 80.1 110.4 80.6Q110.9 81.1 111.2 81.9Q111.5 82.7 111.5 83.8L111.5 83.8L111.5 84.4L105.6 84.4Q105.7 85.1 105.9 85.7L105.9 85.7Q106.3 86.4 106.8 86.7Q107.4 87.0 108.1 87.0L108.1 87.0Q108.6 87.0 109.0 86.9Q109.4 86.7 109.7 86.4Q110.0 86.2 110.1 85.7L110.1 85.7L111.4 86.1Q111.2 86.7 110.8 87.2Q110.3 87.6 109.6 87.9Q109.0 88.2 108.1 88.2ZM105.6 83.2L105.6 83.2L110.2 83.2Q110.1 82.7 110.0 82.2L110.0 82.2Q109.7 81.6 109.2 81.2Q108.7 80.9 108.0 80.9Q107.2 80.9 106.7 81.2Q106.2 81.6 105.9 82.2L105.9 82.2Q105.7 82.7 105.6 83.2ZM116.9 88.2L116.9 88.2Q115.7 88.2 114.8 87.6Q114.0 87.1 113.5 86.2Q113.0 85.2 113.0 84.0Q113.0 82.7 113.5 81.8Q113.9 80.8 114.8 80.3Q115.6 79.7 116.7 79.7L116.7 79.7Q117.4 79.7 118.0 79.9Q118.6 80.1 119.2 80.6Q119.7 81.1 120.0 81.9Q120.3 82.7 120.3 83.8L120.3 83.8L120.3 84.4L114.4 84.4Q114.4 85.1 114.7 85.7L114.7 85.7Q115.0 86.4 115.6 86.7Q116.1 87.0 116.9 87.0L116.9 87.0Q117.4 87.0 117.8 86.9Q118.2 86.7 118.4 86.4Q118.7 86.2 118.9 85.7L118.9 85.7L120.2 86.1Q120.0 86.7 119.5 87.2Q119.1 87.6 118.4 87.9Q117.7 88.2 116.9 88.2ZM114.4 83.2L114.4 83.2L118.9 83.2Q118.9 82.7 118.7 82.2L118.7 82.2Q118.5 81.6 118.0 81.2Q117.5 80.9 116.7 80.9Q116.0 80.9 115.5 81.2Q114.9 81.6 114.6 82.2L114.6 82.2Q114.4 82.7 114.4 83.2Z M128.7 88.2L128.7 88.2Q127.9 88.2 127.3 87.9Q126.6 87.6 126.3 87.0Q125.9 86.5 125.9 85.7L125.9 85.7Q125.9 85.0 126.2 84.5Q126.5 84.1 126.9 83.8Q127.4 83.6 127.9 83.5Q128.5 83.3 129.1 83.3L129.1 83.3Q129.8 83.2 130.3 83.1Q130.7 83.1 131.0 82.9Q131.2 82.8 131.2 82.5L131.2 82.5L131.2 82.5Q131.2 82.0 131.0 81.6Q130.8 81.2 130.4 81.1Q130.0 80.9 129.5 80.9L129.5 80.9Q128.9 80.9 128.5 81.0Q128.0 81.2 127.8 81.5Q127.5 81.8 127.4 82.1L127.4 82.1L126.1 81.6Q126.4 80.9 127.0 80.5Q127.5 80.1 128.2 79.9Q128.8 79.7 129.4 79.7L129.4 79.7Q129.8 79.7 130.4 79.8Q130.9 79.9 131.4 80.2Q131.9 80.5 132.2 81.1Q132.5 81.6 132.5 82.6L132.5 82.6L132.5 88L131.2 88L131.2 86.9L131.1 86.9Q131.0 87.2 130.7 87.5Q130.4 87.8 129.9 88.0Q129.4 88.2 128.7 88.2ZM128.9 87.0L128.9 87.0Q129.6 87.0 130.2 86.7Q130.7 86.5 130.9 86.0Q131.2 85.5 131.2 85.0L131.2 85.0L131.2 83.9Q131.1 84.0 130.8 84.1Q130.6 84.2 130.2 84.2Q129.9 84.3 129.5 84.3Q129.2 84.4 129.0 84.4L129.0 84.4Q128.5 84.4 128.1 84.6Q127.7 84.7 127.5 85.0Q127.2 85.3 127.2 85.7L127.2 85.7Q127.2 86.2 127.4 86.4Q127.7 86.7 128.0 86.9Q128.4 87.0 128.9 87.0ZM136.4 79.8L138.0 79.8L138.0 80.9L136.4 80.9L136.4 85.9Q136.4 86.4 136.6 86.7Q136.8 86.9 137.3 86.9L137.3 86.9Q137.4 86.9 137.6 86.9Q137.8 86.9 138.0 86.8L138.0 86.8L138.3 88.0Q138.1 88.0 137.8 88.1Q137.5 88.1 137.3 88.1L137.3 88.1Q136.2 88.1 135.6 87.5Q135.0 87.0 135.0 86.0L135.0 86.0L135.0 80.9L133.8 80.9L133.8 79.8L135.0 79.8L135.0 77.9L136.4 77.9L136.4 79.8ZM141.3 79.8L142.9 79.8L142.9 80.9L141.3 80.9L141.3 85.9Q141.3 86.4 141.5 86.7Q141.7 86.9 142.2 86.9L142.2 86.9Q142.4 86.9 142.5 86.9Q142.7 86.9 142.9 86.8L142.9 86.8L143.2 88.0Q143.0 88.0 142.7 88.1Q142.4 88.1 142.2 88.1L142.2 88.1Q141.1 88.1 140.5 87.5Q139.9 87.0 139.9 86.0L139.9 86.0L139.9 80.9L138.7 80.9L138.7 79.8L139.9 79.8L139.9 77.9L141.3 77.9L141.3 79.8ZM145.9 88L144.6 88L144.6 79.8L145.9 79.8L145.9 81.1L146.0 81.1Q146.2 80.4 146.8 80.1Q147.4 79.7 148.1 79.7L148.1 79.7Q148.3 79.7 148.5 79.7Q148.7 79.7 148.8 79.7L148.8 79.7L148.8 81.0Q148.7 81.0 148.5 81.0Q148.3 81.0 148.0 81.0L148.0 81.0Q147.4 81.0 146.9 81.2Q146.5 81.5 146.2 81.9Q145.9 82.3 145.9 82.9L145.9 82.9L145.9 88ZM151.6 88L150.3 88L150.3 79.8L151.6 79.8L151.6 88ZM150.9 78.5L150.9 78.5Q150.6 78.5 150.3 78.2Q150.0 78.0 150.0 77.6L150.0 77.6Q150.0 77.2 150.3 77.0Q150.6 76.7 150.9 76.7L150.9 76.7Q151.3 76.7 151.6 77.0Q151.9 77.2 151.9 77.6L151.9 77.6Q151.9 78.0 151.6 78.2Q151.3 78.5 150.9 78.5ZM157.7 88.2L157.7 88.2Q156.9 88.2 156.5 87.9Q156.0 87.6 155.7 87.3Q155.5 87.0 155.3 86.7L155.3 86.7L155.2 86.7L155.2 88L153.9 88L153.9 77.1L155.2 77.1L155.2 81.1L155.3 81.1Q155.5 80.9 155.7 80.6Q156.0 80.2 156.4 80.0Q156.9 79.7 157.7 79.7L157.7 79.7Q158.7 79.7 159.5 80.2Q160.3 80.7 160.7 81.7Q161.2 82.6 161.2 83.9L161.2 83.9Q161.2 85.2 160.7 86.2Q160.3 87.1 159.5 87.7Q158.7 88.2 157.7 88.2ZM157.5 87.0L157.5 87.0Q158.3 87.0 158.8 86.6Q159.3 86.2 159.6 85.5Q159.8 84.8 159.8 83.9L159.8 83.9Q159.8 83.1 159.6 82.4Q159.3 81.7 158.8 81.3Q158.3 80.9 157.5 80.9L157.5 80.9Q156.8 80.9 156.2 81.3Q155.7 81.6 155.5 82.3Q155.2 83.0 155.2 83.9L155.2 83.9Q155.2 84.8 155.5 85.5Q155.7 86.2 156.3 86.6Q156.8 87.0 157.5 87.0ZM165.9 88.1L165.9 88.1Q165.0 88.1 164.4 87.8Q163.8 87.4 163.4 86.7Q163.1 86.0 163.1 85.0L163.1 85.0L163.1 79.8L164.4 79.8L164.4 84.9Q164.4 85.8 164.9 86.4Q165.4 86.9 166.3 86.9L166.3 86.9Q166.9 86.9 167.3 86.7Q167.8 86.4 168.1 85.9Q168.3 85.4 168.3 84.7L168.3 84.7L168.3 79.8L169.6 79.8L169.6 88L168.4 88L168.4 86.5Q168.0 87.3 167.5 87.6L167.5 87.6Q166.8 88.1 165.9 88.1ZM173.5 79.8L175.2 79.8L175.2 80.9L173.5 80.9L173.5 85.9Q173.5 86.4 173.7 86.7Q173.9 86.9 174.5 86.9L174.5 86.9Q174.6 86.9 174.8 86.9Q175.0 86.9 175.1 86.8L175.1 86.8L175.4 88.0Q175.2 88.0 174.9 88.1Q174.7 88.1 174.4 88.1L174.4 88.1Q173.4 88.1 172.8 87.5Q172.2 87.0 172.2 86.0L172.2 86.0L172.2 80.9L171.0 80.9L171.0 79.8L172.2 79.8L172.2 77.9L173.5 77.9L173.5 79.8ZM180.3 88.2L180.3 88.2Q179.1 88.2 178.3 87.6Q177.4 87.1 176.9 86.2Q176.5 85.2 176.5 84.0Q176.5 82.7 176.9 81.8Q177.4 80.8 178.2 80.3Q179.0 79.7 180.2 79.7L180.2 79.7Q180.8 79.7 181.4 79.9Q182.1 80.1 182.6 80.6Q183.1 81.1 183.4 81.9Q183.7 82.7 183.7 83.8L183.7 83.8L183.7 84.4L177.8 84.4Q177.8 85.1 178.1 85.7L178.1 85.7Q178.4 86.4 179.0 86.7Q179.6 87.0 180.3 87.0L180.3 87.0Q180.8 87.0 181.2 86.9Q181.6 86.7 181.9 86.4Q182.2 86.2 182.3 85.7L182.3 85.7L183.6 86.1Q183.4 86.7 183.0 87.2Q182.5 87.6 181.8 87.9Q181.2 88.2 180.3 88.2ZM177.8 83.2L177.8 83.2L182.4 83.2Q182.3 82.7 182.2 82.2L182.2 82.2Q181.9 81.6 181.4 81.2Q180.9 80.9 180.2 80.9Q179.4 80.9 178.9 81.2Q178.4 81.6 178.1 82.2L178.1 82.2Q177.9 82.7 177.8 83.2Z M193.2 88.2L193.2 88.2Q192.1 88.2 191.2 87.6Q190.4 87.1 189.9 86.2Q189.4 85.2 189.4 84.0L189.4 84.0Q189.4 82.7 189.9 81.7Q190.4 80.8 191.2 80.2Q192.1 79.7 193.2 79.7L193.2 79.7Q193.8 79.7 194.3 79.9Q194.8 80.0 195.3 80.3Q195.7 80.6 196.0 81.0Q196.3 81.4 196.5 82.0L196.5 82.0L195.2 82.3Q195.1 82.0 194.9 81.8Q194.8 81.5 194.5 81.3Q194.2 81.1 193.9 81.0Q193.6 80.9 193.2 80.9L193.2 80.9Q192.3 80.9 191.8 81.3Q191.3 81.7 191.0 82.4Q190.8 83.1 190.8 84.0L190.8 84.0Q190.8 84.8 191.0 85.5Q191.3 86.1 191.8 86.6Q192.3 87.0 193.2 87.0L193.2 87.0Q193.6 87.0 193.9 86.9Q194.3 86.8 194.5 86.6Q194.8 86.4 195.0 86.1Q195.2 85.8 195.3 85.5L195.3 85.5L196.5 85.8Q196.4 86.4 196.0 86.8Q195.7 87.3 195.3 87.6Q194.8 87.9 194.3 88.0Q193.8 88.2 193.2 88.2ZM200.7 88.2L200.7 88.2Q199.9 88.2 199.3 87.9Q198.7 87.6 198.3 87.0Q197.9 86.5 197.9 85.7L197.9 85.7Q197.9 85.0 198.2 84.5Q198.5 84.1 198.9 83.8Q199.4 83.6 200.0 83.5Q200.5 83.3 201.1 83.3L201.1 83.3Q201.8 83.2 202.3 83.1Q202.7 83.1 203.0 82.9Q203.2 82.8 203.2 82.5L203.2 82.5L203.2 82.5Q203.2 82.0 203.0 81.6Q202.8 81.2 202.4 81.1Q202.1 80.9 201.5 80.9L201.5 80.9Q200.9 80.9 200.5 81.0Q200.1 81.2 199.8 81.5Q199.5 81.8 199.4 82.1L199.4 82.1L198.1 81.6Q198.5 80.9 199.0 80.5Q199.5 80.1 200.2 79.9Q200.8 79.7 201.4 79.7L201.4 79.7Q201.9 79.7 202.4 79.8Q202.9 79.9 203.4 80.2Q203.9 80.5 204.2 81.1Q204.5 81.6 204.5 82.6L204.5 82.6L204.5 88L203.2 88L203.2 86.9L203.1 86.9Q203.0 87.2 202.7 87.5Q202.4 87.8 201.9 88.0Q201.4 88.2 200.7 88.2ZM200.9 87.0L200.9 87.0Q201.7 87.0 202.2 86.7Q202.7 86.5 202.9 86.0Q203.2 85.5 203.2 85.0L203.2 85.0L203.2 83.9Q203.1 84.0 202.8 84.1Q202.6 84.2 202.2 84.2Q201.9 84.3 201.6 84.3Q201.2 84.4 201.0 84.4L201.0 84.4Q200.6 84.4 200.1 84.6Q199.7 84.7 199.5 85.0Q199.2 85.3 199.2 85.7L199.2 85.7Q199.2 86.2 199.5 86.4Q199.7 86.7 200.1 86.9Q200.4 87.0 200.9 87.0ZM210.2 88.2L210.2 88.2Q209.0 88.2 208.2 87.6Q207.4 87.1 206.9 86.2Q206.4 85.2 206.4 84.0L206.4 84.0Q206.4 82.7 206.9 81.7Q207.4 80.8 208.2 80.2Q209.0 79.7 210.2 79.7L210.2 79.7Q210.8 79.7 211.3 79.9Q211.8 80.0 212.2 80.3Q212.7 80.6 213.0 81.0Q213.3 81.4 213.5 82.0L213.5 82.0L212.2 82.3Q212.1 82.0 211.9 81.8Q211.8 81.5 211.5 81.3Q211.2 81.1 210.9 81.0Q210.6 80.9 210.2 80.9L210.2 80.9Q209.3 80.9 208.8 81.3Q208.3 81.7 208.0 82.4Q207.8 83.1 207.8 84.0L207.8 84.0Q207.8 84.8 208.0 85.5Q208.3 86.1 208.8 86.6Q209.3 87.0 210.2 87.0L210.2 87.0Q210.6 87.0 210.9 86.9Q211.3 86.8 211.5 86.6Q211.8 86.4 212.0 86.1Q212.2 85.8 212.2 85.5L212.2 85.5L213.5 85.8Q213.3 86.4 213.0 86.8Q212.7 87.3 212.3 87.6Q211.8 87.9 211.3 88.0Q210.8 88.2 210.2 88.2ZM216.7 83.1L216.7 83.1L216.7 88L215.4 88L215.4 77.1L216.7 77.1L216.7 81.2Q217.1 80.5 217.6 80.2L217.6 80.2Q218.2 79.7 219.2 79.7L219.2 79.7Q220.0 79.7 220.6 80.0Q221.3 80.4 221.6 81.1Q222.0 81.8 222.0 82.8L222.0 82.8L222.0 88L220.6 88L220.6 82.9Q220.6 82.0 220.1 81.4Q219.6 80.9 218.8 80.9L218.8 80.9Q218.2 80.9 217.7 81.2Q217.3 81.4 217.0 81.9Q216.7 82.4 216.7 83.1ZM225.6 88L224.3 88L224.3 79.8L225.6 79.8L225.6 88ZM224.9 78.5L224.9 78.5Q224.6 78.5 224.3 78.2Q224.0 78.0 224.0 77.6L224.0 77.6Q224.0 77.2 224.3 77.0Q224.6 76.7 224.9 76.7L224.9 76.7Q225.3 76.7 225.6 77.0Q225.9 77.2 225.9 77.6L225.9 77.6Q225.9 78.0 225.6 78.2Q225.3 78.5 224.9 78.5ZM229.2 83.1L229.2 83.1L229.2 88L227.9 88L227.9 79.8L229.2 79.8L229.2 81.3Q229.5 80.6 230.1 80.2L230.1 80.2Q230.7 79.7 231.7 79.7L231.7 79.7Q232.5 79.7 233.1 80.0Q233.8 80.4 234.1 81.1Q234.4 81.8 234.4 82.8L234.4 82.8L234.4 88L233.1 88L233.1 82.9Q233.1 82.0 232.6 81.4Q232.1 80.9 231.3 80.9L231.3 80.9Q230.7 80.9 230.2 81.2Q229.8 81.4 229.5 81.9Q229.2 82.4 229.2 83.1ZM240.1 91.2L240.1 91.2Q239.2 91.2 238.5 91.0Q237.8 90.8 237.4 90.4Q237.0 90.0 236.7 89.6L236.7 89.6L237.8 88.9Q238.0 89.1 238.2 89.4Q238.5 89.7 238.9 89.9Q239.4 90.1 240.1 90.1L240.1 90.1Q241.1 90.1 241.7 89.6Q242.3 89.1 242.3 88.1L242.3 88.1L242.3 86.5L242.2 86.5Q242.1 86.7 241.8 87.1Q241.6 87.4 241.1 87.6Q240.6 87.9 239.8 87.9L239.8 87.9Q238.8 87.9 238.1 87.4Q237.3 86.9 236.8 86.0Q236.4 85.2 236.4 83.9L236.4 83.9Q236.4 82.6 236.8 81.7Q237.3 80.7 238.0 80.2Q238.8 79.7 239.9 79.7L239.9 79.7Q240.6 79.7 241.1 80.0Q241.6 80.2 241.8 80.6Q242.1 80.9 242.2 81.1L242.2 81.1L242.4 81.1L242.4 79.8L243.6 79.8L243.6 88.2Q243.6 89.3 243.2 89.9Q242.7 90.6 241.9 90.9Q241.1 91.2 240.1 91.2ZM240.0 86.7L240.0 86.7Q240.8 86.7 241.3 86.4Q241.8 86.0 242.1 85.4Q242.3 84.7 242.3 83.8L242.3 83.8Q242.3 83.0 242.1 82.3Q241.8 81.6 241.3 81.3Q240.8 80.9 240.0 80.9L240.0 80.9Q239.3 80.9 238.7 81.3Q238.2 81.7 238.0 82.4Q237.7 83.0 237.7 83.8L237.7 83.8Q237.7 84.7 238.0 85.3Q238.2 86.0 238.8 86.3Q239.3 86.7 240.0 86.7Z M251.5 88L250.2 88L250.2 79.8L251.5 79.8L251.5 88ZM250.8 78.5L250.8 78.5Q250.5 78.5 250.2 78.2Q249.9 78.0 249.9 77.6L249.9 77.6Q249.9 77.2 250.2 77.0Q250.5 76.7 250.8 76.7L250.8 76.7Q251.2 76.7 251.5 77.0Q251.8 77.2 251.8 77.6L251.8 77.6Q251.8 78.0 251.5 78.2Q251.2 78.5 250.8 78.5ZM255.1 83.1L255.1 83.1L255.1 88L253.8 88L253.8 79.8L255.1 79.8L255.1 81.3Q255.4 80.6 256.0 80.2L256.0 80.2Q256.7 79.7 257.6 79.7L257.6 79.7Q258.4 79.7 259.0 80.0Q259.7 80.4 260.0 81.1Q260.4 81.8 260.4 82.8L260.4 82.8L260.4 88L259.0 88L259.0 82.9Q259.0 82.0 258.5 81.4Q258.1 80.9 257.2 80.9L257.2 80.9Q256.6 80.9 256.1 81.2Q255.7 81.4 255.4 81.9Q255.1 82.4 255.1 83.1Z M268.2 88L266.9 88L266.9 79.8L268.2 79.8L268.2 81.1L268.3 81.1Q268.5 80.4 269.1 80.1Q269.6 79.7 270.4 79.7L270.4 79.7Q270.5 79.7 270.7 79.7Q270.9 79.7 271.0 79.7L271.0 79.7L271.0 81.0Q271.0 81.0 270.8 81.0Q270.5 81.0 270.3 81.0L270.3 81.0Q269.7 81.0 269.2 81.2Q268.7 81.5 268.5 81.9Q268.2 82.3 268.2 82.9L268.2 82.9L268.2 88ZM274.8 88.2L274.8 88.2Q274.1 88.2 273.4 87.9Q272.8 87.6 272.4 87.0Q272.0 86.5 272.0 85.7L272.0 85.7Q272.0 85.0 272.3 84.5Q272.6 84.1 273.1 83.8Q273.5 83.6 274.1 83.5Q274.7 83.3 275.2 83.3L275.2 83.3Q276.0 83.2 276.4 83.1Q276.9 83.1 277.1 82.9Q277.3 82.8 277.3 82.5L277.3 82.5L277.3 82.5Q277.3 82.0 277.1 81.6Q276.9 81.2 276.6 81.1Q276.2 80.9 275.6 80.9L275.6 80.9Q275.0 80.9 274.6 81.0Q274.2 81.2 273.9 81.5Q273.7 81.8 273.5 82.1L273.5 82.1L272.3 81.6Q272.6 80.9 273.1 80.5Q273.7 80.1 274.3 79.9Q275.0 79.7 275.6 79.7L275.6 79.7Q276.0 79.7 276.5 79.8Q277.0 79.9 277.5 80.2Q278.0 80.5 278.3 81.1Q278.6 81.6 278.6 82.6L278.6 82.6L278.6 88L277.4 88L277.4 86.9L277.3 86.9Q277.1 87.2 276.8 87.5Q276.5 87.8 276.0 88.0Q275.5 88.2 274.8 88.2ZM275.1 87.0L275.1 87.0Q275.8 87.0 276.3 86.7Q276.8 86.5 277.1 86.0Q277.3 85.5 277.3 85.0L277.3 85.0L277.3 83.9Q277.3 84.0 277.0 84.1Q276.7 84.2 276.4 84.2Q276.0 84.3 275.7 84.3Q275.4 84.4 275.2 84.4L275.2 84.4Q274.7 84.4 274.3 84.6Q273.9 84.7 273.6 85.0Q273.4 85.3 273.4 85.7L273.4 85.7Q273.4 86.2 273.6 86.4Q273.8 86.7 274.2 86.9Q274.6 87.0 275.1 87.0ZM282.3 88L281.0 88L281.0 79.8L282.3 79.8L282.3 88ZM281.6 78.5L281.6 78.5Q281.3 78.5 281.0 78.2Q280.7 78.0 280.7 77.6L280.7 77.6Q280.7 77.2 281.0 77.0Q281.3 76.7 281.6 76.7L281.6 76.7Q282.0 76.7 282.3 77.0Q282.6 77.2 282.6 77.6L282.6 77.6Q282.6 78.0 282.3 78.2Q282.0 78.5 281.6 78.5ZM284.6 77.1L285.9 77.1L285.9 88L284.6 88L284.6 77.1ZM291.0 88.2L291.0 88.2Q290.2 88.2 289.5 87.9Q288.9 87.7 288.4 87.2Q288.0 86.7 287.9 86.0L287.9 86.0L289.1 85.7Q289.3 86.4 289.8 86.7Q290.3 87.0 291.0 87.0L291.0 87.0Q291.9 87.0 292.4 86.7Q292.9 86.3 292.9 85.8L292.9 85.8Q292.9 85.4 292.6 85.1Q292.3 84.8 291.7 84.7L291.7 84.7L290.3 84.3Q289.2 84.1 288.7 83.5Q288.1 83.0 288.1 82.1L288.1 82.1Q288.1 81.4 288.5 80.9Q288.9 80.3 289.6 80.0Q290.3 79.7 291.1 79.7L291.1 79.7Q292.0 79.7 292.6 80.0Q293.2 80.2 293.5 80.7Q293.9 81.1 294.1 81.7L294.1 81.7L292.9 82.0Q292.7 81.5 292.3 81.2Q291.9 80.8 291.2 80.8L291.2 80.8Q290.4 80.8 289.9 81.2Q289.4 81.5 289.4 82.0L289.4 82.0Q289.4 82.5 289.8 82.7Q290.1 83.0 290.8 83.2L290.8 83.2L292.1 83.5Q293.2 83.7 293.7 84.3Q294.2 84.9 294.2 85.7L294.2 85.7Q294.2 86.4 293.8 87.0Q293.4 87.5 292.7 87.9Q292.0 88.2 291.0 88.2ZM297.1 88.1L297.1 88.1Q296.7 88.1 296.5 87.8Q296.2 87.5 296.2 87.1L296.2 87.1Q296.2 86.7 296.5 86.4Q296.7 86.1 297.1 86.1L297.1 86.1Q297.6 86.1 297.8 86.4Q298.1 86.7 298.1 87.1L298.1 87.1Q298.1 87.5 297.8 87.8Q297.6 88.1 297.1 88.1Z M308.0 88.2L308.0 88.2Q306.9 88.2 306.1 87.6Q305.2 87.1 304.8 86.2Q304.3 85.2 304.3 84.0L304.3 84.0Q304.3 82.7 304.8 81.7Q305.2 80.8 306.1 80.2Q306.9 79.7 308.0 79.7L308.0 79.7Q308.6 79.7 309.1 79.9Q309.7 80.0 310.1 80.3Q310.5 80.6 310.9 81.0Q311.2 81.4 311.3 82.0L311.3 82.0L310.1 82.3Q310.0 82.0 309.8 81.8Q309.6 81.5 309.4 81.3Q309.1 81.1 308.8 81.0Q308.4 80.9 308.0 80.9L308.0 80.9Q307.2 80.9 306.7 81.3Q306.1 81.7 305.9 82.4Q305.6 83.1 305.6 84.0L305.6 84.0Q305.6 84.8 305.9 85.5Q306.1 86.1 306.7 86.6Q307.2 87.0 308.0 87.0L308.0 87.0Q308.4 87.0 308.8 86.9Q309.1 86.8 309.4 86.6Q309.7 86.4 309.8 86.1Q310.0 85.8 310.1 85.5L310.1 85.5L311.4 85.8Q311.2 86.4 310.9 86.8Q310.6 87.3 310.1 87.6Q309.7 87.9 309.2 88.0Q308.6 88.2 308.0 88.2ZM316.6 88.2L316.6 88.2Q315.5 88.2 314.6 87.6Q313.8 87.1 313.3 86.2Q312.9 85.2 312.9 84.0L312.9 84.0Q312.9 82.7 313.3 81.7Q313.8 80.8 314.6 80.2Q315.5 79.7 316.6 79.7L316.6 79.7Q317.7 79.7 318.6 80.2Q319.4 80.8 319.9 81.7Q320.3 82.7 320.3 84.0L320.3 84.0Q320.3 85.2 319.9 86.2Q319.4 87.1 318.6 87.6Q317.7 88.2 316.6 88.2ZM316.6 87.0L316.6 87.0Q317.4 87.0 318.0 86.6Q318.5 86.1 318.7 85.5Q319.0 84.8 319.0 84.0L319.0 84.0Q319.0 83.1 318.7 82.4Q318.5 81.7 318.0 81.3Q317.4 80.9 316.6 80.9L316.6 80.9Q315.8 80.9 315.2 81.3Q314.7 81.7 314.5 82.4Q314.2 83.1 314.2 84.0L314.2 84.0Q314.2 84.8 314.5 85.5Q314.7 86.1 315.2 86.6Q315.8 87.0 316.6 87.0ZM323.6 83.1L323.6 83.1L323.6 88L322.3 88L322.3 79.8L323.5 79.8L323.5 81.3Q323.9 80.6 324.4 80.2L324.4 80.2Q325.1 79.7 326.0 79.7L326.0 79.7Q326.9 79.7 327.5 80.0Q328.1 80.4 328.4 81.1Q328.8 81.8 328.8 82.8L328.8 82.8L328.8 88L327.5 88L327.5 82.9Q327.5 82.0 327.0 81.4Q326.5 80.9 325.6 80.9L325.6 80.9Q325.0 80.9 324.6 81.2Q324.1 81.4 323.8 81.9Q323.6 82.4 323.6 83.1ZM333.0 79.8L334.9 79.8L334.9 80.9L333.0 80.9L333.0 88L331.7 88L331.7 80.9L330.1 80.9L330.1 79.8L331.7 79.8L331.7 78.7Q331.7 78.0 332.0 77.5Q332.4 77.1 332.9 76.8Q333.4 76.6 334.0 76.6L334.0 76.6Q334.5 76.6 334.8 76.7Q335.1 76.7 335.3 76.8L335.3 76.8L334.9 77.9Q334.8 77.9 334.6 77.8Q334.5 77.8 334.2 77.8L334.2 77.8Q333.6 77.8 333.3 78.1Q333.0 78.4 333.0 79.0L333.0 79.0L333.0 79.8ZM338.0 88L336.7 88L336.7 79.8L338.0 79.8L338.0 88ZM337.3 78.5L337.3 78.5Q337.0 78.5 336.7 78.2Q336.4 78.0 336.4 77.6L336.4 77.6Q336.4 77.2 336.7 77.0Q337.0 76.7 337.3 76.7L337.3 76.7Q337.7 76.7 338.0 77.0Q338.3 77.2 338.3 77.6L338.3 77.6Q338.3 78.0 338.0 78.2Q337.7 78.5 337.3 78.5ZM343.6 91.2L343.6 91.2Q342.7 91.2 342.0 91.0Q341.4 90.8 340.9 90.4Q340.5 90.0 340.2 89.6L340.2 89.6L341.3 88.9Q341.5 89.1 341.8 89.4Q342.0 89.7 342.5 89.9Q342.9 90.1 343.6 90.1L343.6 90.1Q344.6 90.1 345.2 89.6Q345.9 89.1 345.9 88.1L345.9 88.1L345.9 86.5L345.7 86.5Q345.6 86.7 345.3 87.1Q345.1 87.4 344.6 87.6Q344.1 87.9 343.4 87.9L343.4 87.9Q342.4 87.9 341.6 87.4Q340.8 86.9 340.4 86.0Q339.9 85.2 339.9 83.9L339.9 83.9Q339.9 82.6 340.3 81.7Q340.8 80.7 341.6 80.2Q342.4 79.7 343.4 79.7L343.4 79.7Q344.2 79.7 344.7 80.0Q345.1 80.2 345.4 80.6Q345.6 80.9 345.8 81.1L345.8 81.1L345.9 81.1L345.9 79.8L347.2 79.8L347.2 88.2Q347.2 89.3 346.7 89.9Q346.2 90.6 345.4 90.9Q344.6 91.2 343.6 91.2ZM343.6 86.7L343.6 86.7Q344.3 86.7 344.8 86.4Q345.4 86.0 345.6 85.4Q345.9 84.7 345.9 83.8L345.9 83.8Q345.9 83.0 345.6 82.3Q345.4 81.6 344.8 81.3Q344.3 80.9 343.6 80.9L343.6 80.9Q342.8 80.9 342.3 81.3Q341.8 81.7 341.5 82.4Q341.2 83.0 341.2 83.8L341.2 83.8Q341.2 84.7 341.5 85.3Q341.8 86.0 342.3 86.3Q342.8 86.7 343.6 86.7ZM350.8 88L349.5 88L349.5 79.8L350.8 79.8L350.8 81.3Q350.9 80.9 351.2 80.5L351.2 80.5Q351.6 80.1 352.1 79.9Q352.6 79.7 353.1 79.7L353.1 79.7Q354.0 79.7 354.5 80.2L354.5 80.2Q355.0 80.7 355.2 81.3L355.2 81.3Q355.3 80.9 355.6 80.6L355.6 80.6Q356.0 80.1 356.5 79.9Q357.1 79.7 357.7 79.7L357.7 79.7Q358.5 79.7 359.0 80.0Q359.6 80.3 360.0 80.9Q360.3 81.5 360.3 82.5L360.3 82.5L360.3 88L359.0 88L359.0 82.5Q359.0 81.6 358.5 81.2Q358.0 80.9 357.3 80.9L357.3 80.9Q356.8 80.9 356.4 81.1Q356 81.3 355.8 81.7Q355.6 82.1 355.6 82.7L355.6 82.7L355.6 88L354.2 88L354.2 82.4Q354.2 81.7 353.8 81.3Q353.3 80.9 352.6 80.9L352.6 80.9Q352.2 80.9 351.7 81.1Q351.3 81.3 351.1 81.8Q350.8 82.2 350.8 82.8L350.8 82.8L350.8 88ZM364.9 88.2L364.9 88.2Q364.2 88.2 363.5 87.9Q362.9 87.6 362.5 87.0Q362.1 86.5 362.1 85.7L362.1 85.7Q362.1 85.0 362.4 84.5Q362.7 84.1 363.2 83.8Q363.6 83.6 364.2 83.5Q364.8 83.3 365.3 83.3L365.3 83.3Q366.1 83.2 366.5 83.1Q367.0 83.1 367.2 82.9Q367.4 82.8 367.4 82.5L367.4 82.5L367.4 82.5Q367.4 82.0 367.2 81.6Q367.0 81.2 366.7 81.1Q366.3 80.9 365.7 80.9L365.7 80.9Q365.1 80.9 364.7 81.0Q364.3 81.2 364.0 81.5Q363.8 81.8 363.6 82.1L363.6 82.1L362.4 81.6Q362.7 80.9 363.2 80.5Q363.8 80.1 364.4 79.9Q365.0 79.7 365.7 79.7L365.7 79.7Q366.1 79.7 366.6 79.8Q367.1 79.9 367.6 80.2Q368.1 80.5 368.4 81.1Q368.7 81.6 368.7 82.6L368.7 82.6L368.7 88L367.4 88L367.4 86.9L367.4 86.9Q367.2 87.2 366.9 87.5Q366.6 87.8 366.1 88.0Q365.6 88.2 364.9 88.2ZM365.2 87.0L365.2 87.0Q365.9 87.0 366.4 86.7Q366.9 86.5 367.2 86.0Q367.4 85.5 367.4 85.0L367.4 85.0L367.4 83.9Q367.3 84.0 367.1 84.1Q366.8 84.2 366.5 84.2Q366.1 84.3 365.8 84.3Q365.5 84.4 365.3 84.4L365.3 84.4Q364.8 84.4 364.4 84.6Q364.0 84.7 363.7 85.0Q363.5 85.3 363.5 85.7L363.5 85.7Q363.5 86.2 363.7 86.4Q363.9 86.7 364.3 86.9Q364.7 87.0 365.2 87.0ZM372.4 91.1L371.1 91.1L371.1 79.8L372.3 79.8L372.3 81.1L372.5 81.1Q372.6 80.9 372.9 80.6Q373.1 80.2 373.6 80.0Q374.1 79.7 374.9 79.7L374.9 79.7Q375.9 79.7 376.7 80.2Q377.4 80.7 377.9 81.7Q378.3 82.6 378.3 83.9L378.3 83.9Q378.3 85.2 377.9 86.2Q377.4 87.1 376.7 87.7Q375.9 88.2 374.9 88.2L374.9 88.2Q374.1 88.2 373.6 87.9Q373.1 87.6 372.9 87.3Q372.6 87.0 372.5 86.7L372.5 86.7L372.4 86.7L372.4 91.1ZM374.7 87.0L374.7 87.0Q375.4 87.0 375.9 86.6Q376.5 86.2 376.7 85.5Q377.0 84.8 377.0 83.9L377.0 83.9Q377.0 83.1 376.7 82.4Q376.5 81.7 376.0 81.3Q375.4 80.9 374.7 80.9L374.7 80.9Q373.9 80.9 373.4 81.3Q372.9 81.6 372.6 82.3Q372.4 83.0 372.4 83.9L372.4 83.9Q372.4 84.8 372.6 85.5Q372.9 86.2 373.4 86.6Q373.9 87.0 374.7 87.0ZM380.1 82.7L384.9 82.7L384.9 83.9L380.1 83.9L380.1 82.7ZM390.3 88L389.0 88L386.5 79.8L387.9 79.8L388.9 83.4Q389.1 84.1 389.3 85.0L389.3 85.0Q389.5 85.7 389.7 86.6L389.7 86.6Q389.8 85.8 390.0 85.1L390.0 85.1Q390.2 84.2 390.5 83.4L390.5 83.4L391.4 79.8L392.8 79.8L393.8 83.4Q394.0 84.1 394.2 85.1L394.2 85.1Q394.4 85.8 394.6 86.6L394.6 86.6Q394.7 85.8 394.9 85.1L394.9 85.1Q395.1 84.2 395.4 83.4L395.4 83.4L396.3 79.8L397.7 79.8L395.3 88L394.0 88L392.9 84.3Q392.7 83.7 392.6 83.1Q392.4 82.6 392.3 81.9L392.3 81.9Q392.2 81.6 392.1 81.3L392.1 81.3Q392.0 81.6 392.0 81.9L392.0 81.9Q391.8 82.6 391.7 83.2Q391.5 83.7 391.4 84.3L391.4 84.3L390.3 88ZM401.7 88.2L401.7 88.2Q400.9 88.2 400.3 87.9Q399.7 87.6 399.3 87.0Q398.9 86.5 398.9 85.7L398.9 85.7Q398.9 85.0 399.2 84.5Q399.5 84.1 399.9 83.8Q400.4 83.6 401.0 83.5Q401.5 83.3 402.1 83.3L402.1 83.3Q402.8 83.2 403.3 83.1Q403.8 83.1 404.0 82.9Q404.2 82.8 404.2 82.5L404.2 82.5L404.2 82.5Q404.2 82.0 404.0 81.6Q403.8 81.2 403.4 81.1Q403.1 80.9 402.5 80.9L402.5 80.9Q401.9 80.9 401.5 81.0Q401.1 81.2 400.8 81.5Q400.6 81.8 400.4 82.1L400.4 82.1L399.2 81.6Q399.5 80.9 400.0 80.5Q400.5 80.1 401.2 79.9Q401.8 79.7 402.5 79.7L402.5 79.7Q402.9 79.7 403.4 79.8Q403.9 79.9 404.4 80.2Q404.9 80.5 405.2 81.1Q405.5 81.6 405.5 82.6L405.5 82.6L405.5 88L404.2 88L404.2 86.9L404.1 86.9Q404.0 87.2 403.7 87.5Q403.4 87.8 402.9 88.0Q402.4 88.2 401.7 88.2ZM401.9 87.0L401.9 87.0Q402.7 87.0 403.2 86.7Q403.7 86.5 403.9 86.0Q404.2 85.5 404.2 85.0L404.2 85.0L404.2 83.9Q404.1 84.0 403.9 84.1Q403.6 84.2 403.2 84.2Q402.9 84.3 402.6 84.3Q402.2 84.4 402.0 84.4L402.0 84.4Q401.6 84.4 401.2 84.6Q400.7 84.7 400.5 85.0Q400.2 85.3 400.2 85.7L400.2 85.7Q400.2 86.2 400.5 86.4Q400.7 86.7 401.1 86.9Q401.4 87.0 401.9 87.0ZM409.4 79.8L411.1 79.8L411.1 80.9L409.4 80.9L409.4 85.9Q409.4 86.4 409.6 86.7Q409.8 86.9 410.3 86.9L410.3 86.9Q410.5 86.9 410.7 86.9Q410.9 86.9 411.0 86.8L411.0 86.8L411.3 88.0Q411.1 88.0 410.8 88.1Q410.6 88.1 410.3 88.1L410.3 88.1Q409.2 88.1 408.7 87.5Q408.1 87.0 408.1 86.0L408.1 86.0L408.1 80.9L406.8 80.9L406.8 79.8L408.1 79.8L408.1 77.9L409.4 77.9L409.4 79.8ZM416.1 88.2L416.1 88.2Q415.0 88.2 414.1 87.6Q413.3 87.1 412.8 86.2Q412.4 85.2 412.4 84.0L412.4 84.0Q412.4 82.7 412.8 81.7Q413.3 80.8 414.1 80.2Q415.0 79.7 416.1 79.7L416.1 79.7Q416.7 79.7 417.2 79.9Q417.7 80.0 418.2 80.3Q418.6 80.6 418.9 81.0Q419.2 81.4 419.4 82.0L419.4 82.0L418.1 82.3Q418.0 82.0 417.9 81.8Q417.7 81.5 417.4 81.3Q417.2 81.1 416.8 81.0Q416.5 80.9 416.1 80.9L416.1 80.9Q415.3 80.9 414.7 81.3Q414.2 81.7 413.9 82.4Q413.7 83.1 413.7 84.0L413.7 84.0Q413.7 84.8 413.9 85.5Q414.2 86.1 414.7 86.6Q415.3 87.0 416.1 87.0L416.1 87.0Q416.5 87.0 416.8 86.9Q417.2 86.8 417.4 86.6Q417.7 86.4 417.9 86.1Q418.1 85.8 418.2 85.5L418.2 85.5L419.4 85.8Q419.3 86.4 418.9 86.8Q418.6 87.3 418.2 87.6Q417.8 87.9 417.2 88.0Q416.7 88.2 416.1 88.2ZM422.6 83.1L422.6 83.1L422.6 88L421.3 88L421.3 77.1L422.6 77.1L422.6 81.2Q423.0 80.5 423.5 80.2L423.5 80.2Q424.2 79.7 425.1 79.7L425.1 79.7Q425.9 79.7 426.6 80.0Q427.2 80.4 427.5 81.1Q427.9 81.8 427.9 82.8L427.9 82.8L427.9 88L426.5 88L426.5 82.9Q426.5 82.0 426.1 81.4Q425.6 80.9 424.7 80.9L424.7 80.9Q424.1 80.9 423.6 81.2Q423.2 81.4 422.9 81.9Q422.6 82.4 422.6 83.1ZM433.6 88.2L433.6 88.2Q432.4 88.2 431.6 87.6Q430.7 87.1 430.3 86.2Q429.8 85.2 429.8 84.0Q429.8 82.7 430.2 81.8Q430.7 80.8 431.5 80.3Q432.4 79.7 433.5 79.7L433.5 79.7Q434.1 79.7 434.8 79.9Q435.4 80.1 435.9 80.6Q436.4 81.1 436.7 81.9Q437.0 82.7 437.0 83.8L437.0 83.8L437.0 84.4L431.1 84.4Q431.2 85.1 431.4 85.7L431.4 85.7Q431.8 86.4 432.3 86.7Q432.9 87.0 433.6 87.0L433.6 87.0Q434.1 87.0 434.5 86.9Q434.9 86.7 435.2 86.4Q435.5 86.2 435.6 85.7L435.6 85.7L436.9 86.1Q436.7 86.7 436.3 87.2Q435.8 87.6 435.1 87.9Q434.5 88.2 433.6 88.2ZM431.1 83.2L431.1 83.2L435.7 83.2Q435.7 82.7 435.5 82.2L435.5 82.2Q435.2 81.6 434.7 81.2Q434.2 80.9 433.5 80.9Q432.7 80.9 432.2 81.2Q431.7 81.6 431.4 82.2L431.4 82.2Q431.2 82.7 431.1 83.2ZM442.0 88.2L442.0 88.2Q441.0 88.2 440.2 87.7Q439.4 87.1 439.0 86.2Q438.5 85.2 438.5 83.9L438.5 83.9Q438.5 82.6 439.0 81.7Q439.4 80.7 440.2 80.2Q441.0 79.7 442.0 79.7L442.0 79.7Q442.8 79.7 443.3 80.0Q443.7 80.2 444.0 80.6Q444.2 80.9 444.4 81.1L444.4 81.1L444.5 81.1L444.5 77.1L445.8 77.1L445.8 88L444.5 88L444.5 86.7L444.4 86.7Q444.2 87.0 444.0 87.3Q443.7 87.6 443.3 87.9Q442.8 88.2 442.0 88.2ZM442.2 87.0L442.2 87.0Q442.9 87.0 443.5 86.6Q444.0 86.2 444.2 85.5Q444.5 84.8 444.5 83.9L444.5 83.9Q444.5 83.0 444.2 82.3Q444.0 81.6 443.5 81.3Q443.0 80.9 442.2 80.9L442.2 80.9Q441.4 80.9 440.9 81.3Q440.4 81.7 440.1 82.4Q439.9 83.1 439.9 83.9L439.9 83.9Q439.9 84.8 440.1 85.5Q440.4 86.2 440.9 86.6Q441.4 87.0 442.2 87.0Z M455.4 88.2L455.4 88.2Q454.4 88.2 453.6 87.7Q452.8 87.1 452.4 86.2Q451.9 85.2 451.9 83.9L451.9 83.9Q451.9 82.6 452.4 81.7Q452.8 80.7 453.6 80.2Q454.4 79.7 455.4 79.7L455.4 79.7Q456.2 79.7 456.7 80.0Q457.1 80.2 457.4 80.6Q457.7 80.9 457.8 81.1L457.8 81.1L457.9 81.1L457.9 77.1L459.2 77.1L459.2 88L457.9 88L457.9 86.7L457.8 86.7Q457.7 87.0 457.4 87.3Q457.1 87.6 456.7 87.9Q456.2 88.2 455.4 88.2ZM455.6 87.0L455.6 87.0Q456.3 87.0 456.9 86.6Q457.4 86.2 457.6 85.5Q457.9 84.8 457.9 83.9L457.9 83.9Q457.9 83.0 457.6 82.3Q457.4 81.6 456.9 81.3Q456.4 80.9 455.6 80.9L455.6 80.9Q454.8 80.9 454.3 81.3Q453.8 81.7 453.5 82.4Q453.3 83.1 453.3 83.9L453.3 83.9Q453.3 84.8 453.5 85.5Q453.8 86.2 454.3 86.6Q454.8 87.0 455.6 87.0ZM461.4 91.0L461.4 91.0L461.7 89.8L461.9 89.9Q462.3 90.0 462.6 89.9Q462.9 89.9 463.2 89.6Q463.5 89.3 463.7 88.7L463.7 88.7L463.9 88.0L460.8 79.8L462.2 79.8L463.9 84.7Q464.2 85.4 464.4 86.2L464.4 86.2Q464.5 86.5 464.6 86.8L464.6 86.8Q464.7 86.5 464.7 86.2L464.7 86.2Q464.9 85.4 465.2 84.7L465.2 84.7L467.0 79.8L468.4 79.8L464.8 89.2Q464.6 89.9 464.2 90.3Q463.9 90.7 463.4 90.9Q462.9 91.1 462.4 91.1L462.4 91.1Q462.0 91.1 461.7 91.1Q461.5 91.0 461.4 91.0ZM471.3 83.1L471.3 83.1L471.3 88L470.0 88L470.0 79.8L471.2 79.8L471.2 81.3Q471.6 80.6 472.1 80.2L472.1 80.2Q472.8 79.7 473.7 79.7L473.7 79.7Q474.6 79.7 475.2 80.0Q475.8 80.4 476.2 81.1Q476.5 81.8 476.5 82.8L476.5 82.8L476.5 88L475.2 88L475.2 82.9Q475.2 82.0 474.7 81.4Q474.2 80.9 473.3 80.9L473.3 80.9Q472.7 80.9 472.3 81.2Q471.8 81.4 471.5 81.9Q471.3 82.4 471.3 83.1ZM481.1 88.2L481.1 88.2Q480.3 88.2 479.7 87.9Q479.1 87.6 478.7 87.0Q478.3 86.5 478.3 85.7L478.3 85.7Q478.3 85.0 478.6 84.5Q478.9 84.1 479.3 83.8Q479.8 83.6 480.4 83.5Q480.9 83.3 481.5 83.3L481.5 83.3Q482.2 83.2 482.7 83.1Q483.2 83.1 483.4 82.9Q483.6 82.8 483.6 82.5L483.6 82.5L483.6 82.5Q483.6 82.0 483.4 81.6Q483.2 81.2 482.8 81.1Q482.5 80.9 481.9 80.9L481.9 80.9Q481.3 80.9 480.9 81.0Q480.5 81.2 480.2 81.5Q479.9 81.8 479.8 82.1L479.8 82.1L478.5 81.6Q478.9 80.9 479.4 80.5Q479.9 80.1 480.6 79.9Q481.2 79.7 481.9 79.7L481.9 79.7Q482.3 79.7 482.8 79.8Q483.3 79.9 483.8 80.2Q484.3 80.5 484.6 81.1Q484.9 81.6 484.9 82.6L484.9 82.6L484.9 88L483.6 88L483.6 86.9L483.5 86.9Q483.4 87.2 483.1 87.5Q482.8 87.8 482.3 88.0Q481.8 88.2 481.1 88.2ZM481.3 87.0L481.3 87.0Q482.1 87.0 482.6 86.7Q483.1 86.5 483.3 86.0Q483.6 85.5 483.6 85.0L483.6 85.0L483.6 83.9Q483.5 84.0 483.3 84.1Q483.0 84.2 482.6 84.2Q482.3 84.3 482.0 84.3Q481.6 84.4 481.4 84.4L481.4 84.4Q481.0 84.4 480.6 84.6Q480.1 84.7 479.9 85.0Q479.6 85.3 479.6 85.7L479.6 85.7Q479.6 86.2 479.9 86.4Q480.1 86.7 480.5 86.9Q480.8 87.0 481.3 87.0ZM488.6 88L487.2 88L487.2 79.8L488.5 79.8L488.5 81.3Q488.7 80.9 489.0 80.5L489.0 80.5Q489.3 80.1 489.8 79.9Q490.3 79.7 490.8 79.7L490.8 79.7Q491.7 79.7 492.3 80.2L492.3 80.2Q492.7 80.7 492.9 81.3L492.9 81.3Q493.1 80.9 493.3 80.6L493.3 80.6Q493.7 80.1 494.3 79.9Q494.8 79.7 495.5 79.7L495.5 79.7Q496.2 79.7 496.8 80.0Q497.4 80.3 497.7 80.9Q498.1 81.5 498.1 82.5L498.1 82.5L498.1 88L496.7 88L496.7 82.5Q496.7 81.6 496.2 81.2Q495.7 80.9 495.1 80.9L495.1 80.9Q494.5 80.9 494.1 81.1Q493.7 81.3 493.5 81.7Q493.3 82.1 493.3 82.7L493.3 82.7L493.3 88L492.0 88L492.0 82.4Q492.0 81.7 491.5 81.3Q491.1 80.9 490.4 80.9L490.4 80.9Q489.9 80.9 489.5 81.1Q489.1 81.3 488.8 81.8Q488.6 82.2 488.6 82.8L488.6 82.8L488.6 88ZM501.7 88L500.4 88L500.4 79.8L501.7 79.8L501.7 88ZM501.0 78.5L501.0 78.5Q500.7 78.5 500.4 78.2Q500.1 78.0 500.1 77.6L500.1 77.6Q500.1 77.2 500.4 77.0Q500.7 76.7 501.0 76.7L501.0 76.7Q501.4 76.7 501.7 77.0Q502.0 77.2 502.0 77.6L502.0 77.6Q502.0 78.0 501.7 78.2Q501.4 78.5 501.0 78.5ZM507.3 88.2L507.3 88.2Q506.2 88.2 505.4 87.6Q504.5 87.1 504.1 86.2Q503.6 85.2 503.6 84.0L503.6 84.0Q503.6 82.7 504.1 81.7Q504.5 80.8 505.4 80.2Q506.2 79.7 507.3 79.7L507.3 79.7Q507.9 79.7 508.5 79.9Q509.0 80.0 509.4 80.3Q509.9 80.6 510.2 81.0Q510.5 81.4 510.7 82.0L510.7 82.0L509.4 82.3Q509.3 82.0 509.1 81.8Q508.9 81.5 508.7 81.3Q508.4 81.1 508.1 81.0Q507.7 80.9 507.3 80.9L507.3 80.9Q506.5 80.9 506.0 81.3Q505.5 81.7 505.2 82.4Q505.0 83.1 505.0 84.0L505.0 84.0Q505.0 84.8 505.2 85.5Q505.5 86.1 506.0 86.6Q506.5 87.0 507.3 87.0L507.3 87.0Q507.8 87.0 508.1 86.9Q508.4 86.8 508.7 86.6Q509.0 86.4 509.2 86.1Q509.3 85.8 509.4 85.5L509.4 85.5L510.7 85.8Q510.5 86.4 510.2 86.8Q509.9 87.3 509.4 87.6Q509.0 87.9 508.5 88.0Q507.9 88.2 507.3 88.2Z "/></g><mask id="satori_om-id-2"><rect x="56" y="94" width="688" height="23" fill="#fff" mask="url(#satori_om-id)"/></mask><g mask="url(#satori_om-id)" clip-path="url(#satori_cp-id)"><path fill="rgba(255,255,255,0.82)" d="M60.5 111.2L60.5 111.2Q59.4 111.2 58.5 110.6Q57.7 110.1 57.2 109.2Q56.8 108.2 56.8 107.0L56.8 107.0Q56.8 105.7 57.2 104.7Q57.7 103.8 58.5 103.2Q59.4 102.7 60.5 102.7L60.5 102.7Q61.1 102.7 61.6 102.9Q62.1 103.0 62.6 103.3Q63.0 103.6 63.3 104.0Q63.6 104.4 63.8 105.0L63.8 105.0L62.5 105.3Q62.5 105.0 62.3 104.8Q62.1 104.5 61.8 104.3Q61.6 104.1 61.2 104.0Q60.9 103.9 60.5 103.9L60.5 103.9Q59.7 103.9 59.1 104.3Q58.6 104.7 58.4 105.4Q58.1 106.1 58.1 107.0L58.1 107.0Q58.1 107.8 58.4 108.5Q58.6 109.1 59.1 109.6Q59.7 110.0 60.5 110.0L60.5 110.0Q60.9 110.0 61.2 109.9Q61.6 109.8 61.9 109.6Q62.1 109.4 62.3 109.1Q62.5 108.8 62.6 108.5L62.6 108.5L63.8 108.8Q63.7 109.4 63.4 109.8Q63.0 110.3 62.6 110.6Q62.2 110.9 61.6 111.0Q61.1 111.2 60.5 111.2ZM69.1 111.2L69.1 111.2Q67.9 111.2 67.1 110.6Q66.3 110.1 65.8 109.2Q65.3 108.2 65.3 107.0L65.3 107.0Q65.3 105.7 65.8 104.7Q66.3 103.8 67.1 103.2Q67.9 102.7 69.1 102.7L69.1 102.7Q70.2 102.7 71.0 103.2Q71.9 103.8 72.3 104.7Q72.8 105.7 72.8 107.0L72.8 107.0Q72.8 108.2 72.3 109.2Q71.9 110.1 71.0 110.6Q70.2 111.2 69.1 111.2ZM69.1 110.0L69.1 110.0Q69.9 110.0 70.4 109.6Q71.0 109.1 71.2 108.5Q71.5 107.8 71.5 107.0L71.5 107.0Q71.5 106.1 71.2 105.4Q71.0 104.7 70.4 104.3Q69.9 103.9 69.1 103.9L69.1 103.9Q68.2 103.9 67.7 104.3Q67.2 104.7 66.9 105.4Q66.7 106.1 66.7 107.0L66.7 107.0Q66.7 107.8 66.9 108.5Q67.2 109.1 67.7 109.6Q68.2 110.0 69.1 110.0ZM76.0 106.1L76.0 106.1L76.0 111L74.7 111L74.7 102.8L76.0 102.8L76.0 104.3Q76.3 103.6 76.9 103.2L76.9 103.2Q77.6 102.7 78.5 102.7L78.5 102.7Q79.3 102.7 80.0 103.0Q80.6 103.4 80.9 104.1Q81.3 104.8 81.3 105.8L81.3 105.8L81.3 111L80.0 111L80.0 105.9Q80.0 105.0 79.5 104.4Q79.0 103.9 78.1 103.9L78.1 103.9Q77.5 103.9 77.0 104.2Q76.6 104.4 76.3 104.9Q76.0 105.4 76.0 106.1ZM85.5 102.8L87.4 102.8L87.4 103.9L85.5 103.9L85.5 111L84.2 111L84.2 103.9L82.6 103.9L82.6 102.8L84.2 102.8L84.2 101.7Q84.2 101.0 84.5 100.5Q84.9 100.1 85.4 99.8Q85.9 99.6 86.5 99.6L86.5 99.6Q87.0 99.6 87.3 99.7Q87.6 99.7 87.7 99.8L87.7 99.8L87.4 100.9Q87.3 100.9 87.1 100.8Q86.9 100.8 86.7 100.8L86.7 100.8Q86.1 100.8 85.8 101.1Q85.5 101.4 85.5 102.0L85.5 102.0L85.5 102.8ZM90.5 111L89.1 111L89.1 102.8L90.5 102.8L90.5 111ZM89.8 101.5L89.8 101.5Q89.4 101.5 89.2 101.2Q88.9 101.0 88.9 100.6L88.9 100.6Q88.9 100.2 89.2 100.0Q89.4 99.7 89.8 99.7L89.8 99.7Q90.2 99.7 90.5 100.0Q90.7 100.2 90.7 100.6L90.7 100.6Q90.7 101.0 90.5 101.2Q90.2 101.5 89.8 101.5ZM96.1 114.2L96.1 114.2Q95.2 114.2 94.5 114.0Q93.9 113.8 93.4 113.4Q93.0 113.0 92.7 112.6L92.7 112.6L93.8 111.9Q94.0 112.1 94.2 112.4Q94.5 112.7 94.9 112.9Q95.4 113.1 96.1 113.1L96.1 113.1Q97.1 113.1 97.7 112.6Q98.3 112.1 98.3 111.1L98.3 111.1L98.3 109.5L98.2 109.5Q98.1 109.7 97.8 110.1Q97.6 110.4 97.1 110.6Q96.6 110.9 95.8 110.9L95.8 110.9Q94.8 110.9 94.1 110.4Q93.3 109.9 92.8 109.0Q92.4 108.2 92.4 106.9L92.4 106.9Q92.4 105.6 92.8 104.7Q93.3 103.7 94.1 103.2Q94.8 102.7 95.9 102.7L95.9 102.7Q96.6 102.7 97.1 103.0Q97.6 103.2 97.9 103.6Q98.1 103.9 98.2 104.1L98.2 104.1L98.4 104.1L98.4 102.8L99.7 102.8L99.7 111.2Q99.7 112.3 99.2 112.9Q98.7 113.6 97.9 113.9Q97.1 114.2 96.1 114.2ZM96.0 109.7L96.0 109.7Q96.8 109.7 97.3 109.4Q97.8 109.0 98.1 108.4Q98.3 107.7 98.3 106.8L98.3 106.8Q98.3 106.0 98.1 105.3Q97.8 104.6 97.3 104.3Q96.8 103.9 96.0 103.9L96.0 103.9Q95.3 103.9 94.8 104.3Q94.2 104.7 94.0 105.4Q93.7 106.0 93.7 106.8L93.7 106.8Q93.7 107.7 94.0 108.3Q94.2 109.0 94.8 109.3Q95.3 109.7 96.0 109.7Z M109.9 111L108.6 111L105.4 102.8L106.9 102.8L108.6 107.7Q108.9 108.4 109.1 109.2L109.1 109.2Q109.2 109.5 109.2 109.8L109.2 109.8Q109.3 109.5 109.4 109.2L109.4 109.2Q109.6 108.4 109.9 107.7L109.9 107.7L111.6 102.8L113.1 102.8L109.9 111ZM115.9 111L114.6 111L114.6 102.8L115.9 102.8L115.9 111ZM115.3 101.5L115.3 101.5Q114.9 101.5 114.6 101.2Q114.4 101.0 114.4 100.6L114.4 100.6Q114.4 100.2 114.6 100.0Q114.9 99.7 115.3 99.7L115.3 99.7Q115.7 99.7 115.9 100.0Q116.2 100.2 116.2 100.6L116.2 100.6Q116.2 101.0 115.9 101.2Q115.7 101.5 115.3 101.5ZM120.5 111.2L120.5 111.2Q119.8 111.2 119.1 110.9Q118.5 110.6 118.1 110.0Q117.8 109.5 117.8 108.7L117.8 108.7Q117.8 108.0 118.0 107.5Q118.3 107.1 118.8 106.8Q119.2 106.6 119.8 106.5Q120.4 106.3 120.9 106.3L120.9 106.3Q121.7 106.2 122.1 106.1Q122.6 106.1 122.8 105.9Q123.0 105.8 123.0 105.5L123.0 105.5L123.0 105.5Q123.0 105.0 122.8 104.6Q122.7 104.2 122.3 104.1Q121.9 103.9 121.3 103.9L121.3 103.9Q120.7 103.9 120.3 104.0Q119.9 104.2 119.6 104.5Q119.4 104.8 119.3 105.1L119.3 105.1L118.0 104.6Q118.3 103.9 118.8 103.5Q119.4 103.1 120.0 102.9Q120.7 102.7 121.3 102.7L121.3 102.7Q121.7 102.7 122.2 102.8Q122.7 102.9 123.2 103.2Q123.7 103.5 124.0 104.1Q124.4 104.6 124.4 105.6L124.4 105.6L124.4 111L123.1 111L123.1 109.9L123.0 109.9Q122.8 110.2 122.5 110.5Q122.2 110.8 121.7 111.0Q121.2 111.2 120.5 111.2ZM120.8 110.0L120.8 110.0Q121.5 110.0 122.0 109.7Q122.5 109.5 122.8 109.0Q123.0 108.5 123.0 108.0L123.0 108.0L123.0 106.9Q123.0 107.0 122.7 107.1Q122.4 107.2 122.1 107.2Q121.7 107.3 121.4 107.3Q121.1 107.4 120.9 107.4L120.9 107.4Q120.4 107.4 120.0 107.6Q119.6 107.7 119.3 108.0Q119.1 108.3 119.1 108.7L119.1 108.7Q119.1 109.2 119.3 109.4Q119.5 109.7 119.9 109.9Q120.3 110.0 120.8 110.0Z M132.2 111L130.9 111L130.9 100.1L132.2 100.1L132.2 106.4L132.4 106.4L135.9 102.8L137.5 102.8L134.1 106.3L137.8 111L136.1 111L133.1 107.2L132.2 108.0L132.2 111ZM141.9 111.1L141.9 111.1Q141.1 111.1 140.4 110.8Q139.8 110.4 139.5 109.7Q139.1 109.0 139.1 108.0L139.1 108.0L139.1 102.8L140.4 102.8L140.4 107.9Q140.4 108.8 140.9 109.4Q141.4 109.9 142.3 109.9L142.3 109.9Q142.9 109.9 143.3 109.7Q143.8 109.4 144.1 108.9Q144.4 108.4 144.4 107.7L144.4 107.7L144.4 102.8L145.7 102.8L145.7 111L144.4 111L144.4 109.5Q144.1 110.3 143.5 110.6L143.5 110.6Q142.8 111.1 141.9 111.1ZM151.8 111.2L151.8 111.2Q151.0 111.2 150.5 110.9Q150.1 110.6 149.8 110.3Q149.6 110.0 149.4 109.7L149.4 109.7L149.3 109.7L149.3 111L148.0 111L148.0 100.1L149.3 100.1L149.3 104.1L149.4 104.1Q149.6 103.9 149.8 103.6Q150.1 103.2 150.5 103.0Q151.0 102.7 151.8 102.7L151.8 102.7Q152.8 102.7 153.6 103.2Q154.4 103.7 154.8 104.7Q155.3 105.6 155.3 106.9L155.3 106.9Q155.3 108.2 154.8 109.2Q154.4 110.1 153.6 110.7Q152.8 111.2 151.8 111.2ZM151.6 110.0L151.6 110.0Q152.4 110.0 152.9 109.6Q153.4 109.2 153.7 108.5Q153.9 107.8 153.9 106.9L153.9 106.9Q153.9 106.1 153.7 105.4Q153.4 104.7 152.9 104.3Q152.4 103.9 151.6 103.9L151.6 103.9Q150.8 103.9 150.3 104.3Q149.8 104.6 149.6 105.3Q149.3 106.0 149.3 106.9L149.3 106.9Q149.3 107.8 149.6 108.5Q149.8 109.2 150.3 109.6Q150.9 110.0 151.6 110.0ZM160.6 111.2L160.6 111.2Q159.4 111.2 158.6 110.6Q157.7 110.1 157.2 109.2Q156.8 108.2 156.8 107.0Q156.8 105.7 157.2 104.8Q157.7 103.8 158.5 103.3Q159.4 102.7 160.5 102.7L160.5 102.7Q161.1 102.7 161.8 102.9Q162.4 103.1 162.9 103.6Q163.4 104.1 163.7 104.9Q164.0 105.7 164.0 106.8L164.0 106.8L164.0 107.4L158.1 107.4Q158.1 108.1 158.4 108.7L158.4 108.7Q158.7 109.4 159.3 109.7Q159.9 110.0 160.6 110.0L160.6 110.0Q161.1 110.0 161.5 109.9Q161.9 109.7 162.2 109.4Q162.5 109.2 162.6 108.7L162.6 108.7L163.9 109.1Q163.7 109.7 163.3 110.2Q162.8 110.6 162.1 110.9Q161.5 111.2 160.6 111.2ZM158.1 106.2L158.1 106.2L162.7 106.2Q162.6 105.7 162.5 105.2L162.5 105.2Q162.2 104.6 161.7 104.2Q161.2 103.9 160.5 103.9Q159.7 103.9 159.2 104.2Q158.7 104.6 158.4 105.2L158.4 105.2Q158.2 105.7 158.1 106.2ZM169.3 111.2L169.3 111.2Q168.1 111.2 167.3 110.6Q166.5 110.1 166.0 109.2Q165.5 108.2 165.5 107.0L165.5 107.0Q165.5 105.7 166.0 104.7Q166.5 103.8 167.3 103.2Q168.1 102.7 169.3 102.7L169.3 102.7Q169.8 102.7 170.4 102.9Q170.9 103.0 171.3 103.3Q171.8 103.6 172.1 104.0Q172.4 104.4 172.6 105.0L172.6 105.0L171.3 105.3Q171.2 105.0 171.0 104.8Q170.9 104.5 170.6 104.3Q170.3 104.1 170.0 104.0Q169.7 103.9 169.3 103.9L169.3 103.9Q168.4 103.9 167.9 104.3Q167.4 104.7 167.1 105.4Q166.9 106.1 166.9 107.0L166.9 107.0Q166.9 107.8 167.1 108.5Q167.4 109.1 167.9 109.6Q168.4 110.0 169.3 110.0L169.3 110.0Q169.7 110.0 170.0 109.9Q170.4 109.8 170.6 109.6Q170.9 109.4 171.1 109.1Q171.3 108.8 171.3 108.5L171.3 108.5L172.6 108.8Q172.4 109.4 172.1 109.8Q171.8 110.3 171.4 110.6Q170.9 110.9 170.4 111.0Q169.9 111.2 169.3 111.2ZM174.5 100.1L175.8 100.1L175.8 111L174.5 111L174.5 100.1ZM179.4 111L178.1 111L178.1 102.8L179.4 102.8L179.4 111ZM178.8 101.5L178.8 101.5Q178.4 101.5 178.1 101.2Q177.9 101.0 177.9 100.6L177.9 100.6Q177.9 100.2 178.1 100.0Q178.4 99.7 178.8 99.7L178.8 99.7Q179.2 99.7 179.4 100.0Q179.7 100.2 179.7 100.6L179.7 100.6Q179.7 101.0 179.4 101.2Q179.2 101.5 178.8 101.5ZM185.2 111.2L185.2 111.2Q184.0 111.2 183.2 110.6Q182.3 110.1 181.8 109.2Q181.4 108.2 181.4 107.0Q181.4 105.7 181.8 104.8Q182.3 103.8 183.1 103.3Q183.9 102.7 185.0 102.7L185.0 102.7Q185.7 102.7 186.3 102.9Q187.0 103.1 187.5 103.6Q188.0 104.1 188.3 104.9Q188.6 105.7 188.6 106.8L188.6 106.8L188.6 107.4L182.7 107.4Q182.7 108.1 183.0 108.7L183.0 108.7Q183.3 109.4 183.9 109.7Q184.5 110.0 185.2 110.0L185.2 110.0Q185.7 110.0 186.1 109.9Q186.5 109.7 186.8 109.4Q187.1 109.2 187.2 108.7L187.2 108.7L188.5 109.1Q188.3 109.7 187.8 110.2Q187.4 110.6 186.7 110.9Q186.0 111.2 185.2 111.2ZM182.7 106.2L182.7 106.2L187.3 106.2Q187.2 105.7 187.0 105.2L187.0 105.2Q186.8 104.6 186.3 104.2Q185.8 103.9 185.0 103.9Q184.3 103.9 183.8 104.2Q183.3 104.6 183.0 105.2L183.0 105.2Q182.7 105.7 182.7 106.2ZM191.8 106.1L191.8 106.1L191.8 111L190.5 111L190.5 102.8L191.8 102.8L191.8 104.3Q192.1 103.6 192.7 103.2L192.7 103.2Q193.4 102.7 194.3 102.7L194.3 102.7Q195.1 102.7 195.7 103.0Q196.4 103.4 196.7 104.1Q197.0 104.8 197.0 105.8L197.0 105.8L197.0 111L195.7 111L195.7 105.9Q195.7 105.0 195.2 104.4Q194.7 103.9 193.9 103.9L193.9 103.9Q193.3 103.9 192.8 104.2Q192.4 104.4 192.1 104.9Q191.8 105.4 191.8 106.1ZM200.9 102.8L202.6 102.8L202.6 103.9L200.9 103.9L200.9 108.9Q200.9 109.4 201.1 109.7Q201.3 109.9 201.9 109.9L201.9 109.9Q202.0 109.9 202.2 109.9Q202.4 109.9 202.5 109.8L202.5 109.8L202.8 111.0Q202.6 111.0 202.3 111.1Q202.1 111.1 201.8 111.1L201.8 111.1Q200.8 111.1 200.2 110.5Q199.6 110.0 199.6 109.0L199.6 109.0L199.6 103.9L198.4 103.9L198.4 102.8L199.6 102.8L199.6 100.9L200.9 100.9L200.9 102.8ZM205.3 111.1L205.3 111.1Q204.9 111.1 204.6 110.8Q204.3 110.5 204.3 110.1L204.3 110.1Q204.3 109.7 204.6 109.4Q204.9 109.1 205.3 109.1L205.3 109.1Q205.7 109.1 206.0 109.4Q206.3 109.7 206.3 110.1L206.3 110.1Q206.3 110.5 206.0 110.8Q205.7 111.1 205.3 111.1Z M214.1 114.1L212.8 114.1L212.8 102.8L214.1 102.8L214.1 104.1L214.2 104.1Q214.4 103.9 214.6 103.6Q214.9 103.2 215.3 103.0Q215.8 102.7 216.6 102.7L216.6 102.7Q217.6 102.7 218.4 103.2Q219.2 103.7 219.6 104.7Q220.1 105.6 220.1 106.9L220.1 106.9Q220.1 108.2 219.6 109.2Q219.2 110.1 218.4 110.7Q217.6 111.2 216.6 111.2L216.6 111.2Q215.8 111.2 215.4 110.9Q214.9 110.6 214.6 110.3Q214.4 110.0 214.2 109.7L214.2 109.7L214.1 109.7L214.1 114.1ZM216.4 110.0L216.4 110.0Q217.2 110.0 217.7 109.6Q218.2 109.2 218.5 108.5Q218.7 107.8 218.7 106.9L218.7 106.9Q218.7 106.1 218.5 105.4Q218.2 104.7 217.7 104.3Q217.2 103.9 216.4 103.9L216.4 103.9Q215.7 103.9 215.1 104.3Q214.6 104.6 214.4 105.3Q214.1 106.0 214.1 106.9L214.1 106.9Q214.1 107.8 214.4 108.5Q214.6 109.2 215.2 109.6Q215.7 110.0 216.4 110.0ZM225.3 111.2L225.3 111.2Q224.2 111.2 223.4 110.6Q222.5 110.1 222.1 109.2Q221.6 108.2 221.6 107.0L221.6 107.0Q221.6 105.7 222.1 104.7Q222.5 103.8 223.4 103.2Q224.2 102.7 225.3 102.7L225.3 102.7Q226.4 102.7 227.3 103.2Q228.1 103.8 228.6 104.7Q229.1 105.7 229.1 107.0L229.1 107.0Q229.1 108.2 228.6 109.2Q228.1 110.1 227.3 110.6Q226.4 111.2 225.3 111.2ZM225.3 110.0L225.3 110.0Q226.2 110.0 226.7 109.6Q227.2 109.1 227.5 108.5Q227.7 107.8 227.7 107.0L227.7 107.0Q227.7 106.1 227.5 105.4Q227.2 104.7 226.7 104.3Q226.2 103.9 225.3 103.9L225.3 103.9Q224.5 103.9 224.0 104.3Q223.5 104.7 223.2 105.4Q222.9 106.1 222.9 107.0L222.9 107.0Q222.9 107.8 223.2 108.5Q223.5 109.1 224.0 109.6Q224.5 110.0 225.3 110.0ZM233.8 111.2L233.8 111.2Q232.9 111.2 232.3 110.9Q231.6 110.7 231.2 110.2Q230.8 109.7 230.6 109.0L230.6 109.0L231.9 108.7Q232.1 109.4 232.5 109.7Q233.0 110.0 233.8 110.0L233.8 110.0Q234.6 110.0 235.1 109.7Q235.6 109.3 235.6 108.8L235.6 108.8Q235.6 108.4 235.3 108.1Q235.0 107.8 234.4 107.7L234.4 107.7L233.1 107.3Q232.0 107.1 231.4 106.5Q230.9 106.0 230.9 105.1L230.9 105.1Q230.9 104.4 231.3 103.9Q231.7 103.3 232.3 103.0Q233.0 102.7 233.9 102.7L233.9 102.7Q234.7 102.7 235.3 103.0Q235.9 103.2 236.3 103.7Q236.7 104.1 236.8 104.7L236.8 104.7L235.7 105.0Q235.5 104.5 235.1 104.2Q234.7 103.8 233.9 103.8L233.9 103.8Q233.2 103.8 232.7 104.2Q232.2 104.5 232.2 105.0L232.2 105.0Q232.2 105.5 232.5 105.7Q232.9 106.0 233.6 106.2L233.6 106.2L234.8 106.5Q235.9 106.7 236.5 107.3Q237.0 107.9 237.0 108.7L237.0 108.7Q237.0 109.4 236.6 110.0Q236.2 110.5 235.5 110.9Q234.7 111.2 233.8 111.2ZM240.4 102.8L242.1 102.8L242.1 103.9L240.4 103.9L240.4 108.9Q240.4 109.4 240.7 109.7Q240.9 109.9 241.4 109.9L241.4 109.9Q241.5 109.9 241.7 109.9Q241.9 109.9 242.1 109.8L242.1 109.8L242.4 111.0Q242.2 111.0 241.9 111.1Q241.6 111.1 241.4 111.1L241.4 111.1Q240.3 111.1 239.7 110.5Q239.1 110.0 239.1 109.0L239.1 109.0L239.1 103.9L237.9 103.9L237.9 102.8L239.1 102.8L239.1 100.9L240.4 100.9L240.4 102.8ZM247.1 114.2L247.1 114.2Q246.2 114.2 245.6 114.0Q244.9 113.8 244.5 113.4Q244.0 113.0 243.8 112.6L243.8 112.6L244.8 111.9Q245.0 112.1 245.3 112.4Q245.5 112.7 246.0 112.9Q246.4 113.1 247.1 113.1L247.1 113.1Q248.1 113.1 248.7 112.6Q249.4 112.1 249.4 111.1L249.4 111.1L249.4 109.5L249.3 109.5Q249.1 109.7 248.9 110.1Q248.6 110.4 248.1 110.6Q247.7 110.9 246.9 110.9L246.9 110.9Q245.9 110.9 245.1 110.4Q244.3 109.9 243.9 109.0Q243.4 108.2 243.4 106.9L243.4 106.9Q243.4 105.6 243.9 104.7Q244.3 103.7 245.1 103.2Q245.9 102.7 246.9 102.7L246.9 102.7Q247.7 102.7 248.2 103.0Q248.6 103.2 248.9 103.6Q249.2 103.9 249.3 104.1L249.3 104.1L249.4 104.1L249.4 102.8L250.7 102.8L250.7 111.2Q250.7 112.3 250.2 112.9Q249.7 113.6 248.9 113.9Q248.1 114.2 247.1 114.2ZM247.1 109.7L247.1 109.7Q247.8 109.7 248.4 109.4Q248.9 109.0 249.1 108.4Q249.4 107.7 249.4 106.8L249.4 106.8Q249.4 106.0 249.1 105.3Q248.9 104.6 248.4 104.3Q247.9 103.9 247.1 103.9L247.1 103.9Q246.3 103.9 245.8 104.3Q245.3 104.7 245.0 105.4Q244.8 106.0 244.8 106.8L244.8 106.8Q244.8 107.7 245.0 108.3Q245.3 109.0 245.8 109.3Q246.3 109.7 247.1 109.7ZM254.3 111L253.0 111L253.0 102.8L254.3 102.8L254.3 104.1L254.4 104.1Q254.6 103.4 255.2 103.1Q255.8 102.7 256.5 102.7L256.5 102.7Q256.6 102.7 256.8 102.7Q257.0 102.7 257.2 102.7L257.2 102.7L257.2 104.0Q257.1 104.0 256.9 104.0Q256.6 104.0 256.4 104.0L256.4 104.0Q255.8 104.0 255.3 104.2Q254.9 104.5 254.6 104.9Q254.3 105.3 254.3 105.9L254.3 105.9L254.3 111ZM262.1 111.2L262.1 111.2Q260.9 111.2 260.1 110.6Q259.2 110.1 258.7 109.2Q258.3 108.2 258.3 107.0Q258.3 105.7 258.7 104.8Q259.2 103.8 260.0 103.3Q260.8 102.7 261.9 102.7L261.9 102.7Q262.6 102.7 263.2 102.9Q263.9 103.1 264.4 103.6Q264.9 104.1 265.2 104.9Q265.5 105.7 265.5 106.8L265.5 106.8L265.5 107.4L259.6 107.4Q259.6 108.1 259.9 108.7L259.9 108.7Q260.2 109.4 260.8 109.7Q261.4 110.0 262.1 110.0L262.1 110.0Q262.6 110.0 263.0 109.9Q263.4 109.7 263.7 109.4Q264.0 109.2 264.1 108.7L264.1 108.7L265.4 109.1Q265.2 109.7 264.7 110.2Q264.3 110.6 263.6 110.9Q262.9 111.2 262.1 111.2ZM259.6 106.2L259.6 106.2L264.2 106.2Q264.1 105.7 263.9 105.2L263.9 105.2Q263.7 104.6 263.2 104.2Q262.7 103.9 261.9 103.9Q261.2 103.9 260.7 104.2Q260.2 104.6 259.9 105.2L259.9 105.2Q259.6 105.7 259.6 106.2ZM270.2 111.2L270.2 111.2Q269.3 111.2 268.7 110.9Q268.0 110.7 267.6 110.2Q267.2 109.7 267.0 109.0L267.0 109.0L268.3 108.7Q268.5 109.4 269.0 109.7Q269.4 110.0 270.2 110.0L270.2 110.0Q271.0 110.0 271.5 109.7Q272.0 109.3 272.0 108.8L272.0 108.8Q272.0 108.4 271.8 108.1Q271.5 107.8 270.8 107.7L270.8 107.7L269.5 107.3Q268.4 107.1 267.8 106.5Q267.3 106.0 267.3 105.1L267.3 105.1Q267.3 104.4 267.7 103.9Q268.1 103.3 268.8 103.0Q269.4 102.7 270.3 102.7L270.3 102.7Q271.2 102.7 271.8 103.0Q272.3 103.2 272.7 103.7Q273.1 104.1 273.3 104.7L273.3 104.7L272.1 105.0Q271.9 104.5 271.5 104.2Q271.1 103.8 270.3 103.8L270.3 103.8Q269.6 103.8 269.1 104.2Q268.6 104.5 268.6 105.0L268.6 105.0Q268.6 105.5 269.0 105.7Q269.3 106.0 270.0 106.2L270.0 106.2L271.2 106.5Q272.4 106.7 272.9 107.3Q273.4 107.9 273.4 108.7L273.4 108.7Q273.4 109.4 273.0 110.0Q272.6 110.5 271.9 110.9Q271.1 111.2 270.2 111.2Z M282.9 111.2L282.9 111.2Q281.8 111.2 280.9 110.6Q280.1 110.1 279.6 109.2Q279.1 108.2 279.1 107.0L279.1 107.0Q279.1 105.7 279.6 104.7Q280.1 103.8 280.9 103.2Q281.8 102.7 282.9 102.7L282.9 102.7Q283.5 102.7 284.0 102.9Q284.5 103.0 285.0 103.3Q285.4 103.6 285.7 104.0Q286.0 104.4 286.2 105.0L286.2 105.0L284.9 105.3Q284.8 105.0 284.7 104.8Q284.5 104.5 284.2 104.3Q284.0 104.1 283.6 104.0Q283.3 103.9 282.9 103.9L282.9 103.9Q282.1 103.9 281.5 104.3Q281 104.7 280.7 105.4Q280.5 106.1 280.5 107.0L280.5 107.0Q280.5 107.8 280.7 108.5Q281 109.1 281.5 109.6Q282.1 110.0 282.9 110.0L282.9 110.0Q283.3 110.0 283.6 109.9Q284.0 109.8 284.2 109.6Q284.5 109.4 284.7 109.1Q284.9 108.8 285.0 108.5L285.0 108.5L286.2 108.8Q286.1 109.4 285.7 109.8Q285.4 110.3 285.0 110.6Q284.5 110.9 284.0 111.0Q283.5 111.2 282.9 111.2ZM291.4 111.2L291.4 111.2Q290.3 111.2 289.5 110.6Q288.7 110.1 288.2 109.2Q287.7 108.2 287.7 107.0L287.7 107.0Q287.7 105.7 288.2 104.7Q288.7 103.8 289.5 103.2Q290.3 102.7 291.4 102.7L291.4 102.7Q292.6 102.7 293.4 103.2Q294.2 103.8 294.7 104.7Q295.2 105.7 295.2 107.0L295.2 107.0Q295.2 108.2 294.7 109.2Q294.2 110.1 293.4 110.6Q292.6 111.2 291.4 111.2ZM291.4 110.0L291.4 110.0Q292.3 110.0 292.8 109.6Q293.3 109.1 293.6 108.5Q293.9 107.8 293.9 107.0L293.9 107.0Q293.9 106.1 293.6 105.4Q293.3 104.7 292.8 104.3Q292.3 103.9 291.4 103.9L291.4 103.9Q290.6 103.9 290.1 104.3Q289.6 104.7 289.3 105.4Q289.1 106.1 289.1 107.0L289.1 107.0Q289.1 107.8 289.3 108.5Q289.6 109.1 290.1 109.6Q290.6 110.0 291.4 110.0ZM298.4 106.1L298.4 106.1L298.4 111L297.1 111L297.1 102.8L298.4 102.8L298.4 104.3Q298.7 103.6 299.3 103.2L299.3 103.2Q300.0 102.7 300.9 102.7L300.9 102.7Q301.7 102.7 302.3 103.0Q303.0 103.4 303.3 104.1Q303.7 104.8 303.7 105.8L303.7 105.8L303.7 111L302.3 111L302.3 105.9Q302.3 105.0 301.8 104.4Q301.3 103.9 300.5 103.9L300.5 103.9Q299.9 103.9 299.4 104.2Q299.0 104.4 298.7 104.9Q298.4 105.4 298.4 106.1ZM307.3 106.1L307.3 106.1L307.3 111L306.0 111L306.0 102.8L307.2 102.8L307.2 104.3Q307.6 103.6 308.1 103.2L308.1 103.2Q308.8 102.7 309.7 102.7L309.7 102.7Q310.6 102.7 311.2 103.0Q311.8 103.4 312.2 104.1Q312.5 104.8 312.5 105.8L312.5 105.8L312.5 111L311.2 111L311.2 105.9Q311.2 105.0 310.7 104.4Q310.2 103.9 309.4 103.9L309.4 103.9Q308.8 103.9 308.3 104.2Q307.8 104.4 307.6 104.9Q307.3 105.4 307.3 106.1ZM318.3 111.2L318.3 111.2Q317.1 111.2 316.2 110.6Q315.4 110.1 314.9 109.2Q314.4 108.2 314.4 107.0Q314.4 105.7 314.9 104.8Q315.3 103.8 316.2 103.3Q317.0 102.7 318.1 102.7L318.1 102.7Q318.8 102.7 319.4 102.9Q320.0 103.1 320.6 103.6Q321.1 104.1 321.4 104.9Q321.7 105.7 321.7 106.8L321.7 106.8L321.7 107.4L315.8 107.4Q315.8 108.1 316.1 108.7L316.1 108.7Q316.4 109.4 317.0 109.7Q317.5 110.0 318.3 110.0L318.3 110.0Q318.8 110.0 319.2 109.9Q319.6 109.7 319.8 109.4Q320.1 109.2 320.3 108.7L320.3 108.7L321.6 109.1Q321.4 109.7 320.9 110.2Q320.5 110.6 319.8 110.9Q319.1 111.2 318.3 111.2ZM315.8 106.2L315.8 106.2L320.3 106.2Q320.3 105.7 320.1 105.2L320.1 105.2Q319.9 104.6 319.4 104.2Q318.9 103.9 318.1 103.9Q317.4 103.9 316.9 104.2Q316.3 104.6 316.0 105.2L316.0 105.2Q315.8 105.7 315.8 106.2ZM326.9 111.2L326.9 111.2Q325.8 111.2 325.0 110.6Q324.1 110.1 323.6 109.2Q323.2 108.2 323.2 107.0L323.2 107.0Q323.2 105.7 323.6 104.7Q324.1 103.8 325.0 103.2Q325.8 102.7 326.9 102.7L326.9 102.7Q327.5 102.7 328.0 102.9Q328.6 103.0 329.0 103.3Q329.4 103.6 329.7 104.0Q330.1 104.4 330.2 105.0L330.2 105.0L329.0 105.3Q328.9 105.0 328.7 104.8Q328.5 104.5 328.2 104.3Q328.0 104.1 327.6 104.0Q327.3 103.9 326.9 103.9L326.9 103.9Q326.1 103.9 325.6 104.3Q325.0 104.7 324.8 105.4Q324.5 106.1 324.5 107.0L324.5 107.0Q324.5 107.8 324.8 108.5Q325.0 109.1 325.6 109.6Q326.1 110.0 326.9 110.0L326.9 110.0Q327.3 110.0 327.7 109.9Q328.0 109.8 328.3 109.6Q328.5 109.4 328.7 109.1Q328.9 108.8 329.0 108.5L329.0 108.5L330.3 108.8Q330.1 109.4 329.8 109.8Q329.5 110.3 329.0 110.6Q328.6 110.9 328.0 111.0Q327.5 111.2 326.9 111.2ZM333.7 102.8L335.4 102.8L335.4 103.9L333.7 103.9L333.7 108.9Q333.7 109.4 333.9 109.7Q334.1 109.9 334.6 109.9L334.6 109.9Q334.8 109.9 335.0 109.9Q335.2 109.9 335.3 109.8L335.3 109.8L335.6 111.0Q335.4 111.0 335.1 111.1Q334.9 111.1 334.6 111.1L334.6 111.1Q333.6 111.1 333.0 110.5Q332.4 110.0 332.4 109.0L332.4 109.0L332.4 103.9L331.1 103.9L331.1 102.8L332.4 102.8L332.4 100.9L333.7 100.9L333.7 102.8ZM338.4 111L337.1 111L337.1 102.8L338.4 102.8L338.4 111ZM337.7 101.5L337.7 101.5Q337.3 101.5 337.1 101.2Q336.8 101.0 336.8 100.6L336.8 100.6Q336.8 100.2 337.1 100.0Q337.3 99.7 337.7 99.7L337.7 99.7Q338.1 99.7 338.4 100.0Q338.6 100.2 338.6 100.6L338.6 100.6Q338.6 101.0 338.4 101.2Q338.1 101.5 337.7 101.5ZM344.0 111.2L344.0 111.2Q342.9 111.2 342.1 110.6Q341.2 110.1 340.8 109.2Q340.3 108.2 340.3 107.0L340.3 107.0Q340.3 105.7 340.8 104.7Q341.2 103.8 342.1 103.2Q342.9 102.7 344.0 102.7L344.0 102.7Q345.1 102.7 346.0 103.2Q346.8 103.8 347.3 104.7Q347.8 105.7 347.8 107.0L347.8 107.0Q347.8 108.2 347.3 109.2Q346.8 110.1 346.0 110.6Q345.1 111.2 344.0 111.2ZM344.0 110.0L344.0 110.0Q344.8 110.0 345.4 109.6Q345.9 109.1 346.2 108.5Q346.4 107.8 346.4 107.0L346.4 107.0Q346.4 106.1 346.2 105.4Q345.9 104.7 345.4 104.3Q344.8 103.9 344.0 103.9L344.0 103.9Q343.2 103.9 342.7 104.3Q342.1 104.7 341.9 105.4Q341.6 106.1 341.6 107.0L341.6 107.0Q341.6 107.8 341.9 108.5Q342.1 109.1 342.7 109.6Q343.2 110.0 344.0 110.0ZM351.0 106.1L351.0 106.1L351.0 111L349.7 111L349.7 102.8L350.9 102.8L351.0 104.3Q351.3 103.6 351.8 103.2L351.8 103.2Q352.5 102.7 353.5 102.7L353.5 102.7Q354.3 102.7 354.9 103.0Q355.5 103.4 355.9 104.1Q356.2 104.8 356.2 105.8L356.2 105.8L356.2 111L354.9 111L354.9 105.9Q354.9 105.0 354.4 104.4Q353.9 103.9 353.1 103.9L353.1 103.9Q352.5 103.9 352.0 104.2Q351.5 104.4 351.3 104.9Q351.0 105.4 351.0 106.1Z M364.1 111L362.8 111L362.8 102.8L364.0 102.8L364.0 104.1L364.1 104.1Q364.3 103.4 364.9 103.1Q365.5 102.7 366.2 102.7L366.2 102.7Q366.4 102.7 366.6 102.7Q366.8 102.7 366.9 102.7L366.9 102.7L366.9 104.0Q366.9 104.0 366.6 104.0Q366.4 104.0 366.1 104.0L366.1 104.0Q365.5 104.0 365.1 104.2Q364.6 104.5 364.3 104.9Q364.1 105.3 364.1 105.9L364.1 105.9L364.1 111ZM371.8 111.2L371.8 111.2Q370.7 111.2 369.8 110.6Q368.9 110.1 368.5 109.2Q368.0 108.2 368.0 107.0Q368.0 105.7 368.5 104.8Q368.9 103.8 369.8 103.3Q370.6 102.7 371.7 102.7L371.7 102.7Q372.3 102.7 373.0 102.9Q373.6 103.1 374.1 103.6Q374.6 104.1 375.0 104.9Q375.3 105.7 375.3 106.8L375.3 106.8L375.3 107.4L369.3 107.4Q369.4 108.1 369.7 108.7L369.7 108.7Q370.0 109.4 370.5 109.7Q371.1 110.0 371.9 110.0L371.9 110.0Q372.3 110.0 372.7 109.9Q373.1 109.7 373.4 109.4Q373.7 109.2 373.9 108.7L373.9 108.7L375.1 109.1Q374.9 109.7 374.5 110.2Q374.0 110.6 373.4 110.9Q372.7 111.2 371.8 111.2ZM369.4 106.2L369.4 106.2L373.9 106.2Q373.9 105.7 373.7 105.2L373.7 105.2Q373.4 104.6 372.9 104.2Q372.4 103.9 371.7 103.9Q371.0 103.9 370.4 104.2Q369.9 104.6 369.6 105.2L369.6 105.2Q369.4 105.7 369.4 106.2ZM380.5 111.2L380.5 111.2Q379.4 111.2 378.5 110.6Q377.7 110.1 377.2 109.2Q376.8 108.2 376.8 107.0L376.8 107.0Q376.8 105.7 377.2 104.7Q377.7 103.8 378.5 103.2Q379.4 102.7 380.5 102.7L380.5 102.7Q381.1 102.7 381.6 102.9Q382.1 103.0 382.6 103.3Q383.0 103.6 383.3 104.0Q383.6 104.4 383.8 105.0L383.8 105.0L382.5 105.3Q382.4 105.0 382.3 104.8Q382.1 104.5 381.8 104.3Q381.6 104.1 381.2 104.0Q380.9 103.9 380.5 103.9L380.5 103.9Q379.7 103.9 379.1 104.3Q378.6 104.7 378.4 105.4Q378.1 106.1 378.1 107.0L378.1 107.0Q378.1 107.8 378.4 108.5Q378.6 109.1 379.1 109.6Q379.7 110.0 380.5 110.0L380.5 110.0Q380.9 110.0 381.2 109.9Q381.6 109.8 381.9 109.6Q382.1 109.4 382.3 109.1Q382.5 108.8 382.6 108.5L382.6 108.5L383.8 108.8Q383.7 109.4 383.4 109.8Q383.0 110.3 382.6 110.6Q382.2 110.9 381.6 111.0Q381.1 111.2 380.5 111.2ZM385.6 114.0L385.6 114.0L385.9 112.8L386.1 112.9Q386.5 113.0 386.8 112.9Q387.1 112.9 387.4 112.6Q387.7 112.3 387.9 111.7L387.9 111.7L388.1 111.0L385.0 102.8L386.4 102.8L388.1 107.7Q388.4 108.4 388.6 109.2L388.6 109.2Q388.7 109.5 388.8 109.8L388.8 109.8Q388.9 109.5 388.9 109.2L388.9 109.2Q389.1 108.4 389.4 107.7L389.4 107.7L391.2 102.8L392.6 102.8L389.0 112.2Q388.8 112.9 388.4 113.3Q388.1 113.7 387.6 113.9Q387.1 114.1 386.6 114.1L386.6 114.1Q386.2 114.1 385.9 114.1Q385.7 114.0 385.6 114.0ZM397.5 111.2L397.5 111.2Q396.4 111.2 395.5 110.6Q394.7 110.1 394.2 109.2Q393.8 108.2 393.8 107.0L393.8 107.0Q393.8 105.7 394.2 104.7Q394.7 103.8 395.5 103.2Q396.4 102.7 397.5 102.7L397.5 102.7Q398.1 102.7 398.6 102.9Q399.1 103.0 399.6 103.3Q400.0 103.6 400.3 104.0Q400.6 104.4 400.8 105.0L400.8 105.0L399.5 105.3Q399.4 105.0 399.3 104.8Q399.1 104.5 398.8 104.3Q398.6 104.1 398.2 104.0Q397.9 103.9 397.5 103.9L397.5 103.9Q396.7 103.9 396.1 104.3Q395.6 104.7 395.4 105.4Q395.1 106.1 395.1 107.0L395.1 107.0Q395.1 107.8 395.4 108.5Q395.6 109.1 396.1 109.6Q396.7 110.0 397.5 110.0L397.5 110.0Q397.9 110.0 398.2 109.9Q398.6 109.8 398.9 109.6Q399.1 109.4 399.3 109.1Q399.5 108.8 399.6 108.5L399.6 108.5L400.8 108.8Q400.7 109.4 400.4 109.8Q400.0 110.3 399.6 110.6Q399.2 110.9 398.6 111.0Q398.1 111.2 397.5 111.2ZM402.7 100.1L404.0 100.1L404.0 111L402.7 111L402.7 100.1ZM407.7 111L406.4 111L406.4 102.8L407.7 102.8L407.7 111ZM407.0 101.5L407.0 101.5Q406.6 101.5 406.4 101.2Q406.1 101.0 406.1 100.6L406.1 100.6Q406.1 100.2 406.4 100.0Q406.6 99.7 407.0 99.7L407.0 99.7Q407.4 99.7 407.7 100.0Q407.9 100.2 407.9 100.6L407.9 100.6Q407.9 101.0 407.7 101.2Q407.4 101.5 407.0 101.5ZM411.3 106.1L411.3 106.1L411.3 111L410.0 111L410.0 102.8L411.3 102.8L411.3 104.3Q411.6 103.6 412.1 103.2L412.1 103.2Q412.8 102.7 413.8 102.7L413.8 102.7Q414.6 102.7 415.2 103.0Q415.8 103.4 416.2 104.1Q416.5 104.8 416.5 105.8L416.5 105.8L416.5 111L415.2 111L415.2 105.9Q415.2 105.0 414.7 104.4Q414.2 103.9 413.4 103.9L413.4 103.9Q412.8 103.9 412.3 104.2Q411.8 104.4 411.6 104.9Q411.3 105.4 411.3 106.1ZM422.2 114.2L422.2 114.2Q421.3 114.2 420.6 114.0Q419.9 113.8 419.5 113.4Q419.1 113.0 418.8 112.6L418.8 112.6L419.9 111.9Q420.0 112.1 420.3 112.4Q420.6 112.7 421.0 112.9Q421.4 113.1 422.2 113.1L422.2 113.1Q423.1 113.1 423.8 112.6Q424.4 112.1 424.4 111.1L424.4 111.1L424.4 109.5L424.3 109.5Q424.2 109.7 423.9 110.1Q423.6 110.4 423.2 110.6Q422.7 110.9 421.9 110.9L421.9 110.9Q420.9 110.9 420.1 110.4Q419.4 109.9 418.9 109.0Q418.5 108.2 418.5 106.9L418.5 106.9Q418.5 105.6 418.9 104.7Q419.3 103.7 420.1 103.2Q420.9 102.7 421.9 102.7L421.9 102.7Q422.7 102.7 423.2 103.0Q423.7 103.2 423.9 103.6Q424.2 103.9 424.3 104.1L424.3 104.1L424.5 104.1L424.5 102.8L425.7 102.8L425.7 111.2Q425.7 112.3 425.3 112.9Q424.8 113.6 424.0 113.9Q423.2 114.2 422.2 114.2ZM422.1 109.7L422.1 109.7Q422.9 109.7 423.4 109.4Q423.9 109.0 424.2 108.4Q424.4 107.7 424.4 106.8L424.4 106.8Q424.4 106.0 424.2 105.3Q423.9 104.6 423.4 104.3Q422.9 103.9 422.1 103.9L422.1 103.9Q421.4 103.9 420.8 104.3Q420.3 104.7 420.1 105.4Q419.8 106.0 419.8 106.8L419.8 106.8Q419.8 107.7 420.1 108.3Q420.3 109.0 420.8 109.3Q421.4 109.7 422.1 109.7Z M435.6 111.2L435.6 111.2Q434.5 111.2 433.6 110.6Q432.8 110.1 432.3 109.2Q431.9 108.2 431.9 107.0L431.9 107.0Q431.9 105.7 432.3 104.7Q432.8 103.8 433.6 103.2Q434.5 102.7 435.6 102.7L435.6 102.7Q436.7 102.7 437.6 103.2Q438.4 103.8 438.9 104.7Q439.3 105.7 439.3 107.0L439.3 107.0Q439.3 108.2 438.9 109.2Q438.4 110.1 437.6 110.6Q436.7 111.2 435.6 111.2ZM435.6 110.0L435.6 110.0Q436.4 110.0 437.0 109.6Q437.5 109.1 437.8 108.5Q438.0 107.8 438.0 107.0L438.0 107.0Q438.0 106.1 437.8 105.4Q437.5 104.7 437.0 104.3Q436.4 103.9 435.6 103.9L435.6 103.9Q434.8 103.9 434.3 104.3Q433.7 104.7 433.5 105.4Q433.2 106.1 433.2 107.0L433.2 107.0Q433.2 107.8 433.5 108.5Q433.7 109.1 434.3 109.6Q434.8 110.0 435.6 110.0ZM445.0 111L443.6 111L440.5 102.8L441.9 102.8L443.7 107.7Q444.0 108.4 444.2 109.2L444.2 109.2Q444.2 109.5 444.3 109.8L444.3 109.8Q444.4 109.5 444.5 109.2L444.5 109.2Q444.7 108.4 445.0 107.7L445.0 107.7L446.7 102.8L448.1 102.8L445.0 111ZM453.1 111.2L453.1 111.2Q451.9 111.2 451.1 110.6Q450.2 110.1 449.8 109.2Q449.3 108.2 449.3 107.0Q449.3 105.7 449.8 104.8Q450.2 103.8 451.0 103.3Q451.9 102.7 453.0 102.7L453.0 102.7Q453.6 102.7 454.3 102.9Q454.9 103.1 455.4 103.6Q455.9 104.1 456.2 104.9Q456.5 105.7 456.5 106.8L456.5 106.8L456.5 107.4L450.6 107.4Q450.7 108.1 450.9 108.7L450.9 108.7Q451.3 109.4 451.8 109.7Q452.4 110.0 453.1 110.0L453.1 110.0Q453.6 110.0 454.0 109.9Q454.4 109.7 454.7 109.4Q455.0 109.2 455.1 108.7L455.1 108.7L456.4 109.1Q456.2 109.7 455.8 110.2Q455.3 110.6 454.6 110.9Q454.0 111.2 453.1 111.2ZM450.6 106.2L450.6 106.2L455.2 106.2Q455.2 105.7 455.0 105.2L455.0 105.2Q454.7 104.6 454.2 104.2Q453.7 103.9 453.0 103.9Q452.2 103.9 451.7 104.2Q451.2 104.6 450.9 105.2L450.9 105.2Q450.7 105.7 450.6 106.2ZM459.8 111L458.4 111L458.4 102.8L459.7 102.8L459.7 104.1L459.8 104.1Q460.0 103.4 460.6 103.1Q461.2 102.7 461.9 102.7L461.9 102.7Q462.1 102.7 462.3 102.7Q462.5 102.7 462.6 102.7L462.6 102.7L462.6 104.0Q462.5 104.0 462.3 104.0Q462.1 104.0 461.8 104.0L461.8 104.0Q461.2 104.0 460.7 104.2Q460.3 104.5 460.0 104.9Q459.8 105.3 459.8 105.9L459.8 105.9L459.8 111ZM465.4 106.1L465.4 106.1L465.4 111L464.1 111L464.1 100.1L465.4 100.1L465.4 104.2Q465.7 103.5 466.2 103.2L466.2 103.2Q466.9 102.7 467.9 102.7L467.9 102.7Q468.7 102.7 469.3 103.0Q469.9 103.4 470.3 104.1Q470.6 104.8 470.6 105.8L470.6 105.8L470.6 111L469.3 111L469.3 105.9Q469.3 105.0 468.8 104.4Q468.3 103.9 467.5 103.9L467.5 103.9Q466.9 103.9 466.4 104.2Q465.9 104.4 465.7 104.9Q465.4 105.4 465.4 106.1ZM475.2 111.2L475.2 111.2Q474.5 111.2 473.8 110.9Q473.2 110.6 472.8 110.0Q472.5 109.5 472.5 108.7L472.5 108.7Q472.5 108.0 472.7 107.5Q473.0 107.1 473.5 106.8Q473.9 106.6 474.5 106.5Q475.1 106.3 475.6 106.3L475.6 106.3Q476.4 106.2 476.8 106.1Q477.3 106.1 477.5 105.9Q477.7 105.8 477.7 105.5L477.7 105.5L477.7 105.5Q477.7 105.0 477.6 104.6Q477.4 104.2 477.0 104.1Q476.6 103.9 476.0 103.9L476.0 103.9Q475.4 103.9 475.0 104.0Q474.6 104.2 474.3 104.5Q474.1 104.8 474.0 105.1L474.0 105.1L472.7 104.6Q473.0 103.9 473.5 103.5Q474.1 103.1 474.7 102.9Q475.4 102.7 476.0 102.7L476.0 102.7Q476.4 102.7 476.9 102.8Q477.5 102.9 477.9 103.2Q478.4 103.5 478.7 104.1Q479.1 104.6 479.1 105.6L479.1 105.6L479.1 111L477.8 111L477.8 109.9L477.7 109.9Q477.5 110.2 477.2 110.5Q476.9 110.8 476.4 111.0Q475.9 111.2 475.2 111.2ZM475.5 110.0L475.5 110.0Q476.2 110.0 476.7 109.7Q477.2 109.5 477.5 109.0Q477.7 108.5 477.7 108.0L477.7 108.0L477.7 106.9Q477.7 107.0 477.4 107.1Q477.1 107.2 476.8 107.2Q476.4 107.3 476.1 107.3Q475.8 107.4 475.6 107.4L475.6 107.4Q475.1 107.4 474.7 107.6Q474.3 107.7 474.0 108.0Q473.8 108.3 473.8 108.7L473.8 108.7Q473.8 109.2 474.0 109.4Q474.2 109.7 474.6 109.9Q475.0 110.0 475.5 110.0ZM484.2 111.1L484.2 111.1Q483.3 111.1 482.7 110.8Q482.1 110.4 481.7 109.7Q481.4 109.0 481.4 108.0L481.4 108.0L481.4 102.8L482.7 102.8L482.7 107.9Q482.7 108.8 483.2 109.4Q483.7 109.9 484.5 109.9L484.5 109.9Q485.1 109.9 485.6 109.7Q486.1 109.4 486.3 108.9Q486.6 108.4 486.6 107.7L486.6 107.7L486.6 102.8L487.9 102.8L487.9 111L486.7 111L486.7 109.5Q486.3 110.3 485.8 110.6L485.8 110.6Q485.1 111.1 484.2 111.1ZM490.2 100.1L491.6 100.1L491.6 111L490.2 111L490.2 100.1ZM494.9 111.1L494.9 111.1Q494.5 111.1 494.2 110.8Q493.9 110.5 493.9 110.1L493.9 110.1Q493.9 109.7 494.2 109.4Q494.5 109.1 494.9 109.1L494.9 109.1Q495.3 109.1 495.6 109.4Q495.9 109.7 495.9 110.1L495.9 110.1Q495.9 110.5 495.6 110.8Q495.3 111.1 494.9 111.1Z "/></g></svg>