<!-- Generated by readme-aura https://github.com/collectioneur/readme-aura -->
<svg width="800" height="210" viewBox="0 0 800 210" xmlns="http://www.w3.org/2000/svg"><clipPath id="satori_cp-id"><path x="0" y="0" width="800" height="210" d="M16,0 h768 a16,16 0 0 1 16,16 v178 a16,16 0 0 1 -16,16 h-768 a16,16 0 0 1 -16,-16 v-178 a16,16 0 0 1 16,-16"/></clipPath><mask id="satori_om-id"><rect x="0" y="0" width="800" height="210" fill="#fff"/></mask><path x="0" y="0" width="800" height="210" fill="#0e0e10" d="M16,0 h768 a16,16 0 0 1 16,16 v178 a16,16 0 0 1 -16,16 h-768 a16,16 0 0 1 -16,-16 v-178 a16,16 0 0 1 16,-16"/><clipPath id="satori_cp-id-0" clip-path="url(#satori_cp-id)"><rect x="0" y="0" width="800" height="210"/></clipPath><mask id="satori_om-id-0"><rect x="0" y="0" width="800" height="210" fill="#fff" mask="url(#satori_om-id)"/></mask><svg x="0" y="0" width="800" height="210" preserveAspectRatio="none" clip-path="url(#satori_cp-id-0)" mask="url(#satori_om-id-0)"><defs><radialGradient id="sg1" cx="50%" cy="50%" r="50%"><stop offset="0%" stop-color="rgba(217,105,83,0.28)"></stop><stop offset="100%" stop-color="rgba(217,105,83,0)"></stop></radialGradient><radialGradient id="sg2" cx="50%" cy="50%" r="50%"><stop offset="0%" stop-color="rgba(77,138,138,0.28)"></stop><stop offset="100%" stop-color="rgba(77,138,138,0)"></stop></radialGradient></defs><ellipse id="s-o1" cx="120" cy="50" rx="170" ry="130" fill="url(#sg1)"></ellipse><ellipse id="s-o2" cx="700" cy="180" rx="170" ry="130" fill="url(#sg2)"></ellipse><style>

@keyframes stack-orb { 0%, 100% { transform: translate(0,0); opacity: 0.4; } 50% { transform: translate(20px,-14px); opacity: 0.65; } }
#s-o1 { animation: stack-orb 11s ease-in-out infinite; }
#s-o2 { animation: stack-orb 9s ease-in-out infinite 1.5s; }

</style>
</svg><mask id="satori_om-id-0-0"><rect x="0" y="0" width="0" height="210" fill="#fff" mask="url(#satori_om-id)"/></mask><mask id="satori_om-id-0-0-0"><rect x="0" y="0" width="0" height="210" fill="#fff" mask="url(#satori_om-id)"/></mask><mask id="satori_om-id-0-0-0-0"><rect x="0" y="0" width="0" height="210" fill="#fff" mask="url(#satori_om-id)"/></mask><mask id="satori_om-id-0-0-0-1"><rect x="0" y="0" width="0" height="210" fill="#fff" mask="url(#satori_om-id)"/></mask><mask id="satori_om-id-0-0-1"><rect x="0" y="0" width="0" height="210" fill="#fff" mask="url(#satori_om-id)"/></mask><mask id="satori_om-id-0-0-1-0"><rect x="0" y="0" width="0" height="210" fill="#fff" mask="url(#satori_om-id)"/></mask><mask id="satori_om-id-0-0-1-1"><rect x="0" y="0" width="0" height="210" fill="#fff" mask="url(#satori_om-id)"/></mask><mask id="satori_om-id-0-1"><rect x="0" y="0" width="0" height="210" fill="#fff" mask="url(#satori_om-id)"/></mask><mask id="satori_om-id-0-2"><rect x="0" y="0" width="0" height="210" fill="#fff" mask="url(#satori_om-id)"/></mask><mask id="satori_om-id-1"><rect x="56" y="56" width="58" height="13" fill="#fff" mask="url(#satori_om-id)"/></mask><g mask="url(#satori_om-id)" clip-path="url(#satori_cp-id)"><path fill="rgba(255,255,255,0.35)" d="M59.5 67.1L59.5 67.1Q58.7 67.1 58.0 66.9Q57.4 66.6 57.0 66.1Q56.7 65.6 56.6 64.9L56.6 64.9L57.7 64.9Q57.7 65.4 58.0 65.6Q58.2 65.9 58.7 66.1Q59.1 66.2 59.5 66.2L59.5 66.2Q60.1 66.2 60.5 66.0Q60.9 65.9 61.2 65.5Q61.4 65.2 61.4 64.8L61.4 64.8Q61.4 64.4 61.2 64.2Q61.0 63.9 60.6 63.8Q60.3 63.6 59.9 63.5L59.9 63.5L58.9 63.2Q57.9 63.0 57.4 62.4Q56.8 61.9 56.8 61.1L56.8 61.1Q56.8 60.5 57.2 60.0Q57.6 59.4 58.2 59.2Q58.8 58.9 59.6 58.9L59.6 58.9Q60.4 58.9 61.0 59.2Q61.6 59.4 62.0 59.9Q62.3 60.4 62.3 61.0L62.3 61.0L61.3 61.0Q61.3 60.4 60.8 60.1Q60.3 59.8 59.6 59.8L59.6 59.8Q59.1 59.8 58.7 60.0Q58.3 60.1 58.1 60.4Q57.8 60.7 57.8 61.1L57.8 61.1Q57.8 61.5 58.1 61.8Q58.4 62.0 58.7 62.2Q59.1 62.3 59.4 62.4L59.4 62.4L60.2 62.6Q60.5 62.7 60.9 62.8Q61.3 63.0 61.6 63.2Q62.0 63.5 62.2 63.9Q62.4 64.3 62.4 64.8L62.4 64.8Q62.4 65.5 62.1 66.0Q61.8 66.5 61.1 66.8Q60.5 67.1 59.5 67.1ZM70.1 59.9L67.6 59.9L67.6 59.0L73.6 59.0L73.6 59.9L71.1 59.9L71.1 67L70.1 67L70.1 59.9ZM79.5 67L78.4 67L81.3 59.0L82.5 59.0L85.5 67L84.4 67L83.6 64.8L80.3 64.8L79.5 67ZM80.6 63.9L83.3 63.9L82.7 62.3Q82.5 61.8 82.3 61.2L82.3 61.2Q82.2 60.6 81.9 59.8L81.9 59.8Q81.7 60.6 81.5 61.2L81.5 61.2Q81.3 61.8 81.2 62.3L81.2 62.3L80.6 63.9ZM94.0 67.1L94.0 67.1Q92.9 67.1 92.1 66.6Q91.3 66.1 90.9 65.2Q90.4 64.3 90.4 63.0L90.4 63.0Q90.4 61.7 90.9 60.8Q91.3 59.9 92.1 59.4Q92.9 58.9 94.0 58.9L94.0 58.9Q94.6 58.9 95.1 59.1Q95.6 59.2 96.1 59.6Q96.5 59.9 96.8 60.4Q97.1 60.9 97.2 61.5L97.2 61.5L96.2 61.5Q96.1 61.1 95.9 60.8Q95.7 60.5 95.4 60.3Q95.1 60.0 94.7 59.9Q94.3 59.8 94.0 59.8L94.0 59.8Q93.2 59.8 92.7 60.2Q92.1 60.6 91.7 61.3Q91.4 62.0 91.4 63.0L91.4 63.0Q91.4 64.0 91.7 64.7Q92.1 65.4 92.7 65.8Q93.2 66.2 94.0 66.2L94.0 66.2Q94.3 66.2 94.7 66.1Q95.1 65.9 95.4 65.7Q95.7 65.5 95.9 65.2Q96.1 64.9 96.2 64.5L96.2 64.5L97.2 64.5Q97.1 65.1 96.8 65.6Q96.5 66.1 96.1 66.4Q95.6 66.7 95.1 66.9Q94.6 67.1 94.0 67.1ZM103.8 67L102.7 67L102.7 59.0L103.8 59.0L103.8 61.7L103.8 63.2Q103.9 63.1 104.0 62.9L104.0 62.9Q104.3 62.6 104.5 62.2Q104.8 61.9 105.1 61.6L105.1 61.6L107.5 59.0L108.9 59.0L105.6 62.5L108.9 67L107.7 67L104.9 63.2L103.8 64.4L103.8 67Z "/></g><mask id="satori_om-id-2"><rect x="56" y="87" width="688" height="68" fill="#fff" mask="url(#satori_om-id)"/></mask><defs><clipPath id="satori_bc-id-2-0" clip-path="url(#satori_cp-id)"><path x="56" y="87" width="114" height="30" d="M71,87 h84 a15,15 0 0 1 15,15 v0 a15,15 0 0 1 -15,15 h-84 a15,15 0 0 1 -15,-15 v0 a15,15 0 0 1 15,-15"/></clipPath></defs><mask id="satori_om-id-2-0"><rect x="57" y="88" width="112" height="28" fill="#fff" mask="url(#satori_om-id)"/><path width="114" height="30" fill="none" stroke="#000" stroke-width="2" d="M60.393,91.393 A15,15 0 0 1 71,87 h84 a15,15 0 0 1 15,15 v0 a15,15 0 0 1 -15,15 h-84 a15,15 0 0 1 -15,-15 v0 A15,15 0 0 1 60.393,91.393"/></mask><path x="56" y="87" width="114" height="30" fill="rgba(255,255,255,0.04)" d="M71,87 h84 a15,15 0 0 1 15,15 v0 a15,15 0 0 1 -15,15 h-84 a15,15 0 0 1 -15,-15 v0 a15,15 0 0 1 15,-15" clip-path="url(#satori_cp-id)" mask="url(#satori_om-id)"/><path width="114" height="30" clip-path="url(#satori_bc-id-2-0)" fill="none" stroke="rgba(255,255,255,0.09)" stroke-width="2" d="M60.393,91.393 A15,15 0 0 1 71,87 h84 a15,15 0 0 1 15,15 v0 a15,15 0 0 1 -15,15 h-84 a15,15 0 0 1 -15,-15 v0 A15,15 0 0 1 60.393,91.393"/><g mask="url(#satori_om-id)" clip-path="url(#satori_cp-id)"><path fill="rgba(255,255,255,0.74)" d="M75.1 107L74.0 107L74.0 99.9L75.1 99.9L75.1 101.0L75.2 101.0Q75.4 100.5 75.9 100.1Q76.4 99.8 77.0 99.8L77.0 99.8Q77.2 99.8 77.3 99.8Q77.5 99.8 77.6 99.8L77.6 99.8L77.6 101.0Q77.6 101.0 77.3 100.9Q77.1 100.9 76.9 100.9L76.9 100.9Q76.4 100.9 76.0 101.1Q75.6 101.3 75.4 101.7Q75.1 102.1 75.1 102.6L75.1 102.6L75.1 107ZM81.6 107.1L81.6 107.1Q80.9 107.1 80.3 106.8Q79.8 106.5 79.5 105.9Q79.2 105.3 79.2 104.4L79.2 104.4L79.2 99.9L80.3 99.9L80.3 104.3Q80.3 105.1 80.8 105.6Q81.2 106.1 81.9 106.1L81.9 106.1Q82.5 106.1 82.9 105.8Q83.3 105.6 83.5 105.2Q83.7 104.8 83.7 104.2L83.7 104.2L83.7 99.9L84.9 99.9L84.9 107L83.8 107L83.8 105.7Q83.5 106.4 83.0 106.7L83.0 106.7Q82.4 107.1 81.6 107.1ZM90.5 107.2L90.5 107.2Q89.8 107.2 89.4 106.9Q89.0 106.7 88.8 106.4Q88.5 106.1 88.4 105.9L88.4 105.9L88.3 105.9L88.3 107L87.2 107L87.2 97.5L88.3 97.5L88.3 101.0L88.4 101.0Q88.5 100.8 88.8 100.6Q89.0 100.3 89.4 100.0Q89.8 99.8 90.5 99.8L90.5 99.8Q91.4 99.8 92.0 100.3Q92.7 100.7 93.1 101.5Q93.5 102.3 93.5 103.5L93.5 103.5Q93.5 104.6 93.1 105.4Q92.7 106.3 92.0 106.7Q91.4 107.2 90.5 107.2ZM90.3 106.1L90.3 106.1Q91.0 106.1 91.4 105.8Q91.9 105.4 92.1 104.8Q92.3 104.2 92.3 103.5L92.3 103.5Q92.3 102.7 92.1 102.1Q91.9 101.5 91.4 101.2Q91.0 100.8 90.3 100.8L90.3 100.8Q89.7 100.8 89.2 101.2Q88.8 101.5 88.5 102.1Q88.3 102.7 88.3 103.5L88.3 103.5Q88.3 104.2 88.5 104.8Q88.8 105.5 89.2 105.8Q89.7 106.1 90.3 106.1ZM95.3 109.6L95.3 109.6L95.6 108.6L95.7 108.6Q96.1 108.7 96.4 108.7Q96.7 108.6 96.9 108.4Q97.1 108.1 97.3 107.6L97.3 107.6L97.5 107.0L94.8 99.9L96.0 99.9L97.5 104.1Q97.8 104.8 98.0 105.4L98.0 105.4Q98.0 105.7 98.1 106.0L98.1 106.0Q98.2 105.7 98.2 105.4L98.2 105.4Q98.4 104.8 98.6 104.1L98.6 104.1L100.2 99.9L101.4 99.9L98.3 108.1Q98.1 108.6 97.8 109.0Q97.5 109.4 97.1 109.5Q96.7 109.7 96.2 109.7L96.2 109.7Q95.9 109.7 95.6 109.7Q95.4 109.6 95.3 109.6Z M109.9 107.2L109.9 107.2Q108.9 107.2 108.2 106.7Q107.5 106.2 107.1 105.4Q106.7 104.6 106.7 103.5L106.7 103.5Q106.7 102.4 107.1 101.6Q107.5 100.7 108.2 100.3Q108.9 99.8 109.9 99.8L109.9 99.8Q110.9 99.8 111.6 100.3Q112.3 100.7 112.7 101.6Q113.1 102.4 113.1 103.5L113.1 103.5Q113.1 104.6 112.7 105.4Q112.3 106.2 111.6 106.7Q110.9 107.2 109.9 107.2ZM109.9 106.1L109.9 106.1Q110.6 106.1 111.1 105.8Q111.5 105.4 111.8 104.8Q112.0 104.2 112.0 103.5L112.0 103.5Q112.0 102.8 111.8 102.2Q111.5 101.6 111.1 101.2Q110.6 100.8 109.9 100.8L109.9 100.8Q109.2 100.8 108.7 101.2Q108.3 101.6 108.0 102.2Q107.8 102.8 107.8 103.5L107.8 103.5Q107.8 104.2 108.0 104.8Q108.3 105.4 108.7 105.8Q109.2 106.1 109.9 106.1ZM116.2 102.7L116.2 102.7L116.2 107L115.1 107L115.1 99.9L116.2 99.9L116.2 101.2Q116.5 100.6 117.0 100.2L117.0 100.2Q117.6 99.8 118.4 99.8L118.4 99.8Q119.1 99.8 119.6 100.1Q120.2 100.4 120.5 101.0Q120.8 101.6 120.8 102.5L120.8 102.5L120.8 107L119.6 107L119.6 102.6Q119.6 101.8 119.2 101.3Q118.8 100.8 118.0 100.8L118.0 100.8Q117.5 100.8 117.1 101.1Q116.7 101.3 116.5 101.7Q116.2 102.1 116.2 102.7Z M128.2 107L127.0 107L127.0 99.9L128.1 99.9L128.1 101.0L128.2 101.0Q128.4 100.5 128.9 100.1Q129.4 99.8 130.1 99.8L130.1 99.8Q130.2 99.8 130.4 99.8Q130.5 99.8 130.6 99.8L130.6 99.8L130.6 101.0Q130.6 101.0 130.4 100.9Q130.2 100.9 130.0 100.9L130.0 100.9Q129.4 100.9 129.0 101.1Q128.6 101.3 128.4 101.7Q128.2 102.1 128.2 102.6L128.2 102.6L128.2 107ZM134.2 107.2L134.2 107.2Q133.5 107.2 133.0 106.9Q132.4 106.7 132.1 106.2Q131.8 105.7 131.8 105.0L131.8 105.0Q131.8 104.4 132.0 104.0Q132.3 103.6 132.7 103.4Q133.1 103.2 133.6 103.1Q134.1 103.0 134.6 102.9L134.6 102.9Q135.2 102.8 135.6 102.8Q136.0 102.7 136.2 102.6Q136.4 102.5 136.4 102.2L136.4 102.2L136.4 102.2Q136.4 101.8 136.2 101.5Q136.1 101.1 135.7 101.0Q135.4 100.8 134.9 100.8L134.9 100.8Q134.4 100.8 134.0 101.0Q133.7 101.1 133.4 101.4Q133.2 101.6 133.1 101.9L133.1 101.9L132.0 101.5Q132.3 100.8 132.7 100.5Q133.2 100.1 133.8 100.0Q134.3 99.8 134.9 99.8L134.9 99.8Q135.2 99.8 135.7 99.9Q136.1 100.0 136.6 100.2Q137.0 100.5 137.3 101.0Q137.5 101.5 137.5 102.3L137.5 102.3L137.5 107L136.4 107L136.4 106.0L136.3 106.0Q136.2 106.3 135.9 106.5Q135.7 106.8 135.2 107.0Q134.8 107.2 134.2 107.2ZM134.4 106.2L134.4 106.2Q135.1 106.2 135.5 105.9Q135.9 105.7 136.2 105.3Q136.4 104.9 136.4 104.4L136.4 104.4L136.4 103.5Q136.3 103.5 136.1 103.6Q135.8 103.7 135.5 103.7Q135.2 103.8 135.0 103.8Q134.7 103.8 134.5 103.9L134.5 103.9Q134.1 103.9 133.7 104.0Q133.4 104.2 133.2 104.4Q132.9 104.6 132.9 105.0L132.9 105.0Q132.9 105.4 133.1 105.7Q133.3 105.9 133.7 106.0Q134.0 106.2 134.4 106.2ZM141.0 107L139.8 107L139.8 99.9L141.0 99.9L141.0 107ZM140.4 98.7L140.4 98.7Q140.1 98.7 139.9 98.5Q139.6 98.3 139.6 98.0L139.6 98.0Q139.6 97.7 139.9 97.4Q140.1 97.2 140.4 97.2L140.4 97.2Q140.7 97.2 141.0 97.4Q141.2 97.7 141.2 98.0L141.2 98.0Q141.2 98.3 141.0 98.5Q140.7 98.7 140.4 98.7ZM143.3 97.5L144.4 97.5L144.4 107L143.3 107L143.3 97.5ZM149.1 107.2L149.1 107.2Q148.4 107.2 147.8 106.9Q147.3 106.7 146.9 106.3Q146.5 105.9 146.4 105.3L146.4 105.3L147.5 105.0Q147.6 105.6 148.1 105.9Q148.5 106.1 149.1 106.1L149.1 106.1Q149.9 106.1 150.3 105.8Q150.8 105.5 150.8 105.1L150.8 105.1Q150.8 104.7 150.5 104.5Q150.2 104.2 149.7 104.1L149.7 104.1L148.5 103.8Q147.6 103.6 147.1 103.1Q146.6 102.6 146.6 101.9L146.6 101.9Q146.6 101.3 147.0 100.8Q147.3 100.3 147.9 100.1Q148.5 99.8 149.3 99.8L149.3 99.8Q150.0 99.8 150.5 100.0Q151.0 100.3 151.3 100.6Q151.6 101.0 151.8 101.5L151.8 101.5L150.8 101.8Q150.6 101.4 150.3 101.1Q149.9 100.8 149.3 100.8L149.3 100.8Q148.6 100.8 148.2 101.1Q147.8 101.4 147.8 101.8L147.8 101.8Q147.8 102.2 148.1 102.4Q148.4 102.7 149.0 102.8L149.0 102.8L150.0 103.1Q151.0 103.3 151.5 103.8Q151.9 104.3 151.9 105.0L151.9 105.0Q151.9 105.6 151.6 106.1Q151.2 106.6 150.6 106.9Q150.0 107.2 149.1 107.2Z "/></g><defs><clipPath id="satori_bc-id-2-1" clip-path="url(#satori_cp-id)"><path x="178" y="87" width="103" height="30" d="M193,87 h73 a15,15 0 0 1 15,15 v0 a15,15 0 0 1 -15,15 h-73 a15,15 0 0 1 -15,-15 v0 a15,15 0 0 1 15,-15"/></clipPath></defs><mask id="satori_om-id-2-1"><rect x="179" y="88" width="101" height="28" fill="#fff" mask="url(#satori_om-id)"/><path width="103" height="30" fill="none" stroke="#000" stroke-width="2" d="M182.393,91.393 A15,15 0 0 1 193,87 h73 a15,15 0 0 1 15,15 v0 a15,15 0 0 1 -15,15 h-73 a15,15 0 0 1 -15,-15 v0 A15,15 0 0 1 182.393,91.393"/></mask><path x="178" y="87" width="103" height="30" fill="rgba(255,255,255,0.04)" d="M193,87 h73 a15,15 0 0 1 15,15 v0 a15,15 0 0 1 -15,15 h-73 a15,15 0 0 1 -15,-15 v0 a15,15 0 0 1 15,-15" clip-path="url(#satori_cp-id)" mask="url(#satori_om-id)"/><path width="103" height="30" clip-path="url(#satori_bc-id-2-1)" fill="none" stroke="rgba(255,255,255,0.09)" stroke-width="2" d="M182.393,91.393 A15,15 0 0 1 193,87 h73 a15,15 0 0 1 15,15 v0 a15,15 0 0 1 -15,15 h-73 a15,15 0 0 1 -15,-15 v0 A15,15 0 0 1 182.393,91.393"/><g mask="url(#satori_om-id)" clip-path="url(#satori_cp-id)"><path fill="rgba(255,255,255,0.74)" d="M197.1 109.7L196.0 109.7L196.0 99.9L197.1 99.9L197.1 101.0L197.2 101.0Q197.4 100.8 197.6 100.6Q197.8 100.3 198.2 100.0Q198.6 99.8 199.3 99.8L199.3 99.8Q200.2 99.8 200.9 100.3Q201.5 100.7 201.9 101.5Q202.3 102.3 202.3 103.5L202.3 103.5Q202.3 104.6 201.9 105.4Q201.5 106.3 200.9 106.7Q200.2 107.2 199.3 107.2L199.3 107.2Q198.6 107.2 198.2 106.9Q197.8 106.7 197.6 106.4Q197.4 106.1 197.2 105.9L197.2 105.9L197.1 105.9L197.1 109.7ZM199.1 106.1L199.1 106.1Q199.8 106.1 200.2 105.8Q200.7 105.4 200.9 104.8Q201.1 104.2 201.1 103.5L201.1 103.5Q201.1 102.7 200.9 102.1Q200.7 101.5 200.2 101.2Q199.8 100.8 199.1 100.8L199.1 100.8Q198.5 100.8 198.0 101.2Q197.6 101.5 197.4 102.1Q197.1 102.7 197.1 103.5L197.1 103.5Q197.1 104.2 197.4 104.8Q197.6 105.5 198.0 105.8Q198.5 106.1 199.1 106.1ZM207.2 107.2L207.2 107.2Q206.2 107.2 205.5 106.7Q204.7 106.2 204.3 105.4Q203.9 104.6 203.9 103.5L203.9 103.5Q203.9 102.4 204.3 101.6Q204.7 100.7 205.5 100.3Q206.2 99.8 207.2 99.8L207.2 99.8Q208.1 99.8 208.9 100.3Q209.6 100.7 210.0 101.6Q210.4 102.4 210.4 103.5L210.4 103.5Q210.4 104.6 210.0 105.4Q209.6 106.2 208.9 106.7Q208.1 107.2 207.2 107.2ZM207.2 106.1L207.2 106.1Q207.9 106.1 208.3 105.8Q208.8 105.4 209.0 104.8Q209.2 104.2 209.2 103.5L209.2 103.5Q209.2 102.8 209.0 102.2Q208.8 101.6 208.3 101.2Q207.9 100.8 207.2 100.8L207.2 100.8Q206.4 100.8 206.0 101.2Q205.5 101.6 205.3 102.2Q205.1 102.8 205.1 103.5L205.1 103.5Q205.1 104.2 205.3 104.8Q205.5 105.4 206.0 105.8Q206.4 106.1 207.2 106.1ZM214.8 107.2L214.8 107.2Q214.0 107.2 213.5 106.9Q212.9 106.7 212.5 106.3Q212.2 105.9 212.0 105.3L212.0 105.3L213.1 105.0Q213.3 105.6 213.7 105.9Q214.1 106.1 214.8 106.1L214.8 106.1Q215.5 106.1 215.9 105.8Q216.4 105.5 216.4 105.1L216.4 105.1Q216.4 104.7 216.1 104.5Q215.9 104.2 215.3 104.1L215.3 104.1L214.2 103.8Q213.2 103.6 212.7 103.1Q212.3 102.6 212.3 101.9L212.3 101.9Q212.3 101.3 212.6 100.8Q212.9 100.3 213.5 100.1Q214.1 99.8 214.9 99.8L214.9 99.8Q215.6 99.8 216.1 100.0Q216.6 100.3 217.0 100.6Q217.3 101.0 217.4 101.5L217.4 101.5L216.4 101.8Q216.3 101.4 215.9 101.1Q215.6 100.8 214.9 100.8L214.9 100.8Q214.3 100.8 213.8 101.1Q213.4 101.4 213.4 101.8L213.4 101.8Q213.4 102.2 213.7 102.4Q214.0 102.7 214.6 102.8L214.6 102.8L215.7 103.1Q216.6 103.3 217.1 103.8Q217.6 104.3 217.6 105.0L217.6 105.0Q217.6 105.6 217.2 106.1Q216.9 106.6 216.2 106.9Q215.6 107.2 214.8 107.2ZM220.9 99.9L222.3 99.9L222.3 100.9L220.9 100.9L220.9 105.2Q220.9 105.6 221.0 105.9Q221.2 106.1 221.7 106.1L221.7 106.1Q221.8 106.1 222.0 106.0Q222.1 106.0 222.3 106.0L222.3 106.0L222.5 107.0Q222.3 107.0 222.1 107.1Q221.9 107.1 221.7 107.1L221.7 107.1Q220.7 107.1 220.2 106.6Q219.7 106.1 219.7 105.2L219.7 105.2L219.7 100.9L218.6 100.9L218.6 99.9L219.7 99.9L219.7 98.2L220.9 98.2L220.9 99.9ZM226.9 109.8L226.9 109.8Q226.2 109.8 225.6 109.6Q225.0 109.4 224.6 109.1Q224.3 108.7 224.0 108.4L224.0 108.4L225.0 107.8Q225.1 108.0 225.3 108.2Q225.6 108.5 225.9 108.6Q226.3 108.8 226.9 108.8L226.9 108.8Q227.8 108.8 228.3 108.4Q228.9 108.0 228.9 107.1L228.9 107.1L228.9 105.7L228.8 105.7Q228.7 105.9 228.4 106.2Q228.2 106.5 227.8 106.7Q227.4 106.9 226.7 106.9L226.7 106.9Q225.9 106.9 225.2 106.5Q224.5 106.1 224.1 105.3Q223.7 104.5 223.7 103.4L223.7 103.4Q223.7 102.3 224.1 101.5Q224.5 100.7 225.2 100.3Q225.9 99.8 226.8 99.8L226.8 99.8Q227.4 99.8 227.8 100.0Q228.3 100.3 228.5 100.6Q228.7 100.8 228.8 101.0L228.8 101.0L228.9 101.0L228.9 99.9L230.0 99.9L230.0 107.2Q230.0 108.1 229.6 108.7Q229.2 109.3 228.5 109.5Q227.8 109.8 226.9 109.8ZM226.9 105.9L226.9 105.9Q227.6 105.9 228.0 105.6Q228.5 105.3 228.7 104.7Q228.9 104.2 228.9 103.4L228.9 103.4Q228.9 102.6 228.7 102.1Q228.5 101.5 228.0 101.2Q227.6 100.8 226.9 100.8L226.9 100.8Q226.2 100.8 225.8 101.2Q225.3 101.5 225.1 102.1Q224.9 102.7 224.9 103.4L224.9 103.4Q224.9 104.1 225.1 104.7Q225.3 105.2 225.8 105.6Q226.2 105.9 226.9 105.9ZM233.5 107L232.3 107L232.3 99.9L233.4 99.9L233.4 101.0L233.5 101.0Q233.7 100.5 234.2 100.1Q234.7 99.8 235.4 99.8L235.4 99.8Q235.5 99.8 235.7 99.8Q235.8 99.8 235.9 99.8L235.9 99.8L235.9 101.0Q235.9 101.0 235.7 100.9Q235.5 100.9 235.3 100.9L235.3 100.9Q234.8 100.9 234.3 101.1Q233.9 101.3 233.7 101.7Q233.5 102.1 233.5 102.6L233.5 102.6L233.5 107ZM240.5 107.2L240.5 107.2Q239.5 107.2 238.7 106.7Q238.0 106.2 237.6 105.4Q237.2 104.6 237.2 103.5Q237.2 102.4 237.6 101.6Q238.0 100.8 238.7 100.3Q239.4 99.8 240.4 99.8L240.4 99.8Q241.0 99.8 241.5 100.0Q242.1 100.2 242.5 100.6Q242.9 101.0 243.2 101.7Q243.5 102.4 243.5 103.4L243.5 103.4L243.5 103.8L238.4 103.8Q238.4 104.5 238.6 105.0L238.6 105.0Q238.9 105.6 239.4 105.9Q239.9 106.1 240.5 106.1L240.5 106.1Q240.9 106.1 241.3 106.0Q241.6 105.9 241.9 105.7Q242.1 105.4 242.3 105.0L242.3 105.0L243.4 105.3Q243.2 105.9 242.8 106.3Q242.4 106.7 241.8 106.9Q241.3 107.2 240.5 107.2ZM238.4 102.9L238.4 102.9L242.3 102.9Q242.3 102.4 242.1 102.0L242.1 102.0Q241.9 101.4 241.5 101.1Q241.0 100.8 240.4 100.8Q239.7 100.8 239.3 101.1Q238.8 101.5 238.6 102.0L238.6 102.0Q238.4 102.4 238.4 102.9ZM247.8 107.2L247.8 107.2Q247.1 107.2 246.5 106.9Q246.0 106.7 245.6 106.3Q245.2 105.9 245.1 105.3L245.1 105.3L246.2 105.0Q246.3 105.6 246.8 105.9Q247.2 106.1 247.8 106.1L247.8 106.1Q248.6 106.1 249.0 105.8Q249.4 105.5 249.4 105.1L249.4 105.1Q249.4 104.7 249.2 104.5Q248.9 104.2 248.4 104.1L248.4 104.1L247.2 103.8Q246.3 103.6 245.8 103.1Q245.3 102.6 245.3 101.9L245.3 101.9Q245.3 101.3 245.7 100.8Q246.0 100.3 246.6 100.1Q247.2 99.8 247.9 99.8L247.9 99.8Q248.7 99.8 249.2 100.0Q249.7 100.3 250.0 100.6Q250.3 101.0 250.5 101.5L250.5 101.5L249.5 101.8Q249.3 101.4 249.0 101.1Q248.6 100.8 248.0 100.8L248.0 100.8Q247.3 100.8 246.9 101.1Q246.5 101.4 246.5 101.8L246.5 101.8Q246.5 102.2 246.8 102.4Q247.0 102.7 247.7 102.8L247.7 102.8L248.7 103.1Q249.7 103.3 250.2 103.8Q250.6 104.3 250.6 105.0L250.6 105.0Q250.6 105.6 250.3 106.1Q249.9 106.6 249.3 106.9Q248.7 107.2 247.8 107.2ZM258.5 99.9L258.5 109.7L257.4 109.7L257.4 105.9L257.3 105.9Q257.2 106.1 257.0 106.4Q256.7 106.7 256.3 106.9Q255.9 107.2 255.2 107.2L255.2 107.2Q254.4 107.2 253.7 106.7Q253.0 106.3 252.6 105.4Q252.2 104.6 252.2 103.5L252.2 103.5Q252.2 102.3 252.6 101.5Q253.0 100.7 253.7 100.3Q254.4 99.8 255.2 99.8L255.2 99.8Q255.9 99.8 256.3 100.0Q256.8 100.3 257.0 100.6Q257.2 100.8 257.3 101.0L257.3 101.0L257.4 101.0L257.4 99.9L258.5 99.9ZM255.4 106.1L255.4 106.1Q256.1 106.1 256.5 105.8Q256.9 105.5 257.2 104.8Q257.4 104.2 257.4 103.5L257.4 103.5Q257.4 102.7 257.2 102.1Q257.0 101.5 256.5 101.2Q256.1 100.8 255.4 100.8L255.4 100.8Q254.7 100.8 254.3 101.2Q253.8 101.5 253.6 102.1Q253.4 102.7 253.4 103.5L253.4 103.5Q253.4 104.2 253.6 104.8Q253.8 105.4 254.3 105.8Q254.8 106.1 255.4 106.1ZM260.8 97.5L262.0 97.5L262.0 107L260.8 107L260.8 97.5Z "/></g><defs><clipPath id="satori_bc-id-2-2" clip-path="url(#satori_cp-id)"><path x="289" y="87" width="107" height="30" d="M304,87 h77 a15,15 0 0 1 15,15 v0 a15,15 0 0 1 -15,15 h-77 a15,15 0 0 1 -15,-15 v0 a15,15 0 0 1 15,-15"/></clipPath></defs><mask id="satori_om-id-2-2"><rect x="290" y="88" width="105" height="28" fill="#fff" mask="url(#satori_om-id)"/><path width="107" height="30" fill="none" stroke="#000" stroke-width="2" d="M293.39300000000003,91.393 A15,15 0 0 1 304,87 h77 a15,15 0 0 1 15,15 v0 a15,15 0 0 1 -15,15 h-77 a15,15 0 0 1 -15,-15 v0 A15,15 0 0 1 293.39300000000003,91.393"/></mask><path x="289" y="87" width="107" height="30" fill="rgba(255,255,255,0.04)" d="M304,87 h77 a15,15 0 0 1 15,15 v0 a15,15 0 0 1 -15,15 h-77 a15,15 0 0 1 -15,-15 v0 a15,15 0 0 1 15,-15" clip-path="url(#satori_cp-id)" mask="url(#satori_om-id)"/><path width="107" height="30" clip-path="url(#satori_bc-id-2-2)" fill="none" stroke="rgba(255,255,255,0.09)" stroke-width="2" d="M293.39300000000003,91.393 A15,15 0 0 1 304,87 h77 a15,15 0 0 1 15,15 v0 a15,15 0 0 1 -15,15 h-77 a15,15 0 0 1 -15,-15 v0 A15,15 0 0 1 293.39300000000003,91.393"/><g mask="url(#satori_om-id)" clip-path="url(#satori_cp-id)"><path fill="rgba(255,255,255,0.74)" d="M308.1 107L307.0 107L307.0 97.5L308.1 97.5L308.1 103.0L308.3 103.0L311.3 99.9L312.7 99.9L309.8 103.0L313.0 107L311.5 107L308.9 103.7L308.1 104.4L308.1 107ZM316.8 107.1L316.8 107.1Q316.1 107.1 315.6 106.8Q315.0 106.5 314.7 105.9Q314.4 105.3 314.4 104.4L314.4 104.4L314.4 99.9L315.6 99.9L315.6 104.3Q315.6 105.1 316.0 105.6Q316.4 106.1 317.2 106.1L317.2 106.1Q317.7 106.1 318.1 105.8Q318.5 105.6 318.7 105.2Q319.0 104.8 319.0 104.2L319.0 104.2L319.0 99.9L320.1 99.9L320.1 107L319.0 107L319.0 105.7Q318.7 106.4 318.2 106.7L318.2 106.7Q317.6 107.1 316.8 107.1ZM325.7 107.2L325.7 107.2Q325.0 107.2 324.6 106.9Q324.2 106.7 324.0 106.4Q323.8 106.1 323.7 105.9L323.7 105.9L323.5 105.9L323.5 107L322.4 107L322.4 97.5L323.6 97.5L323.6 101.0L323.7 101.0Q323.8 100.8 324.0 100.6Q324.2 100.3 324.6 100.0Q325.0 99.8 325.7 99.8L325.7 99.8Q326.6 99.8 327.3 100.3Q328.0 100.7 328.3 101.5Q328.7 102.3 328.7 103.5L328.7 103.5Q328.7 104.6 328.3 105.4Q328.0 106.3 327.3 106.7Q326.6 107.2 325.7 107.2ZM325.5 106.1L325.5 106.1Q326.2 106.1 326.7 105.8Q327.1 105.4 327.3 104.8Q327.6 104.2 327.6 103.5L327.6 103.5Q327.6 102.7 327.3 102.1Q327.1 101.5 326.7 101.2Q326.2 100.8 325.5 100.8L325.5 100.8Q324.9 100.8 324.4 101.2Q324.0 101.5 323.8 102.1Q323.6 102.7 323.6 103.5L323.6 103.5Q323.6 104.2 323.8 104.8Q324.0 105.5 324.5 105.8Q324.9 106.1 325.5 106.1ZM333.7 107.2L333.7 107.2Q332.6 107.2 331.9 106.7Q331.1 106.2 330.7 105.4Q330.3 104.6 330.3 103.5Q330.3 102.4 330.7 101.6Q331.1 100.8 331.8 100.3Q332.6 99.8 333.5 99.8L333.5 99.8Q334.1 99.8 334.6 100.0Q335.2 100.2 335.6 100.6Q336.1 101.0 336.4 101.7Q336.6 102.4 336.6 103.4L336.6 103.4L336.6 103.8L331.5 103.8Q331.5 104.5 331.8 105.0L331.8 105.0Q332.0 105.6 332.5 105.9Q333.0 106.1 333.7 106.1L333.7 106.1Q334.1 106.1 334.4 106.0Q334.8 105.9 335.0 105.7Q335.3 105.4 335.4 105.0L335.4 105.0L336.5 105.3Q336.3 105.9 336.0 106.3Q335.6 106.7 335.0 106.9Q334.4 107.2 333.7 107.2ZM331.5 102.9L331.5 102.9L335.5 102.9Q335.4 102.4 335.3 102.0L335.3 102.0Q335.0 101.4 334.6 101.1Q334.2 100.8 333.5 100.8Q332.9 100.8 332.4 101.1Q332.0 101.5 331.7 102.0L331.7 102.0Q331.5 102.4 331.5 102.9ZM339.7 107L338.6 107L338.6 99.9L339.7 99.9L339.7 101.0L339.7 101.0Q339.9 100.5 340.4 100.1Q341.0 99.8 341.6 99.8L341.6 99.8Q341.7 99.8 341.9 99.8Q342.1 99.8 342.2 99.8L342.2 99.8L342.2 101.0Q342.1 101.0 341.9 100.9Q341.7 100.9 341.5 100.9L341.5 100.9Q341.0 100.9 340.6 101.1Q340.2 101.3 339.9 101.7Q339.7 102.1 339.7 102.6L339.7 102.6L339.7 107ZM344.9 102.7L344.9 102.7L344.9 107L343.8 107L343.8 99.9L344.9 99.9L344.9 101.2Q345.2 100.6 345.6 100.2L345.6 100.2Q346.2 99.8 347.0 99.8L347.0 99.8Q347.8 99.8 348.3 100.1Q348.8 100.4 349.1 101.0Q349.4 101.6 349.4 102.5L349.4 102.5L349.4 107L348.3 107L348.3 102.6Q348.3 101.8 347.9 101.3Q347.4 100.8 346.7 100.8L346.7 100.8Q346.2 100.8 345.8 101.1Q345.4 101.3 345.1 101.7Q344.9 102.1 344.9 102.7ZM354.7 107.2L354.7 107.2Q353.7 107.2 352.9 106.7Q352.2 106.2 351.8 105.4Q351.4 104.6 351.4 103.5Q351.4 102.4 351.8 101.6Q352.2 100.8 352.9 100.3Q353.6 99.8 354.6 99.8L354.6 99.8Q355.2 99.8 355.7 100.0Q356.3 100.2 356.7 100.6Q357.1 101.0 357.4 101.7Q357.7 102.4 357.7 103.4L357.7 103.4L357.7 103.8L352.6 103.8Q352.6 104.5 352.8 105.0L352.8 105.0Q353.1 105.6 353.6 105.9Q354.1 106.1 354.7 106.1L354.7 106.1Q355.1 106.1 355.5 106.0Q355.8 105.9 356.1 105.7Q356.3 105.4 356.5 105.0L356.5 105.0L357.6 105.3Q357.4 105.9 357.0 106.3Q356.6 106.7 356.0 106.9Q355.5 107.2 354.7 107.2ZM352.6 102.9L352.6 102.9L356.5 102.9Q356.5 102.4 356.3 102.0L356.3 102.0Q356.1 101.4 355.7 101.1Q355.2 100.8 354.6 100.8Q353.9 100.8 353.5 101.1Q353.0 101.5 352.8 102.0L352.8 102.0Q352.6 102.4 352.6 102.9ZM361.0 99.9L362.4 99.9L362.4 100.9L361.0 100.9L361.0 105.2Q361.0 105.6 361.1 105.9Q361.3 106.1 361.8 106.1L361.8 106.1Q361.9 106.1 362.1 106.0Q362.2 106.0 362.4 106.0L362.4 106.0L362.6 107.0Q362.4 107.0 362.2 107.1Q362.0 107.1 361.8 107.1L361.8 107.1Q360.8 107.1 360.3 106.6Q359.8 106.1 359.8 105.2L359.8 105.2L359.8 100.9L358.7 100.9L358.7 99.9L359.8 99.9L359.8 98.2L361.0 98.2L361.0 99.9ZM367.2 107.2L367.2 107.2Q366.1 107.2 365.4 106.7Q364.6 106.2 364.2 105.4Q363.8 104.6 363.8 103.5Q363.8 102.4 364.2 101.6Q364.6 100.8 365.3 100.3Q366.1 99.8 367.0 99.8L367.0 99.8Q367.6 99.8 368.1 100.0Q368.7 100.2 369.1 100.6Q369.6 101.0 369.8 101.7Q370.1 102.4 370.1 103.4L370.1 103.4L370.1 103.8L365.0 103.8Q365.0 104.5 365.3 105.0L365.3 105.0Q365.5 105.6 366.0 105.9Q366.5 106.1 367.2 106.1L367.2 106.1Q367.6 106.1 367.9 106.0Q368.3 105.9 368.5 105.7Q368.8 105.4 368.9 105.0L368.9 105.0L370.0 105.3Q369.8 105.9 369.4 106.3Q369.0 106.7 368.5 106.9Q367.9 107.2 367.2 107.2ZM365.0 102.9L365.0 102.9L369.0 102.9Q368.9 102.4 368.7 102.0L368.7 102.0Q368.5 101.4 368.1 101.1Q367.7 100.8 367.0 100.8Q366.4 100.8 365.9 101.1Q365.5 101.5 365.2 102.0L365.2 102.0Q365.0 102.4 365.0 102.9ZM374.5 107.2L374.5 107.2Q373.7 107.2 373.2 106.9Q372.6 106.7 372.2 106.3Q371.9 105.9 371.7 105.3L371.7 105.3L372.8 105.0Q373.0 105.6 373.4 105.9Q373.8 106.1 374.4 106.1L374.4 106.1Q375.2 106.1 375.6 105.8Q376.1 105.5 376.1 105.1L376.1 105.1Q376.1 104.7 375.8 104.5Q375.6 104.2 375.0 104.1L375.0 104.1L373.9 103.8Q372.9 103.6 372.4 103.1Q371.9 102.6 371.9 101.9L371.9 101.9Q371.9 101.3 372.3 100.8Q372.6 100.3 373.2 100.1Q373.8 99.8 374.6 99.8L374.6 99.8Q375.3 99.8 375.8 100.0Q376.3 100.3 376.6 100.6Q377.0 101.0 377.1 101.5L377.1 101.5L376.1 101.8Q375.9 101.4 375.6 101.1Q375.3 100.8 374.6 100.8L374.6 100.8Q373.9 100.8 373.5 101.1Q373.1 101.4 373.1 101.8L373.1 101.8Q373.1 102.2 373.4 102.4Q373.7 102.7 374.3 102.8L374.3 102.8L375.4 103.1Q376.3 103.3 376.8 103.8Q377.3 104.3 377.3 105.0L377.3 105.0Q377.3 105.6 376.9 106.1Q376.6 106.6 375.9 106.9Q375.3 107.2 374.5 107.2Z "/></g><defs><clipPath id="satori_bc-id-2-3" clip-path="url(#satori_cp-id)"><path x="404" y="87" width="125" height="30" d="M419,87 h95 a15,15 0 0 1 15,15 v0 a15,15 0 0 1 -15,15 h-95 a15,15 0 0 1 -15,-15 v0 a15,15 0 0 1 15,-15"/></clipPath></defs><mask id="satori_om-id-2-3"><rect x="405" y="88" width="123" height="28" fill="#fff" mask="url(#satori_om-id)"/><path width="125" height="30" fill="none" stroke="#000" stroke-width="2" d="M408.39300000000003,91.393 A15,15 0 0 1 419,87 h95 a15,15 0 0 1 15,15 v0 a15,15 0 0 1 -15,15 h-95 a15,15 0 0 1 -15,-15 v0 A15,15 0 0 1 408.39300000000003,91.393"/></mask><path x="404" y="87" width="125" height="30" fill="rgba(255,255,255,0.04)" d="M419,87 h95 a15,15 0 0 1 15,15 v0 a15,15 0 0 1 -15,15 h-95 a15,15 0 0 1 -15,-15 v0 a15,15 0 0 1 15,-15" clip-path="url(#satori_cp-id)" mask="url(#satori_om-id)"/><path width="125" height="30" clip-path="url(#satori_bc-id-2-3)" fill="none" stroke="rgba(255,255,255,0.09)" stroke-width="2" d="M408.39300000000003,91.393 A15,15 0 0 1 419,87 h95 a15,15 0 0 1 15,15 v0 a15,15 0 0 1 -15,15 h-95 a15,15 0 0 1 -15,-15 v0 A15,15 0 0 1 408.39300000000003,91.393"/><g mask="url(#satori_om-id)" clip-path="url(#satori_cp-id)"><path fill="rgba(255,255,255,0.74)" d="M424.0 107.2L424.0 107.2Q423.3 107.2 422.8 106.9Q422.2 106.7 421.9 106.2Q421.6 105.7 421.6 105.0L421.6 105.0Q421.6 104.4 421.8 104.0Q422.1 103.6 422.5 103.4Q422.9 103.2 423.3 103.1Q423.8 103.0 424.3 102.9L424.3 102.9Q425.0 102.8 425.4 102.8Q425.8 102.7 426.0 102.6Q426.2 102.5 426.2 102.2L426.2 102.2L426.2 102.2Q426.2 101.8 426.0 101.5Q425.8 101.1 425.5 101.0Q425.2 100.8 424.7 100.8L424.7 100.8Q424.2 100.8 423.8 101.0Q423.4 101.1 423.2 101.4Q423.0 101.6 422.9 101.9L422.9 101.9L421.8 101.5Q422.0 100.8 422.5 100.5Q423.0 100.1 423.5 100.0Q424.1 99.8 424.6 99.8L424.6 99.8Q425.0 99.8 425.4 99.9Q425.9 100.0 426.3 100.2Q426.7 100.5 427.0 101.0Q427.3 101.5 427.3 102.3L427.3 102.3L427.3 107L426.2 107L426.2 106.0L426.1 106.0Q426.0 106.3 425.7 106.5Q425.4 106.8 425.0 107.0Q424.6 107.2 424.0 107.2ZM424.2 106.2L424.2 106.2Q424.8 106.2 425.3 105.9Q425.7 105.7 425.9 105.3Q426.2 104.9 426.2 104.4L426.2 104.4L426.2 103.5Q426.1 103.5 425.8 103.6Q425.6 103.7 425.3 103.7Q425.0 103.8 424.7 103.8Q424.4 103.8 424.3 103.9L424.3 103.9Q423.9 103.9 423.5 104.0Q423.2 104.2 422.9 104.4Q422.7 104.6 422.7 105.0L422.7 105.0Q422.7 105.4 422.9 105.7Q423.1 105.9 423.4 106.0Q423.8 106.2 424.2 106.2ZM432.3 107L431.2 107L429.0 99.9L430.3 99.9L431.1 103.0Q431.3 103.6 431.5 104.4L431.5 104.4Q431.7 105.0 431.8 105.8L431.8 105.8Q431.9 105.1 432.1 104.5L432.1 104.5Q432.3 103.7 432.5 103.0L432.5 103.0L433.3 99.9L434.5 99.9L435.4 103.0Q435.6 103.7 435.8 104.5L435.8 104.5Q435.9 105.1 436.0 105.8L436.0 105.8Q436.2 105.1 436.3 104.5L436.3 104.5Q436.5 103.7 436.7 103.0L436.7 103.0L437.6 99.9L438.8 99.9L436.6 107L435.5 107L434.6 103.8Q434.4 103.3 434.3 102.8Q434.2 102.3 434.1 101.8L434.1 101.8Q434.0 101.5 433.9 101.2L433.9 101.2Q433.9 101.5 433.8 101.7L433.8 101.7Q433.7 102.3 433.5 102.8Q433.4 103.3 433.3 103.8L433.3 103.8L432.3 107ZM443.0 107.2L443.0 107.2Q442.2 107.2 441.7 106.9Q441.1 106.7 440.7 106.3Q440.4 105.9 440.2 105.3L440.2 105.3L441.3 105.0Q441.5 105.6 441.9 105.9Q442.3 106.1 442.9 106.1L442.9 106.1Q443.7 106.1 444.1 105.8Q444.6 105.5 444.6 105.1L444.6 105.1Q444.6 104.7 444.3 104.5Q444.1 104.2 443.5 104.1L443.5 104.1L442.3 103.8Q441.4 103.6 440.9 103.1Q440.4 102.6 440.4 101.9L440.4 101.9Q440.4 101.3 440.8 100.8Q441.1 100.3 441.7 100.1Q442.3 99.8 443.1 99.8L443.1 99.8Q443.8 99.8 444.3 100.0Q444.8 100.3 445.1 100.6Q445.5 101.0 445.6 101.5L445.6 101.5L444.6 101.8Q444.4 101.4 444.1 101.1Q443.8 100.8 443.1 100.8L443.1 100.8Q442.4 100.8 442.0 101.1Q441.6 101.4 441.6 101.8L441.6 101.8Q441.6 102.2 441.9 102.4Q442.2 102.7 442.8 102.8L442.8 102.8L443.9 103.1Q444.8 103.3 445.3 103.8Q445.8 104.3 445.8 105.0L445.8 105.0Q445.8 105.6 445.4 106.1Q445.0 106.6 444.4 106.9Q443.8 107.2 443.0 107.2Z M452.0 103.1L452.0 103.1Q452.0 102.1 452.3 101.0Q452.5 99.8 452.8 98.8Q453.2 97.7 453.7 97.0L453.7 97.0L454.8 97.0Q454.3 98.0 453.9 99.0Q453.6 100.1 453.4 101.2Q453.2 102.2 453.2 103.1L453.2 103.1Q453.2 104.0 453.4 104.9Q453.5 105.7 453.9 106.7Q454.2 107.6 454.8 108.8L454.8 108.8L453.7 108.8Q452.9 107.4 452.5 106.0Q452.0 104.5 452.0 103.1ZM459.7 107.2L459.7 107.2Q458.7 107.2 457.9 106.7Q457.2 106.2 456.8 105.4Q456.4 104.6 456.4 103.5Q456.4 102.4 456.8 101.6Q457.1 100.8 457.9 100.3Q458.6 99.8 459.6 99.8L459.6 99.8Q460.1 99.8 460.7 100.0Q461.2 100.2 461.7 100.6Q462.1 101.0 462.4 101.7Q462.6 102.4 462.6 103.4L462.6 103.4L462.6 103.8L457.5 103.8Q457.5 104.5 457.8 105.0L457.8 105.0Q458.1 105.6 458.6 105.9Q459.0 106.1 459.7 106.1L459.7 106.1Q460.1 106.1 460.5 106.0Q460.8 105.9 461.0 105.7Q461.3 105.4 461.4 105.0L461.4 105.0L462.5 105.3Q462.4 105.9 462.0 106.3Q461.6 106.7 461.0 106.9Q460.4 107.2 459.7 107.2ZM457.5 102.9L457.5 102.9L461.5 102.9Q461.4 102.4 461.3 102.0L461.3 102.0Q461.1 101.4 460.6 101.1Q460.2 100.8 459.6 100.8Q458.9 100.8 458.5 101.1Q458.0 101.5 457.8 102.0L457.8 102.0Q457.6 102.4 457.5 102.9ZM465.7 107L464.6 107L464.6 97.5L465.7 97.5L465.7 103.0L465.9 103.0L468.9 99.9L470.3 99.9L467.3 103.0L470.5 107L469.1 107L466.5 103.7L465.7 104.4L465.7 107ZM474.4 107.2L474.4 107.2Q473.7 107.2 473.1 106.9Q472.6 106.7 472.2 106.3Q471.8 105.9 471.7 105.3L471.7 105.3L472.8 105.0Q472.9 105.6 473.4 105.9Q473.8 106.1 474.4 106.1L474.4 106.1Q475.2 106.1 475.6 105.8Q476.0 105.5 476.0 105.1L476.0 105.1Q476.0 104.7 475.8 104.5Q475.5 104.2 475.0 104.1L475.0 104.1L473.8 103.8Q472.9 103.6 472.4 103.1Q471.9 102.6 471.9 101.9L471.9 101.9Q471.9 101.3 472.3 100.8Q472.6 100.3 473.2 100.1Q473.8 99.8 474.5 99.8L474.5 99.8Q475.3 99.8 475.8 100.0Q476.3 100.3 476.6 100.6Q476.9 101.0 477.1 101.5L477.1 101.5L476.1 101.8Q475.9 101.4 475.6 101.1Q475.2 100.8 474.5 100.8L474.5 100.8Q473.9 100.8 473.5 101.1Q473.1 101.4 473.1 101.8L473.1 101.8Q473.1 102.2 473.4 102.4Q473.6 102.7 474.3 102.8L474.3 102.8L475.3 103.1Q476.3 103.3 476.8 103.8Q477.2 104.3 477.2 105.0L477.2 105.0Q477.2 105.6 476.9 106.1Q476.5 106.6 475.9 106.9Q475.3 107.2 474.4 107.2ZM479.9 109.3L479.0 109.3L479.5 105.7L480.9 105.7L479.9 109.3Z M488.3 107L487.2 107L487.2 99.9L488.3 99.9L488.3 101.0L488.4 101.0Q488.6 100.5 489.1 100.1Q489.6 99.8 490.2 99.8L490.2 99.8Q490.3 99.8 490.5 99.8Q490.7 99.8 490.8 99.8L490.8 99.8L490.8 101.0Q490.7 101.0 490.5 100.9Q490.3 100.9 490.1 100.9L490.1 100.9Q489.6 100.9 489.2 101.1Q488.8 101.3 488.5 101.7Q488.3 102.1 488.3 102.6L488.3 102.6L488.3 107ZM495.0 107.2L495.0 107.2Q494.1 107.2 493.5 106.7Q492.8 106.3 492.4 105.4Q492.0 104.6 492.0 103.5L492.0 103.5Q492.0 102.3 492.4 101.5Q492.8 100.7 493.5 100.3Q494.2 99.8 495.0 99.8L495.0 99.8Q495.7 99.8 496.1 100.0Q496.5 100.3 496.8 100.6Q497.0 100.8 497.1 101.0L497.1 101.0L497.2 101.0L497.2 97.5L498.3 97.5L498.3 107L497.2 107L497.2 105.9L497.1 105.9Q497.0 106.1 496.8 106.4Q496.5 106.7 496.1 106.9Q495.7 107.2 495.0 107.2ZM495.2 106.1L495.2 106.1Q495.9 106.1 496.3 105.8Q496.7 105.5 497.0 104.8Q497.2 104.2 497.2 103.5L497.2 103.5Q497.2 102.7 497.0 102.1Q496.7 101.5 496.3 101.2Q495.9 100.8 495.2 100.8L495.2 100.8Q494.5 100.8 494.1 101.2Q493.6 101.5 493.4 102.1Q493.2 102.7 493.2 103.5L493.2 103.5Q493.2 104.2 493.4 104.8Q493.6 105.4 494.1 105.8Q494.5 106.1 495.2 106.1ZM503.0 107.2L503.0 107.2Q502.3 107.2 501.7 106.9Q501.2 106.7 500.8 106.3Q500.4 105.9 500.3 105.3L500.3 105.3L501.4 105.0Q501.6 105.6 502.0 105.9Q502.4 106.1 503.0 106.1L503.0 106.1Q503.8 106.1 504.2 105.8Q504.7 105.5 504.7 105.1L504.7 105.1Q504.7 104.7 504.4 104.5Q504.1 104.2 503.6 104.1L503.6 104.1L502.4 103.8Q501.5 103.6 501.0 103.1Q500.5 102.6 500.5 101.9L500.5 101.9Q500.5 101.3 500.9 100.8Q501.2 100.3 501.8 100.1Q502.4 99.8 503.2 99.8L503.2 99.8Q503.9 99.8 504.4 100.0Q504.9 100.3 505.2 100.6Q505.6 101.0 505.7 101.5L505.7 101.5L504.7 101.8Q504.5 101.4 504.2 101.1Q503.9 100.8 503.2 100.8L503.2 100.8Q502.5 100.8 502.1 101.1Q501.7 101.4 501.7 101.8L501.7 101.8Q501.7 102.2 502.0 102.4Q502.3 102.7 502.9 102.8L502.9 102.8L504.0 103.1Q504.9 103.3 505.4 103.8Q505.8 104.3 505.8 105.0L505.8 105.0Q505.8 105.6 505.5 106.1Q505.1 106.6 504.5 106.9Q503.9 107.2 503.0 107.2ZM508.5 108.8L507.4 108.8Q508.0 107.6 508.3 106.6Q508.7 105.7 508.8 104.8Q509.0 104.0 509.0 103.1L509.0 103.1Q509.0 102.2 508.8 101.2Q508.6 100.1 508.3 99.0Q507.9 98.0 507.4 97.0L507.4 97.0L508.5 97.0Q509.0 97.7 509.4 98.8Q509.7 99.8 509.9 101.0Q510.1 102.1 510.1 103.1L510.1 103.1Q510.1 104.6 509.7 106.0Q509.3 107.4 508.5 108.8L508.5 108.8Z "/></g><defs><clipPath id="satori_bc-id-2-4" clip-path="url(#satori_cp-id)"><path x="537" y="87" width="66" height="30" d="M552,87 h36 a15,15 0 0 1 15,15 v0 a15,15 0 0 1 -15,15 h-36 a15,15 0 0 1 -15,-15 v0 a15,15 0 0 1 15,-15"/></clipPath></defs><mask id="satori_om-id-2-4"><rect x="538" y="88" width="64" height="28" fill="#fff" mask="url(#satori_om-id)"/><path width="66" height="30" fill="none" stroke="#000" stroke-width="2" d="M541.393,91.393 A15,15 0 0 1 552,87 h36 a15,15 0 0 1 15,15 v0 a15,15 0 0 1 -15,15 h-36 a15,15 0 0 1 -15,-15 v0 A15,15 0 0 1 541.393,91.393"/></mask><path x="537" y="87" width="66" height="30" fill="rgba(255,255,255,0.04)" d="M552,87 h36 a15,15 0 0 1 15,15 v0 a15,15 0 0 1 -15,15 h-36 a15,15 0 0 1 -15,-15 v0 a15,15 0 0 1 15,-15" clip-path="url(#satori_cp-id)" mask="url(#satori_om-id)"/><path width="66" height="30" clip-path="url(#satori_bc-id-2-4)" fill="none" stroke="rgba(255,255,255,0.09)" stroke-width="2" d="M541.393,91.393 A15,15 0 0 1 552,87 h36 a15,15 0 0 1 15,15 v0 a15,15 0 0 1 -15,15 h-36 a15,15 0 0 1 -15,-15 v0 A15,15 0 0 1 541.393,91.393"/><g mask="url(#satori_om-id)" clip-path="url(#satori_cp-id)"><path fill="rgba(255,255,255,0.74)" d="M556.1 102.7L556.1 102.7L556.1 107L555.0 107L555.0 97.5L556.1 97.5L556.1 101.1Q556.4 100.5 556.9 100.2L556.9 100.2Q557.5 99.8 558.3 99.8L558.3 99.8Q559.0 99.8 559.5 100.1Q560.1 100.4 560.4 101.0Q560.7 101.6 560.7 102.5L560.7 102.5L560.7 107L559.5 107L559.5 102.6Q559.5 101.8 559.1 101.3Q558.7 100.8 557.9 100.8L557.9 100.8Q557.4 100.8 557.0 101.1Q556.6 101.3 556.4 101.7Q556.1 102.1 556.1 102.7ZM566.0 107.2L566.0 107.2Q564.9 107.2 564.2 106.7Q563.5 106.2 563.1 105.4Q562.6 104.6 562.6 103.5Q562.6 102.4 563.0 101.6Q563.4 100.8 564.2 100.3Q564.9 99.8 565.8 99.8L565.8 99.8Q566.4 99.8 567.0 100.0Q567.5 100.2 568.0 100.6Q568.4 101.0 568.7 101.7Q568.9 102.4 568.9 103.4L568.9 103.4L568.9 103.8L563.8 103.8Q563.8 104.5 564.1 105.0L564.1 105.0Q564.3 105.6 564.8 105.9Q565.3 106.1 566.0 106.1L566.0 106.1Q566.4 106.1 566.7 106.0Q567.1 105.9 567.3 105.7Q567.6 105.4 567.7 105.0L567.7 105.0L568.8 105.3Q568.7 105.9 568.3 106.3Q567.9 106.7 567.3 106.9Q566.7 107.2 566.0 107.2ZM563.8 102.9L563.8 102.9L567.8 102.9Q567.7 102.4 567.6 102.0L567.6 102.0Q567.3 101.4 566.9 101.1Q566.5 100.8 565.8 100.8Q565.2 100.8 564.7 101.1Q564.3 101.5 564.0 102.0L564.0 102.0Q563.8 102.4 563.8 102.9ZM570.9 97.5L572.0 97.5L572.0 107L570.9 107L570.9 97.5ZM575.5 107L574.3 107L574.3 99.9L575.4 99.9L575.4 101.2Q575.6 100.8 575.8 100.5L575.8 100.5Q576.1 100.2 576.5 100.0Q577.0 99.8 577.4 99.8L577.4 99.8Q578.2 99.8 578.7 100.3L578.7 100.3Q579.1 100.6 579.2 101.2L579.2 101.2Q579.4 100.9 579.6 100.6L579.6 100.6Q579.9 100.2 580.4 100.0Q580.9 99.8 581.5 99.8L581.5 99.8Q582.1 99.8 582.6 100.0Q583.1 100.3 583.4 100.8Q583.7 101.4 583.7 102.2L583.7 102.2L583.7 107L582.6 107L582.6 102.2Q582.6 101.5 582.1 101.1Q581.7 100.8 581.1 100.8L581.1 100.8Q580.6 100.8 580.3 101.0Q580.0 101.2 579.8 101.6Q579.6 101.9 579.6 102.4L579.6 102.4L579.6 107L578.4 107L578.4 102.1Q578.4 101.5 578.0 101.2Q577.6 100.8 577.0 100.8L577.0 100.8Q576.6 100.8 576.3 101.0Q575.9 101.2 575.7 101.6Q575.5 102.0 575.5 102.5L575.5 102.5L575.5 107Z "/></g><defs><clipPath id="satori_bc-id-2-5" clip-path="url(#satori_cp-id)"><path x="611" y="87" width="66" height="30" d="M626,87 h36 a15,15 0 0 1 15,15 v0 a15,15 0 0 1 -15,15 h-36 a15,15 0 0 1 -15,-15 v0 a15,15 0 0 1 15,-15"/></clipPath></defs><mask id="satori_om-id-2-5"><rect x="612" y="88" width="64" height="28" fill="#fff" mask="url(#satori_om-id)"/><path width="66" height="30" fill="none" stroke="#000" stroke-width="2" d="M615.393,91.393 A15,15 0 0 1 626,87 h36 a15,15 0 0 1 15,15 v0 a15,15 0 0 1 -15,15 h-36 a15,15 0 0 1 -15,-15 v0 A15,15 0 0 1 615.393,91.393"/></mask><path x="611" y="87" width="66" height="30" fill="rgba(255,255,255,0.04)" d="M626,87 h36 a15,15 0 0 1 15,15 v0 a15,15 0 0 1 -15,15 h-36 a15,15 0 0 1 -15,-15 v0 a15,15 0 0 1 15,-15" clip-path="url(#satori_cp-id)" mask="url(#satori_om-id)"/><path width="66" height="30" clip-path="url(#satori_bc-id-2-5)" fill="none" stroke="rgba(255,255,255,0.09)" stroke-width="2" d="M615.393,91.393 A15,15 0 0 1 626,87 h36 a15,15 0 0 1 15,15 v0 a15,15 0 0 1 -15,15 h-36 a15,15 0 0 1 -15,-15 v0 A15,15 0 0 1 615.393,91.393"/><g mask="url(#satori_om-id)" clip-path="url(#satori_cp-id)"><path fill="rgba(255,255,255,0.74)" d="M630.1 107L629.0 107L629.0 97.5L630.1 97.5L630.1 103.0L630.3 103.0L633.3 99.9L634.7 99.9L631.8 103.0L635.0 107L633.5 107L630.9 103.7L630.1 104.4L630.1 107ZM639.4 107.2L639.4 107.2Q638.4 107.2 637.6 106.7Q636.9 106.2 636.5 105.4Q636.1 104.6 636.1 103.5Q636.1 102.4 636.5 101.6Q636.9 100.8 637.6 100.3Q638.3 99.8 639.3 99.8L639.3 99.8Q639.9 99.8 640.4 100.0Q641.0 100.2 641.4 100.6Q641.8 101.0 642.1 101.7Q642.4 102.4 642.4 103.4L642.4 103.4L642.4 103.8L637.3 103.8Q637.3 104.5 637.5 105.0L637.5 105.0Q637.8 105.6 638.3 105.9Q638.8 106.1 639.4 106.1L639.4 106.1Q639.8 106.1 640.2 106.0Q640.5 105.9 640.8 105.7Q641.0 105.4 641.2 105.0L641.2 105.0L642.3 105.3Q642.1 105.9 641.7 106.3Q641.3 106.7 640.7 106.9Q640.2 107.2 639.4 107.2ZM637.3 102.9L637.3 102.9L641.2 102.9Q641.2 102.4 641.0 102.0L641.0 102.0Q640.8 101.4 640.4 101.1Q639.9 100.8 639.3 100.8Q638.6 100.8 638.2 101.1Q637.7 101.5 637.5 102.0L637.5 102.0Q637.3 102.4 637.3 102.9ZM647.0 107.2L647.0 107.2Q646.1 107.2 645.4 106.7Q644.7 106.3 644.4 105.4Q644.0 104.6 644.0 103.5L644.0 103.5Q644.0 102.3 644.4 101.5Q644.7 100.7 645.4 100.3Q646.1 99.8 647.0 99.8L647.0 99.8Q647.7 99.8 648.1 100.0Q648.5 100.3 648.7 100.6Q648.9 100.8 649.0 101.0L649.0 101.0L649.1 101.0L649.1 97.5L650.3 97.5L650.3 107L649.2 107L649.2 105.9L649.0 105.9Q648.9 106.1 648.7 106.4Q648.5 106.7 648.1 106.9Q647.7 107.2 647.0 107.2ZM647.1 106.1L647.1 106.1Q647.8 106.1 648.2 105.8Q648.7 105.5 648.9 104.8Q649.1 104.2 649.1 103.5L649.1 103.5Q649.1 102.7 648.9 102.1Q648.7 101.5 648.2 101.2Q647.8 100.8 647.1 100.8L647.1 100.8Q646.5 100.8 646.0 101.2Q645.6 101.5 645.4 102.1Q645.1 102.7 645.1 103.5L645.1 103.5Q645.1 104.2 645.4 104.8Q645.6 105.4 646.0 105.8Q646.5 106.1 647.1 106.1ZM654.6 107.2L654.6 107.2Q653.9 107.2 653.3 106.9Q652.8 106.7 652.5 106.2Q652.1 105.7 652.1 105.0L652.1 105.0Q652.1 104.4 652.4 104.0Q652.6 103.6 653.0 103.4Q653.4 103.2 653.9 103.1Q654.4 103.0 654.9 102.9L654.9 102.9Q655.5 102.8 655.9 102.8Q656.3 102.7 656.5 102.6Q656.7 102.5 656.7 102.2L656.7 102.2L656.7 102.2Q656.7 101.8 656.6 101.5Q656.4 101.1 656.1 101.0Q655.7 100.8 655.2 100.8L655.2 100.8Q654.7 100.8 654.4 101.0Q654.0 101.1 653.8 101.4Q653.6 101.6 653.4 101.9L653.4 101.9L652.3 101.5Q652.6 100.8 653.1 100.5Q653.5 100.1 654.1 100.0Q654.7 99.8 655.2 99.8L655.2 99.8Q655.6 99.8 656.0 99.9Q656.5 100.0 656.9 100.2Q657.3 100.5 657.6 101.0Q657.9 101.5 657.9 102.3L657.9 102.3L657.9 107L656.7 107L656.7 106.0L656.7 106.0Q656.6 106.3 656.3 106.5Q656.0 106.8 655.6 107.0Q655.2 107.2 654.6 107.2ZM654.8 106.2L654.8 106.2Q655.4 106.2 655.8 105.9Q656.3 105.7 656.5 105.3Q656.7 104.9 656.7 104.4L656.7 104.4L656.7 103.5Q656.7 103.5 656.4 103.6Q656.2 103.7 655.9 103.7Q655.6 103.8 655.3 103.8Q655.0 103.8 654.9 103.9L654.9 103.9Q654.4 103.9 654.1 104.0Q653.7 104.2 653.5 104.4Q653.3 104.6 653.3 105.0L653.3 105.0Q653.3 105.4 653.5 105.7Q653.7 105.9 654.0 106.0Q654.3 106.2 654.8 106.2Z "/></g><defs><clipPath id="satori_bc-id-2-6" clip-path="url(#satori_cp-id)"><path x="56" y="125" width="87" height="30" d="M71,125 h57 a15,15 0 0 1 15,15 v0 a15,15 0 0 1 -15,15 h-57 a15,15 0 0 1 -15,-15 v0 a15,15 0 0 1 15,-15"/></clipPath></defs><mask id="satori_om-id-2-6"><rect x="57" y="126" width="85" height="28" fill="#fff" mask="url(#satori_om-id)"/><path width="87" height="30" fill="none" stroke="#000" stroke-width="2" d="M60.393,129.393 A15,15 0 0 1 71,125 h57 a15,15 0 0 1 15,15 v0 a15,15 0 0 1 -15,15 h-57 a15,15 0 0 1 -15,-15 v0 A15,15 0 0 1 60.393,129.393"/></mask><path x="56" y="125" width="87" height="30" fill="rgba(255,255,255,0.04)" d="M71,125 h57 a15,15 0 0 1 15,15 v0 a15,15 0 0 1 -15,15 h-57 a15,15 0 0 1 -15,-15 v0 a15,15 0 0 1 15,-15" clip-path="url(#satori_cp-id)" mask="url(#satori_om-id)"/><path width="87" height="30" clip-path="url(#satori_bc-id-2-6)" fill="none" stroke="rgba(255,255,255,0.09)" stroke-width="2" d="M60.393,129.393 A15,15 0 0 1 71,125 h57 a15,15 0 0 1 15,15 v0 a15,15 0 0 1 -15,15 h-57 a15,15 0 0 1 -15,-15 v0 A15,15 0 0 1 60.393,129.393"/><g mask="url(#satori_om-id)" clip-path="url(#satori_cp-id)"><path fill="rgba(255,255,255,0.74)" d="M76.7 145.2L76.7 145.2Q75.8 145.2 75.1 144.7Q74.4 144.3 74.0 143.4Q73.7 142.6 73.7 141.5L73.7 141.5Q73.7 140.3 74.0 139.5Q74.4 138.7 75.1 138.3Q75.8 137.8 76.7 137.8L76.7 137.8Q77.4 137.8 77.8 138.0Q78.2 138.3 78.4 138.6Q78.6 138.8 78.7 139.0L78.7 139.0L78.8 139.0L78.8 135.5L80.0 135.5L80.0 145L78.9 145L78.9 143.9L78.7 143.9Q78.6 144.1 78.4 144.4Q78.2 144.7 77.8 144.9Q77.3 145.2 76.7 145.2ZM76.8 144.1L76.8 144.1Q77.5 144.1 77.9 143.8Q78.4 143.5 78.6 142.8Q78.8 142.2 78.8 141.5L78.8 141.5Q78.8 140.7 78.6 140.1Q78.4 139.5 77.9 139.2Q77.5 138.8 76.8 138.8L76.8 138.8Q76.2 138.8 75.7 139.2Q75.3 139.5 75.0 140.1Q74.8 140.7 74.8 141.5L74.8 141.5Q74.8 142.2 75.0 142.8Q75.3 143.4 75.7 143.8Q76.2 144.1 76.8 144.1ZM84.2 145.2L84.2 145.2Q83.6 145.2 83.0 144.9Q82.5 144.7 82.2 144.2Q81.8 143.7 81.8 143.0L81.8 143.0Q81.8 142.4 82.1 142.0Q82.3 141.6 82.7 141.4Q83.1 141.2 83.6 141.1Q84.1 141.0 84.6 140.9L84.6 140.9Q85.2 140.8 85.6 140.8Q86.0 140.7 86.2 140.6Q86.4 140.5 86.4 140.2L86.4 140.2L86.4 140.2Q86.4 139.8 86.2 139.5Q86.1 139.1 85.8 139.0Q85.4 138.8 84.9 138.8L84.9 138.8Q84.4 138.8 84.1 139.0Q83.7 139.1 83.5 139.4Q83.2 139.6 83.1 139.9L83.1 139.9L82.0 139.5Q82.3 138.8 82.8 138.5Q83.2 138.1 83.8 138.0Q84.4 137.8 84.9 137.8L84.9 137.8Q85.3 137.8 85.7 137.9Q86.2 138.0 86.6 138.2Q87.0 138.5 87.3 139.0Q87.6 139.5 87.6 140.3L87.6 140.3L87.6 145L86.4 145L86.4 144.0L86.4 144.0Q86.2 144.3 86.0 144.5Q85.7 144.8 85.3 145.0Q84.9 145.2 84.2 145.2ZM84.4 144.2L84.4 144.2Q85.1 144.2 85.5 143.9Q86.0 143.7 86.2 143.3Q86.4 142.9 86.4 142.4L86.4 142.4L86.4 141.5Q86.3 141.5 86.1 141.6Q85.9 141.7 85.6 141.7Q85.3 141.8 85.0 141.8Q84.7 141.8 84.5 141.9L84.5 141.9Q84.1 141.9 83.8 142.0Q83.4 142.2 83.2 142.4Q83.0 142.6 83.0 143.0L83.0 143.0Q83.0 143.4 83.2 143.7Q83.4 143.9 83.7 144.0Q84.0 144.2 84.4 144.2ZM91.2 137.9L92.7 137.9L92.7 138.9L91.2 138.9L91.2 143.2Q91.2 143.6 91.4 143.9Q91.6 144.1 92.0 144.1L92.0 144.1Q92.1 144.1 92.3 144.0Q92.5 144.0 92.6 144.0L92.6 144.0L92.9 145.0Q92.7 145.0 92.4 145.1Q92.2 145.1 92.0 145.1L92.0 145.1Q91.1 145.1 90.6 144.6Q90.1 144.1 90.1 143.2L90.1 143.2L90.1 138.9L89.0 138.9L89.0 137.9L90.1 137.9L90.1 136.2L91.2 136.2L91.2 137.9ZM96.4 145.2L96.4 145.2Q95.7 145.2 95.2 144.9Q94.6 144.7 94.3 144.2Q94.0 143.7 94.0 143.0L94.0 143.0Q94.0 142.4 94.2 142.0Q94.5 141.6 94.9 141.4Q95.3 141.2 95.8 141.1Q96.3 141.0 96.7 140.9L96.7 140.9Q97.4 140.8 97.8 140.8Q98.2 140.7 98.4 140.6Q98.6 140.5 98.6 140.2L98.6 140.2L98.6 140.2Q98.6 139.8 98.4 139.5Q98.2 139.1 97.9 139.0Q97.6 138.8 97.1 138.8L97.1 138.8Q96.6 138.8 96.2 139.0Q95.9 139.1 95.6 139.4Q95.4 139.6 95.3 139.9L95.3 139.9L94.2 139.5Q94.5 138.8 94.9 138.5Q95.4 138.1 95.9 138.0Q96.5 137.8 97.0 137.8L97.0 137.8Q97.4 137.8 97.9 137.9Q98.3 138.0 98.7 138.2Q99.2 138.5 99.4 139.0Q99.7 139.5 99.7 140.3L99.7 140.3L99.7 145L98.6 145L98.6 144.0L98.5 144.0Q98.4 144.3 98.1 144.5Q97.9 144.8 97.4 145.0Q97.0 145.2 96.4 145.2ZM96.6 144.2L96.6 144.2Q97.2 144.2 97.7 143.9Q98.1 143.7 98.3 143.3Q98.6 142.9 98.6 142.4L98.6 142.4L98.6 141.5Q98.5 141.5 98.3 141.6Q98.0 141.7 97.7 141.7Q97.4 141.8 97.1 141.8Q96.9 141.8 96.7 141.9L96.7 141.9Q96.3 141.9 95.9 142.0Q95.6 142.2 95.3 142.4Q95.1 142.6 95.1 143.0L95.1 143.0Q95.1 143.4 95.3 143.7Q95.5 143.9 95.8 144.0Q96.2 144.2 96.6 144.2ZM104.7 145.2L104.7 145.2Q103.8 145.2 103.1 144.7Q102.4 144.3 102.1 143.4Q101.7 142.6 101.7 141.5L101.7 141.5Q101.7 140.3 102.1 139.5Q102.4 138.7 103.1 138.3Q103.8 137.8 104.7 137.8L104.7 137.8Q105.4 137.8 105.8 138.0Q106.2 138.3 106.4 138.6Q106.6 138.8 106.7 139.0L106.7 139.0L106.8 139.0L106.8 135.5L108.0 135.5L108.0 145L106.9 145L106.9 143.9L106.7 143.9Q106.6 144.1 106.4 144.4Q106.2 144.7 105.8 144.9Q105.4 145.2 104.7 145.2ZM104.8 144.1L104.8 144.1Q105.5 144.1 105.9 143.8Q106.4 143.5 106.6 142.8Q106.8 142.2 106.8 141.5L106.8 141.5Q106.8 140.7 106.6 140.1Q106.4 139.5 105.9 139.2Q105.5 138.8 104.8 138.8L104.8 138.8Q104.2 138.8 103.7 139.2Q103.3 139.5 103.1 140.1Q102.8 140.7 102.8 141.5L102.8 141.5Q102.8 142.2 103.1 142.8Q103.3 143.4 103.7 143.8Q104.2 144.1 104.8 144.1ZM113.2 145.2L113.2 145.2Q112.2 145.2 111.5 144.7Q110.7 144.2 110.3 143.4Q109.9 142.6 109.9 141.5L109.9 141.5Q109.9 140.4 110.3 139.6Q110.7 138.7 111.5 138.3Q112.2 137.8 113.2 137.8L113.2 137.8Q114.1 137.8 114.9 138.3Q115.6 138.7 116.0 139.6Q116.4 140.4 116.4 141.5L116.4 141.5Q116.4 142.6 116.0 143.4Q115.6 144.2 114.9 144.7Q114.1 145.2 113.2 145.2ZM113.2 144.1L113.2 144.1Q113.9 144.1 114.3 143.8Q114.8 143.4 115.0 142.8Q115.3 142.2 115.3 141.5L115.3 141.5Q115.3 140.8 115.0 140.2Q114.8 139.6 114.3 139.2Q113.9 138.8 113.2 138.8L113.2 138.8Q112.5 138.8 112.0 139.2Q111.5 139.6 111.3 140.2Q111.1 140.8 111.1 141.5L111.1 141.5Q111.1 142.2 111.3 142.8Q111.5 143.4 112.0 143.8Q112.5 144.1 113.2 144.1ZM121.2 147.8L121.2 147.8Q120.5 147.8 119.9 147.6Q119.3 147.4 118.9 147.1Q118.5 146.7 118.3 146.4L118.3 146.4L119.3 145.8Q119.4 146.0 119.6 146.2Q119.9 146.5 120.2 146.6Q120.6 146.8 121.2 146.8L121.2 146.8Q122.1 146.8 122.6 146.4Q123.2 146.0 123.2 145.1L123.2 145.1L123.2 143.7L123.1 143.7Q123.0 143.9 122.7 144.2Q122.5 144.5 122.1 144.7Q121.7 144.9 121.0 144.9L121.0 144.9Q120.2 144.9 119.5 144.5Q118.8 144.1 118.4 143.3Q118.0 142.5 118.0 141.4L118.0 141.4Q118.0 140.3 118.4 139.5Q118.8 138.7 119.5 138.3Q120.2 137.8 121.0 137.8L121.0 137.8Q121.7 137.8 122.1 138.0Q122.6 138.3 122.8 138.6Q123.0 138.8 123.1 139.0L123.1 139.0L123.2 139.0L123.2 137.9L124.3 137.9L124.3 145.2Q124.3 146.1 123.9 146.7Q123.5 147.3 122.8 147.5Q122.1 147.8 121.2 147.8ZM121.2 143.9L121.2 143.9Q121.9 143.9 122.3 143.6Q122.8 143.3 123.0 142.7Q123.2 142.2 123.2 141.4L123.2 141.4Q123.2 140.6 123.0 140.1Q122.8 139.5 122.3 139.2Q121.9 138.8 121.2 138.8L121.2 138.8Q120.5 138.8 120.1 139.2Q119.6 139.5 119.4 140.1Q119.2 140.7 119.2 141.4L119.2 141.4Q119.2 142.1 119.4 142.7Q119.6 143.2 120.1 143.6Q120.5 143.9 121.2 143.9Z "/></g><defs><clipPath id="satori_bc-id-2-7" clip-path="url(#satori_cp-id)"><path x="151" y="125" width="93" height="30" d="M166,125 h63 a15,15 0 0 1 15,15 v0 a15,15 0 0 1 -15,15 h-63 a15,15 0 0 1 -15,-15 v0 a15,15 0 0 1 15,-15"/></clipPath></defs><mask id="satori_om-id-2-7"><rect x="152" y="126" width="91" height="28" fill="#fff" mask="url(#satori_om-id)"/><path width="93" height="30" fill="none" stroke="#000" stroke-width="2" d="M155.393,129.393 A15,15 0 0 1 166,125 h63 a15,15 0 0 1 15,15 v0 a15,15 0 0 1 -15,15 h-63 a15,15 0 0 1 -15,-15 v0 A15,15 0 0 1 155.393,129.393"/></mask><path x="151" y="125" width="93" height="30" fill="rgba(255,255,255,0.04)" d="M166,125 h63 a15,15 0 0 1 15,15 v0 a15,15 0 0 1 -15,15 h-63 a15,15 0 0 1 -15,-15 v0 a15,15 0 0 1 15,-15" clip-path="url(#satori_cp-id)" mask="url(#satori_om-id)"/><path width="93" height="30" clip-path="url(#satori_bc-id-2-7)" fill="none" stroke="rgba(255,255,255,0.09)" stroke-width="2" d="M155.393,129.393 A15,15 0 0 1 166,125 h63 a15,15 0 0 1 15,15 v0 a15,15 0 0 1 -15,15 h-63 a15,15 0 0 1 -15,-15 v0 A15,15 0 0 1 155.393,129.393"/><g mask="url(#satori_om-id)" clip-path="url(#satori_cp-id)"><path fill="rgba(255,255,255,0.74)" d="M171.4 145.2L171.4 145.2Q170.7 145.2 170.1 144.9Q169.5 144.7 169.2 144.3Q168.8 143.9 168.7 143.3L168.7 143.3L169.8 143.0Q169.9 143.6 170.3 143.9Q170.8 144.1 171.4 144.1L171.4 144.1Q172.1 144.1 172.6 143.8Q173.0 143.5 173.0 143.1L173.0 143.1Q173.0 142.7 172.8 142.5Q172.5 142.2 172.0 142.1L172.0 142.1L170.8 141.8Q169.8 141.6 169.4 141.1Q168.9 140.6 168.9 139.9L168.9 139.9Q168.9 139.3 169.2 138.8Q169.6 138.3 170.2 138.1Q170.8 137.8 171.5 137.8L171.5 137.8Q172.3 137.8 172.8 138.0Q173.3 138.3 173.6 138.6Q173.9 139.0 174.1 139.5L174.1 139.5L173.0 139.8Q172.9 139.4 172.6 139.1Q172.2 138.8 171.5 138.8L171.5 138.8Q170.9 138.8 170.5 139.1Q170.1 139.4 170.1 139.8L170.1 139.8Q170.1 140.2 170.3 140.4Q170.6 140.7 171.3 140.8L171.3 140.8L172.3 141.1Q173.3 141.3 173.8 141.8Q174.2 142.3 174.2 143.0L174.2 143.0Q174.2 143.6 173.9 144.1Q173.5 144.6 172.9 144.9Q172.2 145.2 171.4 145.2ZM177.3 140.7L177.3 140.7L177.3 145L176.2 145L176.2 137.9L177.3 137.9L177.3 139.2Q177.6 138.6 178.0 138.2L178.0 138.2Q178.6 137.8 179.4 137.8L179.4 137.8Q180.2 137.8 180.7 138.1Q181.2 138.4 181.5 139.0Q181.8 139.6 181.8 140.5L181.8 140.5L181.8 145L180.7 145L180.7 140.6Q180.7 139.8 180.3 139.3Q179.8 138.8 179.1 138.8L179.1 138.8Q178.6 138.8 178.2 139.1Q177.8 139.3 177.5 139.7Q177.3 140.1 177.3 140.7ZM187.1 145.2L187.1 145.2Q186.1 145.2 185.4 144.7Q184.6 144.2 184.2 143.4Q183.8 142.6 183.8 141.5Q183.8 140.4 184.2 139.6Q184.6 138.8 185.3 138.3Q186.0 137.8 187.0 137.8L187.0 137.8Q187.6 137.8 188.1 138.0Q188.7 138.2 189.1 138.6Q189.6 139.0 189.8 139.7Q190.1 140.4 190.1 141.4L190.1 141.4L190.1 141.8L185.0 141.8Q185.0 142.5 185.2 143.0L185.2 143.0Q185.5 143.6 186.0 143.9Q186.5 144.1 187.1 144.1L187.1 144.1Q187.6 144.1 187.9 144.0Q188.2 143.9 188.5 143.7Q188.7 143.4 188.9 143.0L188.9 143.0L190.0 143.3Q189.8 143.9 189.4 144.3Q189.0 144.7 188.4 144.9Q187.9 145.2 187.1 145.2ZM185.0 140.9L185.0 140.9L188.9 140.9Q188.9 140.4 188.7 140.0L188.7 140.0Q188.5 139.4 188.1 139.1Q187.6 138.8 187.0 138.8Q186.4 138.8 185.9 139.1Q185.4 139.5 185.2 140.0L185.2 140.0Q185.0 140.4 185.0 140.9ZM194.0 145.2L194.0 145.2Q193.3 145.2 192.8 144.9Q192.2 144.7 191.9 144.2Q191.6 143.7 191.6 143.0L191.6 143.0Q191.6 142.4 191.8 142.0Q192.1 141.6 192.5 141.4Q192.9 141.2 193.4 141.1Q193.9 141.0 194.4 140.9L194.4 140.9Q195.0 140.8 195.4 140.8Q195.8 140.7 196.0 140.6Q196.2 140.5 196.2 140.2L196.2 140.2L196.2 140.2Q196.2 139.8 196.0 139.5Q195.8 139.1 195.5 139.0Q195.2 138.8 194.7 138.8L194.7 138.8Q194.2 138.8 193.8 139.0Q193.5 139.1 193.2 139.4Q193.0 139.6 192.9 139.9L192.9 139.9L191.8 139.5Q192.1 138.8 192.5 138.5Q193.0 138.1 193.6 138.0Q194.1 137.8 194.7 137.8L194.7 137.8Q195.0 137.8 195.5 137.9Q195.9 138.0 196.3 138.2Q196.8 138.5 197.0 139.0Q197.3 139.5 197.3 140.3L197.3 140.3L197.3 145L196.2 145L196.2 144.0L196.1 144.0Q196.0 144.3 195.7 144.5Q195.5 144.8 195.0 145.0Q194.6 145.2 194.0 145.2ZM194.2 144.2L194.2 144.2Q194.8 144.2 195.3 143.9Q195.7 143.7 195.9 143.3Q196.2 142.9 196.2 142.4L196.2 142.4L196.2 141.5Q196.1 141.5 195.9 141.6Q195.6 141.7 195.3 141.7Q195.0 141.8 194.8 141.8Q194.5 141.8 194.3 141.9L194.3 141.9Q193.9 141.9 193.5 142.0Q193.2 142.2 193.0 142.4Q192.7 142.6 192.7 143.0L192.7 143.0Q192.7 143.4 192.9 143.7Q193.1 143.9 193.5 144.0Q193.8 144.2 194.2 144.2ZM200.8 145L199.6 145L199.6 135.5L200.8 135.5L200.8 141.0L200.9 141.0L203.9 137.9L205.4 137.9L202.4 141.0L205.6 145L204.1 145L201.5 141.7L200.8 142.4L200.8 145ZM210.0 145.2L210.0 145.2Q209.0 145.2 208.3 144.7Q207.5 144.2 207.1 143.4Q206.7 142.6 206.7 141.5Q206.7 140.4 207.1 139.6Q207.5 138.8 208.2 138.3Q208.9 137.8 209.9 137.8L209.9 137.8Q210.5 137.8 211.0 138.0Q211.6 138.2 212.0 138.6Q212.5 139.0 212.7 139.7Q213.0 140.4 213.0 141.4L213.0 141.4L213.0 141.8L207.9 141.8Q207.9 142.5 208.1 143.0L208.1 143.0Q208.4 143.6 208.9 143.9Q209.4 144.1 210.0 144.1L210.0 144.1Q210.5 144.1 210.8 144.0Q211.2 143.9 211.4 143.7Q211.6 143.4 211.8 143.0L211.8 143.0L212.9 143.3Q212.7 143.9 212.3 144.3Q211.9 144.7 211.4 144.9Q210.8 145.2 210.0 145.2ZM207.9 140.9L207.9 140.9L211.8 140.9Q211.8 140.4 211.6 140.0L211.6 140.0Q211.4 139.4 211.0 139.1Q210.6 138.8 209.9 138.8Q209.3 138.8 208.8 139.1Q208.4 139.5 208.1 140.0L208.1 140.0Q207.9 140.4 207.9 140.9ZM216.1 145L214.9 145L214.9 137.9L216.0 137.9L216.0 139.0L216.1 139.0Q216.3 138.5 216.8 138.1Q217.3 137.8 218.0 137.8L218.0 137.8Q218.1 137.8 218.3 137.8Q218.4 137.8 218.5 137.8L218.5 137.8L218.5 139.0Q218.5 139.0 218.3 138.9Q218.1 138.9 217.9 138.9L217.9 138.9Q217.3 138.9 216.9 139.1Q216.5 139.3 216.3 139.7Q216.1 140.1 216.1 140.6L216.1 140.6L216.1 145ZM222.5 145.2L222.5 145.2Q221.8 145.2 221.2 144.9Q220.7 144.7 220.3 144.3Q219.9 143.9 219.8 143.3L219.8 143.3L220.9 143.0Q221.1 143.6 221.5 143.9Q221.9 144.1 222.5 144.1L222.5 144.1Q223.3 144.1 223.7 143.8Q224.2 143.5 224.2 143.1L224.2 143.1Q224.2 142.7 223.9 142.5Q223.6 142.2 223.1 142.1L223.1 142.1L221.9 141.8Q221.0 141.6 220.5 141.1Q220.0 140.6 220.0 139.9L220.0 139.9Q220.0 139.3 220.4 138.8Q220.7 138.3 221.3 138.1Q221.9 137.8 222.7 137.8L222.7 137.8Q223.4 137.8 223.9 138.0Q224.4 138.3 224.7 138.6Q225.1 139.0 225.2 139.5L225.2 139.5L224.2 139.8Q224.0 139.4 223.7 139.1Q223.4 138.8 222.7 138.8L222.7 138.8Q222.0 138.8 221.6 139.1Q221.2 139.4 221.2 139.8L221.2 139.8Q221.2 140.2 221.5 140.4Q221.8 140.7 222.4 140.8L222.4 140.8L223.5 141.1Q224.4 141.3 224.9 141.8Q225.3 142.3 225.3 143.0L225.3 143.0Q225.3 143.6 225.0 144.1Q224.6 144.6 224.0 144.9Q223.4 145.2 222.5 145.2Z "/></g><defs><clipPath id="satori_bc-id-2-8" clip-path="url(#satori_cp-id)"><path x="252" y="125" width="92" height="30" d="M267,125 h62 a15,15 0 0 1 15,15 v0 a15,15 0 0 1 -15,15 h-62 a15,15 0 0 1 -15,-15 v0 a15,15 0 0 1 15,-15"/></clipPath></defs><mask id="satori_om-id-2-8"><rect x="253" y="126" width="90" height="28" fill="#fff" mask="url(#satori_om-id)"/><path width="92" height="30" fill="none" stroke="#000" stroke-width="2" d="M256.39300000000003,129.393 A15,15 0 0 1 267,125 h62 a15,15 0 0 1 15,15 v0 a15,15 0 0 1 -15,15 h-62 a15,15 0 0 1 -15,-15 v0 A15,15 0 0 1 256.39300000000003,129.393"/></mask><path x="252" y="125" width="92" height="30" fill="rgba(255,255,255,0.04)" d="M267,125 h62 a15,15 0 0 1 15,15 v0 a15,15 0 0 1 -15,15 h-62 a15,15 0 0 1 -15,-15 v0 a15,15 0 0 1 15,-15" clip-path="url(#satori_cp-id)" mask="url(#satori_om-id)"/><path width="92" height="30" clip-path="url(#satori_bc-id-2-8)" fill="none" stroke="rgba(255,255,255,0.09)" stroke-width="2" d="M256.39300000000003,129.393 A15,15 0 0 1 267,125 h62 a15,15 0 0 1 15,15 v0 a15,15 0 0 1 -15,15 h-62 a15,15 0 0 1 -15,-15 v0 A15,15 0 0 1 256.39300000000003,129.393"/><g mask="url(#satori_om-id)" clip-path="url(#satori_cp-id)"><path fill="rgba(255,255,255,0.74)" d="M271.1 145L270.0 145L270.0 137.9L271.1 137.9L271.1 139.0L271.2 139.0Q271.4 138.5 271.9 138.1Q272.4 137.8 273.0 137.8L273.0 137.8Q273.2 137.8 273.3 137.8Q273.5 137.8 273.6 137.8L273.6 137.8L273.6 139.0Q273.6 139.0 273.3 138.9Q273.1 138.9 272.9 138.9L272.9 138.9Q272.4 138.9 272.0 139.1Q271.6 139.3 271.4 139.7Q271.1 140.1 271.1 140.6L271.1 140.6L271.1 145ZM277.2 145.2L277.2 145.2Q276.5 145.2 276.0 144.9Q275.4 144.7 275.1 144.2Q274.8 143.7 274.8 143.0L274.8 143.0Q274.8 142.4 275.0 142.0Q275.2 141.6 275.7 141.4Q276.1 141.2 276.5 141.1Q277.0 141.0 277.5 140.9L277.5 140.9Q278.2 140.8 278.6 140.8Q279.0 140.7 279.2 140.6Q279.3 140.5 279.3 140.2L279.3 140.2L279.3 140.2Q279.3 139.8 279.2 139.5Q279.0 139.1 278.7 139.0Q278.4 138.8 277.9 138.8L277.9 138.8Q277.4 138.8 277.0 139.0Q276.6 139.1 276.4 139.4Q276.2 139.6 276.1 139.9L276.1 139.9L275.0 139.5Q275.2 138.8 275.7 138.5Q276.2 138.1 276.7 138.0Q277.3 137.8 277.8 137.8L277.8 137.8Q278.2 137.8 278.6 137.9Q279.1 138.0 279.5 138.2Q279.9 138.5 280.2 139.0Q280.5 139.5 280.5 140.3L280.5 140.3L280.5 145L279.4 145L279.4 144.0L279.3 144.0Q279.2 144.3 278.9 144.5Q278.6 144.8 278.2 145.0Q277.8 145.2 277.2 145.2ZM277.4 144.2L277.4 144.2Q278.0 144.2 278.5 143.9Q278.9 143.7 279.1 143.3Q279.3 142.9 279.3 142.4L279.3 142.4L279.3 141.5Q279.3 141.5 279.0 141.6Q278.8 141.7 278.5 141.7Q278.2 141.8 277.9 141.8Q277.6 141.8 277.5 141.9L277.5 141.9Q277.1 141.9 276.7 142.0Q276.3 142.2 276.1 142.4Q275.9 142.6 275.9 143.0L275.9 143.0Q275.9 143.4 276.1 143.7Q276.3 143.9 276.6 144.0Q277.0 144.2 277.4 144.2ZM286.1 145.2L286.1 145.2Q285.4 145.2 285.0 144.9Q284.6 144.7 284.4 144.4Q284.1 144.1 284.0 143.9L284.0 143.9L283.9 143.9L283.9 145L282.8 145L282.8 135.5L283.9 135.5L283.9 139.0L284.0 139.0Q284.1 138.8 284.4 138.6Q284.6 138.3 285.0 138.0Q285.4 137.8 286.1 137.8L286.1 137.8Q287.0 137.8 287.6 138.3Q288.3 138.7 288.7 139.5Q289.1 140.3 289.1 141.5L289.1 141.5Q289.1 142.6 288.7 143.4Q288.3 144.3 287.7 144.7Q287.0 145.2 286.1 145.2ZM285.9 144.1L285.9 144.1Q286.6 144.1 287.0 143.8Q287.5 143.4 287.7 142.8Q287.9 142.2 287.9 141.5L287.9 141.5Q287.9 140.7 287.7 140.1Q287.5 139.5 287.0 139.2Q286.6 138.8 285.9 138.8L285.9 138.8Q285.3 138.8 284.8 139.2Q284.4 139.5 284.2 140.1Q283.9 140.7 283.9 141.5L283.9 141.5Q283.9 142.2 284.2 142.8Q284.4 143.5 284.8 143.8Q285.3 144.1 285.9 144.1ZM294.4 145.2L294.4 145.2Q293.7 145.2 293.3 144.9Q292.9 144.7 292.6 144.4Q292.4 144.1 292.3 143.9L292.3 143.9L292.2 143.9L292.2 145L291.1 145L291.1 135.5L292.2 135.5L292.2 139.0L292.3 139.0Q292.4 138.8 292.6 138.6Q292.8 138.3 293.2 138.0Q293.7 137.8 294.3 137.8L294.3 137.8Q295.2 137.8 295.9 138.3Q296.6 138.7 297.0 139.5Q297.4 140.3 297.4 141.5L297.4 141.5Q297.4 142.6 297.0 143.4Q296.6 144.3 295.9 144.7Q295.2 145.2 294.4 145.2ZM294.2 144.1L294.2 144.1Q294.8 144.1 295.3 143.8Q295.7 143.4 296.0 142.8Q296.2 142.2 296.2 141.5L296.2 141.5Q296.2 140.7 296.0 140.1Q295.7 139.5 295.3 139.2Q294.9 138.8 294.2 138.8L294.2 138.8Q293.5 138.8 293.1 139.2Q292.6 139.5 292.4 140.1Q292.2 140.7 292.2 141.5L292.2 141.5Q292.2 142.2 292.4 142.8Q292.6 143.5 293.1 143.8Q293.5 144.1 294.2 144.1ZM300.5 145L299.3 145L299.3 137.9L300.5 137.9L300.5 145ZM299.9 136.7L299.9 136.7Q299.6 136.7 299.3 136.5Q299.1 136.3 299.1 136.0L299.1 136.0Q299.1 135.7 299.3 135.4Q299.6 135.2 299.9 135.2L299.9 135.2Q300.2 135.2 300.5 135.4Q300.7 135.7 300.7 136.0L300.7 136.0Q300.7 136.3 300.5 136.5Q300.2 136.7 299.9 136.7ZM304.1 137.9L305.6 137.9L305.6 138.9L304.1 138.9L304.1 143.2Q304.1 143.6 304.3 143.9Q304.5 144.1 304.9 144.1L304.9 144.1Q305.0 144.1 305.2 144.0Q305.4 144.0 305.5 144.0L305.5 144.0L305.8 145.0Q305.6 145.0 305.4 145.1Q305.1 145.1 304.9 145.1L304.9 145.1Q304.0 145.1 303.5 144.6Q303.0 144.1 303.0 143.2L303.0 143.2L303.0 138.9L301.9 138.9L301.9 137.9L303.0 137.9L303.0 136.2L304.1 136.2L304.1 137.9ZM308.5 145L307.3 145L307.3 137.9L308.4 137.9L308.4 139.2Q308.6 138.8 308.8 138.5L308.8 138.5Q309.1 138.2 309.5 138.0Q310.0 137.8 310.4 137.8L310.4 137.8Q311.2 137.8 311.7 138.3L311.7 138.3Q312.1 138.6 312.2 139.2L312.2 139.2Q312.4 138.9 312.6 138.6L312.6 138.6Q312.9 138.2 313.4 138.0Q313.9 137.8 314.5 137.8L314.5 137.8Q315.1 137.8 315.6 138.0Q316.1 138.3 316.4 138.8Q316.7 139.4 316.7 140.2L316.7 140.2L316.7 145L315.6 145L315.6 140.2Q315.6 139.5 315.1 139.1Q314.7 138.8 314.1 138.8L314.1 138.8Q313.6 138.8 313.3 139.0Q313.0 139.2 312.8 139.6Q312.6 139.9 312.6 140.4L312.6 140.4L312.6 145L311.4 145L311.4 140.1Q311.4 139.5 311.0 139.2Q310.7 138.8 310.0 138.8L310.0 138.8Q309.6 138.8 309.3 139.0Q308.9 139.2 308.7 139.6Q308.5 140.0 308.5 140.5L308.5 140.5L308.5 145ZM325.0 137.9L325.0 147.7L323.8 147.7L323.8 143.9L323.7 143.9Q323.6 144.1 323.4 144.4Q323.2 144.7 322.8 144.9Q322.3 145.2 321.7 145.2L321.7 145.2Q320.8 145.2 320.1 144.7Q319.4 144.3 319.0 143.4Q318.7 142.6 318.7 141.5L318.7 141.5Q318.7 140.3 319.0 139.5Q319.4 138.7 320.1 138.3Q320.8 137.8 321.7 137.8L321.7 137.8Q322.4 137.8 322.8 138.0Q323.2 138.3 323.4 138.6Q323.6 138.8 323.7 139.0L323.7 139.0L323.9 139.0L323.9 137.9L325.0 137.9ZM321.8 144.1L321.8 144.1Q322.5 144.1 322.9 143.8Q323.4 143.5 323.6 142.8Q323.8 142.2 323.8 141.5L323.8 141.5Q323.8 140.7 323.6 140.1Q323.4 139.5 322.9 139.2Q322.5 138.8 321.8 138.8L321.8 138.8Q321.2 138.8 320.7 139.2Q320.3 139.5 320.0 140.1Q319.8 140.7 319.8 141.5L319.8 141.5Q319.8 142.2 320.0 142.8Q320.3 143.4 320.7 143.8Q321.2 144.1 321.8 144.1Z "/></g><defs><clipPath id="satori_bc-id-2-9" clip-path="url(#satori_cp-id)"><path x="352" y="125" width="66" height="30" d="M367,125 h36 a15,15 0 0 1 15,15 v0 a15,15 0 0 1 -15,15 h-36 a15,15 0 0 1 -15,-15 v0 a15,15 0 0 1 15,-15"/></clipPath></defs><mask id="satori_om-id-2-9"><rect x="353" y="126" width="64" height="28" fill="#fff" mask="url(#satori_om-id)"/><path width="66" height="30" fill="none" stroke="#000" stroke-width="2" d="M356.39300000000003,129.393 A15,15 0 0 1 367,125 h36 a15,15 0 0 1 15,15 v0 a15,15 0 0 1 -15,15 h-36 a15,15 0 0 1 -15,-15 v0 A15,15 0 0 1 356.39300000000003,129.393"/></mask><path x="352" y="125" width="66" height="30" fill="rgba(255,255,255,0.04)" d="M367,125 h36 a15,15 0 0 1 15,15 v0 a15,15 0 0 1 -15,15 h-36 a15,15 0 0 1 -15,-15 v0 a15,15 0 0 1 15,-15" clip-path="url(#satori_cp-id)" mask="url(#satori_om-id)"/><path width="66" height="30" clip-path="url(#satori_bc-id-2-9)" fill="none" stroke="rgba(255,255,255,0.09)" stroke-width="2" d="M356.39300000000003,129.393 A15,15 0 0 1 367,125 h36 a15,15 0 0 1 15,15 v0 a15,15 0 0 1 -15,15 h-36 a15,15 0 0 1 -15,-15 v0 A15,15 0 0 1 356.39300000000003,129.393"/><g mask="url(#satori_om-id)" clip-path="url(#satori_cp-id)"><path fill="rgba(255,255,255,0.74)" d="M371.1 145L370.0 145L370.0 137.9L371.1 137.9L371.1 139.0L371.2 139.0Q371.4 138.5 371.9 138.1Q372.4 137.8 373.0 137.8L373.0 137.8Q373.2 137.8 373.3 137.8Q373.5 137.8 373.6 137.8L373.6 137.8L373.6 139.0Q373.6 139.0 373.3 138.9Q373.1 138.9 372.9 138.9L372.9 138.9Q372.4 138.9 372.0 139.1Q371.6 139.3 371.4 139.7Q371.1 140.1 371.1 140.6L371.1 140.6L371.1 145ZM378.2 145.2L378.2 145.2Q377.2 145.2 376.4 144.7Q375.7 144.2 375.3 143.4Q374.9 142.6 374.9 141.5Q374.9 140.4 375.2 139.6Q375.6 138.8 376.4 138.3Q377.1 137.8 378.0 137.8L378.0 137.8Q378.6 137.8 379.2 138.0Q379.7 138.2 380.2 138.6Q380.6 139.0 380.9 139.7Q381.1 140.4 381.1 141.4L381.1 141.4L381.1 141.8L376.0 141.8Q376.0 142.5 376.3 143.0L376.3 143.0Q376.6 143.6 377.0 143.9Q377.5 144.1 378.2 144.1L378.2 144.1Q378.6 144.1 378.9 144.0Q379.3 143.9 379.5 143.7Q379.8 143.4 379.9 143.0L379.9 143.0L381.0 143.3Q380.9 143.9 380.5 144.3Q380.1 144.7 379.5 144.9Q378.9 145.2 378.2 145.2ZM376.0 140.9L376.0 140.9L380.0 140.9Q379.9 140.4 379.8 140.0L379.8 140.0Q379.6 139.4 379.1 139.1Q378.7 138.8 378.0 138.8Q377.4 138.8 376.9 139.1Q376.5 139.5 376.3 140.0L376.3 140.0Q376.0 140.4 376.0 140.9ZM385.7 145.2L385.7 145.2Q384.9 145.2 384.2 144.7Q383.5 144.3 383.1 143.4Q382.7 142.6 382.7 141.5L382.7 141.5Q382.7 140.3 383.1 139.5Q383.5 138.7 384.2 138.3Q384.9 137.8 385.7 137.8L385.7 137.8Q386.4 137.8 386.8 138.0Q387.2 138.3 387.5 138.6Q387.7 138.8 387.8 139.0L387.8 139.0L387.9 139.0L387.9 135.5L389.0 135.5L389.0 145L387.9 145L387.9 143.9L387.8 143.9Q387.7 144.1 387.5 144.4Q387.2 144.7 386.8 144.9Q386.4 145.2 385.7 145.2ZM385.9 144.1L385.9 144.1Q386.6 144.1 387.0 143.8Q387.4 143.5 387.7 142.8Q387.9 142.2 387.9 141.5L387.9 141.5Q387.9 140.7 387.7 140.1Q387.4 139.5 387.0 139.2Q386.6 138.8 385.9 138.8L385.9 138.8Q385.2 138.8 384.8 139.2Q384.3 139.5 384.1 140.1Q383.9 140.7 383.9 141.5L383.9 141.5Q383.9 142.2 384.1 142.8Q384.3 143.4 384.8 143.8Q385.2 144.1 385.9 144.1ZM392.5 145L391.3 145L391.3 137.9L392.5 137.9L392.5 145ZM391.9 136.7L391.9 136.7Q391.6 136.7 391.4 136.5Q391.1 136.3 391.1 136.0L391.1 136.0Q391.1 135.7 391.4 135.4Q391.6 135.2 391.9 135.2L391.9 135.2Q392.2 135.2 392.5 135.4Q392.7 135.7 392.7 136.0L392.7 136.0Q392.7 136.3 392.5 136.5Q392.2 136.7 391.9 136.7ZM397.2 145.2L397.2 145.2Q396.5 145.2 395.9 144.9Q395.3 144.7 395.0 144.3Q394.6 143.9 394.5 143.3L394.5 143.3L395.6 143.0Q395.7 143.6 396.1 143.9Q396.5 144.1 397.2 144.1L397.2 144.1Q397.9 144.1 398.4 143.8Q398.8 143.5 398.8 143.1L398.8 143.1Q398.8 142.7 398.6 142.5Q398.3 142.2 397.8 142.1L397.8 142.1L396.6 141.8Q395.6 141.6 395.2 141.1Q394.7 140.6 394.7 139.9L394.7 139.9Q394.7 139.3 395.0 138.8Q395.4 138.3 396.0 138.1Q396.6 137.8 397.3 137.8L397.3 137.8Q398.0 137.8 398.6 138.0Q399.1 138.3 399.4 138.6Q399.7 139.0 399.9 139.5L399.9 139.5L398.8 139.8Q398.7 139.4 398.3 139.1Q398.0 138.8 397.3 138.8L397.3 138.8Q396.7 138.8 396.3 139.1Q395.8 139.4 395.8 139.8L395.8 139.8Q395.8 140.2 396.1 140.4Q396.4 140.7 397.0 140.8L397.0 140.8L398.1 141.1Q399.1 141.3 399.5 141.8Q400.0 142.3 400.0 143.0L400.0 143.0Q400.0 143.6 399.6 144.1Q399.3 144.6 398.7 144.9Q398.0 145.2 397.2 145.2Z "/></g><defs><clipPath id="satori_bc-id-2-10" clip-path="url(#satori_cp-id)"><path x="426" y="125" width="104" height="30" d="M441,125 h74 a15,15 0 0 1 15,15 v0 a15,15 0 0 1 -15,15 h-74 a15,15 0 0 1 -15,-15 v0 a15,15 0 0 1 15,-15"/></clipPath></defs><mask id="satori_om-id-2-10"><rect x="427" y="126" width="102" height="28" fill="#fff" mask="url(#satori_om-id)"/><path width="104" height="30" fill="none" stroke="#000" stroke-width="2" d="M430.39300000000003,129.393 A15,15 0 0 1 441,125 h74 a15,15 0 0 1 15,15 v0 a15,15 0 0 1 -15,15 h-74 a15,15 0 0 1 -15,-15 v0 A15,15 0 0 1 430.39300000000003,129.393"/></mask><path x="426" y="125" width="104" height="30" fill="rgba(255,255,255,0.04)" d="M441,125 h74 a15,15 0 0 1 15,15 v0 a15,15 0 0 1 -15,15 h-74 a15,15 0 0 1 -15,-15 v0 a15,15 0 0 1 15,-15" clip-path="url(#satori_cp-id)" mask="url(#satori_om-id)"/><path width="104" height="30" clip-path="url(#satori_bc-id-2-10)" fill="none" stroke="rgba(255,255,255,0.09)" stroke-width="2" d="M430.39300000000003,129.393 A15,15 0 0 1 441,125 h74 a15,15 0 0 1 15,15 v0 a15,15 0 0 1 -15,15 h-74 a15,15 0 0 1 -15,-15 v0 A15,15 0 0 1 430.39300000000003,129.393"/><g mask="url(#satori_om-id)" clip-path="url(#satori_cp-id)"><path fill="rgba(255,255,255,0.74)" d="M445.1 147.7L444.0 147.7L444.0 137.9L445.1 137.9L445.1 139.0L445.2 139.0Q445.4 138.8 445.6 138.6Q445.8 138.3 446.2 138.0Q446.6 137.8 447.3 137.8L447.3 137.8Q448.2 137.8 448.9 138.3Q449.5 138.7 449.9 139.5Q450.3 140.3 450.3 141.5L450.3 141.5Q450.3 142.6 449.9 143.4Q449.5 144.3 448.9 144.7Q448.2 145.2 447.3 145.2L447.3 145.2Q446.6 145.2 446.2 144.9Q445.8 144.7 445.6 144.4Q445.4 144.1 445.2 143.9L445.2 143.9L445.1 143.9L445.1 147.7ZM447.1 144.1L447.1 144.1Q447.8 144.1 448.2 143.8Q448.7 143.4 448.9 142.8Q449.1 142.2 449.1 141.5L449.1 141.5Q449.1 140.7 448.9 140.1Q448.7 139.5 448.2 139.2Q447.8 138.8 447.1 138.8L447.1 138.8Q446.5 138.8 446.0 139.2Q445.6 139.5 445.4 140.1Q445.1 140.7 445.1 141.5L445.1 141.5Q445.1 142.2 445.4 142.8Q445.6 143.5 446.0 143.8Q446.5 144.1 447.1 144.1ZM455.1 147.8L455.1 147.8Q454.4 147.8 453.8 147.6Q453.2 147.4 452.8 147.1Q452.4 146.7 452.2 146.4L452.2 146.4L453.1 145.8Q453.3 146.0 453.5 146.2Q453.7 146.5 454.1 146.6Q454.5 146.8 455.1 146.8L455.1 146.8Q456.0 146.8 456.5 146.4Q457.1 146.0 457.1 145.1L457.1 145.1L457.1 143.7L457.0 143.7Q456.9 143.9 456.6 144.2Q456.4 144.5 456.0 144.7Q455.6 144.9 454.9 144.9L454.9 144.9Q454.1 144.9 453.4 144.5Q452.7 144.1 452.3 143.3Q451.9 142.5 451.9 141.4L451.9 141.4Q451.9 140.3 452.3 139.5Q452.7 138.7 453.4 138.3Q454.1 137.8 454.9 137.8L454.9 137.8Q455.6 137.8 456.0 138.0Q456.4 138.3 456.7 138.6Q456.9 138.8 457.0 139.0L457.0 139.0L457.1 139.0L457.1 137.9L458.2 137.9L458.2 145.2Q458.2 146.1 457.8 146.7Q457.4 147.3 456.7 147.5Q456.0 147.8 455.1 147.8ZM455.1 143.9L455.1 143.9Q455.8 143.9 456.2 143.6Q456.6 143.3 456.9 142.7Q457.1 142.2 457.1 141.4L457.1 141.4Q457.1 140.6 456.9 140.1Q456.6 139.5 456.2 139.2Q455.8 138.8 455.1 138.8L455.1 138.8Q454.4 138.8 454.0 139.2Q453.5 139.5 453.3 140.1Q453.1 140.7 453.1 141.4L453.1 141.4Q453.1 142.1 453.3 142.7Q453.5 143.2 454.0 143.6Q454.4 143.9 455.1 143.9ZM463.8 145.2L463.8 145.2Q463.2 145.2 462.7 144.9Q462.3 144.7 462.1 144.4Q461.9 144.1 461.8 143.9L461.8 143.9L461.6 143.9L461.6 145L460.5 145L460.5 135.5L461.7 135.5L461.7 139.0L461.8 139.0Q461.9 138.8 462.1 138.6Q462.3 138.3 462.7 138.0Q463.1 137.8 463.8 137.8L463.8 137.8Q464.7 137.8 465.4 138.3Q466.1 138.7 466.4 139.5Q466.8 140.3 466.8 141.5L466.8 141.5Q466.8 142.6 466.5 143.4Q466.1 144.3 465.4 144.7Q464.7 145.2 463.8 145.2ZM463.7 144.1L463.7 144.1Q464.3 144.1 464.8 143.8Q465.2 143.4 465.4 142.8Q465.7 142.2 465.7 141.5L465.7 141.5Q465.7 140.7 465.4 140.1Q465.2 139.5 464.8 139.2Q464.3 138.8 463.7 138.8L463.7 138.8Q463.0 138.8 462.6 139.2Q462.1 139.5 461.9 140.1Q461.7 140.7 461.7 141.5L461.7 141.5Q461.7 142.2 461.9 142.8Q462.1 143.5 462.6 143.8Q463.0 144.1 463.7 144.1ZM471.7 145.2L471.7 145.2Q470.7 145.2 470.0 144.7Q469.3 144.2 468.9 143.4Q468.5 142.6 468.5 141.5L468.5 141.5Q468.5 140.4 468.9 139.6Q469.3 138.7 470.0 138.3Q470.7 137.8 471.7 137.8L471.7 137.8Q472.7 137.8 473.4 138.3Q474.1 138.7 474.5 139.6Q474.9 140.4 474.9 141.5L474.9 141.5Q474.9 142.6 474.5 143.4Q474.1 144.2 473.4 144.7Q472.7 145.2 471.7 145.2ZM471.7 144.1L471.7 144.1Q472.4 144.1 472.9 143.8Q473.3 143.4 473.5 142.8Q473.8 142.2 473.8 141.5L473.8 141.5Q473.8 140.8 473.5 140.2Q473.3 139.6 472.9 139.2Q472.4 138.8 471.7 138.8L471.7 138.8Q471.0 138.8 470.5 139.2Q470.1 139.6 469.8 140.2Q469.6 140.8 469.6 141.5L469.6 141.5Q469.6 142.2 469.8 142.8Q470.1 143.4 470.5 143.8Q471.0 144.1 471.7 144.1ZM479.3 145.1L479.3 145.1Q478.6 145.1 478.0 144.8Q477.5 144.5 477.2 143.9Q476.9 143.3 476.9 142.4L476.9 142.4L476.9 137.9L478.0 137.9L478.0 142.3Q478.0 143.1 478.5 143.6Q478.9 144.1 479.6 144.1L479.6 144.1Q480.1 144.1 480.5 143.8Q481.0 143.6 481.2 143.2Q481.4 142.8 481.4 142.2L481.4 142.2L481.4 137.9L482.6 137.9L482.6 145L481.5 145L481.5 143.7Q481.2 144.4 480.7 144.7L480.7 144.7Q480.1 145.1 479.3 145.1ZM486.0 140.7L486.0 140.7L486.0 145L484.9 145L484.9 137.9L486.0 137.9L486.0 139.2Q486.3 138.6 486.8 138.2L486.8 138.2Q487.3 137.8 488.2 137.8L488.2 137.8Q488.9 137.8 489.4 138.1Q489.9 138.4 490.3 139.0Q490.6 139.6 490.6 140.5L490.6 140.5L490.6 145L489.4 145L489.4 140.6Q489.4 139.8 489.0 139.3Q488.6 138.8 487.8 138.8L487.8 138.8Q487.3 138.8 486.9 139.1Q486.5 139.3 486.3 139.7Q486.0 140.1 486.0 140.7ZM495.7 145.2L495.7 145.2Q494.8 145.2 494.1 144.7Q493.3 144.2 492.9 143.4Q492.5 142.6 492.5 141.5L492.5 141.5Q492.5 140.4 492.9 139.6Q493.3 138.7 494.1 138.3Q494.8 137.8 495.7 137.8L495.7 137.8Q496.3 137.8 496.7 137.9Q497.2 138.1 497.6 138.3Q497.9 138.6 498.2 138.9Q498.5 139.3 498.6 139.8L498.6 139.8L497.5 140.1Q497.4 139.8 497.3 139.6Q497.1 139.4 496.9 139.2Q496.7 139.0 496.4 138.9Q496.1 138.8 495.7 138.8L495.7 138.8Q495.0 138.8 494.6 139.2Q494.1 139.6 493.9 140.2Q493.7 140.8 493.7 141.5L493.7 141.5Q493.7 142.2 493.9 142.8Q494.1 143.4 494.6 143.8Q495.0 144.1 495.7 144.1L495.7 144.1Q496.1 144.1 496.4 144.0Q496.7 143.9 496.9 143.8Q497.2 143.6 497.3 143.3Q497.5 143.1 497.6 142.8L497.6 142.8L498.6 143.1Q498.5 143.6 498.2 144.0Q498.0 144.4 497.6 144.6Q497.2 144.9 496.7 145.0Q496.3 145.2 495.7 145.2ZM503.6 145.2L503.6 145.2Q502.5 145.2 501.8 144.7Q501.0 144.2 500.6 143.4Q500.2 142.6 500.2 141.5Q500.2 140.4 500.6 139.6Q501.0 138.8 501.7 138.3Q502.5 137.8 503.4 137.8L503.4 137.8Q504.0 137.8 504.5 138.0Q505.1 138.2 505.5 138.6Q506.0 139.0 506.3 139.7Q506.5 140.4 506.5 141.4L506.5 141.4L506.5 141.8L501.4 141.8Q501.4 142.5 501.7 143.0L501.7 143.0Q501.9 143.6 502.4 143.9Q502.9 144.1 503.6 144.1L503.6 144.1Q504.0 144.1 504.3 144.0Q504.7 143.9 504.9 143.7Q505.2 143.4 505.3 143.0L505.3 143.0L506.4 143.3Q506.2 143.9 505.9 144.3Q505.5 144.7 504.9 144.9Q504.3 145.2 503.6 145.2ZM501.4 140.9L501.4 140.9L505.4 140.9Q505.3 140.4 505.2 140.0L505.2 140.0Q504.9 139.4 504.5 139.1Q504.1 138.8 503.4 138.8Q502.8 138.8 502.3 139.1Q501.9 139.5 501.6 140.0L501.6 140.0Q501.4 140.4 501.4 140.9ZM509.6 145L508.5 145L508.5 137.9L509.6 137.9L509.6 139.0L509.6 139.0Q509.8 138.5 510.3 138.1Q510.9 137.8 511.5 137.8L511.5 137.8Q511.6 137.8 511.8 137.8Q512.0 137.8 512.1 137.8L512.1 137.8L512.1 139.0Q512.0 139.0 511.8 138.9Q511.6 138.9 511.4 138.9L511.4 138.9Q510.9 138.9 510.5 139.1Q510.1 139.3 509.8 139.7Q509.6 140.1 509.6 140.6L509.6 140.6L509.6 145Z "/></g><defs><clipPath id="satori_bc-id-2-11" clip-path="url(#satori_cp-id)"><path x="538" y="125" width="99" height="30" d="M553,125 h69 a15,15 0 0 1 15,15 v0 a15,15 0 0 1 -15,15 h-69 a15,15 0 0 1 -15,-15 v0 a15,15 0 0 1 15,-15"/></clipPath></defs><mask id="satori_om-id-2-11"><rect x="539" y="126" width="97" height="28" fill="#fff" mask="url(#satori_om-id)"/><path width="99" height="30" fill="none" stroke="#000" stroke-width="2" d="M542.393,129.393 A15,15 0 0 1 553,125 h69 a15,15 0 0 1 15,15 v0 a15,15 0 0 1 -15,15 h-69 a15,15 0 0 1 -15,-15 v0 A15,15 0 0 1 542.393,129.393"/></mask><path x="538" y="125" width="99" height="30" fill="rgba(255,255,255,0.04)" d="M553,125 h69 a15,15 0 0 1 15,15 v0 a15,15 0 0 1 -15,15 h-69 a15,15 0 0 1 -15,-15 v0 a15,15 0 0 1 15,-15" clip-path="url(#satori_cp-id)" mask="url(#satori_om-id)"/><path width="99" height="30" clip-path="url(#satori_bc-id-2-11)" fill="none" stroke="rgba(255,255,255,0.09)" stroke-width="2" d="M542.393,129.393 A15,15 0 0 1 553,125 h69 a15,15 0 0 1 15,15 v0 a15,15 0 0 1 -15,15 h-69 a15,15 0 0 1 -15,-15 v0 A15,15 0 0 1 542.393,129.393"/><g mask="url(#satori_om-id)" clip-path="url(#satori_cp-id)"><path fill="rgba(255,255,255,0.74)" d="M558.9 145.2L558.9 145.2Q557.9 145.2 557.2 144.7Q556.5 144.2 556.1 143.4Q555.7 142.6 555.7 141.5L555.7 141.5Q555.7 140.4 556.1 139.6Q556.5 138.7 557.2 138.3Q557.9 137.8 558.9 137.8L558.9 137.8Q559.4 137.8 559.9 137.9Q560.3 138.1 560.7 138.3Q561.1 138.6 561.3 138.9Q561.6 139.3 561.8 139.8L561.8 139.8L560.7 140.1Q560.6 139.8 560.4 139.6Q560.3 139.4 560.0 139.2Q559.8 139.0 559.5 138.9Q559.2 138.8 558.9 138.8L558.9 138.8Q558.2 138.8 557.7 139.2Q557.3 139.6 557.0 140.2Q556.8 140.8 556.8 141.5L556.8 141.5Q556.8 142.2 557.0 142.8Q557.3 143.4 557.7 143.8Q558.2 144.1 558.9 144.1L558.9 144.1Q559.2 144.1 559.5 144.0Q559.8 143.9 560.1 143.8Q560.3 143.6 560.5 143.3Q560.6 143.1 560.7 142.8L560.7 142.8L561.8 143.1Q561.7 143.6 561.4 144.0Q561.1 144.4 560.7 144.6Q560.3 144.9 559.9 145.0Q559.4 145.2 558.9 145.2ZM563.7 135.5L564.9 135.5L564.9 145L563.7 145L563.7 135.5ZM570.1 145.2L570.1 145.2Q569.1 145.2 568.4 144.7Q567.6 144.2 567.2 143.4Q566.8 142.6 566.8 141.5L566.8 141.5Q566.8 140.4 567.2 139.6Q567.6 138.7 568.4 138.3Q569.1 137.8 570.1 137.8L570.1 137.8Q571.0 137.8 571.8 138.3Q572.5 138.7 572.9 139.6Q573.3 140.4 573.3 141.5L573.3 141.5Q573.3 142.6 572.9 143.4Q572.5 144.2 571.8 144.7Q571.0 145.2 570.1 145.2ZM570.1 144.1L570.1 144.1Q570.8 144.1 571.2 143.8Q571.7 143.4 571.9 142.8Q572.2 142.2 572.2 141.5L572.2 141.5Q572.2 140.8 571.9 140.2Q571.7 139.6 571.2 139.2Q570.8 138.8 570.1 138.8L570.1 138.8Q569.4 138.8 568.9 139.2Q568.4 139.6 568.2 140.2Q568.0 140.8 568.0 141.5L568.0 141.5Q568.0 142.2 568.2 142.8Q568.4 143.4 568.9 143.8Q569.4 144.1 570.1 144.1ZM577.7 145.1L577.7 145.1Q577.0 145.1 576.4 144.8Q575.9 144.5 575.6 143.9Q575.3 143.3 575.3 142.4L575.3 142.4L575.3 137.9L576.4 137.9L576.4 142.3Q576.4 143.1 576.8 143.6Q577.3 144.1 578.0 144.1L578.0 144.1Q578.5 144.1 578.9 143.8Q579.3 143.6 579.6 143.2Q579.8 142.8 579.8 142.2L579.8 142.2L579.8 137.9L581.0 137.9L581.0 145L579.8 145L579.8 143.7Q579.5 144.4 579.1 144.7L579.1 144.7Q578.5 145.1 577.7 145.1ZM585.9 145.2L585.9 145.2Q585.0 145.2 584.4 144.7Q583.7 144.3 583.3 143.4Q582.9 142.6 582.9 141.5L582.9 141.5Q582.9 140.3 583.3 139.5Q583.7 138.7 584.4 138.3Q585.0 137.8 585.9 137.8L585.9 137.8Q586.6 137.8 587.0 138.0Q587.4 138.3 587.6 138.6Q587.9 138.8 588.0 139.0L588.0 139.0L588.1 139.0L588.1 135.5L589.2 135.5L589.2 145L588.1 145L588.1 143.9L588.0 143.9Q587.9 144.1 587.6 144.4Q587.4 144.7 587.0 144.9Q586.6 145.2 585.9 145.2ZM586.1 144.1L586.1 144.1Q586.7 144.1 587.2 143.8Q587.6 143.5 587.9 142.8Q588.1 142.2 588.1 141.5L588.1 141.5Q588.1 140.7 587.9 140.1Q587.6 139.5 587.2 139.2Q586.7 138.8 586.1 138.8L586.1 138.8Q585.4 138.8 585.0 139.2Q584.5 139.5 584.3 140.1Q584.1 140.7 584.1 141.5L584.1 141.5Q584.1 142.2 584.3 142.8Q584.5 143.4 585.0 143.8Q585.4 144.1 586.1 144.1ZM593.2 137.9L594.8 137.9L594.8 138.9L593.2 138.9L593.2 145L592.0 145L592.0 138.9L590.6 138.9L590.6 137.9L592.0 137.9L592.0 137.0Q592.0 136.3 592.3 135.9Q592.6 135.5 593.1 135.3Q593.5 135.1 594.1 135.1L594.1 135.1Q594.5 135.1 594.7 135.2Q595.0 135.2 595.1 135.3L595.1 135.3L594.8 136.3Q594.7 136.2 594.6 136.2Q594.4 136.2 594.2 136.2L594.2 136.2Q593.7 136.2 593.4 136.4Q593.2 136.7 593.2 137.2L593.2 137.2L593.2 137.9ZM596.6 135.5L597.8 135.5L597.8 145L596.6 145L596.6 135.5ZM602.1 145.2L602.1 145.2Q601.4 145.2 600.8 144.9Q600.3 144.7 600.0 144.2Q599.6 143.7 599.6 143.0L599.6 143.0Q599.6 142.4 599.9 142.0Q600.1 141.6 600.5 141.4Q600.9 141.2 601.4 141.1Q601.9 141.0 602.4 140.9L602.4 140.9Q603.0 140.8 603.4 140.8Q603.8 140.7 604.0 140.6Q604.2 140.5 604.2 140.2L604.2 140.2L604.2 140.2Q604.2 139.8 604.1 139.5Q603.9 139.1 603.6 139.0Q603.2 138.8 602.7 138.8L602.7 138.8Q602.2 138.8 601.9 139.0Q601.5 139.1 601.3 139.4Q601.1 139.6 600.9 139.9L600.9 139.9L599.9 139.5Q600.1 138.8 600.6 138.5Q601.1 138.1 601.6 138.0Q602.2 137.8 602.7 137.8L602.7 137.8Q603.1 137.8 603.5 137.9Q604.0 138.0 604.4 138.2Q604.8 138.5 605.1 139.0Q605.4 139.5 605.4 140.3L605.4 140.3L605.4 145L604.3 145L604.3 144.0L604.2 144.0Q604.1 144.3 603.8 144.5Q603.5 144.8 603.1 145.0Q602.7 145.2 602.1 145.2ZM602.3 144.2L602.3 144.2Q602.9 144.2 603.3 143.9Q603.8 143.7 604.0 143.3Q604.2 142.9 604.2 142.4L604.2 142.4L604.2 141.5Q604.2 141.5 603.9 141.6Q603.7 141.7 603.4 141.7Q603.1 141.8 602.8 141.8Q602.5 141.8 602.4 141.9L602.4 141.9Q601.9 141.9 601.6 142.0Q601.2 142.2 601.0 142.4Q600.8 142.6 600.8 143.0L600.8 143.0Q600.8 143.4 601.0 143.7Q601.2 143.9 601.5 144.0Q601.8 144.2 602.3 144.2ZM608.8 145L607.7 145L607.7 137.9L608.8 137.9L608.8 139.0L608.9 139.0Q609.1 138.5 609.6 138.1Q610.1 137.8 610.7 137.8L610.7 137.8Q610.8 137.8 611.0 137.8Q611.2 137.8 611.3 137.8L611.3 137.8L611.3 139.0Q611.2 139.0 611.0 138.9Q610.8 138.9 610.6 138.9L610.6 138.9Q610.1 138.9 609.7 139.1Q609.3 139.3 609.1 139.7Q608.8 140.1 608.8 140.6L608.8 140.6L608.8 145ZM615.9 145.2L615.9 145.2Q614.8 145.2 614.1 144.7Q613.3 144.2 612.9 143.4Q612.5 142.6 612.5 141.5Q612.5 140.4 612.9 139.6Q613.3 138.8 614.0 138.3Q614.8 137.8 615.7 137.8L615.7 137.8Q616.3 137.8 616.8 138.0Q617.4 138.2 617.8 138.6Q618.3 139.0 618.5 139.7Q618.8 140.4 618.8 141.4L618.8 141.4L618.8 141.8L613.7 141.8Q613.7 142.5 614.0 143.0L614.0 143.0Q614.2 143.6 614.7 143.9Q615.2 144.1 615.9 144.1L615.9 144.1Q616.3 144.1 616.6 144.0Q617.0 143.9 617.2 143.7Q617.5 143.4 617.6 143.0L617.6 143.0L618.7 143.3Q618.5 143.9 618.1 144.3Q617.7 144.7 617.2 144.9Q616.6 145.2 615.9 145.2ZM613.7 140.9L613.7 140.9L617.7 140.9Q617.6 140.4 617.5 140.0L617.5 140.0Q617.2 139.4 616.8 139.1Q616.4 138.8 615.7 138.8Q615.1 138.8 614.6 139.1Q614.2 139.5 613.9 140.0L613.9 140.0Q613.7 140.4 613.7 140.9Z "/></g></svg>