<!-- Generated by readme-aura https://github.com/collectioneur/readme-aura -->
<svg width="800" height="120" viewBox="0 0 800 120" xmlns="http://www.w3.org/2000/svg"><clipPath id="satori_cp-id"><path x="0" y="0" width="800" height="120" d="M16,0 h768 a16,16 0 0 1 16,16 v88 a16,16 0 0 1 -16,16 h-768 a16,16 0 0 1 -16,-16 v-88 a16,16 0 0 1 16,-16"/></clipPath><mask id="satori_om-id"><rect x="0" y="0" width="800" height="120" fill="#fff"/></mask><path x="0" y="0" width="800" height="120" fill="#0e0e10" d="M16,0 h768 a16,16 0 0 1 16,16 v88 a16,16 0 0 1 -16,16 h-768 a16,16 0 0 1 -16,-16 v-88 a16,16 0 0 1 16,-16"/><mask id="satori_om-id-0"><rect x="56" y="52" width="42" height="16" fill="#fff" mask="url(#satori_om-id)"/></mask><g mask="url(#satori_om-id)" clip-path="url(#satori_cp-id)"><path fill="rgba(255,255,255,0.4)" d="M60.3 65.2L60.3 65.2Q59.6 65.2 59.2 64.9Q58.8 64.7 58.6 64.4Q58.4 64.1 58.2 63.9L58.2 63.9L58.1 63.9L58.1 65L57.0 65L57.0 55.5L58.1 55.5L58.1 59.0L58.2 59.0Q58.4 58.8 58.6 58.6Q58.8 58.3 59.2 58.0Q59.6 57.8 60.3 57.8L60.3 57.8Q61.2 57.8 61.9 58.3Q62.5 58.7 62.9 59.5Q63.3 60.3 63.3 61.5L63.3 61.5Q63.3 62.6 62.9 63.4Q62.5 64.3 61.9 64.7Q61.2 65.2 60.3 65.2ZM60.1 64.1L60.1 64.1Q60.8 64.1 61.2 63.8Q61.7 63.4 61.9 62.8Q62.1 62.2 62.1 61.5L62.1 61.5Q62.1 60.7 61.9 60.1Q61.7 59.5 61.2 59.2Q60.8 58.8 60.1 58.8L60.1 58.8Q59.5 58.8 59.0 59.2Q58.6 59.5 58.4 60.1Q58.1 60.7 58.1 61.5L58.1 61.5Q58.1 62.2 58.4 62.8Q58.6 63.5 59.0 63.8Q59.5 64.1 60.1 64.1ZM65.4 55.5L66.5 55.5L66.5 65L65.4 65L65.4 55.5ZM71.8 65.2L71.8 65.2Q70.8 65.2 70.1 64.7Q69.4 64.2 69.0 63.4Q68.6 62.6 68.6 61.5L68.6 61.5Q68.6 60.4 69.0 59.6Q69.4 58.7 70.1 58.3Q70.8 57.8 71.8 57.8L71.8 57.8Q72.8 57.8 73.5 58.3Q74.2 58.7 74.6 59.6Q75.0 60.4 75.0 61.5L75.0 61.5Q75.0 62.6 74.6 63.4Q74.2 64.2 73.5 64.7Q72.8 65.2 71.8 65.2ZM71.8 64.1L71.8 64.1Q72.5 64.1 73.0 63.8Q73.4 63.4 73.7 62.8Q73.9 62.2 73.9 61.5L73.9 61.5Q73.9 60.8 73.7 60.2Q73.4 59.6 73.0 59.2Q72.5 58.8 71.8 58.8L71.8 58.8Q71.1 58.8 70.6 59.2Q70.2 59.6 70.0 60.2Q69.7 60.8 69.7 61.5L69.7 61.5Q69.7 62.2 70.0 62.8Q70.2 63.4 70.6 63.8Q71.1 64.1 71.8 64.1ZM80.0 67.8L80.0 67.8Q79.2 67.8 78.6 67.6Q78.0 67.4 77.7 67.1Q77.3 66.7 77.1 66.4L77.1 66.4L78.0 65.8Q78.1 66.0 78.4 66.2Q78.6 66.5 79.0 66.6Q79.4 66.8 80.0 66.8L80.0 66.8Q80.8 66.8 81.4 66.4Q81.9 66.0 81.9 65.1L81.9 65.1L81.9 63.7L81.8 63.7Q81.7 63.9 81.5 64.2Q81.3 64.5 80.9 64.7Q80.4 64.9 79.8 64.9L79.8 64.9Q78.9 64.9 78.2 64.5Q77.6 64.1 77.2 63.3Q76.8 62.5 76.8 61.4L76.8 61.4Q76.8 60.3 77.2 59.5Q77.5 58.7 78.2 58.3Q78.9 57.8 79.8 57.8L79.8 57.8Q80.5 57.8 80.9 58.0Q81.3 58.3 81.5 58.6Q81.7 58.8 81.9 59.0L81.9 59.0L82.0 59.0L82.0 57.9L83.1 57.9L83.1 65.2Q83.1 66.1 82.7 66.7Q82.2 67.3 81.5 67.5Q80.8 67.8 80.0 67.8ZM80.0 63.9L80.0 63.9Q80.6 63.9 81.0 63.6Q81.5 63.3 81.7 62.7Q81.9 62.2 81.9 61.4L81.9 61.4Q81.9 60.6 81.7 60.1Q81.5 59.5 81.0 59.2Q80.6 58.8 80.0 58.8L80.0 58.8Q79.3 58.8 78.8 59.2Q78.4 59.5 78.2 60.1Q77.9 60.7 77.9 61.4L77.9 61.4Q77.9 62.1 78.2 62.7Q78.4 63.2 78.8 63.6Q79.3 63.9 80.0 63.9Z M95.0 53.2L95.0 67.6L90.6 67.6L90.6 53.2L95.0 53.2ZM93.2 65.4L91.8 66.2L91.8 66.6L93.8 66.6L93.8 66.2L92.4 66.2L93.8 65.4L93.8 65L91.8 65L91.8 65.4L93.2 65.4ZM93.8 63.0L91.8 63.0L91.8 64.6L93.8 64.6L93.8 63.0ZM93.4 63.4L93.4 64.2L92.2 64.2L92.2 63.4L93.4 63.4ZM92.2 60.5L91.8 60.5L91.8 62.2L93.8 62.2L93.8 60.5L92.6 60.5L92.6 61.3L93.0 61.3L93.0 60.9L93.4 60.9L93.4 61.8L92.2 61.8L92.2 60.5ZM93.4 59.7L91.8 59.7L91.8 60.1L93.8 60.1L93.8 58.7L93.4 58.7L93.4 59.7ZM92.6 58.9L91.8 58.9L91.8 59.3L93.0 59.3L93.0 58.3L93.8 58.3L93.8 57.9L91.8 57.9L91.8 58.3L92.6 58.3L92.6 58.9ZM92.6 56.5L92.6 57.1L92.2 57.1L92.2 56.5L92.6 56.5ZM93.0 56.1L91.8 56.1L91.8 57.5L93.8 57.5L93.8 57.1L93.0 57.1L93.0 56.1ZM92.5 55.3L91.8 55.3L91.8 55.7L93.8 55.7L93.8 55.3L92.9 55.3L92.9 54.6L93.8 54.6L93.8 54.2L91.8 54.2L91.8 54.6L92.5 54.6L92.5 55.3Z "/></g><mask id="satori_om-id-1"><rect x="106" y="52" width="126" height="16" fill="#fff" mask="url(#satori_om-id)"/></mask><g mask="url(#satori_om-id)" clip-path="url(#satori_cp-id)"><path fill="#d96953" d="M108.1 65L107.0 65L107.0 57.9L108.1 57.9L108.1 59.0L108.2 59.0Q108.4 58.5 108.9 58.1Q109.4 57.8 110.0 57.8L110.0 57.8Q110.2 57.8 110.3 57.8Q110.5 57.8 110.6 57.8L110.6 57.8L110.6 59.0Q110.6 59.0 110.3 58.9Q110.1 58.9 109.9 58.9L109.9 58.9Q109.4 58.9 109.0 59.1Q108.6 59.3 108.4 59.7Q108.1 60.1 108.1 60.6L108.1 60.6L108.1 65ZM114.7 65.1L114.7 65.1Q114.0 65.1 113.4 64.8Q112.9 64.5 112.6 63.9Q112.3 63.3 112.3 62.4L112.3 62.4L112.3 57.9L113.4 57.9L113.4 62.3Q113.4 63.1 113.9 63.6Q114.3 64.1 115.0 64.1L115.0 64.1Q115.6 64.1 116.0 63.8Q116.4 63.6 116.6 63.2Q116.8 62.8 116.8 62.2L116.8 62.2L116.8 57.9L118.0 57.9L118.0 65L116.9 65L116.9 63.7Q116.6 64.4 116.1 64.7L116.1 64.7Q115.5 65.1 114.7 65.1ZM121.5 60.7L121.5 60.7L121.5 65L120.4 65L120.4 57.9L121.5 57.9L121.5 59.2Q121.8 58.6 122.3 58.2L122.3 58.2Q122.9 57.8 123.7 57.8L123.7 57.8Q124.4 57.8 124.9 58.1Q125.5 58.4 125.8 59.0Q126.1 59.6 126.1 60.5L126.1 60.5L126.1 65L124.9 65L124.9 60.6Q124.9 59.8 124.5 59.3Q124.1 58.8 123.3 58.8L123.3 58.8Q122.8 58.8 122.4 59.1Q122.0 59.3 121.8 59.7Q121.5 60.1 121.5 60.7ZM131.8 65.2L131.8 65.2Q131.1 65.2 130.7 64.9Q130.3 64.7 130.0 64.4Q129.8 64.1 129.7 63.9L129.7 63.9L129.6 63.9L129.6 65L128.5 65L128.5 55.5L129.6 55.5L129.6 59.0L129.7 59.0Q129.8 58.8 130.0 58.6Q130.2 58.3 130.7 58.0Q131.1 57.8 131.8 57.8L131.8 57.8Q132.6 57.8 133.3 58.3Q134.0 58.7 134.4 59.5Q134.8 60.3 134.8 61.5L134.8 61.5Q134.8 62.6 134.4 63.4Q134.0 64.3 133.3 64.7Q132.6 65.2 131.8 65.2ZM131.6 64.1L131.6 64.1Q132.3 64.1 132.7 63.8Q133.1 63.4 133.4 62.8Q133.6 62.2 133.6 61.5L133.6 61.5Q133.6 60.7 133.4 60.1Q133.2 59.5 132.7 59.2Q132.3 58.8 131.6 58.8L131.6 58.8Q130.9 58.8 130.5 59.2Q130.0 59.5 129.8 60.1Q129.6 60.7 129.6 61.5L129.6 61.5Q129.6 62.2 129.8 62.8Q130.1 63.5 130.5 63.8Q130.9 64.1 131.6 64.1ZM139.7 65.2L139.7 65.2Q138.7 65.2 138.0 64.7Q137.3 64.2 136.9 63.4Q136.5 62.6 136.5 61.5L136.5 61.5Q136.5 60.4 136.9 59.6Q137.3 58.7 138.0 58.3Q138.7 57.8 139.7 57.8L139.7 57.8Q140.7 57.8 141.4 58.3Q142.1 58.7 142.6 59.6Q143.0 60.4 143.0 61.5L143.0 61.5Q143.0 62.6 142.6 63.4Q142.1 64.2 141.4 64.7Q140.7 65.2 139.7 65.2ZM139.7 64.1L139.7 64.1Q140.4 64.1 140.9 63.8Q141.4 63.4 141.6 62.8Q141.8 62.2 141.8 61.5L141.8 61.5Q141.8 60.8 141.6 60.2Q141.4 59.6 140.9 59.2Q140.4 58.8 139.7 58.8L139.7 58.8Q139.0 58.8 138.5 59.2Q138.1 59.6 137.9 60.2Q137.6 60.8 137.6 61.5L137.6 61.5Q137.6 62.2 137.9 62.8Q138.1 63.4 138.5 63.8Q139.0 64.1 139.7 64.1ZM147.9 65.2L147.9 65.2Q146.9 65.2 146.2 64.7Q145.5 64.2 145.1 63.4Q144.7 62.6 144.7 61.5L144.7 61.5Q144.7 60.4 145.1 59.6Q145.5 58.7 146.2 58.3Q146.9 57.8 147.9 57.8L147.9 57.8Q148.9 57.8 149.6 58.3Q150.3 58.7 150.7 59.6Q151.2 60.4 151.2 61.5L151.2 61.5Q151.2 62.6 150.7 63.4Q150.3 64.2 149.6 64.7Q148.9 65.2 147.9 65.2ZM147.9 64.1L147.9 64.1Q148.6 64.1 149.1 63.8Q149.6 63.4 149.8 62.8Q150.0 62.2 150.0 61.5L150.0 61.5Q150.0 60.8 149.8 60.2Q149.6 59.6 149.1 59.2Q148.6 58.8 147.9 58.8L147.9 58.8Q147.2 58.8 146.7 59.2Q146.3 59.6 146.1 60.2Q145.8 60.8 145.8 61.5L145.8 61.5Q145.8 62.2 146.1 62.8Q146.3 63.4 146.7 63.8Q147.2 64.1 147.9 64.1ZM154.4 65L153.2 65L153.2 55.5L154.4 55.5L154.4 61.0L154.5 61.0L157.5 57.9L158.9 57.9L156.0 61.0L159.2 65L157.7 65L155.1 61.7L154.4 62.4L154.4 65ZM161.9 67.7L160.7 67.7L160.7 57.9L161.9 57.9L161.9 59.0L162.0 59.0Q162.1 58.8 162.3 58.6Q162.5 58.3 162.9 58.0Q163.3 57.8 164.0 57.8L164.0 57.8Q164.9 57.8 165.6 58.3Q166.3 58.7 166.7 59.5Q167.0 60.3 167.0 61.5L167.0 61.5Q167.0 62.6 166.7 63.4Q166.3 64.3 165.6 64.7Q164.9 65.2 164.0 65.2L164.0 65.2Q163.4 65.2 163.0 64.9Q162.5 64.7 162.3 64.4Q162.1 64.1 162.0 63.9L162.0 63.9L161.9 63.9L161.9 67.7ZM163.9 64.1L163.9 64.1Q164.5 64.1 165.0 63.8Q165.4 63.4 165.7 62.8Q165.9 62.2 165.9 61.5L165.9 61.5Q165.9 60.7 165.7 60.1Q165.4 59.5 165.0 59.2Q164.5 58.8 163.9 58.8L163.9 58.8Q163.2 58.8 162.8 59.2Q162.3 59.5 162.1 60.1Q161.9 60.7 161.9 61.5L161.9 61.5Q161.9 62.2 162.1 62.8Q162.3 63.5 162.8 63.8Q163.2 64.1 163.9 64.1ZM171.1 65.2L171.1 65.2Q170.4 65.2 169.9 64.9Q169.3 64.7 169.0 64.2Q168.7 63.7 168.7 63.0L168.7 63.0Q168.7 62.4 168.9 62.0Q169.2 61.6 169.6 61.4Q170.0 61.2 170.5 61.1Q170.9 61.0 171.4 60.9L171.4 60.9Q172.1 60.8 172.5 60.8Q172.9 60.7 173.1 60.6Q173.3 60.5 173.3 60.2L173.3 60.2L173.3 60.2Q173.3 59.8 173.1 59.5Q172.9 59.1 172.6 59.0Q172.3 58.8 171.8 58.8L171.8 58.8Q171.3 58.8 170.9 59.0Q170.5 59.1 170.3 59.4Q170.1 59.6 170.0 59.9L170.0 59.9L168.9 59.5Q169.2 58.8 169.6 58.5Q170.1 58.1 170.6 58.0Q171.2 57.8 171.7 57.8L171.7 57.8Q172.1 57.8 172.6 57.9Q173.0 58.0 173.4 58.2Q173.9 58.5 174.1 59.0Q174.4 59.5 174.4 60.3L174.4 60.3L174.4 65L173.3 65L173.3 64.0L173.2 64.0Q173.1 64.3 172.8 64.5Q172.5 64.8 172.1 65.0Q171.7 65.2 171.1 65.2ZM171.3 64.2L171.3 64.2Q171.9 64.2 172.4 63.9Q172.8 63.7 173.0 63.3Q173.3 62.9 173.3 62.4L173.3 62.4L173.3 61.5Q173.2 61.5 173.0 61.6Q172.7 61.7 172.4 61.7Q172.1 61.8 171.8 61.8Q171.6 61.8 171.4 61.9L171.4 61.9Q171.0 61.9 170.6 62.0Q170.3 62.2 170.0 62.4Q169.8 62.6 169.8 63.0L169.8 63.0Q169.8 63.4 170.0 63.7Q170.2 63.9 170.5 64.0Q170.9 64.2 171.3 64.2ZM179.7 67.8L179.7 67.8Q178.9 67.8 178.3 67.6Q177.7 67.4 177.4 67.1Q177.0 66.7 176.8 66.4L176.8 66.4L177.7 65.8Q177.8 66.0 178.1 66.2Q178.3 66.5 178.7 66.6Q179.1 66.8 179.7 66.8L179.7 66.8Q180.5 66.8 181.1 66.4Q181.6 66.0 181.6 65.1L181.6 65.1L181.6 63.7L181.5 63.7Q181.4 63.9 181.2 64.2Q181.0 64.5 180.6 64.7Q180.1 64.9 179.5 64.9L179.5 64.9Q178.6 64.9 177.9 64.5Q177.3 64.1 176.9 63.3Q176.5 62.5 176.5 61.4L176.5 61.4Q176.5 60.3 176.9 59.5Q177.2 58.7 177.9 58.3Q178.6 57.8 179.5 57.8L179.5 57.8Q180.2 57.8 180.6 58.0Q181.0 58.3 181.2 58.6Q181.4 58.8 181.6 59.0L181.6 59.0L181.7 59.0L181.7 57.9L182.8 57.9L182.8 65.2Q182.8 66.1 182.4 66.7Q182.0 67.3 181.2 67.5Q180.5 67.8 179.7 67.8ZM179.7 63.9L179.7 63.9Q180.3 63.9 180.7 63.6Q181.2 63.3 181.4 62.7Q181.6 62.2 181.6 61.4L181.6 61.4Q181.6 60.6 181.4 60.1Q181.2 59.5 180.8 59.2Q180.3 58.8 179.7 58.8L179.7 58.8Q179.0 58.8 178.5 59.2Q178.1 59.5 177.9 60.1Q177.6 60.7 177.6 61.4L177.6 61.4Q177.6 62.1 177.9 62.7Q178.1 63.2 178.5 63.6Q179.0 63.9 179.7 63.9ZM188.2 65.2L188.2 65.2Q187.1 65.2 186.4 64.7Q185.6 64.2 185.2 63.4Q184.8 62.6 184.8 61.5Q184.8 60.4 185.2 59.6Q185.6 58.8 186.3 58.3Q187.1 57.8 188.0 57.8L188.0 57.8Q188.6 57.8 189.1 58.0Q189.7 58.2 190.1 58.6Q190.6 59.0 190.9 59.7Q191.1 60.4 191.1 61.4L191.1 61.4L191.1 61.8L186.0 61.8Q186.0 62.5 186.3 63.0L186.3 63.0Q186.5 63.6 187.0 63.9Q187.5 64.1 188.2 64.1L188.2 64.1Q188.6 64.1 188.9 64.0Q189.3 63.9 189.5 63.7Q189.8 63.4 189.9 63.0L189.9 63.0L191.0 63.3Q190.8 63.9 190.5 64.3Q190.1 64.7 189.5 64.9Q188.9 65.2 188.2 65.2ZM186.0 60.9L186.0 60.9L190.0 60.9Q189.9 60.4 189.8 60.0L189.8 60.0Q189.5 59.4 189.1 59.1Q188.7 58.8 188.0 58.8Q187.4 58.8 186.9 59.1Q186.5 59.5 186.2 60.0L186.2 60.0Q186.0 60.4 186.0 60.9ZM195.6 65.2L195.6 65.2Q194.8 65.2 194.3 64.9Q193.7 64.7 193.3 64.3Q193.0 63.9 192.8 63.3L192.8 63.3L193.9 63.0Q194.1 63.6 194.5 63.9Q194.9 64.1 195.6 64.1L195.6 64.1Q196.3 64.1 196.7 63.8Q197.2 63.5 197.2 63.1L197.2 63.1Q197.2 62.7 196.9 62.5Q196.7 62.2 196.1 62.1L196.1 62.1L195.0 61.8Q194.0 61.6 193.5 61.1Q193.1 60.6 193.1 59.9L193.1 59.9Q193.1 59.3 193.4 58.8Q193.7 58.3 194.3 58.1Q194.9 57.8 195.7 57.8L195.7 57.8Q196.4 57.8 196.9 58.0Q197.4 58.3 197.8 58.6Q198.1 59.0 198.2 59.5L198.2 59.5L197.2 59.8Q197.1 59.4 196.7 59.1Q196.4 58.8 195.7 58.8L195.7 58.8Q195.1 58.8 194.6 59.1Q194.2 59.4 194.2 59.8L194.2 59.8Q194.2 60.2 194.5 60.4Q194.8 60.7 195.4 60.8L195.4 60.8L196.5 61.1Q197.4 61.3 197.9 61.8Q198.4 62.3 198.4 63.0L198.4 63.0Q198.4 63.6 198.0 64.1Q197.7 64.6 197.0 64.9Q196.4 65.2 195.6 65.2ZM201.3 65.1L201.3 65.1Q200.9 65.1 200.7 64.8Q200.4 64.6 200.4 64.2L200.4 64.2Q200.4 63.9 200.7 63.6Q200.9 63.4 201.3 63.4L201.3 63.4Q201.6 63.4 201.9 63.6Q202.1 63.9 202.1 64.2L202.1 64.2Q202.1 64.6 201.9 64.8Q201.6 65.1 201.3 65.1ZM207.5 65.2L207.5 65.2Q206.5 65.2 205.8 64.7Q205.0 64.2 204.6 63.4Q204.2 62.6 204.2 61.5L204.2 61.5Q204.2 60.4 204.6 59.6Q205.0 58.7 205.8 58.3Q206.5 57.8 207.5 57.8L207.5 57.8Q208.0 57.8 208.4 57.9Q208.9 58.1 209.3 58.3Q209.6 58.6 209.9 58.9Q210.2 59.3 210.3 59.8L210.3 59.8L209.2 60.1Q209.2 59.8 209.0 59.6Q208.8 59.4 208.6 59.2Q208.4 59.0 208.1 58.9Q207.8 58.8 207.5 58.8L207.5 58.8Q206.7 58.8 206.3 59.2Q205.8 59.6 205.6 60.2Q205.4 60.8 205.4 61.5L205.4 61.5Q205.4 62.2 205.6 62.8Q205.8 63.4 206.3 63.8Q206.7 64.1 207.5 64.1L207.5 64.1Q207.8 64.1 208.1 64.0Q208.4 63.9 208.6 63.8Q208.9 63.6 209.0 63.3Q209.2 63.1 209.3 62.8L209.3 62.8L210.4 63.1Q210.2 63.6 209.9 64.0Q209.7 64.4 209.3 64.6Q208.9 64.9 208.4 65.0Q208.0 65.2 207.5 65.2ZM215.3 65.2L215.3 65.2Q214.3 65.2 213.6 64.7Q212.9 64.2 212.5 63.4Q212.1 62.6 212.1 61.5L212.1 61.5Q212.1 60.4 212.5 59.6Q212.9 58.7 213.6 58.3Q214.3 57.8 215.3 57.8L215.3 57.8Q216.3 57.8 217.0 58.3Q217.7 58.7 218.1 59.6Q218.5 60.4 218.5 61.5L218.5 61.5Q218.5 62.6 218.1 63.4Q217.7 64.2 217.0 64.7Q216.3 65.2 215.3 65.2ZM215.3 64.1L215.3 64.1Q216.0 64.1 216.5 63.8Q216.9 63.4 217.1 62.8Q217.4 62.2 217.4 61.5L217.4 61.5Q217.4 60.8 217.1 60.2Q216.9 59.6 216.5 59.2Q216.0 58.8 215.3 58.8L215.3 58.8Q214.6 58.8 214.1 59.2Q213.7 59.6 213.4 60.2Q213.2 60.8 213.2 61.5L213.2 61.5Q213.2 62.2 213.4 62.8Q213.7 63.4 214.1 63.8Q214.6 64.1 215.3 64.1ZM221.7 65L220.6 65L220.6 57.9L221.7 57.9L221.7 59.2Q221.8 58.8 222.1 58.5L222.1 58.5Q222.4 58.2 222.8 58.0Q223.2 57.8 223.7 57.8L223.7 57.8Q224.5 57.8 225.0 58.3L225.0 58.3Q225.3 58.6 225.5 59.2L225.5 59.2Q225.6 58.9 225.9 58.6L225.9 58.6Q226.2 58.2 226.7 58.0Q227.2 57.8 227.7 57.8L227.7 57.8Q228.4 57.8 228.9 58.0Q229.4 58.3 229.7 58.8Q230.0 59.4 230.0 60.2L230.0 60.2L230.0 65L228.8 65L228.8 60.2Q228.8 59.5 228.4 59.1Q228.0 58.8 227.4 58.8L227.4 58.8Q226.9 58.8 226.6 59.0Q226.2 59.2 226.0 59.6Q225.9 59.9 225.9 60.4L225.9 60.4L225.9 65L224.7 65L224.7 60.1Q224.7 59.5 224.3 59.2Q223.9 58.8 223.3 58.8L223.3 58.8Q222.9 58.8 222.5 59.0Q222.2 59.2 222.0 59.6Q221.7 60.0 221.7 60.5L221.7 60.5L221.7 65Z "/></g><mask id="satori_om-id-2"><rect x="250" y="52" width="235" height="16" fill="#fff" mask="url(#satori_om-id)"/></mask><g mask="url(#satori_om-id)" clip-path="url(#satori_cp-id)"><path fill="rgba(255,255,255,0.4)" d="M251.9 61.4L251.9 61.4Q251.5 61.4 251.3 61.1Q251.0 60.9 251.0 60.5L251.0 60.5Q251.0 60.2 251.3 59.9Q251.5 59.6 251.9 59.6L251.9 59.6Q252.2 59.6 252.5 59.9Q252.7 60.2 252.7 60.5L252.7 60.5Q252.7 60.9 252.5 61.1Q252.2 61.4 251.9 61.4Z M259.0 55.5L260.1 55.5L260.1 65L259.0 65L259.0 55.5ZM265.3 65.2L265.3 65.2Q264.4 65.2 263.6 64.7Q262.9 64.2 262.5 63.4Q262.1 62.6 262.1 61.5L262.1 61.5Q262.1 60.4 262.5 59.6Q262.9 58.7 263.6 58.3Q264.4 57.8 265.3 57.8L265.3 57.8Q266.3 57.8 267.0 58.3Q267.8 58.7 268.2 59.6Q268.6 60.4 268.6 61.5L268.6 61.5Q268.6 62.6 268.2 63.4Q267.8 64.2 267.0 64.7Q266.3 65.2 265.3 65.2ZM265.3 64.1L265.3 64.1Q266.1 64.1 266.5 63.8Q267.0 63.4 267.2 62.8Q267.4 62.2 267.4 61.5L267.4 61.5Q267.4 60.8 267.2 60.2Q267.0 59.6 266.5 59.2Q266.1 58.8 265.3 58.8L265.3 58.8Q264.6 58.8 264.2 59.2Q263.7 59.6 263.5 60.2Q263.3 60.8 263.3 61.5L263.3 61.5Q263.3 62.2 263.5 62.8Q263.7 63.4 264.2 63.8Q264.6 64.1 265.3 64.1ZM271.7 60.7L271.7 60.7L271.7 65L270.5 65L270.5 57.9L271.6 57.9L271.7 59.2Q272.0 58.6 272.4 58.2L272.4 58.2Q273.0 57.8 273.8 57.8L273.8 57.8Q274.5 57.8 275.1 58.1Q275.6 58.4 275.9 59.0Q276.2 59.6 276.2 60.5L276.2 60.5L276.2 65L275.1 65L275.1 60.6Q275.1 59.8 274.7 59.3Q274.2 58.8 273.5 58.8L273.5 58.8Q273.0 58.8 272.6 59.1Q272.2 59.3 271.9 59.7Q271.7 60.1 271.7 60.7ZM281.4 67.8L281.4 67.8Q280.6 67.8 280.0 67.6Q279.5 67.4 279.1 67.1Q278.7 66.7 278.5 66.4L278.5 66.4L279.4 65.8Q279.6 66.0 279.8 66.2Q280.0 66.5 280.4 66.6Q280.8 66.8 281.4 66.8L281.4 66.8Q282.3 66.8 282.8 66.4Q283.4 66.0 283.4 65.1L283.4 65.1L283.4 63.7L283.2 63.7Q283.1 63.9 282.9 64.2Q282.7 64.5 282.3 64.7Q281.9 64.9 281.2 64.9L281.2 64.9Q280.3 64.9 279.7 64.5Q279.0 64.1 278.6 63.3Q278.2 62.5 278.2 61.4L278.2 61.4Q278.2 60.3 278.6 59.5Q279.0 58.7 279.6 58.3Q280.3 57.8 281.2 57.8L281.2 57.8Q281.9 57.8 282.3 58.0Q282.7 58.3 282.9 58.6Q283.2 58.8 283.3 59.0L283.3 59.0L283.4 59.0L283.4 57.9L284.5 57.9L284.5 65.2Q284.5 66.1 284.1 66.7Q283.7 67.3 283.0 67.5Q282.3 67.8 281.4 67.8ZM281.4 63.9L281.4 63.9Q282.0 63.9 282.5 63.6Q282.9 63.3 283.1 62.7Q283.4 62.2 283.4 61.4L283.4 61.4Q283.4 60.6 283.1 60.1Q282.9 59.5 282.5 59.2Q282.0 58.8 281.4 58.8L281.4 58.8Q280.7 58.8 280.2 59.2Q279.8 59.5 279.6 60.1Q279.3 60.7 279.3 61.4L279.3 61.4Q279.3 62.1 279.6 62.7Q279.8 63.2 280.3 63.6Q280.7 63.9 281.4 63.9ZM289.8 65.2L289.8 65.2Q288.8 65.2 288.0 64.7Q287.3 64.2 286.9 63.4Q286.5 62.6 286.5 61.5Q286.5 60.4 286.9 59.6Q287.2 58.8 288.0 58.3Q288.7 57.8 289.7 57.8L289.7 57.8Q290.2 57.8 290.8 58.0Q291.3 58.2 291.8 58.6Q292.2 59.0 292.5 59.7Q292.7 60.4 292.7 61.4L292.7 61.4L292.7 61.8L287.6 61.8Q287.6 62.5 287.9 63.0L287.9 63.0Q288.2 63.6 288.7 63.9Q289.1 64.1 289.8 64.1L289.8 64.1Q290.2 64.1 290.6 64.0Q290.9 63.9 291.1 63.7Q291.4 63.4 291.5 63.0L291.5 63.0L292.6 63.3Q292.5 63.9 292.1 64.3Q291.7 64.7 291.1 64.9Q290.5 65.2 289.8 65.2ZM287.6 60.9L287.6 60.9L291.6 60.9Q291.5 60.4 291.4 60.0L291.4 60.0Q291.2 59.4 290.7 59.1Q290.3 58.8 289.7 58.8Q289.0 58.8 288.6 59.1Q288.1 59.5 287.9 60.0L287.9 60.0Q287.7 60.4 287.6 60.9ZM295.8 65L294.7 65L294.7 57.9L295.8 57.9L295.8 59.0L295.9 59.0Q296.1 58.5 296.6 58.1Q297.1 57.8 297.7 57.8L297.7 57.8Q297.8 57.8 298.0 57.8Q298.2 57.8 298.3 57.8L298.3 57.8L298.3 59.0Q298.2 59.0 298.0 58.9Q297.8 58.9 297.6 58.9L297.6 58.9Q297.1 58.9 296.7 59.1Q296.3 59.3 296.1 59.7Q295.8 60.1 295.8 60.6L295.8 60.6L295.8 65Z M305.0 60.7L305.0 60.7L305.0 65L303.8 65L303.8 57.9L304.9 57.9L304.9 59.2Q305.2 58.6 305.7 58.2L305.7 58.2Q306.3 57.8 307.1 57.8L307.1 57.8Q307.8 57.8 308.4 58.1Q308.9 58.4 309.2 59.0Q309.5 59.6 309.5 60.5L309.5 60.5L309.5 65L308.4 65L308.4 60.6Q308.4 59.8 307.9 59.3Q307.5 58.8 306.8 58.8L306.8 58.8Q306.3 58.8 305.8 59.1Q305.4 59.3 305.2 59.7Q305.0 60.1 305.0 60.7ZM314.7 65.2L314.7 65.2Q313.7 65.2 313.0 64.7Q312.3 64.2 311.9 63.4Q311.5 62.6 311.5 61.5L311.5 61.5Q311.5 60.4 311.9 59.6Q312.3 58.7 313.0 58.3Q313.7 57.8 314.7 57.8L314.7 57.8Q315.7 57.8 316.4 58.3Q317.1 58.7 317.5 59.6Q317.9 60.4 317.9 61.5L317.9 61.5Q317.9 62.6 317.5 63.4Q317.1 64.2 316.4 64.7Q315.7 65.2 314.7 65.2ZM314.7 64.1L314.7 64.1Q315.4 64.1 315.9 63.8Q316.3 63.4 316.6 62.8Q316.8 62.2 316.8 61.5L316.8 61.5Q316.8 60.8 316.6 60.2Q316.3 59.6 315.9 59.2Q315.4 58.8 314.7 58.8L314.7 58.8Q314.0 58.8 313.5 59.2Q313.1 59.6 312.9 60.2Q312.6 60.8 312.6 61.5L312.6 61.5Q312.6 62.2 312.9 62.8Q313.1 63.4 313.5 63.8Q314.0 64.1 314.7 64.1ZM321.2 57.9L322.7 57.9L322.7 58.9L321.2 58.9L321.2 63.2Q321.2 63.6 321.4 63.9Q321.6 64.1 322.1 64.1L322.1 64.1Q322.2 64.1 322.4 64.0Q322.5 64.0 322.7 64.0L322.7 64.0L322.9 65.0Q322.7 65.0 322.5 65.1Q322.3 65.1 322.0 65.1L322.0 65.1Q321.1 65.1 320.6 64.6Q320.1 64.1 320.1 63.2L320.1 63.2L320.1 58.9L319.0 58.9L319.0 57.9L320.1 57.9L320.1 56.2L321.2 56.2L321.2 57.9ZM327.4 65.2L327.4 65.2Q326.4 65.2 325.7 64.7Q324.9 64.2 324.5 63.4Q324.1 62.6 324.1 61.5Q324.1 60.4 324.5 59.6Q324.9 58.8 325.6 58.3Q326.3 57.8 327.3 57.8L327.3 57.8Q327.9 57.8 328.4 58.0Q329.0 58.2 329.4 58.6Q329.9 59.0 330.1 59.7Q330.4 60.4 330.4 61.4L330.4 61.4L330.4 61.8L325.3 61.8Q325.3 62.5 325.5 63.0L325.5 63.0Q325.8 63.6 326.3 63.9Q326.8 64.1 327.4 64.1L327.4 64.1Q327.9 64.1 328.2 64.0Q328.6 63.9 328.8 63.7Q329.0 63.4 329.2 63.0L329.2 63.0L330.3 63.3Q330.1 63.9 329.7 64.3Q329.3 64.7 328.8 64.9Q328.2 65.2 327.4 65.2ZM325.3 60.9L325.3 60.9L329.2 60.9Q329.2 60.4 329.0 60.0L329.0 60.0Q328.8 59.4 328.4 59.1Q328.0 58.8 327.3 58.8Q326.7 58.8 326.2 59.1Q325.8 59.5 325.5 60.0L325.5 60.0Q325.3 60.4 325.3 60.9ZM334.8 65.2L334.8 65.2Q334.0 65.2 333.5 64.9Q332.9 64.7 332.5 64.3Q332.1 63.9 332.0 63.3L332.0 63.3L333.1 63.0Q333.3 63.6 333.7 63.9Q334.1 64.1 334.7 64.1L334.7 64.1Q335.5 64.1 335.9 63.8Q336.4 63.5 336.4 63.1L336.4 63.1Q336.4 62.7 336.1 62.5Q335.8 62.2 335.3 62.1L335.3 62.1L334.1 61.8Q333.2 61.6 332.7 61.1Q332.2 60.6 332.2 59.9L332.2 59.9Q332.2 59.3 332.6 58.8Q332.9 58.3 333.5 58.1Q334.1 57.8 334.9 57.8L334.9 57.8Q335.6 57.8 336.1 58.0Q336.6 58.3 336.9 58.6Q337.3 59.0 337.4 59.5L337.4 59.5L336.4 59.8Q336.2 59.4 335.9 59.1Q335.6 58.8 334.9 58.8L334.9 58.8Q334.2 58.8 333.8 59.1Q333.4 59.4 333.4 59.8L333.4 59.8Q333.4 60.2 333.7 60.4Q334.0 60.7 334.6 60.8L334.6 60.8L335.7 61.1Q336.6 61.3 337.1 61.8Q337.5 62.3 337.5 63.0L337.5 63.0Q337.5 63.6 337.2 64.1Q336.8 64.6 336.2 64.9Q335.6 65.2 334.8 65.2Z M346.3 65.2L346.3 65.2Q345.4 65.2 344.7 64.7Q343.9 64.2 343.5 63.4Q343.1 62.6 343.1 61.5L343.1 61.5Q343.1 60.4 343.5 59.6Q343.9 58.7 344.7 58.3Q345.4 57.8 346.3 57.8L346.3 57.8Q347.3 57.8 348.0 58.3Q348.8 58.7 349.2 59.6Q349.6 60.4 349.6 61.5L349.6 61.5Q349.6 62.6 349.2 63.4Q348.8 64.2 348.0 64.7Q347.3 65.2 346.3 65.2ZM346.3 64.1L346.3 64.1Q347.1 64.1 347.5 63.8Q348.0 63.4 348.2 62.8Q348.4 62.2 348.4 61.5L348.4 61.5Q348.4 60.8 348.2 60.2Q348.0 59.6 347.5 59.2Q347.1 58.8 346.3 58.8L346.3 58.8Q345.6 58.8 345.2 59.2Q344.7 59.6 344.5 60.2Q344.3 60.8 344.3 61.5L344.3 61.5Q344.3 62.2 344.5 62.8Q344.7 63.4 345.2 63.8Q345.6 64.1 346.3 64.1ZM352.7 60.7L352.7 60.7L352.7 65L351.6 65L351.6 57.9L352.6 57.9L352.7 59.2Q353.0 58.6 353.4 58.2L353.4 58.2Q354.0 57.8 354.8 57.8L354.8 57.8Q355.5 57.8 356.1 58.1Q356.6 58.4 356.9 59.0Q357.2 59.6 357.2 60.5L357.2 60.5L357.2 65L356.1 65L356.1 60.6Q356.1 59.8 355.7 59.3Q355.2 58.8 354.5 58.8L354.5 58.8Q354.0 58.8 353.6 59.1Q353.2 59.3 352.9 59.7Q352.7 60.1 352.7 60.7Z M364.6 65L363.5 65L363.5 57.9L364.6 57.9L364.6 59.0L364.7 59.0Q364.9 58.5 365.4 58.1Q365.9 57.8 366.5 57.8L366.5 57.8Q366.6 57.8 366.8 57.8Q367.0 57.8 367.1 57.8L367.1 57.8L367.1 59.0Q367.0 59.0 366.8 58.9Q366.6 58.9 366.4 58.9L366.4 58.9Q365.9 58.9 365.5 59.1Q365.1 59.3 364.9 59.7Q364.6 60.1 364.6 60.6L364.6 60.6L364.6 65ZM370.7 65.2L370.7 65.2Q370.0 65.2 369.4 64.9Q368.9 64.7 368.6 64.2Q368.3 63.7 368.3 63.0L368.3 63.0Q368.3 62.4 368.5 62.0Q368.7 61.6 369.1 61.4Q369.5 61.2 370.0 61.1Q370.5 61.0 371.0 60.9L371.0 60.9Q371.6 60.8 372.0 60.8Q372.4 60.7 372.6 60.6Q372.8 60.5 372.8 60.2L372.8 60.2L372.8 60.2Q372.8 59.8 372.7 59.5Q372.5 59.1 372.2 59.0Q371.8 58.8 371.3 58.8L371.3 58.8Q370.8 58.8 370.5 59.0Q370.1 59.1 369.9 59.4Q369.7 59.6 369.6 59.9L369.6 59.9L368.5 59.5Q368.7 58.8 369.2 58.5Q369.7 58.1 370.2 58.0Q370.8 57.8 371.3 57.8L371.3 57.8Q371.7 57.8 372.1 57.9Q372.6 58.0 373.0 58.2Q373.4 58.5 373.7 59.0Q374.0 59.5 374.0 60.3L374.0 60.3L374.0 65L372.9 65L372.9 64.0L372.8 64.0Q372.7 64.3 372.4 64.5Q372.1 64.8 371.7 65.0Q371.3 65.2 370.7 65.2ZM370.9 64.2L370.9 64.2Q371.5 64.2 371.9 63.9Q372.4 63.7 372.6 63.3Q372.8 62.9 372.8 62.4L372.8 62.4L372.8 61.5Q372.8 61.5 372.5 61.6Q372.3 61.7 372.0 61.7Q371.7 61.8 371.4 61.8Q371.1 61.8 371.0 61.9L371.0 61.9Q370.5 61.9 370.2 62.0Q369.8 62.2 369.6 62.4Q369.4 62.6 369.4 63.0L369.4 63.0Q369.4 63.4 369.6 63.7Q369.8 63.9 370.1 64.0Q370.4 64.2 370.9 64.2ZM377.4 65L376.3 65L376.3 57.9L377.4 57.9L377.4 65ZM376.9 56.7L376.9 56.7Q376.5 56.7 376.3 56.5Q376.1 56.3 376.1 56.0L376.1 56.0Q376.1 55.7 376.3 55.4Q376.5 55.2 376.9 55.2L376.9 55.2Q377.2 55.2 377.4 55.4Q377.7 55.7 377.7 56.0L377.7 56.0Q377.7 56.3 377.4 56.5Q377.2 56.7 376.9 56.7ZM379.7 55.5L380.9 55.5L380.9 65L379.7 65L379.7 55.5ZM385.6 65.2L385.6 65.2Q384.9 65.2 384.3 64.9Q383.7 64.7 383.4 64.3Q383.0 63.9 382.9 63.3L382.9 63.3L383.9 63.0Q384.1 63.6 384.5 63.9Q384.9 64.1 385.6 64.1L385.6 64.1Q386.3 64.1 386.8 63.8Q387.2 63.5 387.2 63.1L387.2 63.1Q387.2 62.7 386.9 62.5Q386.7 62.2 386.2 62.1L386.2 62.1L385.0 61.8Q384.0 61.6 383.5 61.1Q383.1 60.6 383.1 59.9L383.1 59.9Q383.1 59.3 383.4 58.8Q383.8 58.3 384.4 58.1Q384.9 57.8 385.7 57.8L385.7 57.8Q386.4 57.8 386.9 58.0Q387.5 58.3 387.8 58.6Q388.1 59.0 388.3 59.5L388.3 59.5L387.2 59.8Q387.1 59.4 386.7 59.1Q386.4 58.8 385.7 58.8L385.7 58.8Q385.1 58.8 384.7 59.1Q384.2 59.4 384.2 59.8L384.2 59.8Q384.2 60.2 384.5 60.4Q384.8 60.7 385.4 60.8L385.4 60.8L386.5 61.1Q387.5 61.3 387.9 61.8Q388.4 62.3 388.4 63.0L388.4 63.0Q388.4 63.6 388.0 64.1Q387.7 64.6 387.1 64.9Q386.4 65.2 385.6 65.2ZM391.0 67.3L390.2 67.3L390.7 63.7L392.0 63.7L391.0 67.3Z M399.5 67.7L398.3 67.7L398.3 57.9L399.4 57.9L399.4 59.0L399.6 59.0Q399.7 58.8 399.9 58.6Q400.1 58.3 400.5 58.0Q400.9 57.8 401.6 57.8L401.6 57.8Q402.5 57.8 403.2 58.3Q403.9 58.7 404.3 59.5Q404.6 60.3 404.6 61.5L404.6 61.5Q404.6 62.6 404.3 63.4Q403.9 64.3 403.2 64.7Q402.5 65.2 401.6 65.2L401.6 65.2Q401.0 65.2 400.6 64.9Q400.1 64.7 399.9 64.4Q399.7 64.1 399.6 63.9L399.6 63.9L399.5 63.9L399.5 67.7ZM401.5 64.1L401.5 64.1Q402.1 64.1 402.6 63.8Q403.0 63.4 403.3 62.8Q403.5 62.2 403.5 61.5L403.5 61.5Q403.5 60.7 403.3 60.1Q403.0 59.5 402.6 59.2Q402.1 58.8 401.5 58.8L401.5 58.8Q400.8 58.8 400.4 59.2Q399.9 59.5 399.7 60.1Q399.5 60.7 399.5 61.5L399.5 61.5Q399.5 62.2 399.7 62.8Q399.9 63.5 400.4 63.8Q400.8 64.1 401.5 64.1ZM409.5 65.2L409.5 65.2Q408.5 65.2 407.8 64.7Q407.1 64.2 406.7 63.4Q406.3 62.6 406.3 61.5L406.3 61.5Q406.3 60.4 406.7 59.6Q407.1 58.7 407.8 58.3Q408.5 57.8 409.5 57.8L409.5 57.8Q410.5 57.8 411.2 58.3Q411.9 58.7 412.3 59.6Q412.7 60.4 412.7 61.5L412.7 61.5Q412.7 62.6 412.3 63.4Q411.9 64.2 411.2 64.7Q410.5 65.2 409.5 65.2ZM409.5 64.1L409.5 64.1Q410.2 64.1 410.7 63.8Q411.1 63.4 411.4 62.8Q411.6 62.2 411.6 61.5L411.6 61.5Q411.6 60.8 411.4 60.2Q411.1 59.6 410.7 59.2Q410.2 58.8 409.5 58.8L409.5 58.8Q408.8 58.8 408.3 59.2Q407.9 59.6 407.6 60.2Q407.4 60.8 407.4 61.5L407.4 61.5Q407.4 62.2 407.6 62.8Q407.9 63.4 408.3 63.8Q408.8 64.1 409.5 64.1ZM417.1 65.2L417.1 65.2Q416.4 65.2 415.8 64.9Q415.2 64.7 414.9 64.3Q414.5 63.9 414.4 63.3L414.4 63.3L415.5 63.0Q415.6 63.6 416.0 63.9Q416.5 64.1 417.1 64.1L417.1 64.1Q417.8 64.1 418.3 63.8Q418.7 63.5 418.7 63.1L418.7 63.1Q418.7 62.7 418.5 62.5Q418.2 62.2 417.7 62.1L417.7 62.1L416.5 61.8Q415.5 61.6 415.1 61.1Q414.6 60.6 414.6 59.9L414.6 59.9Q414.6 59.3 414.9 58.8Q415.3 58.3 415.9 58.1Q416.5 57.8 417.2 57.8L417.2 57.8Q418.0 57.8 418.5 58.0Q419.0 58.3 419.3 58.6Q419.6 59.0 419.8 59.5L419.8 59.5L418.7 59.8Q418.6 59.4 418.3 59.1Q417.9 58.8 417.2 58.8L417.2 58.8Q416.6 58.8 416.2 59.1Q415.8 59.4 415.8 59.8L415.8 59.8Q415.8 60.2 416.0 60.4Q416.3 60.7 416.9 60.8L416.9 60.8L418.0 61.1Q419.0 61.3 419.4 61.8Q419.9 62.3 419.9 63.0L419.9 63.0Q419.9 63.6 419.6 64.1Q419.2 64.6 418.6 64.9Q417.9 65.2 417.1 65.2ZM423.2 57.9L424.7 57.9L424.7 58.9L423.2 58.9L423.2 63.2Q423.2 63.6 423.4 63.9Q423.6 64.1 424.0 64.1L424.0 64.1Q424.1 64.1 424.3 64.0Q424.5 64.0 424.6 64.0L424.6 64.0L424.8 65.0Q424.7 65.0 424.4 65.1Q424.2 65.1 424.0 65.1L424.0 65.1Q423.1 65.1 422.6 64.6Q422.0 64.1 422.0 63.2L422.0 63.2L422.0 58.9L421.0 58.9L421.0 57.9L422.0 57.9L422.0 56.2L423.2 56.2L423.2 57.9ZM429.3 67.8L429.3 67.8Q428.5 67.8 427.9 67.6Q427.4 67.4 427.0 67.1Q426.6 66.7 426.4 66.4L426.4 66.4L427.3 65.8Q427.4 66.0 427.7 66.2Q427.9 66.5 428.3 66.6Q428.7 66.8 429.3 66.8L429.3 66.8Q430.1 66.8 430.7 66.4Q431.2 66.0 431.2 65.1L431.2 65.1L431.2 63.7L431.1 63.7Q431.0 63.9 430.8 64.2Q430.6 64.5 430.2 64.7Q429.8 64.9 429.1 64.9L429.1 64.9Q428.2 64.9 427.5 64.5Q426.9 64.1 426.5 63.3Q426.1 62.5 426.1 61.4L426.1 61.4Q426.1 60.3 426.5 59.5Q426.8 58.7 427.5 58.3Q428.2 57.8 429.1 57.8L429.1 57.8Q429.8 57.8 430.2 58.0Q430.6 58.3 430.8 58.6Q431.0 58.8 431.2 59.0L431.2 59.0L431.3 59.0L431.3 57.9L432.4 57.9L432.4 65.2Q432.4 66.1 432.0 66.7Q431.6 67.3 430.9 67.5Q430.2 67.8 429.3 67.8ZM429.3 63.9L429.3 63.9Q429.9 63.9 430.3 63.6Q430.8 63.3 431.0 62.7Q431.2 62.2 431.2 61.4L431.2 61.4Q431.2 60.6 431.0 60.1Q430.8 59.5 430.4 59.2Q429.9 58.8 429.3 58.8L429.3 58.8Q428.6 58.8 428.1 59.2Q427.7 59.5 427.5 60.1Q427.2 60.7 427.2 61.4L427.2 61.4Q427.2 62.1 427.5 62.7Q427.7 63.2 428.1 63.6Q428.6 63.9 429.3 63.9ZM435.8 65L434.7 65L434.7 57.9L435.8 57.9L435.8 59.0L435.9 59.0Q436.1 58.5 436.6 58.1Q437.1 57.8 437.7 57.8L437.7 57.8Q437.8 57.8 438.0 57.8Q438.2 57.8 438.3 57.8L438.3 57.8L438.3 59.0Q438.2 59.0 438.0 58.9Q437.8 58.9 437.6 58.9L437.6 58.9Q437.1 58.9 436.7 59.1Q436.3 59.3 436.1 59.7Q435.8 60.1 435.8 60.6L435.8 60.6L435.8 65ZM442.9 65.2L442.9 65.2Q441.8 65.2 441.1 64.7Q440.3 64.2 439.9 63.4Q439.5 62.6 439.5 61.5Q439.5 60.4 439.9 59.6Q440.3 58.8 441.0 58.3Q441.8 57.8 442.7 57.8L442.7 57.8Q443.3 57.8 443.8 58.0Q444.4 58.2 444.8 58.6Q445.3 59.0 445.6 59.7Q445.8 60.4 445.8 61.4L445.8 61.4L445.8 61.8L440.7 61.8Q440.7 62.5 441.0 63.0L441.0 63.0Q441.2 63.6 441.7 63.9Q442.2 64.1 442.9 64.1L442.9 64.1Q443.3 64.1 443.6 64.0Q444.0 63.9 444.2 63.7Q444.5 63.4 444.6 63.0L444.6 63.0L445.7 63.3Q445.5 63.9 445.1 64.3Q444.8 64.7 444.2 64.9Q443.6 65.2 442.9 65.2ZM440.7 60.9L440.7 60.9L444.7 60.9Q444.6 60.4 444.5 60.0L444.5 60.0Q444.2 59.4 443.8 59.1Q443.4 58.8 442.7 58.8Q442.1 58.8 441.6 59.1Q441.2 59.5 440.9 60.0L440.9 60.0Q440.7 60.4 440.7 60.9ZM450.2 65.2L450.2 65.2Q449.4 65.2 448.9 64.9Q448.3 64.7 447.9 64.3Q447.6 63.9 447.4 63.3L447.4 63.3L448.5 63.0Q448.7 63.6 449.1 63.9Q449.5 64.1 450.2 64.1L450.2 64.1Q450.9 64.1 451.3 63.8Q451.8 63.5 451.8 63.1L451.8 63.1Q451.8 62.7 451.5 62.5Q451.3 62.2 450.7 62.1L450.7 62.1L449.6 61.8Q448.6 61.6 448.1 61.1Q447.7 60.6 447.7 59.9L447.7 59.9Q447.7 59.3 448.0 58.8Q448.3 58.3 448.9 58.1Q449.5 57.8 450.3 57.8L450.3 57.8Q451.0 57.8 451.5 58.0Q452.0 58.3 452.4 58.6Q452.7 59.0 452.8 59.5L452.8 59.5L451.8 59.8Q451.7 59.4 451.3 59.1Q451.0 58.8 450.3 58.8L450.3 58.8Q449.7 58.8 449.2 59.1Q448.8 59.4 448.8 59.8L448.8 59.8Q448.8 60.2 449.1 60.4Q449.4 60.7 450.0 60.8L450.0 60.8L451.1 61.1Q452.0 61.3 452.5 61.8Q453.0 62.3 453.0 63.0L453.0 63.0Q453.0 63.6 452.6 64.1Q452.3 64.6 451.6 64.9Q451.0 65.2 450.2 65.2ZM455.6 67.3L454.7 67.3L455.3 63.7L456.6 63.7L455.6 67.3Z M464.1 65L462.9 65L462.9 55.5L464.1 55.5L464.1 61.0L464.2 61.0L467.2 57.9L468.7 57.9L465.7 61.0L468.9 65L467.4 65L464.8 61.7L464.1 62.4L464.1 65ZM473.4 65.1L473.4 65.1Q472.4 65.1 471.7 64.8Q470.9 64.4 470.5 63.9Q470.1 63.3 470.1 62.5L470.1 62.5Q470.1 61.9 470.4 61.4Q470.6 60.9 471.0 60.5Q471.4 60.2 472.0 60.1L472.0 60.1L472.0 60.0Q471.3 59.9 470.9 59.3Q470.5 58.7 470.5 57.9L470.5 57.9Q470.5 57.2 470.8 56.6Q471.2 56.1 471.9 55.7Q472.5 55.4 473.4 55.4L473.4 55.4Q474.2 55.4 474.9 55.7Q475.5 56.1 475.9 56.6Q476.3 57.2 476.3 57.9L476.3 57.9Q476.3 58.7 475.9 59.3Q475.4 59.9 474.8 60.0L474.8 60.0L474.8 60.1Q475.3 60.2 475.7 60.5Q476.1 60.9 476.4 61.4Q476.6 61.9 476.6 62.5L476.6 62.5Q476.6 63.3 476.2 63.9Q475.8 64.4 475.1 64.8Q474.3 65.1 473.4 65.1ZM473.4 64.1L473.4 64.1Q474.0 64.1 474.5 63.9Q474.9 63.7 475.2 63.3Q475.4 62.9 475.4 62.4L475.4 62.4Q475.4 61.9 475.1 61.5Q474.9 61.1 474.4 60.9Q474.0 60.6 473.4 60.6L473.4 60.6Q472.8 60.6 472.3 60.9Q471.8 61.1 471.6 61.5Q471.3 61.9 471.3 62.4L471.3 62.4Q471.3 62.9 471.6 63.3Q471.8 63.7 472.3 63.9Q472.7 64.1 473.4 64.1ZM473.4 59.6L473.4 59.6Q473.9 59.6 474.3 59.4Q474.6 59.2 474.9 58.9Q475.1 58.5 475.1 58.0L475.1 58.0Q475.1 57.5 474.9 57.2Q474.7 56.8 474.3 56.6Q473.9 56.5 473.4 56.5L473.4 56.5Q472.8 56.5 472.5 56.6Q472.1 56.8 471.9 57.2Q471.6 57.5 471.6 58.0L471.6 58.0Q471.6 58.5 471.9 58.9Q472.1 59.2 472.5 59.4Q472.9 59.6 473.4 59.6ZM481.1 65.2L481.1 65.2Q480.4 65.2 479.8 64.9Q479.2 64.7 478.9 64.3Q478.5 63.9 478.4 63.3L478.4 63.3L479.5 63.0Q479.6 63.6 480.0 63.9Q480.5 64.1 481.1 64.1L481.1 64.1Q481.8 64.1 482.3 63.8Q482.7 63.5 482.7 63.1L482.7 63.1Q482.7 62.7 482.5 62.5Q482.2 62.2 481.7 62.1L481.7 62.1L480.5 61.8Q479.5 61.6 479.1 61.1Q478.6 60.6 478.6 59.9L478.6 59.9Q478.6 59.3 478.9 58.8Q479.3 58.3 479.9 58.1Q480.5 57.8 481.2 57.8L481.2 57.8Q482.0 57.8 482.5 58.0Q483.0 58.3 483.3 58.6Q483.6 59.0 483.8 59.5L483.8 59.5L482.7 59.8Q482.6 59.4 482.3 59.1Q481.9 58.8 481.2 58.8L481.2 58.8Q480.6 58.8 480.2 59.1Q479.8 59.4 479.8 59.8L479.8 59.8Q479.8 60.2 480.0 60.4Q480.3 60.7 480.9 60.8L480.9 60.8L482.0 61.1Q483.0 61.3 483.4 61.8Q483.9 62.3 483.9 63.0L483.9 63.0Q483.9 63.6 483.6 64.1Q483.2 64.6 482.6 64.9Q481.9 65.2 481.1 65.2Z "/></g></svg>